<svg xmlns="http://www.w3.org/2000/svg" width="32" height="32" viewBox="0 0 32 32" fill="none">
  <path d="M15.7931 2C12.1362 2.00409 8.63025 3.4586 6.04442 6.04442C3.4586 8.63025 2.00409 12.1362 2 15.7931C2.00613 19.4494 3.46129 22.9542 6.04667 25.5395C8.63206 28.1249 12.1368 29.5801 15.7931 29.5862C19.4513 29.5862 22.9596 28.133 25.5463 25.5463C28.133 22.9596 29.5862 19.4513 29.5862 15.7931C29.5862 12.1349 28.133 8.62662 25.5463 6.03991C22.9596 3.4532 19.4513 2 15.7931 2ZM24.1826 23.7523C23.408 22.1898 22.2121 20.8749 20.7299 19.9559C19.2477 19.037 17.5382 18.5505 15.7942 18.5514C14.0503 18.5523 12.3413 19.0406 10.86 19.9611C9.37881 20.8817 8.18431 22.1978 7.41131 23.7611C5.34887 21.6221 4.19966 18.7645 4.2069 15.7931C4.2069 12.7203 5.42758 9.77325 7.60042 7.60042C9.77325 5.42758 12.7203 4.2069 15.7931 4.2069C18.866 4.2069 21.813 5.42758 23.9858 7.60042C26.1586 9.77325 27.3793 12.7203 27.3793 15.7931C27.3862 18.7603 26.24 21.6142 24.1826 23.7523ZM15.7931 7.51724C14.811 7.51724 13.851 7.80846 13.0344 8.35408C12.2178 8.8997 11.5814 9.67521 11.2056 10.5825C10.8297 11.4899 10.7314 12.4883 10.923 13.4515C11.1146 14.4147 11.5875 15.2995 12.282 15.9939C12.9764 16.6883 13.8612 17.1613 14.8244 17.3529C15.7876 17.5445 16.786 17.4461 17.6933 17.0703C18.6007 16.6945 19.3762 16.058 19.9218 15.2415C20.4674 14.4249 20.7586 13.4648 20.7586 12.4828C20.7586 11.8307 20.6302 11.185 20.3806 10.5825C20.1311 9.98009 19.7653 9.4327 19.3043 8.97161C18.8432 8.51052 18.2958 8.14476 17.6933 7.89522C17.0909 7.64568 16.4452 7.51724 15.7931 7.51724Z" fill="#202124"/>
</svg>