<svg width="26" height="32" viewBox="0 0 26 32" fill="none" xmlns="http://www.w3.org/2000/svg">
<g id="Apple logo">
<path d="M21.3481 16.8361C21.3793 14.4155 22.6793 12.125 24.7416 10.8572C23.4406 8.99909 21.2614 7.82102 18.9943 7.75009C16.5762 7.49628 14.2319 9.19705 12.9997 9.19705C11.7437 9.19705 9.84645 7.77529 7.80348 7.81733C5.14056 7.90336 2.65805 9.41735 1.36248 11.7455C-1.42248 16.5672 0.654847 23.6535 3.32261 27.551C4.65734 29.4595 6.21727 31.5914 8.25839 31.5158C10.2558 31.4329 11.0017 30.2421 13.4127 30.2421C15.8013 30.2421 16.5012 31.5158 18.5838 31.4677C20.727 31.4329 22.0774 29.5507 23.3653 27.6241C24.3243 26.2643 25.0623 24.7613 25.5518 23.1709C23.0331 22.1056 21.3511 19.5709 21.3481 16.8361Z" fill="#202124"/>
<path d="M17.4145 5.18689C18.5831 3.78403 19.1588 1.98089 19.0194 0.1604C17.2341 0.347918 15.5849 1.2012 14.4005 2.55024C13.2424 3.86832 12.6396 5.63973 12.7536 7.39064C14.5396 7.40903 16.2954 6.57887 17.4145 5.18689Z" fill="#202124"/>
</g>
</svg>
