<svg width="18" height="18" viewBox="0 0 18 18" fill="none" xmlns="http://www.w3.org/2000/svg">
<g id="Compare">
<path id="Vector" d="M16.4722 4.80543V5.55543C16.4722 5.75434 16.3932 5.94511 16.2525 6.08576C16.1119 6.22641 15.9211 6.30543 15.7222 6.30543H12.3472C12.2477 6.30543 12.1523 6.34494 12.082 6.41527C12.0117 6.48559 11.9722 6.58097 11.9722 6.68043V8.23188C11.9722 8.35057 11.937 8.4666 11.8711 8.56528C11.8052 8.66397 11.7114 8.74089 11.6018 8.78631C11.4921 8.83173 11.3715 8.8436 11.2551 8.82044C11.1387 8.79727 11.0317 8.7401 10.9478 8.65616L7.89638 5.60471C7.84066 5.54899 7.79647 5.48285 7.76631 5.41005C7.73616 5.33725 7.72063 5.25923 7.72063 5.18043C7.72063 5.10164 7.73616 5.02361 7.76631 4.95081C7.79647 4.87802 7.84066 4.81187 7.89638 4.75616L10.9478 1.70463C11.0317 1.62068 11.1387 1.56351 11.2551 1.54035C11.3715 1.51718 11.4922 1.52906 11.6018 1.57449C11.7115 1.61992 11.8052 1.69685 11.8711 1.79555C11.937 1.89425 11.9722 2.01029 11.9722 2.12898V3.68043C11.9722 3.77989 12.0117 3.87527 12.082 3.9456C12.1523 4.01592 12.2477 4.05543 12.3472 4.05543H15.7222C15.9211 4.05543 16.1119 4.13445 16.2525 4.2751C16.3932 4.41575 16.4722 4.60652 16.4722 4.80543ZM7.05218 9.34376C6.96827 9.25981 6.86136 9.20264 6.74495 9.17948C6.62855 9.15631 6.50789 9.16818 6.39823 9.2136C6.28858 9.25902 6.19486 9.33594 6.12893 9.43463C6.06299 9.53332 6.02781 9.64934 6.02783 9.76803V11.3195C6.02783 11.4189 5.98832 11.5143 5.918 11.5846C5.84767 11.655 5.75229 11.6945 5.65283 11.6945H2.27783C2.07892 11.6945 1.88815 11.7735 1.7475 11.9142C1.60685 12.0548 1.52783 12.2456 1.52783 12.4445V13.1945C1.52783 13.3934 1.60685 13.5842 1.7475 13.7248C1.88815 13.8655 2.07892 13.9445 2.27783 13.9445H5.65283C5.75229 13.9445 5.84767 13.984 5.918 14.0543C5.98832 14.1246 6.02783 14.22 6.02783 14.3195V15.8709C6.0278 15.9896 6.06297 16.1057 6.1289 16.2044C6.19482 16.3031 6.28854 16.38 6.3982 16.4254C6.50786 16.4708 6.62852 16.4827 6.74493 16.4596C6.86135 16.4364 6.96827 16.3792 7.05218 16.2953L10.1036 13.2438C10.1594 13.188 10.2035 13.1219 10.2337 13.0491C10.2639 12.9763 10.2794 12.8983 10.2794 12.8195C10.2794 12.7407 10.2639 12.6627 10.2337 12.5899C10.2035 12.5171 10.1594 12.4509 10.1036 12.3952L7.05218 9.34376Z" fill="white"/>
</g>
</svg>
