<svg width="12" height="13" viewBox="0 0 12 13" fill="none" xmlns="http://www.w3.org/2000/svg">
<g id="Download Files">
<path id="07 Download Files" d="M10.03 4.13431L7.3225 1.28431C7.18198 1.13622 6.99135 1.05292 6.7925 1.05273H2.5C2.30109 1.05273 2.11032 1.13591 1.96967 1.28397C1.82902 1.43202 1.75 1.63283 1.75 1.84221V3.158C1.75 3.22779 1.77634 3.29473 1.82322 3.34408C1.87011 3.39343 1.9337 3.42116 2 3.42116C2.0663 3.42116 2.12989 3.39343 2.17678 3.34408C2.22366 3.29473 2.25 3.22779 2.25 3.158V1.84221C2.25 1.77241 2.27634 1.70548 2.32322 1.65613C2.37011 1.60678 2.4337 1.57905 2.5 1.57905H6.75V3.94747C6.75 4.15685 6.82902 4.35766 6.96967 4.50571C7.11032 4.65377 7.30109 4.73694 7.5 4.73695H9.75V10.7896C9.75 10.8594 9.72366 10.9263 9.67678 10.9757C9.62989 11.025 9.5663 11.0527 9.5 11.0527H2.5C2.4337 11.0527 2.37011 11.025 2.32322 10.9757C2.27634 10.9263 2.25 10.8594 2.25 10.7896V4.21063C2.25 4.14084 2.22366 4.0739 2.17678 4.02455C2.12989 3.9752 2.0663 3.94747 2 3.94747C1.9337 3.94747 1.87011 3.9752 1.82322 4.02455C1.77634 4.0739 1.75 4.14084 1.75 4.21063V10.7896C1.75 10.999 1.82902 11.1998 1.96967 11.3478C2.11032 11.4959 2.30109 11.5791 2.5 11.5791H9.5C9.69891 11.5791 9.88968 11.4959 10.0303 11.3478C10.171 11.1998 10.25 10.999 10.25 10.7896V4.69221C10.2498 4.4829 10.1707 4.28223 10.03 4.13431ZM7.25 3.94747V1.9501L9.3975 4.21063H7.5C7.4337 4.21063 7.37011 4.1829 7.32322 4.13355C7.27634 4.0842 7.25 4.01727 7.25 3.94747ZM7.4275 7.97116C7.45093 7.99562 7.46953 8.02472 7.48222 8.05679C7.49492 8.08886 7.50145 8.12326 7.50145 8.158C7.50145 8.19274 7.49492 8.22713 7.48222 8.2592C7.46953 8.29127 7.45093 8.32038 7.4275 8.34484L6.1775 9.66063C6.15426 9.68529 6.12661 9.70487 6.09614 9.71823C6.06568 9.73159 6.033 9.73847 6 9.73847C5.967 9.73847 5.93432 9.73159 5.90386 9.71823C5.87339 9.70487 5.84574 9.68529 5.8225 9.66063L4.5725 8.34484C4.54919 8.3203 4.5307 8.29117 4.51809 8.25912C4.50547 8.22706 4.49898 8.1927 4.49898 8.158C4.49898 8.1233 4.50547 8.08894 4.51809 8.05688C4.5307 8.02482 4.54919 7.99569 4.5725 7.97116C4.59581 7.94662 4.62348 7.92716 4.65394 7.91388C4.68439 7.9006 4.71704 7.89376 4.75 7.89376C4.78296 7.89376 4.81561 7.9006 4.84606 7.91388C4.87652 7.92716 4.90419 7.94662 4.9275 7.97116L5.75 8.83958V5.78958C5.75 5.71978 5.77634 5.65285 5.82322 5.6035C5.87011 5.55414 5.9337 5.52642 6 5.52642C6.0663 5.52642 6.12989 5.55414 6.17678 5.6035C6.22366 5.65285 6.25 5.71978 6.25 5.78958V8.83958L7.0725 7.97116C7.09574 7.94649 7.12339 7.92691 7.15386 7.91355C7.18432 7.90019 7.217 7.89331 7.25 7.89331C7.283 7.89331 7.31568 7.90019 7.34614 7.91355C7.37661 7.92691 7.40426 7.94649 7.4275 7.97116Z" fill="#007CFF"/>
</g>
</svg>
