<svg xmlns="http://www.w3.org/2000/svg" class="edit-icon" width="24" height="24" viewBox="0 0 24 24" fill="none">
  <path d="M5.19844 21.6H17.1984C17.9422 21.5979 18.6547 21.3008 19.1797 20.7739C19.7046 20.247 19.9991 19.5334 19.9984 18.7896V12.76C19.9984 12.5478 19.9142 12.3443 19.7641 12.1943C19.6141 12.0443 19.4106 11.96 19.1984 11.96C18.9863 11.96 18.7828 12.0443 18.6328 12.1943C18.4827 12.3443 18.3984 12.5478 18.3984 12.76V18.7896C18.3995 19.1091 18.2737 19.4161 18.0488 19.643C17.8238 19.8699 17.518 19.9983 17.1984 20H5.19844C4.8789 19.9983 4.57308 19.8699 4.34811 19.643C4.12313 19.4161 3.99737 19.1091 3.99844 18.7896V6.8104C3.99737 6.49086 4.12313 6.18394 4.34811 5.95702C4.57308 5.73009 4.8789 5.60169 5.19844 5.6H11.1984C11.4106 5.6 11.6141 5.51571 11.7641 5.36569C11.9142 5.21566 11.9984 5.01217 11.9984 4.8C11.9984 4.58783 11.9142 4.38434 11.7641 4.23431C11.6141 4.08429 11.4106 4 11.1984 4H5.19844C4.45468 4.00212 3.74215 4.29923 3.2172 4.82612C2.69226 5.35301 2.3978 6.06664 2.39844 6.8104V18.7896C2.3978 19.5334 2.69226 20.247 3.2172 20.7739C3.74215 21.3008 4.45468 21.5979 5.19844 21.6Z" fill="#70757A"/>
  <path d="M9.96204 10.8353L9.33084 13.7265C9.30227 13.8576 9.30715 13.9938 9.34503 14.1226C9.38292 14.2514 9.45259 14.3685 9.54764 14.4633C9.64399 14.5557 9.76119 14.6235 9.88931 14.6609C10.0174 14.6984 10.1527 14.7044 10.2836 14.6785L13.1684 14.0457C13.3182 14.0128 13.4554 13.9375 13.5636 13.8289L20.8548 6.53768C21.0777 6.31481 21.2546 6.05022 21.3752 5.75901C21.4958 5.4678 21.5579 5.15568 21.5579 4.84048C21.5579 4.52527 21.4958 4.21315 21.3752 3.92194C21.2546 3.63073 21.0777 3.36614 20.8548 3.14328C20.3979 2.70659 19.7901 2.46289 19.158 2.46289C18.526 2.46289 17.9182 2.70659 17.4612 3.14328L10.1812 10.4417C10.072 10.5492 9.99589 10.6858 9.96204 10.8353ZM18.5924 4.27528C18.7446 4.12947 18.9473 4.04807 19.158 4.04807C19.3688 4.04807 19.5714 4.12947 19.7236 4.27528C19.8716 4.42618 19.9545 4.62911 19.9545 4.84048C19.9545 5.05184 19.8716 5.25477 19.7236 5.40568L19.158 5.97128L18.0268 4.84008L18.5924 4.27528ZM11.4724 11.4065L16.8916 5.97368L18.0116 7.09928L12.59 12.5337L11.154 12.8489L11.4724 11.4065Z" fill="#70757A"/>
</svg>