<svg xmlns="http://www.w3.org/2000/svg" width="24" height="24" viewBox="0 0 24 24" fill="none">
  <path d="M21.0007 3.604C20.9968 3.58215 20.9905 3.56078 20.982 3.54025L20.9595 3.4615C20.9595 3.439 20.9333 3.4165 20.922 3.39025C20.9121 3.3707 20.9009 3.3519 20.8883 3.334C20.8354 3.25104 20.765 3.18065 20.682 3.12775C20.6649 3.1149 20.6459 3.10478 20.6257 3.09775L20.5507 3.0565L20.4757 3.034L20.397 3.00025C20.3484 2.99471 20.2993 2.99471 20.2507 3.00025H16.5833C16.3843 3.00025 16.1936 3.07927 16.0529 3.21992C15.9123 3.36057 15.8333 3.55134 15.8333 3.75025C15.8333 3.94916 15.9123 4.13993 16.0529 4.28058C16.1936 4.42123 16.3843 4.50025 16.5833 4.50025H18.4583L11.472 11.4715C11.3323 11.612 11.2539 11.8021 11.2539 12.0003C11.2539 12.1984 11.3323 12.3885 11.472 12.529C11.6125 12.6687 11.8026 12.7471 12.0008 12.7471C12.1989 12.7471 12.389 12.6687 12.5295 12.529L19.5007 5.5615V7.4365C19.5007 7.63541 19.5798 7.82618 19.7204 7.96683C19.8611 8.10748 20.0518 8.1865 20.2507 8.1865C20.4497 8.1865 20.6404 8.10748 20.7811 7.96683C20.9217 7.82618 21.0007 7.63541 21.0007 7.4365V3.75025C21.0063 3.70166 21.0063 3.65259 21.0007 3.604Z" fill="#DC143C"/>
  <path d="M20.25 11.25C20.0511 11.25 19.8603 11.329 19.7197 11.4697C19.579 11.6103 19.5 11.8011 19.5 12V18.375C19.5 18.6734 19.3815 18.9595 19.1705 19.1705C18.9595 19.3815 18.6734 19.5 18.375 19.5H5.625C5.32663 19.5 5.04048 19.3815 4.8295 19.1705C4.61853 18.9595 4.5 18.6734 4.5 18.375V5.625C4.5 5.32663 4.61853 5.04048 4.8295 4.8295C5.04048 4.61853 5.32663 4.5 5.625 4.5H12C12.1989 4.5 12.3897 4.42098 12.5303 4.28033C12.671 4.13968 12.75 3.94891 12.75 3.75C12.75 3.55109 12.671 3.36032 12.5303 3.21967C12.3897 3.07902 12.1989 3 12 3H5.625C4.92881 3 4.26113 3.27656 3.76884 3.76884C3.27656 4.26113 3 4.92881 3 5.625V18.375C3 19.0712 3.27656 19.7389 3.76884 20.2312C4.26113 20.7234 4.92881 21 5.625 21H18.375C19.0712 21 19.7389 20.7234 20.2312 20.2312C20.7234 19.7389 21 19.0712 21 18.375V12C21 11.8011 20.921 11.6103 20.7803 11.4697C20.6397 11.329 20.4489 11.25 20.25 11.25Z" fill="#DC143C"/>
</svg>