<svg width="94" height="75" viewBox="0 0 94 75" fill="none" xmlns="http://www.w3.org/2000/svg">
<g id="fa-regular:handshake" clip-path="url(#clip0_1_523)">
<path id="Vector" d="M76.0547 18.7354L69.082 11.7627C67.5389 10.2331 65.454 9.37498 63.2812 9.375H30.0586C27.8906 9.375 25.7959 10.2393 24.2578 11.7627L17.2852 18.7354H0V56.1914H9.375C11.9531 56.1914 14.0332 54.1113 14.0479 51.5479H15.3809L27.7734 62.7393C32.2998 66.416 38.584 66.5039 43.2422 63.2959C45.0732 64.8779 47.0508 65.625 49.2627 65.625C51.9287 65.625 54.4336 64.541 56.4111 62.1094C59.6484 63.3838 63.4717 62.4902 65.7861 59.6484L69.624 54.917C70.4443 53.9062 70.957 52.749 71.2207 51.5479H79.7021C79.7168 54.1113 81.8115 56.1914 84.375 56.1914H93.75V18.7354H76.0547ZM7.03125 51.5039C5.74219 51.5039 4.6875 50.4492 4.6875 49.1602C4.6875 47.8711 5.74219 46.8164 7.03125 46.8164C8.32031 46.8164 9.375 47.8711 9.375 49.1602C9.375 50.4639 8.32031 51.5039 7.03125 51.5039ZM64.1602 50.4932L60.3369 55.21C59.9268 55.708 59.1943 55.7959 58.6816 55.3857L55.1807 52.5439L50.7861 57.8906C49.9072 58.96 48.5889 58.5938 48.1494 58.2422L42.7588 53.6279L40.4736 56.4404C38.4375 58.9453 34.7314 59.3262 32.373 57.4072L18.1201 44.5166H14.0625V25.752H20.2002L29.2383 16.7285C29.5312 16.6113 29.7803 16.5088 30.0732 16.3916H38.3789L32.71 21.5918C28.4033 25.5322 28.1543 32.1826 32.0654 36.4307C34.2334 38.8037 41.0303 42.4658 46.9336 37.0752L48.1348 35.9766L63.9844 48.8379C64.4824 49.248 64.5557 49.9951 64.1602 50.4932ZM79.6875 44.5166H69.5508C69.2139 44.1064 68.833 43.7256 68.4229 43.3887L53.3789 31.1719L55.21 29.502C56.1621 28.623 56.2354 27.1436 55.3564 26.1914L53.7598 24.4775C52.8809 23.5254 51.4014 23.4668 50.4492 24.3311L42.3633 31.7432C40.9717 33.0176 38.5986 33.1201 37.2949 31.7432C35.9326 30.293 36.0498 28.0664 37.4707 26.7773L47.0801 17.9736C48.1641 16.9775 49.5703 16.4355 51.0352 16.4355L63.2959 16.4062C63.6035 16.4062 63.8965 16.5234 64.1016 16.7432L73.1396 25.7666H79.6875V44.5166ZM86.7188 51.5039C85.4297 51.5039 84.375 50.4492 84.375 49.1602C84.375 47.8711 85.4297 46.8164 86.7188 46.8164C88.0078 46.8164 89.0625 47.8711 89.0625 49.1602C89.0625 50.4639 88.0078 51.5039 86.7188 51.5039Z" fill="white"/>
</g>
<defs>
<clipPath id="clip0_1_523">
<rect width="93.75" height="75" fill="white"/>
</clipPath>
</defs>
</svg>
