<svg width="24" height="24" viewBox="0 0 24 24" fill="none" xmlns="http://www.w3.org/2000/svg">
<g id="Google Maps" clip-path="url(#clip0_187_1072)">
<path id="Vector" d="M19.0465 6.62525L19.0435 6.6281C19.1063 6.80202 19.1648 6.97813 19.2149 7.15775C19.1641 6.9779 19.1095 6.79963 19.0465 6.62525ZM11.9995 1.67188L6.69629 3.86885L9.74324 6.91587C10.3388 6.31623 11.1481 5.97773 11.9933 5.97483C12.8384 5.97194 13.65 6.30488 14.2497 6.90042C14.8493 7.49597 15.1878 8.30533 15.1907 9.15045C15.1936 9.99557 14.8607 10.8072 14.2651 11.4069L18.7495 6.92187L19.0435 6.6281C18.522 5.17764 17.5657 3.92316 16.3051 3.03621C15.0445 2.14927 13.5409 1.67282 11.9995 1.67188Z" fill="#4285F4"/>
<path id="Vector_2" d="M12 12.3546C11.37 12.3545 10.7541 12.1677 10.2302 11.8178C9.70626 11.4679 9.29779 10.9705 9.05636 10.3886C8.81493 9.80668 8.75136 9.16624 8.8737 8.5482C8.99604 7.93017 9.29879 7.36224 9.74371 6.91617L6.69676 3.86914C5.99929 4.56476 5.44616 5.39136 5.06917 6.30143C4.69218 7.2115 4.49875 8.1871 4.50001 9.17217C4.50001 12.4764 6.19883 14.5473 8.19751 16.6722C8.33153 16.8093 8.44306 16.9611 8.56943 17.1031L14.24 11.4324C13.6445 12.0237 12.8392 12.3553 12 12.3546Z" fill="#FFBA00"/>
<path id="Vector_3" d="M12 1.67188C10.0109 1.67188 8.10323 2.46205 6.69671 3.86857C5.29019 5.2751 4.50001 7.18275 4.50001 9.17188C4.49849 10.0517 4.63655 10.9262 4.90906 11.7628L14.5469 2.12532C13.7308 1.82714 12.8689 1.67369 12 1.67188Z" fill="#0066DA"/>
<path id="Vector_4" d="M12.6757 21.8394C13.357 19.9439 14.3822 18.1904 15.6997 16.6669C17.8481 14.484 19.4999 12.4763 19.4999 9.17185C19.4982 8.30301 19.3448 7.44114 19.0468 6.625L8.56934 17.1025C9.77558 18.4736 10.6918 20.0747 11.2629 21.8094C11.3108 21.9571 11.4035 22.0863 11.5282 22.179C11.6529 22.2717 11.8033 22.3232 11.9586 22.3265C12.114 22.3298 12.2665 22.2847 12.395 22.1974C12.5235 22.1101 12.6216 21.985 12.6757 21.8394Z" fill="#00AC47"/>
<path id="Vector_5" d="M11.2629 21.8098C11.1095 21.358 10.9368 20.9188 10.745 20.4923C10.9344 20.9201 11.1095 21.3576 11.2629 21.8098Z" fill="white"/>
<path id="Vector_6" d="M12.7852 21.5812C12.961 21.1377 13.15 20.702 13.3522 20.2741C13.1488 20.7012 12.961 21.1377 12.7852 21.5812ZM14.0101 19.0195C13.7941 19.3913 13.5976 19.7746 13.4101 20.1627C13.5976 19.7743 13.7949 19.3918 14.0101 19.0195Z" fill="white"/>
<path id="Vector_7" d="M6.69676 3.86914C5.99929 4.56476 5.44617 5.39136 5.06918 6.30143C4.69218 7.2115 4.49876 8.1871 4.50001 9.17217C4.49849 10.052 4.63655 10.9265 4.90906 11.7631L9.75001 6.92217L6.69676 3.86914Z" fill="#EA4435"/>
</g>
<defs>
<clipPath id="clip0_187_1072">
<rect width="24" height="24" fill="white"/>
</clipPath>
</defs>
</svg>
