<svg width="14" height="14" viewBox="0 0 14 14" fill="none" xmlns="http://www.w3.org/2000/svg">
<g id="streamline:interface-favorite-star-reward-rating-rate-social-star-media-favorite-like-stars" clip-path="url(#clip0_187_1070)">
<path id="Vector" d="M7.49015 1.08845L9.08015 4.29845C9.11632 4.37993 9.1732 4.4505 9.24514 4.50314C9.31708 4.55578 9.40156 4.58864 9.49015 4.59845L13.0002 5.11845C13.1018 5.13152 13.1976 5.17323 13.2764 5.23871C13.3552 5.30419 13.4138 5.39075 13.4452 5.48827C13.4767 5.58578 13.4798 5.69024 13.4541 5.78943C13.4284 5.88863 13.375 5.97847 13.3002 6.04845L10.7702 8.55845C10.7056 8.61878 10.6571 8.6943 10.6292 8.77813C10.6012 8.86196 10.5947 8.95145 10.6102 9.03845L11.2202 12.5685C11.2378 12.6699 11.2267 12.7742 11.1879 12.8696C11.1492 12.965 11.0845 13.0477 11.0011 13.1081C10.9178 13.1685 10.8191 13.2043 10.7164 13.2115C10.6137 13.2186 10.5111 13.1968 10.4202 13.1485L7.26016 11.4785C7.17924 11.4387 7.0903 11.4181 7.00015 11.4181C6.91001 11.4181 6.82107 11.4387 6.74015 11.4785L3.58015 13.1485C3.48924 13.1968 3.38659 13.2186 3.28388 13.2115C3.18117 13.2043 3.08253 13.1685 2.99917 13.1081C2.91581 13.0477 2.85109 12.965 2.81238 12.8696C2.77366 12.7742 2.76249 12.6699 2.78015 12.5685L3.39016 8.99845C3.40562 8.91145 3.39908 8.82196 3.37113 8.73813C3.34319 8.6543 3.29473 8.57878 3.23015 8.51845L0.670155 6.04845C0.594418 5.97655 0.541155 5.88423 0.516819 5.78267C0.492483 5.68111 0.498119 5.57467 0.533042 5.47625C0.567966 5.37783 0.630679 5.29165 0.713586 5.22814C0.796493 5.16464 0.896035 5.12654 1.00016 5.11845L4.51016 4.59845C4.59875 4.58864 4.68323 4.55578 4.75517 4.50314C4.82711 4.4505 4.88399 4.37993 4.92016 4.29845L6.51016 1.08845C6.55345 0.994963 6.6226 0.91581 6.70942 0.860338C6.79624 0.804866 6.89712 0.775391 7.00015 0.775391C7.10319 0.775391 7.20407 0.804866 7.29089 0.860338C7.37771 0.91581 7.44686 0.994963 7.49015 1.08845Z" fill="url(#paint0_linear_187_1070)" stroke="#70757A" stroke-opacity="0.6" stroke-width="0.2" stroke-linecap="round" stroke-linejoin="round"/>
</g>
<defs>
<linearGradient id="paint0_linear_187_1070" x1="0.777669" y1="5.44358" x2="13.2221" y2="5.44358" gradientUnits="userSpaceOnUse">
<stop stop-color="#FEC417"/>
<stop offset="0.486033" stop-color="#FEC417"/>
<stop offset="0.604401" stop-color="#FEC417" stop-opacity="0"/>
</linearGradient>
<clipPath id="clip0_187_1070">
<rect width="14" height="14" fill="white"/>
</clipPath>
</defs>
</svg>
