<svg xmlns="http://www.w3.org/2000/svg" width="20" height="24" viewBox="0 0 20 24" fill="none">
  <path d="M18.05 11H1.95C1.42533 11 1 11.4253 1 11.95V12.05C1 12.5747 1.42533 13 1.95 13H18.05C18.5747 13 19 12.5747 19 12.05V11.95C19 11.4253 18.5747 11 18.05 11Z" fill="#202124"/>
  <path d="M18.05 16H1.95C1.42533 16 1 16.4253 1 16.95V17.05C1 17.5747 1.42533 18 1.95 18H18.05C18.5747 18 19 17.5747 19 17.05V16.95C19 16.4253 18.5747 16 18.05 16Z" fill="#202124"/>
  <path d="M18.05 6H1.95C1.42533 6 1 6.42533 1 6.95V7.05C1 7.57467 1.42533 8 1.95 8H18.05C18.5747 8 19 7.57467 19 7.05V6.95C19 6.42533 18.5747 6 18.05 6Z" fill="#202124"/>
</svg>