<svg width="22" class="heart-icon" height="20" viewBox="0 0 22 20" fill="none" xmlns="http://www.w3.org/2000/svg">
<g id="heart" clip-path="url(#clip0_260_651)">
<path id="Vector" d="M10.2594 2.77168L10.8333 3.45406L11.4073 2.77167C12.4618 1.51801 14.0418 0.75 15.7083 0.75C18.6483 0.75 20.9167 3.0256 20.9167 5.99453C20.9167 7.82056 20.1118 9.52261 18.5459 11.4475C17.0064 13.3398 14.8071 15.3589 12.0899 17.8533C12.0268 17.9113 11.9633 17.9695 11.8996 18.0281C11.8988 18.0288 11.898 18.0295 11.8971 18.0303L10.8333 18.9899L9.76952 18.0303C9.76871 18.0296 9.76791 18.0288 9.7671 18.0281C9.70353 17.9697 9.64023 17.9116 9.5772 17.8537C6.85979 15.3591 4.66032 13.34 3.12079 11.4476C1.55482 9.52266 0.75 7.82059 0.75 5.99453C0.75 3.0256 3.01838 0.75 5.95833 0.75C7.62484 0.75 9.20486 1.518 10.2594 2.77168Z" fill="white" stroke="#70757A" stroke-width="1.5"/>
</g>
<defs>
<clipPath id="clip0_260_651">
<rect width="21.6667" height="20" fill="white"/>
</clipPath>
</defs>
</svg>
