<svg width="24" height="24" viewBox="0 0 24 24" fill="none" xmlns="http://www.w3.org/2000/svg">
<path d="M11.19 1.36L4.19 4.47C3.47 4.79 3 5.51 3 6.3V11C3 16.55 6.84 21.74 12 23C17.16 21.74 21 16.55 21 11V6.3C21 5.51 20.53 4.79 19.81 4.47L12.81 1.36C12.3 1.13 11.7 1.13 11.19 1.36ZM9.29 16.29L6.7 13.7C6.60742 13.6074 6.53398 13.4975 6.48387 13.3765C6.43377 13.2556 6.40798 13.1259 6.40798 12.995C6.40798 12.8641 6.43377 12.7344 6.48387 12.6135C6.53398 12.4925 6.60742 12.3826 6.7 12.29C6.79258 12.1974 6.90249 12.124 7.02346 12.0739C7.14442 12.0238 7.27407 11.998 7.405 11.998C7.53593 11.998 7.66558 12.0238 7.78654 12.0739C7.90751 12.124 8.01742 12.1974 8.11 12.29L10 14.17L15.88 8.29C15.9726 8.19742 16.0825 8.12398 16.2035 8.07387C16.3244 8.02377 16.4541 7.99798 16.585 7.99798C16.7159 7.99798 16.8456 8.02377 16.9665 8.07387C17.0875 8.12398 17.1974 8.19742 17.29 8.29C17.3826 8.38258 17.456 8.49249 17.5061 8.61346C17.5562 8.73442 17.582 8.86407 17.582 8.995C17.582 9.12593 17.5562 9.25558 17.5061 9.37654C17.456 9.49751 17.3826 9.60742 17.29 9.7L10.7 16.29C10.6075 16.3827 10.4976 16.4563 10.3766 16.5064C10.2557 16.5566 10.126 16.5824 9.995 16.5824C9.86403 16.5824 9.73435 16.5566 9.61338 16.5064C9.4924 16.4563 9.38251 16.3827 9.29 16.29Z" fill="#FCC219"/>
</svg>
