<svg width="24" height="24" viewBox="0 0 24 24" fill="none" xmlns="http://www.w3.org/2000/svg">
<g id="icon-park-solid:voice" clip-path="url(#clip0_1_553)">
<g id="Mask group" filter="url(#filter0_d_1_553)">
<mask id="mask0_1_553" style="mask-type:luminance" maskUnits="userSpaceOnUse" x="3" y="1" width="18" height="22">
<g id="Group">
<g id="Group_2">
<path id="Vector" d="M15.5 5.5C15.5 3.567 13.933 2 12 2C10.067 2 8.5 3.567 8.5 5.5V12C8.5 13.933 10.067 15.5 12 15.5C13.933 15.5 15.5 13.933 15.5 12V5.5Z" fill="white" stroke="white" stroke-width="2" stroke-linejoin="round"/>
<path id="Vector_2" d="M4.5 11.5C4.5 15.642 7.858 19 12 19M12 19C16.142 19 19.5 15.642 19.5 11.5M12 19V22" stroke="white" stroke-width="2" stroke-linecap="round" stroke-linejoin="round"/>
</g>
</g>
</mask>
<g mask="url(#mask0_1_553)">
<path id="Vector_3" d="M0 0H24V24H0V0Z" fill="white"/>
</g>
</g>
</g>
<defs>
<filter id="filter0_d_1_553" x="-0.5" y="-2.5" width="25" height="30" filterUnits="userSpaceOnUse" color-interpolation-filters="sRGB">
<feFlood flood-opacity="0" result="BackgroundImageFix"/>
<feColorMatrix in="SourceAlpha" type="matrix" values="0 0 0 0 0 0 0 0 0 0 0 0 0 0 0 0 0 0 127 0" result="hardAlpha"/>
<feOffset dy="0.5"/>
<feGaussianBlur stdDeviation="2"/>
<feComposite in2="hardAlpha" operator="out"/>
<feColorMatrix type="matrix" values="0 0 0 0 0 0 0 0 0 0 0 0 0 0 0 0 0 0 0.25 0"/>
<feBlend mode="normal" in2="BackgroundImageFix" result="effect1_dropShadow_1_553"/>
<feBlend mode="normal" in="SourceGraphic" in2="effect1_dropShadow_1_553" result="shape"/>
</filter>
<clipPath id="clip0_1_553">
<rect width="24" height="24" fill="white"/>
</clipPath>
</defs>
</svg>
