<svg width="75" height="75" viewBox="0 0 75 75" fill="none" xmlns="http://www.w3.org/2000/svg">
<g id="iconoir:group">
<g id="Group">
<path id="Vector" d="M3.125 62.5V59.375C3.125 53.5734 5.42968 48.0094 9.53204 43.907C13.6344 39.8047 19.1984 37.5 25 37.5C30.8016 37.5 36.3656 39.8047 40.468 43.907C44.5703 48.0094 46.875 53.5734 46.875 59.375V62.5" stroke="white" stroke-width="4.6875" stroke-linecap="round"/>
<path id="Vector_2" d="M40.625 43.75C40.625 39.606 42.2712 35.6317 45.2015 32.7015C48.1317 29.7712 52.106 28.125 56.25 28.125C58.3019 28.125 60.3337 28.5292 62.2294 29.3144C64.1251 30.0996 65.8476 31.2505 67.2985 32.7015C68.7495 34.1524 69.9004 35.8749 70.6856 37.7706C71.4708 39.6663 71.875 41.6981 71.875 43.75V45.3125" stroke="white" stroke-width="4.6875" stroke-linecap="round"/>
<path id="Vector_3" d="M25 37.5C28.3152 37.5 31.4946 36.183 33.8388 33.8388C36.183 31.4946 37.5 28.3152 37.5 25C37.5 21.6848 36.183 18.5054 33.8388 16.1612C31.4946 13.817 28.3152 12.5 25 12.5C21.6848 12.5 18.5054 13.817 16.1612 16.1612C13.817 18.5054 12.5 21.6848 12.5 25C12.5 28.3152 13.817 31.4946 16.1612 33.8388C18.5054 36.183 21.6848 37.5 25 37.5ZM56.25 28.125C58.7364 28.125 61.121 27.1373 62.8791 25.3791C64.6373 23.621 65.625 21.2364 65.625 18.75C65.625 16.2636 64.6373 13.879 62.8791 12.1209C61.121 10.3627 58.7364 9.375 56.25 9.375C53.7636 9.375 51.379 10.3627 49.6209 12.1209C47.8627 13.879 46.875 16.2636 46.875 18.75C46.875 21.2364 47.8627 23.621 49.6209 25.3791C51.379 27.1373 53.7636 28.125 56.25 28.125Z" stroke="white" stroke-width="4.6875" stroke-linecap="round" stroke-linejoin="round"/>
</g>
</g>
</svg>
