<svg width="30" height="30" viewBox="0 0 30 30" fill="none" xmlns="http://www.w3.org/2000/svg">
<g id="iconamoon:search">
<path id="Vector" d="M26.2503 26.2503L20.8215 20.8215M20.8215 20.8215C21.7501 19.8929 22.4867 18.7905 22.9893 17.5772C23.4918 16.3639 23.7505 15.0635 23.7505 13.7503C23.7505 12.437 23.4919 11.1366 22.9893 9.92332C22.4867 8.71004 21.7501 7.60762 20.8215 6.67901C19.8929 5.7504 18.7905 5.01378 17.5772 4.51122C16.3639 4.00866 15.0635 3.75 13.7503 3.75C12.437 3.75 11.1366 4.00866 9.92332 4.51122C8.71004 5.01378 7.60762 5.7504 6.67901 6.67901C4.8036 8.55442 3.75 11.098 3.75 13.7503C3.75 16.4025 4.8036 18.9461 6.67901 20.8215C8.55442 22.6969 11.098 23.7505 13.7503 23.7505C16.4025 23.7505 18.9461 22.6969 20.8215 20.8215Z" stroke="#202124" stroke-width="2.5" stroke-linecap="round" stroke-linejoin="round"/>
</g>
</svg>
