<svg width="20" height="20" viewBox="0 0 20 20" fill="none" xmlns="http://www.w3.org/2000/svg">
<g id="Images">
<path id="Vector" d="M17.8756 5.47538L14.6529 5.31913L14.4654 3.21757C14.4264 2.77616 14.0318 2.46757 13.5709 2.50273L2.00841 3.45194C1.54747 3.49101 1.21544 3.8621 1.2506 4.2996L2.07872 13.5105C2.11779 13.9519 2.51622 14.2605 2.97325 14.2254L3.55919 14.1785L3.46544 15.9676C3.442 16.4598 3.82482 16.8582 4.34044 16.8855L17.2389 17.4988C17.7545 17.5223 18.1803 17.1629 18.2076 16.6707L18.7506 6.38554C18.774 5.89726 18.3873 5.49882 17.8756 5.47538ZM4.00841 5.68241L3.73107 10.948L3.05138 11.9129L2.42638 4.95976V4.94023V4.92069C2.44591 4.72538 2.59435 4.56913 2.79747 4.55351L12.9928 3.71757C13.1959 3.70194 13.3717 3.83476 13.4029 4.02616C13.4029 4.03398 13.4147 4.03398 13.4147 4.04179C13.4147 4.04569 13.4264 4.0496 13.4264 4.05741L13.5318 5.26054L4.97716 4.85038C4.46154 4.83476 4.03185 5.19413 4.00841 5.68241ZM17.0592 14.9363L15.235 12.7762L14.1608 11.4988C14.067 11.3855 13.9147 11.2918 13.7467 11.284C13.5787 11.2762 13.4537 11.3426 13.3131 11.4441L12.6725 11.909C12.5358 11.991 12.4303 12.0457 12.2858 12.0379C12.1451 12.0301 12.0201 11.9754 11.9303 11.8894C11.899 11.8582 11.8404 11.8035 11.7936 11.7566L10.1217 9.84648C10.0006 9.69413 9.80138 9.59648 9.58263 9.58476C9.35997 9.57304 9.14513 9.66679 9.00451 9.80351L5.05529 14.0535L4.78966 14.3426L4.80138 14.0769L5.067 9.04179L5.19591 6.58476V6.56523V6.54569C5.2506 6.33476 5.4381 6.18241 5.66075 6.19413L13.6373 6.57694L14.7584 6.63163L17.0358 6.74101C17.2623 6.75273 17.4381 6.9246 17.442 7.13944C17.442 7.14726 17.4537 7.15116 17.4537 7.15898C17.4537 7.16679 17.4654 7.17069 17.4654 7.17851L17.0592 14.9363Z" fill="white"/>
<path id="Vector_2" d="M14.5781 10.2461C15.3359 10.2461 15.9531 9.62891 15.9531 8.87109C15.9531 8.11328 15.3398 7.49609 14.5781 7.49609C13.8203 7.49609 13.2031 8.10938 13.2031 8.87109C13.2031 9.63281 13.8164 10.2461 14.5781 10.2461Z" fill="white"/>
</g>
</svg>
