<svg width="120" height="20" viewBox="0 0 120 20" fill="none" xmlns="http://www.w3.org/2000/svg">
<path d="M11.2012 5.09766C10.9733 4.11458 10.4167 3.42773 9.53125 3.03711C9.03646 2.82227 8.48633 2.71484 7.88086 2.71484C6.72201 2.71484 5.76823 3.1543 5.01953 4.0332C4.27734 4.9056 3.90625 6.2207 3.90625 7.97852C3.90625 9.74935 4.3099 11.0026 5.11719 11.7383C5.92448 12.474 6.84245 12.8418 7.87109 12.8418C8.88021 12.8418 9.70703 12.5521 10.3516 11.9727C10.9961 11.3867 11.3932 10.6217 11.543 9.67773H8.21289V7.27539H14.209V15H12.2168L11.9141 13.2031C11.3346 13.8867 10.8138 14.3685 10.3516 14.6484C9.55729 15.1367 8.58073 15.3809 7.42188 15.3809C5.51432 15.3809 3.95182 14.7201 2.73438 13.3984C1.46484 12.0703 0.830078 10.2539 0.830078 7.94922C0.830078 5.61849 1.47135 3.75 2.75391 2.34375C4.03646 0.9375 5.73242 0.234375 7.8418 0.234375C9.67122 0.234375 11.1393 0.69987 12.2461 1.63086C13.3594 2.55534 13.9974 3.71094 14.1602 5.09766H11.2012ZM23.6406 13.0371C24.4544 13.0371 25.0794 12.7474 25.5156 12.168C25.9518 11.5885 26.1699 10.765 26.1699 9.69727C26.1699 8.62956 25.9518 7.80924 25.5156 7.23633C25.0794 6.6569 24.4544 6.36719 23.6406 6.36719C22.8268 6.36719 22.1986 6.6569 21.7559 7.23633C21.3197 7.80924 21.1016 8.62956 21.1016 9.69727C21.1016 10.765 21.3197 11.5885 21.7559 12.168C22.1986 12.7474 22.8268 13.0371 23.6406 13.0371ZM29.0898 9.69727C29.0898 11.2598 28.6406 12.5977 27.7422 13.7109C26.8438 14.8177 25.4798 15.3711 23.6504 15.3711C21.821 15.3711 20.457 14.8177 19.5586 13.7109C18.6602 12.5977 18.2109 11.2598 18.2109 9.69727C18.2109 8.16081 18.6602 6.82943 19.5586 5.70312C20.457 4.57682 21.821 4.01367 23.6504 4.01367C25.4798 4.01367 26.8438 4.57682 27.7422 5.70312C28.6406 6.82943 29.0898 8.16081 29.0898 9.69727ZM48.9883 5.18555C48.9883 4.43685 48.7897 3.90299 48.3926 3.58398C48.002 3.26497 47.4518 3.10547 46.7422 3.10547H43.9395V7.34375H46.7422C47.4518 7.34375 48.002 7.17122 48.3926 6.82617C48.7897 6.48112 48.9883 5.93424 48.9883 5.18555ZM51.9668 5.16602C51.9668 6.86523 51.5371 8.06641 50.6777 8.76953C49.8184 9.47266 48.5911 9.82422 46.9961 9.82422H43.9395V15H40.9512V0.605469H47.2207C48.666 0.605469 49.8184 0.976562 50.6777 1.71875C51.5371 2.46094 51.9668 3.61003 51.9668 5.16602ZM61.7793 4.10156C61.8314 4.10156 61.8737 4.10482 61.9062 4.11133C61.9453 4.11133 62.0267 4.11458 62.1504 4.12109V6.97266C61.9746 6.95312 61.8184 6.9401 61.6816 6.93359C61.5449 6.92708 61.4342 6.92383 61.3496 6.92383C60.2298 6.92383 59.4779 7.28841 59.0938 8.01758C58.8789 8.42773 58.7715 9.05924 58.7715 9.91211V15H55.9688V4.35547H58.625V6.21094C59.0547 5.5013 59.429 5.01628 59.748 4.75586C60.2689 4.31966 60.946 4.10156 61.7793 4.10156ZM70.5664 13.0371C71.3802 13.0371 72.0052 12.7474 72.4414 12.168C72.8776 11.5885 73.0957 10.765 73.0957 9.69727C73.0957 8.62956 72.8776 7.80924 72.4414 7.23633C72.0052 6.6569 71.3802 6.36719 70.5664 6.36719C69.7526 6.36719 69.1243 6.6569 68.6816 7.23633C68.2454 7.80924 68.0273 8.62956 68.0273 9.69727C68.0273 10.765 68.2454 11.5885 68.6816 12.168C69.1243 12.7474 69.7526 13.0371 70.5664 13.0371ZM76.0156 9.69727C76.0156 11.2598 75.5664 12.5977 74.668 13.7109C73.7695 14.8177 72.4056 15.3711 70.5762 15.3711C68.7467 15.3711 67.3828 14.8177 66.4844 13.7109C65.5859 12.5977 65.1367 11.2598 65.1367 9.69727C65.1367 8.16081 65.5859 6.82943 66.4844 5.70312C67.3828 4.57682 68.7467 4.01367 70.5762 4.01367C72.4056 4.01367 73.7695 4.57682 74.668 5.70312C75.5664 6.82943 76.0156 8.16081 76.0156 9.69727ZM87.3516 9.67773C87.3516 8.85742 87.1628 8.13151 86.7852 7.5C86.4141 6.86849 85.8086 6.55273 84.9688 6.55273C83.9596 6.55273 83.2663 7.03125 82.8887 7.98828C82.6934 8.49609 82.5957 9.14062 82.5957 9.92188C82.5957 11.1589 82.9245 12.028 83.582 12.5293C83.9727 12.8223 84.4349 12.9688 84.9688 12.9688C85.7435 12.9688 86.3327 12.6693 86.7363 12.0703C87.1465 11.4714 87.3516 10.6738 87.3516 9.67773ZM85.7695 4.12109C87.013 4.12109 88.0645 4.58008 88.9238 5.49805C89.7897 6.41602 90.2227 7.76367 90.2227 9.54102C90.2227 11.416 89.7995 12.8451 88.9531 13.8281C88.1133 14.8112 87.0293 15.3027 85.7012 15.3027C84.8548 15.3027 84.1517 15.0911 83.5918 14.668C83.2858 14.4336 82.9863 14.0918 82.6934 13.6426V19.1895H79.9395V4.35547H82.6055V5.92773C82.9049 5.46549 83.224 5.10091 83.5625 4.83398C84.181 4.35872 84.9167 4.12109 85.7695 4.12109ZM97.1055 3.08594H94.2832V0.517578H97.1055V3.08594ZM94.2832 4.35547H97.1055V15H94.2832V4.35547ZM105.736 0.458984C105.912 0.458984 106.072 0.465495 106.215 0.478516C106.358 0.485026 106.553 0.498047 106.801 0.517578V2.7832C106.645 2.76367 106.381 2.75065 106.01 2.74414C105.645 2.73112 105.391 2.8125 105.248 2.98828C105.111 3.15755 105.043 3.34635 105.043 3.55469C105.043 3.76302 105.043 4.0625 105.043 4.45312H106.869V6.41602H105.043V15H102.27V6.41602H100.717V4.45312H102.24V3.76953C102.24 2.63021 102.432 1.8457 102.816 1.41602C103.22 0.777995 104.193 0.458984 105.736 0.458984ZM110.9 17.041L111.252 17.0605C111.525 17.0736 111.786 17.0638 112.033 17.0312C112.281 16.9987 112.489 16.9238 112.658 16.8066C112.821 16.696 112.971 16.4648 113.107 16.1133C113.251 15.7617 113.309 15.5469 113.283 15.4688L109.377 4.35547H112.473L114.797 12.207L116.994 4.35547H119.953L116.301 14.8242C115.598 16.8424 115.041 18.0924 114.631 18.5742C114.221 19.0625 113.4 19.3066 112.17 19.3066C111.923 19.3066 111.724 19.3034 111.574 19.2969C111.424 19.2969 111.2 19.2871 110.9 19.2676V17.041Z" fill="#DC143C"/>
</svg>
