<svg xmlns="http://www.w3.org/2000/svg" width="30" height="30" viewBox="0 0 30 30" fill="none">
  <g clip-path="url(#clip0_1049_1677)">
    <path d="M26.625 12.0937C26.2266 12.6562 25.7344 13.3359 25.2188 13.9922L27.1875 26.3438L20.8359 23.4141L15 27.3984L9.16406 23.4141L2.8125 26.3438L5.20313 11.25L10.2188 8.95313L15 12.1875L16.4766 11.1797C16.1719 10.7109 15.9141 10.1953 15.7031 9.67969L15 10.1484L10.3594 7.00781L3.67969 10.1016L0.65625 29.1797L9 25.3359L15 29.4141L21 25.3359L29.3438 29.1797L26.625 12.0937Z" fill="#DC143C"/>
    <path d="M17.6719 10.7344C18.7266 12.1875 20.625 14.625 21.4687 15.7031C21.6797 15.9844 22.1016 15.9844 22.3359 15.7031C23.2266 14.625 24.9375 12.2812 26.0625 10.7344C26.9297 9.5625 27.4687 8.17969 27.5859 6.72656C27.6094 6.58594 27.6094 6.44531 27.6094 6.32812C27.6094 3.1875 25.0781 0.632812 21.9375 0.585938H21.8672H21.7969C18.6797 0.609375 16.125 3.1875 16.125 6.32812C16.125 6.44531 16.125 6.58594 16.1484 6.72656C16.2656 8.17969 16.8281 9.5625 17.6719 10.7344ZM21.8672 3C23.8828 3 25.4766 4.59375 25.4766 6.60938C25.4766 8.625 23.8828 10.2188 21.8672 10.2188C19.8516 10.2188 18.2578 8.625 18.2578 6.60938C18.2578 4.59375 19.8516 3 21.8672 3Z" fill="#DC143C"/>
  </g>
  <defs>
    <clipPath id="clip0_1049_1677">
      <rect width="30" height="30" fill="white"/>
    </clipPath>
  </defs>
</svg>