<svg width="30" height="24" viewBox="0 0 30 24" fill="none" xmlns="http://www.w3.org/2000/svg">
<g id="system-uicons:filtering">
<path id="Vector" d="M26.4286 6.85725H10.7143M7.85713 6.85725H3.57141M26.4286 18.2858H10.7143M7.85713 18.2858H3.57141M19.2857 12.5715H3.57141M26.4286 12.5715H22.1428M9.2857 4.57153C9.66458 4.57153 10.0279 4.69194 10.2959 4.90627C10.5638 5.1206 10.7143 5.41129 10.7143 5.71439V8.0001C10.7143 8.30321 10.5638 8.5939 10.2959 8.80823C10.0279 9.02255 9.66458 9.14296 9.2857 9.14296C8.90682 9.14296 8.54346 9.02255 8.27555 8.80823C8.00764 8.5939 7.85713 8.30321 7.85713 8.0001V5.71439C7.85713 5.41129 8.00764 5.1206 8.27555 4.90627C8.54346 4.69194 8.90682 4.57153 9.2857 4.57153ZM9.2857 16.0001C9.66458 16.0001 10.0279 16.1205 10.2959 16.3348C10.5638 16.5492 10.7143 16.8399 10.7143 17.143V19.4287C10.7143 19.7318 10.5638 20.0225 10.2959 20.2368C10.0279 20.4511 9.66458 20.5715 9.2857 20.5715C8.90682 20.5715 8.54346 20.4511 8.27555 20.2368C8.00764 20.0225 7.85713 19.7318 7.85713 19.4287V17.143C7.85713 16.8399 8.00764 16.5492 8.27555 16.3348C8.54346 16.1205 8.90682 16.0001 9.2857 16.0001ZM20.7143 10.2858C21.0932 10.2858 21.4565 10.4062 21.7244 10.6206C21.9923 10.8349 22.1428 11.1256 22.1428 11.4287V13.7144C22.1428 14.0175 21.9923 14.3082 21.7244 14.5225C21.4565 14.7368 21.0932 14.8572 20.7143 14.8572C20.3354 14.8572 19.972 14.7368 19.7041 14.5225C19.4362 14.3082 19.2857 14.0175 19.2857 13.7144V11.4287C19.2857 11.1256 19.4362 10.8349 19.7041 10.6206C19.972 10.4062 20.3354 10.2858 20.7143 10.2858Z" stroke="#202124" stroke-width="1.14286" stroke-linecap="round" stroke-linejoin="round"/>
</g>
</svg>
