<svg xmlns="http://www.w3.org/2000/svg" width="32" height="32" viewBox="0 0 32 32" fill="none">
  <path d="M25 24V13C24.9989 10.7869 24.1825 8.65185 22.7068 7.00268C21.231 5.35351 19.1994 4.3059 17 4.06V2H15V4.06C12.8006 4.3059 10.769 5.35351 9.29322 7.00268C7.81745 8.65185 7.00105 10.7869 7 13V24H6V26H12C12 27.0609 12.4214 28.0783 13.1716 28.8284C13.9217 29.5786 14.9391 30 16 30C17.0609 30 18.0783 29.5786 18.8284 28.8284C19.5786 28.0783 20 27.0609 20 26H26V24H25ZM16 28C15.4696 28 14.9609 27.7893 14.5858 27.4142C14.2107 27.0391 14 26.5304 14 26H18C18 26.5304 17.7893 27.0391 17.4142 27.4142C17.0391 27.7893 16.5304 28 16 28ZM9 24V13C9 11.1435 9.7375 9.36301 11.0503 8.05025C12.363 6.7375 14.1435 6 16 6C17.8565 6 19.637 6.7375 20.9497 8.05025C22.2625 9.36301 23 11.1435 23 13V24H9ZM21 13H19C19 10.87 18.42 10 17 10V8C18.49 8 21 8.65 21 13Z" fill="#202124"/>
</svg>