<svg width="75" height="75" viewBox="0 0 75 75" fill="none" xmlns="http://www.w3.org/2000/svg">
<g id="pixelarticons:buildings">
<path id="Vector" d="M6.25 6.25H50V18.75H68.75V68.75H6.25V6.25ZM62.5 25H50V31.25H56.25V37.5H50V43.75H56.25V50H50V56.25H56.25V62.5H62.5V25ZM43.75 12.5H12.5V62.5H18.75V56.25H37.5V62.5H43.75V12.5ZM18.75 18.75H25V25H18.75V18.75ZM37.5 18.75H31.25V25H37.5V18.75ZM18.75 31.25H25V37.5H18.75V31.25ZM37.5 31.25H31.25V37.5H37.5V31.25ZM18.75 43.75H25V50H18.75V43.75ZM37.5 43.75H31.25V50H37.5V43.75Z" fill="white"/>
</g>
</svg>
