<svg width="20" height="20" viewBox="0 0 20 20" fill="none" xmlns="http://www.w3.org/2000/svg">
<g id="Property Graph">
<path id="Vector" d="M17.5003 10.833H15.0003C14.7793 10.833 14.5674 10.9208 14.4111 11.0771C14.2548 11.2334 14.167 11.4453 14.167 11.6663C14.167 11.8874 14.2548 12.0993 14.4111 12.2556C14.5674 12.4119 14.7793 12.4997 15.0003 12.4997H15.4886L12.5003 15.4879L10.5895 13.5771C10.4332 13.4208 10.2213 13.3331 10.0003 13.3331C9.77932 13.3331 9.56737 13.4208 9.4111 13.5771L6.07776 16.9104C5.99877 16.9874 5.93586 17.0794 5.89267 17.1809C5.84949 17.2824 5.82689 17.3915 5.82619 17.5018C5.82549 17.6121 5.8467 17.7215 5.8886 17.8236C5.93049 17.9256 5.99224 18.0183 6.07025 18.0964C6.14826 18.1744 6.24098 18.2361 6.34304 18.278C6.4451 18.3199 6.55446 18.3411 6.66479 18.3404C6.77511 18.3397 6.88419 18.3171 6.98571 18.2739C7.08723 18.2307 7.17917 18.1678 7.25618 18.0888L10.0003 15.3448L11.9112 17.2556C12.0675 17.4118 12.2794 17.4996 12.5004 17.4996C12.7214 17.4996 12.9333 17.4118 13.0896 17.2556L16.667 13.6781V14.1663C16.667 14.3874 16.7548 14.5993 16.9111 14.7556C17.0674 14.9119 17.2793 14.9997 17.5003 14.9997C17.7214 14.9997 17.9333 14.9119 18.0896 14.7556C18.2459 14.5993 18.3337 14.3874 18.3337 14.1663V11.6663C18.3337 11.4453 18.2459 11.2334 18.0896 11.0771C17.9333 10.9208 17.7214 10.833 17.5003 10.833Z" fill="url(#paint0_linear_187_134)"/>
<path id="Vector_2" d="M6.66668 15.0002C6.66668 14.7792 6.57888 14.5672 6.4226 14.4109C6.26632 14.2547 6.05436 14.1669 5.83335 14.1669H4.16668V7.16944L8.3346 3.59761L12.5 7.16836V10.0002C12.5 10.2212 12.5878 10.4332 12.7441 10.5894C12.9004 10.7457 13.1123 10.8335 13.3333 10.8335C13.5544 10.8335 13.7663 10.7457 13.9226 10.5894C14.0789 10.4332 14.1667 10.2212 14.1667 10.0002V8.32319C14.2863 8.32534 14.4049 8.30127 14.5142 8.25266C14.6236 8.20406 14.7209 8.1321 14.7994 8.04186C14.9433 7.87406 15.0145 7.656 14.9976 7.43565C14.9807 7.2153 14.8769 7.0107 14.7091 6.86686L8.87701 1.86769C8.72597 1.73818 8.53356 1.66699 8.3346 1.66699C8.13563 1.66699 7.94323 1.73818 7.79218 1.86769L1.9576 6.86769C1.82839 6.97852 1.73623 7.12627 1.69351 7.29105C1.65079 7.45583 1.65956 7.62974 1.71863 7.78939C1.77771 7.94904 1.88426 8.08677 2.02395 8.18405C2.16365 8.28133 2.32979 8.33349 2.50001 8.33352V15.0002C2.50001 15.2212 2.58781 15.4332 2.74409 15.5894C2.90037 15.7457 3.11233 15.8335 3.33335 15.8335H5.83335C6.05436 15.8335 6.26632 15.7457 6.4226 15.5894C6.57888 15.4332 6.66668 15.2212 6.66668 15.0002Z" fill="url(#paint1_linear_187_134)"/>
<path id="Vector_3" d="M7.50033 5.83301C7.27931 5.83301 7.06735 5.92081 6.91107 6.07709C6.75479 6.23337 6.66699 6.44533 6.66699 6.66634C6.66699 6.88735 6.75479 7.09932 6.91107 7.2556C7.06735 7.41188 7.27931 7.49967 7.50033 7.49967H9.16699C9.38801 7.49967 9.59997 7.41188 9.75625 7.2556C9.91253 7.09932 10.0003 6.88735 10.0003 6.66634C10.0003 6.44533 9.91253 6.23337 9.75625 6.07709C9.59997 5.92081 9.38801 5.83301 9.16699 5.83301H7.50033Z" fill="url(#paint2_linear_187_134)"/>
</g>
<defs>
<linearGradient id="paint0_linear_187_134" x1="6.25016" y1="17.0892" x2="19.0222" y2="15.9889" gradientUnits="userSpaceOnUse">
<stop stop-color="#008813"/>
<stop offset="0.273958" stop-color="#13A200"/>
<stop offset="0.523958" stop-color="#03BC00"/>
<stop offset="0.742708" stop-color="#03C900"/>
<stop offset="1" stop-color="#00DE13"/>
</linearGradient>
<linearGradient id="paint1_linear_187_134" x1="2.11881" y1="13.4724" x2="15.8026" y2="12.8065" gradientUnits="userSpaceOnUse">
<stop stop-color="#008813"/>
<stop offset="0.273958" stop-color="#13A200"/>
<stop offset="0.523958" stop-color="#03BC00"/>
<stop offset="0.742708" stop-color="#03C900"/>
<stop offset="1" stop-color="#00DE13"/>
</linearGradient>
<linearGradient id="paint2_linear_187_134" x1="6.77999" y1="7.2219" x2="10.1728" y2="6.87102" gradientUnits="userSpaceOnUse">
<stop stop-color="#008813"/>
<stop offset="0.273958" stop-color="#13A200"/>
<stop offset="0.523958" stop-color="#03BC00"/>
<stop offset="0.742708" stop-color="#03C900"/>
<stop offset="1" stop-color="#00DE13"/>
</linearGradient>
</defs>
</svg>
