<svg width="118" height="20" viewBox="0 0 118 20" fill="none" xmlns="http://www.w3.org/2000/svg">
<path d="M8.62891 5.18555C8.62891 4.43685 8.43034 3.90299 8.0332 3.58398C7.64258 3.26497 7.09245 3.10547 6.38281 3.10547H3.58008V7.34375H6.38281C7.09245 7.34375 7.64258 7.17122 8.0332 6.82617C8.43034 6.48112 8.62891 5.93424 8.62891 5.18555ZM11.6074 5.16602C11.6074 6.86523 11.1777 8.06641 10.3184 8.76953C9.45898 9.47266 8.23177 9.82422 6.63672 9.82422H3.58008V15H0.591797V0.605469H6.86133C8.30664 0.605469 9.45898 0.976562 10.3184 1.71875C11.1777 2.46094 11.6074 3.61003 11.6074 5.16602ZM21.4199 4.10156C21.472 4.10156 21.5143 4.10482 21.5469 4.11133C21.5859 4.11133 21.6673 4.11458 21.791 4.12109V6.97266C21.6152 6.95312 21.459 6.9401 21.3223 6.93359C21.1855 6.92708 21.0749 6.92383 20.9902 6.92383C19.8704 6.92383 19.1185 7.28841 18.7344 8.01758C18.5195 8.42773 18.4121 9.05924 18.4121 9.91211V15H15.6094V4.35547H18.2656V6.21094C18.6953 5.5013 19.0697 5.01628 19.3887 4.75586C19.9095 4.31966 20.5866 4.10156 21.4199 4.10156ZM30.207 13.0371C31.0208 13.0371 31.6458 12.7474 32.082 12.168C32.5182 11.5885 32.7363 10.765 32.7363 9.69727C32.7363 8.62956 32.5182 7.80924 32.082 7.23633C31.6458 6.6569 31.0208 6.36719 30.207 6.36719C29.3932 6.36719 28.765 6.6569 28.3223 7.23633C27.8861 7.80924 27.668 8.62956 27.668 9.69727C27.668 10.765 27.8861 11.5885 28.3223 12.168C28.765 12.7474 29.3932 13.0371 30.207 13.0371ZM35.6562 9.69727C35.6562 11.2598 35.207 12.5977 34.3086 13.7109C33.4102 14.8177 32.0462 15.3711 30.2168 15.3711C28.3874 15.3711 27.0234 14.8177 26.125 13.7109C25.2266 12.5977 24.7773 11.2598 24.7773 9.69727C24.7773 8.16081 25.2266 6.82943 26.125 5.70312C27.0234 4.57682 28.3874 4.01367 30.2168 4.01367C32.0462 4.01367 33.4102 4.57682 34.3086 5.70312C35.207 6.82943 35.6562 8.16081 35.6562 9.69727ZM46.9922 9.67773C46.9922 8.85742 46.8034 8.13151 46.4258 7.5C46.0547 6.86849 45.4492 6.55273 44.6094 6.55273C43.6003 6.55273 42.9069 7.03125 42.5293 7.98828C42.334 8.49609 42.2363 9.14062 42.2363 9.92188C42.2363 11.1589 42.5651 12.028 43.2227 12.5293C43.6133 12.8223 44.0755 12.9688 44.6094 12.9688C45.3841 12.9688 45.9733 12.6693 46.377 12.0703C46.7871 11.4714 46.9922 10.6738 46.9922 9.67773ZM45.4102 4.12109C46.6536 4.12109 47.7051 4.58008 48.5645 5.49805C49.4303 6.41602 49.8633 7.76367 49.8633 9.54102C49.8633 11.416 49.4401 12.8451 48.5938 13.8281C47.7539 14.8112 46.6699 15.3027 45.3418 15.3027C44.4954 15.3027 43.7923 15.0911 43.2324 14.668C42.9264 14.4336 42.627 14.0918 42.334 13.6426V19.1895H39.5801V4.35547H42.2461V5.92773C42.5456 5.46549 42.8646 5.10091 43.2031 4.83398C43.8216 4.35872 44.5573 4.12109 45.4102 4.12109ZM58.084 6.36719C57.4395 6.36719 56.9382 6.56901 56.5801 6.97266C56.2285 7.3763 56.0072 7.92318 55.916 8.61328H60.2422C60.1966 7.8776 59.972 7.32096 59.5684 6.94336C59.1712 6.55924 58.6764 6.36719 58.084 6.36719ZM58.084 4.07227C58.9694 4.07227 59.7669 4.23828 60.4766 4.57031C61.1862 4.90234 61.7721 5.42643 62.2344 6.14258C62.651 6.77409 62.9212 7.50651 63.0449 8.33984C63.1165 8.82812 63.1458 9.53125 63.1328 10.4492H55.8477C55.8867 11.5169 56.222 12.2656 56.8535 12.6953C57.2376 12.9622 57.6999 13.0957 58.2402 13.0957C58.8132 13.0957 59.2786 12.9329 59.6367 12.6074C59.832 12.4316 60.0046 12.1875 60.1543 11.875H62.9961C62.9245 12.5065 62.5957 13.1478 62.0098 13.7988C61.0983 14.834 59.8223 15.3516 58.1816 15.3516C56.8275 15.3516 55.6328 14.9154 54.5977 14.043C53.5625 13.1706 53.0449 11.7513 53.0449 9.78516C53.0449 7.94271 53.5104 6.52995 54.4414 5.54688C55.3789 4.5638 56.5931 4.07227 58.084 4.07227ZM72.7988 4.10156C72.8509 4.10156 72.8932 4.10482 72.9258 4.11133C72.9648 4.11133 73.0462 4.11458 73.1699 4.12109V6.97266C72.9941 6.95312 72.8379 6.9401 72.7012 6.93359C72.5645 6.92708 72.4538 6.92383 72.3691 6.92383C71.2493 6.92383 70.4974 7.28841 70.1133 8.01758C69.8984 8.42773 69.791 9.05924 69.791 9.91211V15H66.9883V4.35547H69.6445V6.21094C70.0742 5.5013 70.4486 5.01628 70.7676 4.75586C71.2884 4.31966 71.9655 4.10156 72.7988 4.10156ZM75.7168 6.43555V4.45312H77.2012V1.48438H79.9551V4.45312H81.6836V6.43555H79.9551V12.0605C79.9551 12.4967 80.0104 12.7702 80.1211 12.8809C80.2318 12.985 80.5703 13.0371 81.1367 13.0371C81.2214 13.0371 81.3092 13.0371 81.4004 13.0371C81.498 13.0306 81.5924 13.0241 81.6836 13.0176V15.0977L80.3652 15.1465C79.0501 15.1921 78.1517 14.9642 77.6699 14.4629C77.3574 14.1439 77.2012 13.6523 77.2012 12.9883V6.43555H75.7168ZM85.9004 17.041L86.252 17.0605C86.5254 17.0736 86.7858 17.0638 87.0332 17.0312C87.2806 16.9987 87.4889 16.9238 87.6582 16.8066C87.821 16.696 87.9707 16.4648 88.1074 16.1133C88.2507 15.7617 88.3092 15.5469 88.2832 15.4688L84.377 4.35547H87.4727L89.7969 12.207L91.9941 4.35547H94.9531L91.3008 14.8242C90.5977 16.8424 90.041 18.0924 89.6309 18.5742C89.2207 19.0625 88.4004 19.3066 87.1699 19.3066C86.9225 19.3066 86.724 19.3034 86.5742 19.2969C86.4245 19.2969 86.1999 19.2871 85.9004 19.2676V17.041ZM108.689 15H105.193L109.822 7.66602L105.418 0.605469H109.012L111.58 5.2832L114.217 0.605469H117.693L113.289 7.54883L117.967 15H114.314L111.58 10.0977L108.689 15Z" fill="#DC143C"/>
</svg>
