<svg width="30" height="30" viewBox="0 0 30 30" fill="none" xmlns="http://www.w3.org/2000/svg">
<g id="ri:linkedin-fill">
<path id="Vector" d="M8.67481 6.25125C8.67447 6.91429 8.41076 7.55004 7.94169 8.01865C7.47261 8.48726 6.8366 8.75033 6.17356 8.75C5.51051 8.74967 4.87476 8.48596 4.40615 8.01688C3.93755 7.54781 3.67447 6.91179 3.67481 6.24875C3.67514 5.58571 3.93885 4.94996 4.40792 4.48135C4.877 4.01274 5.51301 3.74967 6.17605 3.75C6.8391 3.75033 7.47485 4.01404 7.94346 4.48312C8.41206 4.95219 8.67514 5.58821 8.67481 6.25125ZM8.74981 10.6012H3.7498V26.2512H8.74981V10.6012ZM16.6498 10.6012H11.6748V26.2512H16.5998V18.0388C16.5998 13.4638 22.5623 13.0388 22.5623 18.0388V26.2512H27.4998V16.3387C27.4998 8.62625 18.6748 8.91375 16.5998 12.7013L16.6498 10.6012Z" fill="#202124"/>
</g>
</svg>
