<svg width="28" height="28" viewBox="0 0 28 28" fill="none" xmlns="http://www.w3.org/2000/svg">
<g id="Right arrow">
<path id="Vector" d="M25.0775 14.9715C25.1069 14.9297 25.1333 14.8858 25.1562 14.8402L25.2437 14.6652L25.2962 14.4902C25.316 14.4423 25.3307 14.3925 25.34 14.3415C25.3848 14.1162 25.3848 13.8843 25.34 13.659C25.3307 13.608 25.316 13.5581 25.2962 13.5102L25.2437 13.3352L25.1562 13.1602C25.1333 13.1146 25.1069 13.0707 25.0775 13.029C25.0149 12.9307 24.9415 12.8397 24.8587 12.7577L16.1087 4.00771C15.774 3.72102 15.3433 3.57121 14.9029 3.58822C14.4625 3.60523 14.0447 3.78781 13.733 4.09948C13.4213 4.41114 13.2388 4.82894 13.2218 5.26937C13.2047 5.7098 13.3546 6.14044 13.6413 6.47521L19.3988 12.2502H4.375C3.91087 12.2502 3.46575 12.4346 3.13756 12.7628C2.80937 13.091 2.625 13.5361 2.625 14.0002C2.625 14.4643 2.80937 14.9095 3.13756 15.2376C3.46575 15.5658 3.91087 15.7502 4.375 15.7502H19.3988L13.6413 21.5165C13.4581 21.6733 13.3093 21.8664 13.2042 22.0835C13.0992 22.3006 13.0402 22.5371 13.0309 22.7781C13.0215 23.0191 13.0622 23.2595 13.1501 23.484C13.2381 23.7086 13.3716 23.9126 13.5421 24.0831C13.7127 24.2536 13.9166 24.3871 14.1412 24.4751C14.3658 24.5631 14.6061 24.6037 14.8471 24.5944C15.0881 24.5851 15.3246 24.526 15.5417 24.421C15.7588 24.3159 15.9519 24.1672 16.1087 23.984L24.8587 15.234C24.941 15.1547 25.0144 15.0667 25.0775 14.9715Z" fill="#4D5156"/>
</g>
</svg>
