<svg width="19" height="19" viewBox="0 0 19 19" fill="none" xmlns="http://www.w3.org/2000/svg">
<g id="Save">
<path id="Vector" d="M14.2499 1.58337H4.74992C4.53996 1.58337 4.33859 1.66678 4.19013 1.81525C4.04166 1.96371 3.95825 2.16508 3.95825 2.37504V16.625C3.95824 16.7764 4.00161 16.9246 4.08322 17.052C4.16483 17.1794 4.28126 17.2808 4.41872 17.3441C4.55618 17.4075 4.7089 17.4301 4.8588 17.4092C5.0087 17.3884 5.14949 17.3251 5.2645 17.2267L9.49992 13.6721L13.6878 17.1871C13.7618 17.2605 13.8495 17.3185 13.946 17.3579C14.0424 17.3973 14.1457 17.4173 14.2499 17.4167C14.3538 17.4194 14.4568 17.3977 14.5508 17.3534C14.6953 17.294 14.8191 17.1931 14.9064 17.0635C14.9938 16.9339 15.0408 16.7813 15.0416 16.625V2.37504C15.0416 2.16508 14.9582 1.96371 14.8097 1.81525C14.6612 1.66678 14.4599 1.58337 14.2499 1.58337ZM13.4583 14.9309L10.0066 12.0334C9.86433 11.9149 9.68505 11.85 9.49992 11.85C9.31478 11.85 9.1355 11.9149 8.99325 12.0334L5.54159 14.9309V3.16671H13.4583V14.9309Z" fill="white"/>
</g>
</svg>
