<svg width="20" height="20" viewBox="0 0 20 20" fill="none" xmlns="http://www.w3.org/2000/svg">
<g id="schedule">
<path id="Vector" d="M15.625 7.5H3.125C2.95924 7.5 2.80027 7.43415 2.68306 7.31694C2.56585 7.19973 2.5 7.04076 2.5 6.875V3.75C2.5 3.58424 2.56585 3.42527 2.68306 3.30806C2.80027 3.19085 2.95924 3.125 3.125 3.125H15.625C15.7908 3.125 15.9497 3.19085 16.0669 3.30806C16.1842 3.42527 16.25 3.58424 16.25 3.75V6.875C16.25 7.04076 16.1842 7.19973 16.0669 7.31694C15.9497 7.43415 15.7908 7.5 15.625 7.5ZM3.75 6.25H15V4.375H3.75V6.25Z" fill="white"/>
<path id="Vector_2" d="M13.125 5.625C12.9592 5.625 12.8003 5.55915 12.6831 5.44194C12.5658 5.32473 12.5 5.16576 12.5 5V2.5C12.5 2.33424 12.5658 2.17527 12.6831 2.05806C12.8003 1.94085 12.9592 1.875 13.125 1.875C13.2908 1.875 13.4497 1.94085 13.5669 2.05806C13.6842 2.17527 13.75 2.33424 13.75 2.5V5C13.75 5.16576 13.6842 5.32473 13.5669 5.44194C13.4497 5.55915 13.2908 5.625 13.125 5.625ZM5.625 5.625C5.45924 5.625 5.30027 5.55915 5.18306 5.44194C5.06585 5.32473 5 5.16576 5 5V2.5C5 2.33424 5.06585 2.17527 5.18306 2.05806C5.30027 1.94085 5.45924 1.875 5.625 1.875C5.79076 1.875 5.94973 1.94085 6.06694 2.05806C6.18415 2.17527 6.25 2.33424 6.25 2.5V5C6.25 5.16576 6.18415 5.32473 6.06694 5.44194C5.94973 5.55915 5.79076 5.625 5.625 5.625Z" fill="white"/>
<path id="Vector_3" d="M10 16.875H4.375C3.87772 16.875 3.40081 16.6775 3.04917 16.3258C2.69754 15.9742 2.5 15.4973 2.5 15V3.75C2.5 3.58424 2.56585 3.42527 2.68306 3.30806C2.80027 3.19085 2.95924 3.125 3.125 3.125H15.625C15.7908 3.125 15.9497 3.19085 16.0669 3.30806C16.1842 3.42527 16.25 3.58424 16.25 3.75V10.625C16.25 10.7908 16.1842 10.9497 16.0669 11.0669C15.9497 11.1842 15.7908 11.25 15.625 11.25C15.4592 11.25 15.3003 11.1842 15.1831 11.0669C15.0658 10.9497 15 10.7908 15 10.625V4.375H3.75V15C3.75 15.1658 3.81585 15.3247 3.93306 15.4419C4.05027 15.5592 4.20924 15.625 4.375 15.625H10C10.1658 15.625 10.3247 15.6908 10.4419 15.8081C10.5592 15.9253 10.625 16.0842 10.625 16.25C10.625 16.4158 10.5592 16.5747 10.4419 16.6919C10.3247 16.8092 10.1658 16.875 10 16.875Z" fill="white"/>
<path id="Vector_4" d="M13.125 18.125C12.2597 18.125 11.4138 17.8684 10.6944 17.3877C9.97492 16.907 9.41416 16.2237 9.08303 15.4242C8.7519 14.6248 8.66526 13.7451 8.83407 12.8965C9.00288 12.0478 9.41956 11.2683 10.0314 10.6564C10.6433 10.0446 11.4228 9.62788 12.2715 9.45907C13.1201 9.29026 13.9998 9.3769 14.7992 9.70803C15.5987 10.0392 16.282 10.5999 16.7627 11.3194C17.2434 12.0388 17.5 12.8847 17.5 13.75C17.5 14.9103 17.0391 16.0231 16.2186 16.8436C15.3981 17.6641 14.2853 18.125 13.125 18.125ZM13.125 10.625C12.5069 10.625 11.9027 10.8083 11.3888 11.1517C10.8749 11.495 10.4744 11.9831 10.2379 12.5541C10.0014 13.1251 9.93947 13.7535 10.06 14.3597C10.1806 14.9659 10.4783 15.5227 10.9153 15.9597C11.3523 16.3967 11.9092 16.6944 12.5153 16.815C13.1215 16.9355 13.7499 16.8736 14.3209 16.6371C14.8919 16.4006 15.38 16.0001 15.7233 15.4862C16.0667 14.9723 16.25 14.3681 16.25 13.75C16.25 12.9212 15.9208 12.1263 15.3347 11.5403C14.7487 10.9542 13.9538 10.625 13.125 10.625Z" fill="white"/>
<path id="Vector_5" d="M15 14.375H13.125C12.9592 14.375 12.8003 14.3092 12.6831 14.1919C12.5658 14.0747 12.5 13.9158 12.5 13.75V11.25H13.75V13.125H15V14.375Z" fill="white"/>
</g>
</svg>
