<svg width="18" height="18" viewBox="0 0 18 18" fill="none" xmlns="http://www.w3.org/2000/svg">
<g id="solar:share-linear">
<g id="Group">
<path id="Vector" d="M4.75 9C4.75 9.49728 4.55246 9.97419 4.20083 10.3258C3.84919 10.6775 3.37228 10.875 2.875 10.875C2.37772 10.875 1.90081 10.6775 1.54917 10.3258C1.19754 9.97419 1 9.49728 1 9C1 8.50272 1.19754 8.02581 1.54917 7.67417C1.90081 7.32254 2.37772 7.125 2.875 7.125C3.37228 7.125 3.84919 7.32254 4.20083 7.67417C4.55246 8.02581 4.75 8.50272 4.75 9Z" stroke="white" stroke-width="1.5"/>
<path id="Vector_2" d="M8.5 4.875L4.75 7.5M8.5 13.125L4.75 10.5" stroke="white" stroke-width="1.5" stroke-linecap="round"/>
<path id="Vector_3" d="M12.25 13.875C12.25 14.3723 12.0525 14.8492 11.7008 15.2008C11.3492 15.5525 10.8723 15.75 10.375 15.75C9.87772 15.75 9.40081 15.5525 9.04917 15.2008C8.69754 14.8492 8.5 14.3723 8.5 13.875C8.5 13.3777 8.69754 12.9008 9.04917 12.5492C9.40081 12.1975 9.87772 12 10.375 12C10.8723 12 11.3492 12.1975 11.7008 12.5492C12.0525 12.9008 12.25 13.3777 12.25 13.875ZM12.25 4.125C12.25 4.62228 12.0525 5.09919 11.7008 5.45083C11.3492 5.80246 10.8723 6 10.375 6C9.87772 6 9.40081 5.80246 9.04917 5.45083C8.69754 5.09919 8.5 4.62228 8.5 4.125C8.5 3.62772 8.69754 3.15081 9.04917 2.79917C9.40081 2.44754 9.87772 2.25 10.375 2.25C10.8723 2.25 11.3492 2.44754 11.7008 2.79917C12.0525 3.15081 12.25 3.62772 12.25 4.125Z" stroke="white" stroke-width="1.5"/>
</g>
</g>
</svg>
