<svg width="75" height="75" viewBox="0 0 75 75" fill="none" xmlns="http://www.w3.org/2000/svg">
<g id="teenyicons:building-outline" clip-path="url(#clip0_1_521)">
<path id="Vector" d="M37.5 2.49992L38.62 0.264916C38.2724 0.0907088 37.8889 0 37.5 0C37.1111 0 36.7276 0.0907088 36.38 0.264916L37.5 2.49992ZM22.5 42.4999V39.9999H20V42.4999H22.5ZM42.5 42.4999H45V39.9999H42.5V42.4999ZM0 74.9999H75V69.9999H0V74.9999ZM36.38 0.264916L6.38 15.2649L8.62 19.7349L38.62 4.73492L36.38 0.264916ZM0 29.9999H75V24.9999H0V29.9999ZM68.62 15.2649L38.62 0.264916L36.38 4.73492L66.38 19.7349L68.62 15.2649ZM5 27.4999V72.4999H10V27.4999H5ZM65 27.4999V72.4999H70V27.4999H65ZM25 72.4999V42.4999H20V72.4999H25ZM22.5 44.9999H42.5V39.9999H22.5V44.9999ZM40 42.4999V72.4999H45V42.4999H40Z" fill="white"/>
</g>
<defs>
<clipPath id="clip0_1_521">
<rect width="75" height="75" fill="white"/>
</clipPath>
</defs>
</svg>
