<svg width="12" height="12" viewBox="0 0 12 12" fill="none" xmlns="http://www.w3.org/2000/svg">
<g id="Tick">
<path id="Vector" d="M8.43281 4.39425C8.50496 4.46268 8.54697 4.55697 8.5496 4.65637C8.55224 4.75577 8.51529 4.85215 8.44688 4.92431L5.99063 7.515C5.90294 7.60731 5.79741 7.68083 5.68044 7.73111C5.56347 7.78139 5.43751 7.80738 5.31019 7.8075H5.28769C5.1566 7.80415 5.02767 7.77339 4.90919 7.7172C4.7907 7.66101 4.6853 7.58063 4.59975 7.48125L3.54113 6.25181C3.47621 6.17645 3.44388 6.07838 3.45127 5.97919C3.45865 5.87999 3.50514 5.7878 3.5805 5.72287C3.65587 5.65795 3.75393 5.62563 3.85313 5.63302C3.95232 5.6404 4.04452 5.68689 4.10944 5.76225L5.16806 6.99206C5.18513 7.01199 5.20621 7.02809 5.22992 7.0393C5.25364 7.05051 5.27946 7.05659 5.30569 7.05713C5.332 7.05859 5.35831 7.05411 5.38265 7.04401C5.407 7.03392 5.42876 7.01847 5.44631 6.99881L7.90256 4.40812C7.93647 4.37239 7.97707 4.34368 8.02207 4.32364C8.06707 4.3036 8.11557 4.29263 8.16481 4.29134C8.21406 4.29005 8.26307 4.29848 8.30905 4.31613C8.35504 4.33379 8.39709 4.36034 8.43281 4.39425ZM10.875 6C10.875 6.96418 10.5891 7.90671 10.0534 8.7084C9.51775 9.51009 8.75637 10.1349 7.86558 10.5039C6.97479 10.8729 5.99459 10.9694 5.04894 10.7813C4.10328 10.5932 3.23464 10.1289 2.55286 9.44715C1.87108 8.76536 1.40678 7.89672 1.21867 6.95107C1.03057 6.00541 1.12711 5.02521 1.49609 4.13442C1.86507 3.24363 2.48991 2.48226 3.2916 1.94659C4.09329 1.41091 5.03582 1.125 6 1.125C7.29248 1.12649 8.53159 1.64058 9.4455 2.5545C10.3594 3.46842 10.8735 4.70753 10.875 6ZM10.125 6C10.1241 5.18561 9.88252 4.38965 9.43062 3.71214C8.97872 3.03463 8.33667 2.50578 7.58513 2.19206C7.25109 2.10589 6.90748 2.06236 6.5625 2.0625C5.60832 2.06333 4.68393 2.39494 3.9468 3.00083C3.20966 3.60672 2.70538 4.44942 2.51984 5.3854C2.3343 6.32137 2.47898 7.29272 2.92924 8.13399C3.37949 8.97526 4.10748 9.63442 4.98919 9.99919C5.59781 10.153 6.23352 10.1659 6.84788 10.0369C7.46224 9.90784 8.03904 9.64029 8.53435 9.2546C9.02966 8.86891 9.4304 8.37526 9.70605 7.81125C9.98171 7.24724 10.125 6.62776 10.125 6Z" fill="#388E3C"/>
</g>
</svg>
