<svg width="163" height="99" viewBox="0 0 163 99" fill="none" xmlns="http://www.w3.org/2000/svg">
<circle cx="84.5" cy="60.5039" r="38.5" fill="#DC143C"/>
<path d="M70.1211 59.1289L84.6211 73.6289L114.121 44.1289" stroke="white" stroke-width="6"/>
<path fill-rule="evenodd" clip-rule="evenodd" d="M85.6167 62.8764L102.243 46.2505L98 42.0078L81.374 58.6338L85.6167 62.8764ZM74.8686 73.6245L70.626 69.3818L70.6213 69.3865L58.2426 57.0078L54 61.2505L68.5 75.7505L70.6213 77.8718L72.7426 75.7505L74.8686 73.6245Z" fill="white"/>
<path d="M151.736 22.0039L154.018 24.4397C155.345 25.8567 157.372 26.3773 159.218 25.7753L162.391 24.7402L159.951 26.7559C158.28 28.1369 157.689 30.4374 158.488 32.4528L159.654 35.3944L157.373 32.9586C156.046 31.5417 154.018 31.021 152.173 31.6231L149 32.6581L151.413 30.0714C152.573 28.8284 153.022 27.0814 152.605 25.4334L151.736 22.0039Z" fill="#FFD200"/>
<path d="M4.24219 68.0039L5.26004 69.8348C6.20333 71.5316 8.04351 72.5289 9.98009 72.3931L12.0698 72.2464L10.3838 73.0511C8.42735 73.985 7.29554 76.0732 7.58112 78.2222L7.82721 80.074L6.80936 78.2431C5.86607 76.5464 4.02589 75.549 2.08931 75.6849L-0.000354499 75.8315L1.96666 74.5574C3.39346 73.6332 4.25297 72.0474 4.24844 70.3475L4.24219 68.0039Z" fill="#0060FF"/>
<path d="M112 1.85547L113.148 2.22752C114.994 2.82621 117.021 2.30184 118.345 0.882497L119.168 0.000482675L118.823 0.876226C118.028 2.89301 118.623 5.19248 120.296 6.57037L121.023 7.16869L119.876 6.79665C118.029 6.19795 116.003 6.72233 114.678 8.14167L113.855 9.02368L114.218 7.57875C114.632 5.93002 114.18 4.1838 113.018 2.94294L112 1.85547Z" fill="#9000FF"/>
<rect x="24.6578" y="68.7556" width="7.77351" height="6" rx="0.5" transform="rotate(-23.467 24.6578 68.7556)" stroke="#00AC47"/>
<rect x="59.5" y="1.50391" width="6" height="6" rx="0.5" stroke="#2BFFF1"/>
<rect x="136.676" y="82.0331" width="5.05115" height="6" rx="0.5" transform="rotate(-27.8159 136.676 82.0331)" stroke="#FF8340"/>
<circle cx="10" cy="29.0039" r="3" fill="#F608E8"/>
<circle cx="48" cy="97.0039" r="2" fill="#FFE400"/>
<circle cx="158.5" cy="60.5039" r="1.5" fill="#0878F6"/>
</svg>
