<svg xmlns="http://www.w3.org/2000/svg" width="50" height="50" viewBox="0 0 50 50" fill="none">
  <path d="M12.9029 28.2251C13.5477 28.2276 14.1779 28.0335 14.7094 27.6686C14.9281 28.2996 15.3372 28.8471 15.8804 29.2357C16.4235 29.6243 17.0738 29.8347 17.7417 29.838C18.3864 29.8405 19.0166 29.6464 19.5481 29.2815C19.7668 29.9125 20.176 30.4601 20.7191 30.8486C21.2622 31.2372 21.9126 31.4476 22.5804 31.4509C23.1489 31.4485 23.7062 31.2924 24.1933 30.9992V38.7089C24.1929 39.1882 24.2994 39.6614 24.5048 40.0944C24.7103 40.5273 25.0097 40.9091 25.3812 41.2118C25.7527 41.5146 26.187 41.7307 26.6525 41.8446C27.118 41.9585 27.603 41.9673 28.0723 41.8702C28.8136 41.7032 29.4744 41.2853 29.9431 40.6872C30.4119 40.0892 30.6598 39.3477 30.6449 38.588L30.6449 19.8863L32.8546 22.4105C33.5379 23.1859 34.493 23.6693 35.5225 23.7609C36.552 23.8524 37.5773 23.5451 38.3868 22.9025L38.9513 22.4509C39.4109 22.0953 39.7228 21.5823 39.8271 21.0107C39.9313 20.439 39.8204 19.849 39.5158 19.3541L33.7658 10.0799C32.6618 8.06048 31.0484 6.36521 29.0861 5.16264C27.1238 3.96006 24.8809 3.29206 22.5804 3.22505C19.1582 3.22505 15.8762 4.5845 13.4564 7.00432C11.0366 9.42414 9.67714 12.7061 9.67714 16.1283V24.9992C9.67714 25.8548 10.017 26.6753 10.622 27.2802C11.2269 27.8852 12.0474 28.2251 12.9029 28.2251ZM11.29 16.1283C11.29 13.1339 12.4796 10.2622 14.5969 8.14482C16.7142 6.02747 19.586 4.83796 22.5804 4.83796C24.6008 4.90563 26.5684 5.50103 28.2874 6.56498C30.0064 7.62891 31.4169 9.12431 32.3788 10.9025L38.1126 20.2251C38.2055 20.3797 38.2396 20.5628 38.2085 20.7405C38.1774 20.9183 38.0832 21.0788 37.9433 21.1928L37.3788 21.6444C36.893 22.0282 36.2786 22.2111 35.662 22.1556C35.0455 22.1001 34.4736 21.8104 34.0642 21.346L30.4433 17.2089C30.335 17.0861 30.1919 16.9992 30.033 16.9597C29.8742 16.9202 29.707 16.93 29.5538 16.9878C29.4007 17.0455 29.2687 17.1486 29.1755 17.2831C29.0823 17.4177 29.0322 17.5775 29.032 17.7412L29.032 38.588C29.0503 38.9792 28.9338 39.3649 28.7018 39.6805C28.4699 39.9961 28.1366 40.2225 27.7578 40.3218C27.4943 40.3769 27.2213 40.3652 26.9635 40.2877C26.7057 40.2102 26.4714 40.0695 26.282 39.8783C26.1281 39.7254 26.0067 39.543 25.9249 39.3421C25.8432 39.1412 25.8028 38.9258 25.8062 38.7089L25.8062 22.5799C25.8062 22.366 25.7212 22.1609 25.57 22.0096C25.4187 21.8584 25.2136 21.7734 24.9997 21.7734C24.7858 21.7734 24.5807 21.8584 24.4295 22.0096C24.2782 22.1609 24.1933 22.366 24.1933 22.5799L24.1933 28.2251C24.1933 28.6528 24.0233 29.0631 23.7209 29.3655C23.4184 29.668 23.0081 29.838 22.5804 29.838C22.1526 29.838 21.7423 29.668 21.4399 29.3655C21.1374 29.0631 20.9675 28.6528 20.9675 28.2251V22.5799C20.9675 22.366 20.8825 22.1609 20.7313 22.0096C20.58 21.8584 20.3749 21.7734 20.161 21.7734C19.9471 21.7734 19.742 21.8584 19.5908 22.0096C19.4395 22.1609 19.3546 22.366 19.3546 22.5799V26.6121C19.3546 27.0399 19.1846 27.4502 18.8822 27.7526C18.5797 28.0551 18.1694 28.2251 17.7417 28.2251C17.3139 28.2251 16.9036 28.0551 16.6012 27.7526C16.2987 27.4502 16.1288 27.0399 16.1288 26.6121V22.5799C16.1288 22.366 16.0438 22.1609 15.8925 22.0096C15.7413 21.8584 15.5362 21.7734 15.3223 21.7734C15.1084 21.7734 14.9033 21.8584 14.7521 22.0096C14.6008 22.1609 14.5158 22.366 14.5158 22.5799V24.9992C14.5158 25.427 14.3459 25.8373 14.0434 26.1397C13.741 26.4422 13.3307 26.6121 12.9029 26.6121C12.4752 26.6121 12.0649 26.4422 11.7624 26.1397C11.46 25.8373 11.29 25.427 11.29 24.9992V16.1283ZM27.4191 42.7412C27.2052 42.7412 27.0001 42.8261 26.8488 42.9774C26.6976 43.1286 26.6126 43.3337 26.6126 43.5476V45.967C26.6126 46.1809 26.6976 46.386 26.8488 46.5372C27.0001 46.6885 27.2052 46.7734 27.4191 46.7734C27.633 46.7734 27.8381 46.6885 27.9893 46.5372C28.1406 46.386 28.2255 46.1809 28.2255 45.967V43.5476C28.2255 43.3337 28.1406 43.1286 27.9893 42.9774C27.8381 42.8261 27.633 42.7412 27.4191 42.7412Z" fill="url(#paint0_linear_1077_2584)" fill-opacity="0.8"/>
  <path d="M22.5813 39.5156C22.5813 39.3017 22.4964 39.0966 22.3451 38.9454C22.1939 38.7941 21.9888 38.7092 21.7749 38.7092H19.3555C19.1416 38.7092 18.9365 38.7941 18.7853 38.9454C18.634 39.0966 18.5491 39.3017 18.5491 39.5156C18.5491 39.7295 18.634 39.9346 18.7853 40.0858C18.9365 40.2371 19.1416 40.3221 19.3555 40.3221H21.7749C21.9888 40.3221 22.1939 40.2371 22.3451 40.0858C22.4964 39.9346 22.5813 39.7295 22.5813 39.5156ZM35.4846 38.7092H33.0652C32.8513 38.7092 32.6462 38.7941 32.495 38.9454C32.3437 39.0966 32.2588 39.3017 32.2588 39.5156C32.2588 39.7295 32.3437 39.9346 32.495 40.0858C32.6462 40.2371 32.8513 40.3221 33.0652 40.3221H35.4846C35.6984 40.3221 35.9036 40.2371 36.0548 40.0858C36.2061 39.9346 36.291 39.7295 36.291 39.5156C36.291 39.3017 36.2061 39.0966 36.0548 38.9454C35.9036 38.7941 35.6984 38.7092 35.4846 38.7092ZM32.0249 42.1688C31.9499 42.0932 31.8607 42.0332 31.7624 41.9923C31.6642 41.9514 31.5588 41.9303 31.4523 41.9303C31.3458 41.9303 31.2404 41.9514 31.1422 41.9923C31.0439 42.0332 30.9547 42.0932 30.8797 42.1688C30.8041 42.2438 30.7441 42.333 30.7032 42.4313C30.6623 42.5295 30.6412 42.6349 30.6412 42.7414C30.6412 42.8479 30.6623 42.9533 30.7032 43.0516C30.7441 43.1498 30.8041 43.239 30.8797 43.314L32.4926 44.9269C32.5678 45.0021 32.6571 45.0617 32.7553 45.1024C32.8536 45.1431 32.9589 45.1641 33.0652 45.1641C33.28 45.1641 33.4859 45.0787 33.6378 44.9269C33.7896 44.775 33.875 44.5691 33.875 44.3543C33.875 44.1396 33.7896 43.9336 33.6378 43.7817L32.0249 42.1688ZM23.3878 41.935C23.2817 41.9343 23.1764 41.9547 23.0782 41.9948C22.9799 42.035 22.8906 42.0941 22.8152 42.1688L21.2023 43.7817C21.1271 43.8569 21.0675 43.9462 21.0268 44.0444C20.9861 44.1427 20.9651 44.248 20.9651 44.3543C20.9651 44.4606 20.9861 44.5659 21.0268 44.6642C21.0675 44.7624 21.1271 44.8517 21.2023 44.9269C21.2775 45.0021 21.3668 45.0617 21.465 45.1024C21.5633 45.1431 21.6685 45.1641 21.7749 45.1641C21.8812 45.1641 21.9865 45.1431 22.0848 45.1024C22.183 45.0617 22.2723 45.0021 22.3475 44.9269L23.9604 43.314C24.036 43.239 24.096 43.1498 24.1369 43.0516C24.1778 42.9533 24.1989 42.8479 24.1989 42.7414C24.1989 42.6349 24.1778 42.5295 24.1369 42.4313C24.096 42.333 24.036 42.2438 23.9604 42.1688C23.885 42.0941 23.7956 42.035 23.6974 41.9948C23.5991 41.9547 23.4939 41.9343 23.3878 41.935Z" fill="url(#paint1_linear_1077_2584)" fill-opacity="0.8"/>
  <defs>
    <linearGradient id="paint0_linear_1077_2584" x1="29.2011" y1="35.6893" x2="8.92199" y2="27.2514" gradientUnits="userSpaceOnUse">
      <stop stop-color="#EE0979"/>
      <stop offset="0.31" stop-color="#F52F49"/>
      <stop offset="0.613" stop-color="#FA4F21"/>
      <stop offset="0.853" stop-color="#FE6309"/>
      <stop offset="1" stop-color="#FF6A00"/>
    </linearGradient>
    <linearGradient id="paint1_linear_1077_2584" x1="30.0236" y1="43.5211" x2="26.2669" y2="37.3234" gradientUnits="userSpaceOnUse">
      <stop stop-color="#EE0979"/>
      <stop offset="0.31" stop-color="#F52F49"/>
      <stop offset="0.613" stop-color="#FA4F21"/>
      <stop offset="0.853" stop-color="#FE6309"/>
      <stop offset="1" stop-color="#FF6A00"/>
    </linearGradient>
  </defs>
</svg>