<svg width="22" height="14" viewBox="0 0 22 14" fill="none" xmlns="http://www.w3.org/2000/svg">
<g id="Train" clip-path="url(#clip0_260_659)">
<path id="Vector" d="M19.76 5.125H19.25C19.1505 5.125 19.0552 5.16451 18.9848 5.23483C18.9145 5.30516 18.875 5.40054 18.875 5.5C18.875 5.59946 18.9145 5.69484 18.9848 5.76517C19.0552 5.83549 19.1505 5.875 19.25 5.875H19.7525C19.883 5.87549 20.0123 5.85028 20.1331 5.80079C20.2538 5.75131 20.3637 5.67852 20.4563 5.58659C20.5489 5.49466 20.6225 5.38539 20.6729 5.26501C20.7233 5.14463 20.7495 5.0155 20.75 4.885V3.865C20.749 3.60274 20.6444 3.3515 20.4589 3.16606C20.2735 2.98061 20.0223 2.87599 19.76 2.875H11.24C10.9777 2.87599 10.7265 2.98061 10.5411 3.16606C10.3556 3.3515 10.251 3.60274 10.25 3.865V4.885C10.251 5.14726 10.3556 5.3985 10.5411 5.58394C10.7265 5.76939 10.9777 5.87401 11.24 5.875H18.2937C18.3932 5.875 18.4886 5.83549 18.5589 5.76517C18.6292 5.69484 18.6687 5.59946 18.6687 5.5C18.6687 5.40054 18.6292 5.30516 18.5589 5.23483C18.4886 5.16451 18.3932 5.125 18.2937 5.125H17.375V3.625H19.76C19.8236 3.625 19.8847 3.65029 19.9297 3.69529C19.9747 3.7403 20 3.80135 20 3.865V4.885C20 4.94865 19.9747 5.0097 19.9297 5.05471C19.8847 5.09971 19.8236 5.125 19.76 5.125ZM11 4.885V3.865C11 3.80135 11.0253 3.7403 11.0703 3.69529C11.1153 3.65029 11.1763 3.625 11.24 3.625H13.625V5.125H11.24C11.1763 5.125 11.1153 5.09971 11.0703 5.05471C11.0253 5.0097 11 4.94865 11 4.885ZM16.625 5.125H14.375V3.625H16.625V5.125ZM8.75 7.75C11.7987 6.895 19.2725 7.06375 21.65 8.0425C21.6956 8.06138 21.737 8.08908 21.7719 8.12402C21.8068 8.15895 21.8344 8.20043 21.8533 8.24607C21.8721 8.29171 21.8817 8.34062 21.8816 8.38999C21.8814 8.43935 21.8716 8.48821 21.8525 8.53375C21.8143 8.62495 21.7417 8.69738 21.6504 8.73531C21.5591 8.77323 21.4565 8.77357 21.365 8.73625C19.1375 7.82125 11.8325 7.66375 8.9525 8.47C8.08606 8.68737 7.19429 8.78702 6.30125 8.76625C5.34975 8.75998 4.39941 8.69863 3.455 8.5825C3.40575 8.57684 3.35811 8.56153 3.31478 8.53745C3.27145 8.51337 3.23328 8.481 3.20247 8.44217C3.17165 8.40335 3.14878 8.35883 3.13517 8.31116C3.12155 8.2635 3.11746 8.21362 3.12312 8.16437C3.12879 8.11513 3.1441 8.06748 3.16817 8.02415C3.19225 7.98082 3.22463 7.94266 3.26345 7.91184C3.30228 7.88102 3.3468 7.85816 3.39446 7.84454C3.44213 7.83093 3.492 7.82684 3.54125 7.8325C5.79125 8.125 7.595 8.0875 8.75 7.75ZM21.5 13.375H21.245L20.6675 12.25H21.5787C21.6782 12.25 21.7736 12.2105 21.8439 12.1402C21.9142 12.0698 21.9537 11.9745 21.9537 11.875C21.9537 11.7755 21.9142 11.6802 21.8439 11.6098C21.7736 11.5395 21.6782 11.5 21.5787 11.5H17.4537C17.4129 11.4393 17.3678 11.3817 17.3187 11.3275C17.307 11.3108 17.2931 11.2957 17.2775 11.2825C17.2416 11.2422 17.2027 11.2046 17.1612 11.17L17.105 11.125C17.0698 11.0945 17.0321 11.0669 16.9925 11.0425L16.9175 10.9975C16.8808 10.9726 16.8419 10.9513 16.8012 10.9338L16.7187 10.8962L16.5912 10.8475L16.5087 10.8212L16.3625 10.7875H16.2875C16.1382 10.7675 15.9868 10.7675 15.8375 10.7875H15.7625L15.6162 10.8212L15.53 10.8475L15.41 10.8925C15.3774 10.9044 15.346 10.9195 15.3162 10.9375L15.2187 10.99C15.1849 11.0078 15.1524 11.0278 15.1212 11.05L15.0425 11.1063C15.0084 11.1304 14.9758 11.1567 14.945 11.185L14.8887 11.2375C14.8543 11.2707 14.8218 11.3057 14.7912 11.3425C14.7912 11.3425 14.7912 11.3425 14.765 11.3725C14.7387 11.4025 14.6937 11.4587 14.66 11.5075H13.7112C13.6704 11.4468 13.6253 11.3892 13.5762 11.335C13.5645 11.3183 13.5506 11.3032 13.535 11.29C13.4991 11.2497 13.4602 11.2121 13.4187 11.1775L13.355 11.125C13.3198 11.0945 13.2821 11.0669 13.2425 11.0425L13.1675 10.9975C13.1308 10.9726 13.0919 10.9513 13.0512 10.9338L12.9687 10.8962L12.8412 10.8475L12.7587 10.8212L12.6125 10.7875H12.5375C12.3882 10.7675 12.2368 10.7675 12.0875 10.7875H12.0125L11.8662 10.8212L11.78 10.8475L11.66 10.8925C11.6274 10.9044 11.596 10.9195 11.5662 10.9375L11.4687 10.99C11.4349 11.0078 11.4024 11.0278 11.3712 11.05L11.2925 11.1063C11.2584 11.1304 11.2258 11.1567 11.195 11.185L11.1387 11.2375C11.1043 11.2707 11.0718 11.3057 11.0412 11.3425C11.0412 11.3425 11.0412 11.3425 11.015 11.3725C10.9887 11.4025 10.9437 11.4587 10.91 11.5075H9.58625C9.54545 11.4468 9.50033 11.3892 9.45125 11.335C9.4395 11.3183 9.42564 11.3032 9.41 11.29C9.37409 11.2497 9.33523 11.2121 9.29375 11.1775L9.23 11.125C9.19477 11.0945 9.15715 11.0669 9.1175 11.0425L9.0425 10.9975C9.00585 10.9726 8.96692 10.9513 8.92625 10.9338L8.84375 10.8962L8.71625 10.8475L8.63375 10.8212L8.4875 10.7875H8.4125C8.26317 10.7675 8.11183 10.7675 7.9625 10.7875H7.8875L7.74125 10.8212L7.655 10.8475L7.535 10.8925C7.50236 10.9044 7.47096 10.9195 7.44125 10.9375L7.34375 10.99C7.30993 11.0078 7.27736 11.0278 7.24625 11.05L7.1675 11.1063C7.13337 11.1304 7.10081 11.1567 7.07 11.185L7.01375 11.2375C6.97933 11.2707 6.94678 11.3057 6.91625 11.3425C6.91625 11.3425 6.91625 11.3425 6.89 11.3725C6.86375 11.4025 6.81875 11.4587 6.785 11.5075H1.91C1.83241 11.5036 1.75935 11.4698 1.70619 11.4131C1.65304 11.3565 1.62393 11.2814 1.625 11.2037V10.6713C1.62597 10.593 1.6575 10.5182 1.71284 10.4628C1.76819 10.4075 1.84298 10.376 1.92125 10.375H21.5525C21.652 10.375 21.7473 10.3355 21.8177 10.2652C21.888 10.1948 21.9275 10.0995 21.9275 10C21.9275 9.90054 21.888 9.80516 21.8177 9.73483C21.7473 9.66451 21.652 9.625 21.5525 9.625H1.5725C1.38751 9.625 1.2101 9.55151 1.07929 9.42071C0.948487 9.2899 0.875 9.11249 0.875 8.9275V8.2C1.205 8.26375 1.715 8.3575 2.345 8.45125H2.40125C2.50071 8.45821 2.59885 8.42538 2.6741 8.35998C2.74935 8.29457 2.79554 8.20196 2.8025 8.1025C2.80946 8.00304 2.77663 7.9049 2.71123 7.82965C2.64582 7.7544 2.55321 7.70821 2.45375 7.70125C1.86125 7.61125 1.37 7.52125 1.0475 7.46125C1.12056 7.29985 1.21794 7.15062 1.33625 7.01875L1.71125 6.6175H3.33875C3.79609 6.61583 4.24831 6.52123 4.66797 6.33945C5.08763 6.15766 5.46596 5.89248 5.78 5.56L9.005 2.125H21.5525C21.652 2.125 21.7473 2.08549 21.8177 2.01517C21.888 1.94484 21.9275 1.84946 21.9275 1.75C21.9275 1.65054 21.888 1.55516 21.8177 1.48483C21.7473 1.41451 21.652 1.375 21.5525 1.375H20.5737V1.27C20.5728 0.999135 20.4645 0.739702 20.2726 0.548522C20.0807 0.357342 19.8209 0.249998 19.55 0.25H12.005C11.5073 0.250177 11.0269 0.43298 10.655 0.76375L9.96125 1.375H8.255C7.41135 1.37442 6.57658 1.54721 5.80248 1.88265C5.02838 2.21809 4.33148 2.70903 3.755 3.325L0.78875 6.51625C0.490132 6.83903 0.281885 7.23483 0.185 7.66375C0.145031 7.8397 0.124905 8.01957 0.125 8.2V8.9275C0.125918 9.20442 0.206251 9.47527 0.356469 9.70791C0.506688 9.94055 0.720487 10.1252 0.9725 10.24C0.909429 10.3751 0.876176 10.5222 0.875 10.6713V11.2037C0.875977 11.3044 0.892419 11.4043 0.92375 11.5H0.5C0.400544 11.5 0.305161 11.5395 0.234835 11.6098C0.164509 11.6802 0.125 11.7755 0.125 11.875C0.125 11.9745 0.164509 12.0698 0.234835 12.1402C0.305161 12.2105 0.400544 12.25 0.5 12.25H1.40375L1.74875 13.375H0.5C0.400544 13.375 0.305161 13.4145 0.234835 13.4848C0.164509 13.5552 0.125 13.6505 0.125 13.75C0.125 13.8495 0.164509 13.9448 0.234835 14.0152C0.305161 14.0855 0.400544 14.125 0.5 14.125H19.25C19.3495 14.125 19.4448 14.0855 19.5152 14.0152C19.5855 13.9448 19.625 13.8495 19.625 13.75C19.625 13.6505 19.5855 13.5552 19.5152 13.4848C19.4448 13.4145 19.3495 13.375 19.25 13.375H17.465C17.6508 13.0977 17.75 12.7713 17.75 12.4375C17.7538 12.3751 17.7538 12.3124 17.75 12.25H19.835L20.4162 13.375H20.375C20.2755 13.375 20.1802 13.4145 20.1098 13.4848C20.0395 13.5552 20 13.6505 20 13.75C20 13.8495 20.0395 13.9448 20.1098 14.0152C20.1802 14.0855 20.2755 14.125 20.375 14.125H21.5C21.5995 14.125 21.6948 14.0855 21.7652 14.0152C21.8355 13.9448 21.875 13.8495 21.875 13.75C21.875 13.6505 21.8355 13.5552 21.7652 13.4848C21.6948 13.4145 21.5995 13.375 21.5 13.375ZM11.1537 1.31875C11.3892 1.11244 11.6919 0.999107 12.005 1H19.55C19.6226 1 19.6922 1.02884 19.7436 1.08018C19.7949 1.13152 19.8237 1.20115 19.8237 1.27375V1.375H11.09L11.1537 1.31875ZM4.70375 3.46375C4.74875 3.4225 4.7975 3.38875 4.8425 3.35125C4.8875 3.31375 5.02625 3.20125 5.12375 3.13C5.22125 3.05875 5.24375 3.055 5.3 3.01375C5.35625 2.9725 5.48 2.8975 5.57375 2.845C5.6675 2.7925 5.705 2.77375 5.7725 2.74C5.84 2.70625 5.95625 2.6425 6.05 2.60125L6.26375 2.515C6.3575 2.4775 6.45125 2.44 6.545 2.41C6.63875 2.38 6.695 2.36125 6.77 2.3425C6.845 2.32375 6.96125 2.28625 7.05875 2.26375L7.29125 2.21875L7.5875 2.17L7.82375 2.1475H7.9625L5.2325 5.06125C4.98808 5.31765 4.69429 5.52192 4.36884 5.66177C4.04338 5.80162 3.69298 5.87416 3.33875 5.875H2.4125L4.31375 3.835C4.43724 3.70459 4.56742 3.58067 4.70375 3.46375ZM5.5325 13.375L5.1875 12.25H6.5C6.49616 12.3124 6.49616 12.3751 6.5 12.4375C6.49996 12.7713 6.59916 13.0977 6.785 13.375H5.5325ZM7.25 12.4375C7.24877 12.2965 7.28225 12.1575 7.3475 12.0325C7.4221 11.8716 7.54118 11.7353 7.69068 11.6398C7.84018 11.5444 8.01386 11.4936 8.19125 11.4936C8.36864 11.4936 8.54232 11.5444 8.69182 11.6398C8.84132 11.7353 8.96039 11.8716 9.035 12.0325C9.09367 12.1488 9.12449 12.2772 9.125 12.4075C9.125 12.6561 9.02623 12.8946 8.85041 13.0704C8.6746 13.2462 8.43614 13.345 8.1875 13.345C7.93886 13.345 7.7004 13.2462 7.52459 13.0704C7.34877 12.8946 7.25 12.6561 7.25 12.4075V12.4375ZM9.875 12.25H10.625C10.6212 12.3124 10.6212 12.3751 10.625 12.4375C10.625 12.7713 10.7242 13.0977 10.91 13.375H9.59C9.77584 13.0977 9.87504 12.7713 9.875 12.4375C9.87884 12.3751 9.87884 12.3124 9.875 12.25ZM11.375 12.4375C11.3738 12.2965 11.4073 12.1575 11.4725 12.0325C11.5471 11.8716 11.6662 11.7353 11.8157 11.6398C11.9652 11.5444 12.1389 11.4936 12.3162 11.4936C12.4936 11.4936 12.6673 11.5444 12.8168 11.6398C12.9663 11.7353 13.0854 11.8716 13.16 12.0325C13.2187 12.1488 13.2495 12.2772 13.25 12.4075C13.25 12.6561 13.1512 12.8946 12.9754 13.0704C12.7996 13.2462 12.5611 13.345 12.3125 13.345C12.0639 13.345 11.8254 13.2462 11.6496 13.0704C11.4738 12.8946 11.375 12.6561 11.375 12.4075V12.4375ZM14 12.25H14.375C14.3712 12.3124 14.3712 12.3751 14.375 12.4375C14.375 12.7713 14.4742 13.0977 14.66 13.375H13.715C13.9008 13.0977 14 12.7713 14 12.4375C14.0038 12.3751 14.0038 12.3124 14 12.25ZM2.1875 12.25H4.40375L4.74875 13.375H2.5325L2.1875 12.25ZM15.125 12.4375C15.1238 12.2965 15.1572 12.1575 15.2225 12.0325C15.2971 11.8716 15.4162 11.7353 15.5657 11.6398C15.7152 11.5444 15.8889 11.4936 16.0662 11.4936C16.2436 11.4936 16.4173 11.5444 16.5668 11.6398C16.7163 11.7353 16.8354 11.8716 16.91 12.0325C16.9687 12.1488 16.9995 12.2772 17 12.4075C17 12.6561 16.9012 12.8946 16.7254 13.0704C16.5496 13.2462 16.3111 13.345 16.0625 13.345C15.8139 13.345 15.5754 13.2462 15.3996 13.0704C15.2238 12.8946 15.125 12.6561 15.125 12.4075V12.4375Z" fill="black"/>
</g>
<defs>
<clipPath id="clip0_260_659">
<rect width="22" height="14" fill="white"/>
</clipPath>
</defs>
</svg>
