<svg width="45" height="45" viewBox="0 0 45 45" fill="none" xmlns="http://www.w3.org/2000/svg">
<circle cx="22.5" cy="22.5" r="22.5" fill="#F7F7F7"/>
<path d="M26.9828 21.6868C24.1071 20.1648 21.3536 18.7656 18.5391 17.3047V26.0442C21.5009 24.4496 24.6227 22.9893 26.995 21.6868H26.9828Z" fill="white"/>
<path d="M26.9828 21.6868C24.1071 20.1648 18.5391 17.3047 18.5391 17.3047L25.9628 22.2464C25.9628 22.2464 24.6105 22.9893 26.9828 21.6868Z" fill="#F7F7F7"/>
<path d="M19.4246 31.9752C13.7113 31.8754 11.7599 31.7855 10.5604 31.551C9.74892 31.3951 9.04373 31.0491 8.52666 30.5471C8.12703 30.1673 7.80922 29.5877 7.56265 28.7836C7.35115 28.1136 7.26877 27.5562 7.15133 26.1947C6.97155 23.1219 6.9287 20.6097 7.15133 17.8027C7.335 16.2526 7.42406 14.4124 8.6441 13.3388C9.22017 12.8364 9.8903 12.513 10.6428 12.3793C11.8183 12.1675 16.8265 12 22.0111 12C27.184 12 32.2033 12.1675 33.38 12.3793C34.32 12.5468 35.2017 13.0487 35.7193 13.6959C36.8325 15.3581 36.8519 17.4249 36.9649 19.0416C37.0117 19.8119 37.0117 24.186 36.9649 24.9563C36.7891 27.5113 36.6477 28.4153 36.248 29.3526C36.0009 29.9443 35.79 30.2565 35.4249 30.6026C34.8522 31.1351 34.1222 31.4894 33.3321 31.6181C28.3879 31.971 24.1896 32.0476 19.4246 31.9752ZM26.9959 21.7086C24.2452 20.3133 21.6115 19.0194 18.9193 17.6801V25.6928C21.7523 24.2309 24.7389 22.8916 27.0076 21.6976L26.9959 21.7086Z" fill="#202124"/>
</svg>
