<svg width="30" height="30" viewBox="0 0 30 30" fill="none" xmlns="http://www.w3.org/2000/svg">
<path d="M24.9828 14.6868C22.1071 13.1648 19.3536 11.7656 16.5391 10.3047V19.0442C19.5009 17.4496 22.6227 15.9893 24.995 14.6868H24.9828Z" fill="#F7F7F7"/>
<path d="M24.9828 14.6868C22.1071 13.1648 16.5391 10.3047 16.5391 10.3047L23.9628 15.2464C23.9628 15.2464 22.6105 15.9893 24.9828 14.6868Z" fill="white"/>
<path d="M12.4246 24.9752C6.71127 24.8754 4.75987 24.7855 3.56043 24.551C2.74892 24.3951 2.04373 24.0491 1.52666 23.5471C1.12703 23.1673 0.809217 22.5877 0.562648 21.7836C0.351145 21.1136 0.26877 20.5562 0.15133 19.1947C-0.0284475 16.1219 -0.0713047 13.6097 0.15133 10.8027C0.335004 9.25255 0.424058 7.41237 1.6441 6.3388C2.22017 5.83635 2.8903 5.51301 3.6428 5.37934C4.81832 5.16748 9.82649 5 15.0111 5C20.184 5 25.2033 5.16748 26.38 5.37934C27.32 5.54682 28.2017 6.04874 28.7193 6.69595C29.8325 8.35808 29.8519 10.4249 29.9649 12.0416C30.0117 12.8119 30.0117 17.186 29.9649 17.9563C29.7891 20.5113 29.6477 21.4153 29.248 22.3526C29.0009 22.9443 28.79 23.2565 28.4249 23.6026C27.8522 24.1351 27.1222 24.4894 26.3321 24.6181C21.3879 24.971 17.1896 25.0476 12.4246 24.9752ZM19.9959 14.7086C17.2452 13.3133 14.6115 12.0194 11.9193 10.6801V18.6928C14.7523 17.2309 17.7389 15.8916 20.0076 14.6976L19.9959 14.7086Z" fill="#202124"/>
</svg>
