<svg width="146" height="52" viewBox="0 0 146 52" fill="none" xmlns="http://www.w3.org/2000/svg">
<rect width="145.6" height="52" rx="4.16" fill="white"/>
<path d="M32.0292 26.6034C32.0517 24.8551 32.9906 23.2009 34.48 22.2852C33.5404 20.9433 31.9666 20.0925 30.3292 20.0413C28.5828 19.8579 26.8897 21.0863 25.9998 21.0863C25.0926 21.0863 23.7224 20.0595 22.2469 20.0898C20.3237 20.152 18.5308 21.2454 17.5951 22.9268C15.5838 26.4092 17.084 31.527 19.0108 34.3419C19.9747 35.7203 21.1013 37.26 22.5755 37.2054C24.018 37.1455 24.5568 36.2855 26.2981 36.2855C28.0232 36.2855 28.5287 37.2054 30.0327 37.1706C31.5806 37.1455 32.5559 35.7861 33.486 34.3947C34.1787 33.4126 34.7116 32.3271 35.0652 31.1785C33.2461 30.4091 32.0313 28.5785 32.0292 26.6034Z" fill="#282828"/>
<path d="M29.1883 18.1901C30.0322 17.1769 30.448 15.8746 30.3474 14.5598C29.0579 14.6952 27.8669 15.3115 27.0115 16.2858C26.175 17.2378 25.7397 18.5171 25.822 19.7817C27.1119 19.7949 28.38 19.1954 29.1883 18.1901Z" fill="#282828"/>
<path d="M44.5132 13.9966H46.8745C49.4034 13.9966 50.6679 15.2238 50.6679 17.6783C50.6679 20.1869 49.4034 21.4412 46.8745 21.4412H44.5132V13.9966ZM45.4984 20.5576H46.8542C47.9342 20.5576 48.6705 20.307 49.0632 19.806C49.4559 19.3016 49.6523 18.5923 49.6523 17.6783C49.6523 16.7879 49.4559 16.099 49.0632 15.6115C48.6739 15.124 47.9376 14.8802 46.8542 14.8802H45.4984V20.5576ZM54.6055 15.9314C55.374 15.9314 55.9867 16.1768 56.4437 16.6677C56.9042 17.1586 57.1344 17.8526 57.1344 18.7498C57.1344 19.6435 56.9042 20.3375 56.4437 20.8318C55.9867 21.3227 55.374 21.5681 54.6055 21.5681C53.8404 21.5681 53.2276 21.3227 52.7672 20.8318C52.3102 20.3375 52.0816 19.6435 52.0816 18.7498C52.0816 17.8526 52.3102 17.1586 52.7672 16.6677C53.2276 16.1768 53.8404 15.9314 54.6055 15.9314ZM54.6055 20.8166C55.0625 20.8166 55.4332 20.6439 55.7176 20.2986C56.0019 19.9499 56.1441 19.4336 56.1441 18.7498C56.1441 18.0625 56.0019 17.5462 55.7176 17.2009C55.4332 16.8522 55.0625 16.6779 54.6055 16.6779C54.1484 16.6779 53.7777 16.8522 53.4934 17.2009C53.209 17.5462 53.0668 18.0625 53.0668 18.7498C53.0668 19.4336 53.209 19.9499 53.4934 20.2986C53.7777 20.6439 54.1484 20.8166 54.6055 20.8166ZM65.4798 16.0533L63.8598 21.4412H62.9458L61.7778 17.4802L60.6149 21.4412H59.7009L58.0759 16.0533H59.1372L60.1274 20.1615L61.3411 16.0533H62.2145L63.4333 20.1615L64.4235 16.0533H65.4798ZM67.7263 16.7388C68.2037 16.2005 68.7403 15.9314 69.3361 15.9314C70.5515 15.9314 71.1591 16.5932 71.1591 17.9169V21.4412H70.1994V17.9576C70.1994 17.5175 70.1198 17.2009 69.9607 17.008C69.805 16.815 69.5477 16.7185 69.1888 16.7185C68.7013 16.7185 68.2138 17.0063 67.7263 17.5818V21.4412H66.7666V16.0533H67.7263V16.7388ZM74.0354 21.4412H73.0756V13.9966H74.0354V21.4412ZM78.1558 15.9314C78.9243 15.9314 79.537 16.1768 79.9941 16.6677C80.4545 17.1586 80.6847 17.8526 80.6847 18.7498C80.6847 19.6435 80.4545 20.3375 79.9941 20.8318C79.537 21.3227 78.9243 21.5681 78.1558 21.5681C77.3907 21.5681 76.7779 21.3227 76.3175 20.8318C75.8605 20.3375 75.6319 19.6435 75.6319 18.7498C75.6319 17.8526 75.8605 17.1586 76.3175 16.6677C76.7779 16.1768 77.3907 15.9314 78.1558 15.9314ZM78.1558 20.8166C78.6128 20.8166 78.9835 20.6439 79.2679 20.2986C79.5523 19.9499 79.6944 19.4336 79.6944 18.7498C79.6944 18.0625 79.5523 17.5462 79.2679 17.2009C78.9835 16.8522 78.6128 16.6779 78.1558 16.6779C77.6987 16.6779 77.328 16.8522 77.0437 17.2009C76.7593 17.5462 76.6171 18.0625 76.6171 18.7498C76.6171 19.4336 76.7593 19.9499 77.0437 20.2986C77.328 20.6439 77.6987 20.8166 78.1558 20.8166ZM85.6937 20.0244V18.831H85.0387C83.6506 18.831 82.9566 19.2085 82.9566 19.9634C82.9566 20.2376 83.0582 20.4492 83.2613 20.5982C83.4644 20.7438 83.7387 20.8166 84.084 20.8166C84.3988 20.8166 84.7035 20.7455 84.998 20.6033C85.2926 20.4611 85.5245 20.2681 85.6937 20.0244ZM85.6937 20.8876C85.2062 21.3413 84.5782 21.5681 83.8098 21.5681C83.2749 21.5681 82.8348 21.4242 82.4894 21.1365C82.1441 20.8453 81.9715 20.4712 81.9715 20.0142C81.9715 18.7548 83.0565 18.1251 85.2266 18.1251H85.6937C85.6937 17.7392 85.6734 17.4599 85.6328 17.2873C85.5922 17.1112 85.4788 16.9656 85.2926 16.8505C85.1064 16.7354 84.8101 16.6779 84.4039 16.6779C83.5508 16.6779 83.1107 16.9826 83.0836 17.5919H82.1289C82.2 16.4849 82.9753 15.9314 84.4547 15.9314C85.1453 15.9314 85.6836 16.0685 86.0695 16.3427C86.4555 16.6169 86.6484 17.1552 86.6484 17.9576V21.4412H85.6937V20.8876ZM92.0028 19.8923V17.333C91.5898 16.8962 91.1175 16.6779 90.586 16.6779C90.1764 16.6779 89.848 16.8556 89.6009 17.2111C89.3571 17.5632 89.2352 18.0896 89.2352 18.7904C89.2352 19.4539 89.3503 19.9583 89.5805 20.3037C89.8141 20.6456 90.1357 20.8166 90.5454 20.8166C91.0803 20.8166 91.5661 20.5085 92.0028 19.8923ZM92.0028 20.7962C91.5762 21.3108 91.0634 21.5681 90.4641 21.5681C89.76 21.5681 89.2149 21.3176 88.829 20.8166C88.443 20.3155 88.2501 19.6401 88.2501 18.7904C88.2501 17.9102 88.465 17.2145 88.895 16.7033C89.3283 16.1887 89.8717 15.9314 90.5251 15.9314C91.1074 15.9314 91.5999 16.1108 92.0028 16.4697V13.9966H92.9575V21.4412H92.0028V20.7962ZM100.365 15.9314C101.134 15.9314 101.747 16.1768 102.204 16.6677C102.664 17.1586 102.894 17.8526 102.894 18.7498C102.894 19.6435 102.664 20.3375 102.204 20.8318C101.747 21.3227 101.134 21.5681 100.365 21.5681C99.6004 21.5681 98.9876 21.3227 98.5272 20.8318C98.0701 20.3375 97.8416 19.6435 97.8416 18.7498C97.8416 17.8526 98.0701 17.1586 98.5272 16.6677C98.9876 16.1768 99.6004 15.9314 100.365 15.9314ZM100.365 20.8166C100.822 20.8166 101.193 20.6439 101.478 20.2986C101.762 19.9499 101.904 19.4336 101.904 18.7498C101.904 18.0625 101.762 17.5462 101.478 17.2009C101.193 16.8522 100.822 16.6779 100.365 16.6779C99.9084 16.6779 99.5377 16.8522 99.2533 17.2009C98.969 17.5462 98.8268 18.0625 98.8268 18.7498C98.8268 19.4336 98.969 19.9499 99.2533 20.2986C99.5377 20.6439 99.9084 20.8166 100.365 20.8166ZM105.451 16.7388C105.928 16.2005 106.465 15.9314 107.06 15.9314C108.276 15.9314 108.884 16.5932 108.884 17.9169V21.4412H107.924V17.9576C107.924 17.5175 107.844 17.2009 107.685 17.008C107.529 16.815 107.272 16.7185 106.913 16.7185C106.426 16.7185 105.938 17.0063 105.451 17.5818V21.4412H104.491V16.0533H105.451V16.7388ZM116.175 21.4513C115.965 21.4919 115.736 21.5123 115.489 21.5123C115.096 21.5123 114.809 21.4429 114.626 21.3041C114.443 21.1619 114.33 20.9807 114.286 20.7607C114.242 20.5406 114.22 20.241 114.22 19.8619V16.8048H113.554V16.0533H114.22V14.7126H115.174V16.0533H116.048V16.8048H115.174V19.9126C115.174 20.2817 115.22 20.5169 115.311 20.6185C115.406 20.7167 115.535 20.7658 115.697 20.7658C115.863 20.7658 116.022 20.7522 116.175 20.7251V21.4513ZM118.457 16.7388C118.934 16.2005 119.471 15.9314 120.067 15.9314C121.282 15.9314 121.89 16.5932 121.89 17.9169V21.4412H120.93V17.9576C120.93 17.5175 120.85 17.2009 120.691 17.008C120.535 16.815 120.278 16.7185 119.919 16.7185C119.432 16.7185 118.944 17.0063 118.457 17.5818V21.4412H117.497V13.9966H118.457V16.7388ZM126.096 21.5681C125.304 21.5681 124.668 21.321 124.187 20.8267C123.706 20.3291 123.466 19.6367 123.466 18.7498C123.466 17.8695 123.698 17.1806 124.162 16.683C124.629 16.1819 125.238 15.9314 125.99 15.9314C126.758 15.9314 127.371 16.1768 127.828 16.6677C128.288 17.1586 128.519 17.8526 128.519 18.7498V18.9783H124.461C124.502 19.6012 124.673 20.0633 124.974 20.3646C125.279 20.6659 125.653 20.8166 126.096 20.8166C126.431 20.8166 126.733 20.7319 127 20.5626C127.271 20.39 127.413 20.1462 127.427 19.8314H128.417C128.343 20.3866 128.09 20.8149 127.66 21.1162C127.234 21.4175 126.712 21.5681 126.096 21.5681ZM127.508 18.2267C127.43 17.7087 127.256 17.3211 126.985 17.0638C126.714 16.8065 126.382 16.6779 125.99 16.6779C125.607 16.6779 125.279 16.8065 125.005 17.0638C124.73 17.3177 124.556 17.7054 124.481 18.2267H127.508Z" fill="#282828"/>
<path d="M50.2352 30.574L48.401 25.7396L46.6521 30.574H50.2352ZM53.406 34.8396H51.8491L50.6405 31.6688H46.2753L45.1236 34.8396H43.6662L47.6687 24.4173H49.1546L53.406 34.8396ZM56.4517 28.1994C57.0489 27.4838 57.7669 27.1259 58.6058 27.1259C59.5916 27.1259 60.3547 27.4767 60.895 28.1781C61.4353 28.8748 61.7055 29.818 61.7055 31.0076C61.7055 32.2447 61.4022 33.2234 60.7955 33.9438C60.1936 34.6595 59.4329 35.0173 58.5134 35.0173C57.6982 35.0173 57.0109 34.7638 56.4517 34.2566V37.7402H55.108V27.2966H56.4517V28.1994ZM56.4517 33.048C57.0252 33.6594 57.684 33.9651 58.4281 33.9651C59.0063 33.9651 59.466 33.7187 59.8073 33.2258C60.1485 32.7281 60.3192 31.9887 60.3192 31.0076C60.3192 30.0787 60.158 29.3749 59.8357 28.8962C59.5134 28.4127 59.0632 28.171 58.4849 28.171C57.7408 28.171 57.0631 28.6023 56.4517 29.4649V33.048ZM65.2844 28.1994C65.8815 27.4838 66.5996 27.1259 67.4385 27.1259C68.4243 27.1259 69.1874 27.4767 69.7277 28.1781C70.268 28.8748 70.5382 29.818 70.5382 31.0076C70.5382 32.2447 70.2348 33.2234 69.6282 33.9438C69.0263 34.6595 68.2656 35.0173 67.3461 35.0173C66.5309 35.0173 65.8436 34.7638 65.2844 34.2566V37.7402H63.9407V27.2966H65.2844V28.1994ZM65.2844 33.048C65.8578 33.6594 66.5166 33.9651 67.2608 33.9651C67.839 33.9651 68.2987 33.7187 68.64 33.2258C68.9812 32.7281 69.1519 31.9887 69.1519 31.0076C69.1519 30.0787 68.9907 29.3749 68.6684 28.8962C68.3461 28.4127 67.8959 28.171 67.3176 28.171C66.5735 28.171 65.8958 28.6023 65.2844 29.4649V33.048ZM81.4781 35.0173C80.0088 35.0173 78.9092 34.6879 78.1793 34.0291C77.4542 33.3703 77.0726 32.5243 77.0347 31.4911H78.3642C78.4353 32.2684 78.7576 32.8442 79.3311 33.2187C79.9093 33.5883 80.606 33.7732 81.4212 33.7732C82.1938 33.7732 82.8147 33.6144 83.2839 33.2969C83.7578 32.9793 83.9948 32.548 83.9948 32.003C83.9948 31.4295 83.7507 31.0124 83.2625 30.7517C82.7744 30.491 81.9331 30.2351 80.7387 29.9839C79.5491 29.728 78.6936 29.3749 78.1722 28.9246C77.6556 28.4743 77.3973 27.8748 77.3973 27.1259C77.3973 26.2823 77.7338 25.5903 78.4068 25.05C79.0846 24.5097 79.9828 24.2395 81.1013 24.2395C82.2767 24.2395 83.2246 24.512 83.945 25.0571C84.6655 25.6022 85.047 26.3723 85.0897 27.3676H83.746C83.6085 26.1069 82.7459 25.4766 81.1582 25.4766C80.3904 25.4766 79.7955 25.6211 79.3737 25.9102C78.9519 26.1993 78.741 26.5832 78.741 27.0619C78.741 27.498 78.9092 27.825 79.2457 28.043C79.587 28.2611 80.2197 28.472 81.1439 28.6758C82.0729 28.8796 82.8099 29.081 83.355 29.2801C83.9 29.4791 84.3669 29.7896 84.7555 30.2114C85.1442 30.6285 85.3385 31.1901 85.3385 31.8963C85.3385 32.7921 84.9806 33.5362 84.265 34.1287C83.554 34.7211 82.6251 35.0173 81.4781 35.0173ZM90.7373 34.8538C90.4435 34.9107 90.1236 34.9391 89.7776 34.9391C89.2278 34.9391 88.8249 34.842 88.569 34.6476C88.313 34.4486 88.1543 34.195 88.0927 33.8869C88.031 33.5789 88.0002 33.1594 88.0002 32.6286V28.3487H87.0689V27.2966H88.0002V25.4197H89.3368V27.2966H90.5596V28.3487H89.3368V32.6997C89.3368 33.2163 89.4008 33.5457 89.5287 33.6879C89.6615 33.8253 89.8416 33.8941 90.0691 33.8941C90.3013 33.8941 90.5241 33.8751 90.7373 33.8372V34.8538ZM95.6456 27.1259C96.7215 27.1259 97.5794 27.4695 98.2192 28.1568C98.8638 28.844 99.1861 29.8156 99.1861 31.0716C99.1861 32.3229 98.8638 33.2945 98.2192 33.9865C97.5794 34.6737 96.7215 35.0173 95.6456 35.0173C94.5745 35.0173 93.7166 34.6737 93.0721 33.9865C92.4322 33.2945 92.1123 32.3229 92.1123 31.0716C92.1123 29.8156 92.4322 28.844 93.0721 28.1568C93.7166 27.4695 94.5745 27.1259 95.6456 27.1259ZM95.6456 33.9651C96.2855 33.9651 96.8045 33.7234 97.2026 33.24C97.6007 32.7518 97.7998 32.029 97.7998 31.0716C97.7998 30.1095 97.6007 29.3867 97.2026 28.9033C96.8045 28.4151 96.2855 28.171 95.6456 28.171C95.0058 28.171 94.4868 28.4151 94.0887 28.9033C93.6906 29.3867 93.4915 30.1095 93.4915 31.0716C93.4915 32.029 93.6906 32.7518 94.0887 33.24C94.4868 33.7234 95.0058 33.9651 95.6456 33.9651ZM105.339 28.5194C105.149 28.4625 104.876 28.4341 104.521 28.4341C103.838 28.4341 103.253 28.7919 102.765 29.5076V34.8396H101.421V27.2966H102.765V28.3487C103.329 27.5335 103.983 27.1259 104.727 27.1259C104.917 27.1259 105.121 27.1449 105.339 27.1828V28.5194ZM110.204 35.0173C109.095 35.0173 108.204 34.6713 107.531 33.9794C106.858 33.2826 106.522 32.3134 106.522 31.0716C106.522 29.8393 106.846 28.8748 107.496 28.1781C108.15 27.4767 109.003 27.1259 110.055 27.1259C111.131 27.1259 111.989 27.4695 112.629 28.1568C113.273 28.844 113.595 29.8156 113.595 31.0716V31.3916H107.915C107.972 32.2636 108.211 32.9106 108.633 33.3324C109.06 33.7542 109.583 33.9651 110.204 33.9651C110.673 33.9651 111.095 33.8467 111.47 33.6097C111.849 33.368 112.048 33.0267 112.067 32.5859H113.453C113.349 33.3632 112.996 33.9628 112.394 34.3846C111.797 34.8064 111.067 35.0173 110.204 35.0173ZM112.181 30.3394C112.072 29.6142 111.828 29.0715 111.448 28.7113C111.069 28.3511 110.605 28.171 110.055 28.171C109.519 28.171 109.06 28.3511 108.676 28.7113C108.292 29.0668 108.048 29.6095 107.943 30.3394H112.181Z" fill="#282828"/>
</svg>
