<svg width="145" height="52" viewBox="0 0 145 52" fill="none" xmlns="http://www.w3.org/2000/svg">
<rect width="144.6" height="51.6429" rx="4.13143" fill="white"/>
<path d="M48.4727 21.4884C47.4103 21.4884 46.5479 21.1404 45.8856 20.4444C45.2266 19.7485 44.8971 18.8222 44.8971 17.6656C44.8971 16.5057 45.2232 15.5794 45.8755 14.8868C46.5277 14.1908 47.3834 13.8428 48.4425 13.8428C49.3335 13.8428 50.0731 14.058 50.6615 14.4884C51.2533 14.9154 51.5844 15.4886 51.655 16.2081H50.6413C50.601 15.7307 50.3858 15.3575 49.9958 15.0885C49.6058 14.8162 49.0914 14.68 48.4526 14.68C47.6894 14.68 47.0741 14.9406 46.6067 15.4617C46.1428 15.9828 45.9108 16.7175 45.9108 17.6656C45.9108 18.6104 46.1461 19.345 46.6168 19.8695C47.0875 20.3906 47.7028 20.6512 48.4627 20.6512C49.5285 20.6512 50.3203 20.2999 50.838 19.5972V18.4725H48.8863V17.59H51.7862V21.3623H51.0952L50.838 20.5856C50.3371 21.1875 49.5486 21.4884 48.4727 21.4884ZM55.9438 21.4884C55.1571 21.4884 54.525 21.2429 54.0476 20.7521C53.5701 20.2578 53.3314 19.5703 53.3314 18.6894C53.3314 17.8152 53.5617 17.131 54.0223 16.6368C54.4863 16.1392 55.0915 15.8904 55.8379 15.8904C56.6011 15.8904 57.2097 16.1341 57.6636 16.6217C58.1208 17.1092 58.3494 17.7984 58.3494 18.6894V18.9163H54.3199C54.3602 19.535 54.53 19.9939 54.8293 20.2931C55.1319 20.5924 55.5034 20.742 55.9438 20.742C56.2767 20.742 56.5759 20.6579 56.8415 20.4898C57.1105 20.3184 57.2517 20.0763 57.2651 19.7636H58.2486C58.1746 20.315 57.9241 20.7403 57.4971 21.0395C57.0735 21.3388 56.5557 21.4884 55.9438 21.4884ZM57.3458 18.1699C57.2685 17.6555 57.0954 17.2705 56.8264 17.015C56.5574 16.7595 56.2279 16.6317 55.8379 16.6317C55.458 16.6317 55.1319 16.7595 54.8595 17.015C54.5872 17.2672 54.414 17.6522 54.3401 18.1699H57.3458ZM62.0129 21.3724C61.8044 21.4127 61.5775 21.4329 61.332 21.4329C60.942 21.4329 60.6562 21.364 60.4747 21.2261C60.2931 21.0849 60.1805 20.9051 60.1368 20.6865C60.0931 20.468 60.0712 20.1704 60.0712 19.7939V16.7578H59.4105V16.0114H60.0712V14.68H61.0193V16.0114H61.8868V16.7578H61.0193V19.8443C61.0193 20.2108 61.0647 20.4444 61.1555 20.5453C61.2496 20.6428 61.3774 20.6916 61.5388 20.6916C61.7035 20.6916 61.8616 20.6781 62.0129 20.6512V21.3724ZM67.5393 21.3623H66.5861V16.0114H67.5393V21.3623ZM67.5393 14.9977H66.5861V13.9689H67.5393V14.9977ZM71.5406 21.3724C71.3321 21.4127 71.1052 21.4329 70.8597 21.4329C70.4697 21.4329 70.1839 21.364 70.0024 21.2261C69.8208 21.0849 69.7082 20.9051 69.6645 20.6865C69.6208 20.468 69.5989 20.1704 69.5989 19.7939V16.7578H68.9382V16.0114H69.5989V14.68H70.547V16.0114H71.4145V16.7578H70.547V19.8443C70.547 20.2108 70.5924 20.4444 70.6832 20.5453C70.7774 20.6428 70.9051 20.6916 71.0665 20.6916C71.2312 20.6916 71.3893 20.6781 71.5406 20.6512V21.3724ZM79.4423 13.8428C80.4779 13.8428 81.3251 14.1925 81.9841 14.8918C82.6431 15.5911 82.9726 16.5157 82.9726 17.6656C82.9726 18.8155 82.6431 19.7401 81.9841 20.4394C81.3251 21.1387 80.4779 21.4884 79.4423 21.4884C78.4034 21.4884 77.5528 21.1387 76.8904 20.4394C76.2281 19.7367 75.8969 18.8121 75.8969 17.6656C75.8969 16.5157 76.2281 15.5911 76.8904 14.8918C77.5528 14.1925 78.4034 13.8428 79.4423 13.8428ZM79.4322 20.6512C80.1719 20.6512 80.7771 20.389 81.2478 19.8645C81.7219 19.34 81.9589 18.607 81.9589 17.6656C81.9589 16.7242 81.7236 15.9912 81.2529 15.4667C80.7821 14.9422 80.182 14.68 79.4524 14.68C78.7094 14.68 78.0991 14.9422 77.6217 15.4667C77.1476 15.9912 76.9106 16.7242 76.9106 17.6656C76.9106 18.6036 77.1476 19.3366 77.6217 19.8645C78.0958 20.389 78.6993 20.6512 79.4322 20.6512ZM85.6223 16.6923C86.0964 16.1577 86.6293 15.8904 87.221 15.8904C88.428 15.8904 89.0316 16.5477 89.0316 17.8623V21.3623H88.0784V17.9026C88.0784 17.4656 87.9994 17.1512 87.8414 16.9595C87.6867 16.7679 87.4312 16.6721 87.0748 16.6721C86.5906 16.6721 86.1065 16.9579 85.6223 17.5294V21.3623H84.6691V16.0114H85.6223V16.6923Z" fill="#282828"/>
<path d="M50.0967 34.8667C48.6093 34.8667 47.4019 34.3795 46.4746 33.4052C45.552 32.4308 45.0907 31.134 45.0907 29.5148C45.0907 27.8909 45.5473 26.5941 46.4605 25.6244C47.3737 24.6501 48.5716 24.1629 50.0543 24.1629C51.3017 24.1629 52.3372 24.4642 53.161 25.0667C53.9894 25.6645 54.453 26.467 54.5519 27.4743H53.1327C53.0762 26.8059 52.775 26.2834 52.229 25.9069C51.6829 25.5256 50.9628 25.335 50.0684 25.335C48.9999 25.335 48.1385 25.6998 47.4843 26.4293C46.8347 27.1589 46.5099 28.1874 46.5099 29.5148C46.5099 30.8375 46.8394 31.866 47.4984 32.6003C48.1574 33.3299 49.0188 33.6946 50.0826 33.6946C51.5747 33.6946 52.6832 33.2028 53.4081 32.219V30.6445H50.6756V29.4089H54.7355V34.6902H53.7682L53.4081 33.6029C52.7067 34.4454 51.6029 34.8667 50.0967 34.8667ZM60.4079 27.0295C61.4764 27.0295 62.3284 27.3708 62.9638 28.0533C63.604 28.7358 63.924 29.7007 63.924 30.9481C63.924 32.1908 63.604 33.1557 62.9638 33.8429C62.3284 34.5254 61.4764 34.8667 60.4079 34.8667C59.3441 34.8667 58.4921 34.5254 57.852 33.8429C57.2165 33.1557 56.8988 32.1908 56.8988 30.9481C56.8988 29.7007 57.2165 28.7358 57.852 28.0533C58.4921 27.3708 59.3441 27.0295 60.4079 27.0295ZM60.4079 33.8217C61.0433 33.8217 61.5588 33.5817 61.9542 33.1016C62.3495 32.6167 62.5472 31.8989 62.5472 30.9481C62.5472 29.9926 62.3495 29.2747 61.9542 28.7946C61.5588 28.3098 61.0433 28.0674 60.4079 28.0674C59.7724 28.0674 59.257 28.3098 58.8616 28.7946C58.4662 29.2747 58.2686 29.9926 58.2686 30.9481C58.2686 31.8989 58.4662 32.6167 58.8616 33.1016C59.257 33.5817 59.7724 33.8217 60.4079 33.8217ZM69.1799 27.0295C70.2484 27.0295 71.1004 27.3708 71.7358 28.0533C72.376 28.7358 72.6961 29.7007 72.6961 30.9481C72.6961 32.1908 72.376 33.1557 71.7358 33.8429C71.1004 34.5254 70.2484 34.8667 69.1799 34.8667C68.1161 34.8667 67.2642 34.5254 66.624 33.8429C65.9886 33.1557 65.6708 32.1908 65.6708 30.9481C65.6708 29.7007 65.9886 28.7358 66.624 28.0533C67.2642 27.3708 68.1161 27.0295 69.1799 27.0295ZM69.1799 33.8217C69.8154 33.8217 70.3308 33.5817 70.7262 33.1016C71.1216 32.6167 71.3193 31.8989 71.3193 30.9481C71.3193 29.9926 71.1216 29.2747 70.7262 28.7946C70.3308 28.3098 69.8154 28.0674 69.1799 28.0674C68.5445 28.0674 68.029 28.3098 67.6337 28.7946C67.2383 29.2747 67.0406 29.9926 67.0406 30.9481C67.0406 31.8989 67.2383 32.6167 67.6337 33.1016C68.029 33.5817 68.5445 33.8217 69.1799 33.8217ZM80.988 34.1112C80.988 36.5212 79.9007 37.7262 77.726 37.7262C76.7846 37.7262 76.0409 37.5215 75.4949 37.112C74.9536 36.7024 74.6829 36.1517 74.6829 35.4598H76.0597C76.0597 36.2788 76.6104 36.6883 77.7119 36.6883C78.3332 36.6883 78.8133 36.5165 79.1522 36.1729C79.4911 35.834 79.6606 35.1656 79.6606 34.1677V33.7935C79.0675 34.509 78.3544 34.8667 77.5212 34.8667C76.5422 34.8667 75.7844 34.5184 75.2478 33.8217C74.7112 33.1251 74.4429 32.186 74.4429 31.0046C74.4429 29.7808 74.7417 28.8135 75.3395 28.1027C75.942 27.3872 76.6975 27.0295 77.606 27.0295C78.4156 27.0295 79.1005 27.279 79.6606 27.7779V27.1989H80.988V34.1112ZM79.6606 32.5367V28.9782C79.0863 28.371 78.4297 28.0674 77.6907 28.0674C77.1212 28.0674 76.6646 28.3145 76.321 28.8087C75.9821 29.2983 75.8126 30.0302 75.8126 31.0046C75.8126 31.9272 75.9726 32.6285 76.2927 33.1086C76.6175 33.584 77.0647 33.8217 77.6342 33.8217C78.3779 33.8217 79.0534 33.3934 79.6606 32.5367ZM85.0224 34.6902H83.6879V24.3394H85.0224V34.6902ZM90.8996 34.8667C89.7981 34.8667 88.9132 34.5231 88.2448 33.8359C87.5764 33.1439 87.2422 32.1813 87.2422 30.9481C87.2422 29.7243 87.5646 28.7664 88.2095 28.0745C88.8591 27.3778 89.7063 27.0295 90.7513 27.0295C91.8198 27.0295 92.6718 27.3708 93.3072 28.0533C93.9474 28.7358 94.2675 29.7007 94.2675 30.9481V31.2658H88.6261C88.6826 32.1319 88.9203 32.7744 89.3392 33.1933C89.7628 33.6123 90.283 33.8217 90.8996 33.8217C91.3656 33.8217 91.7845 33.7041 92.1564 33.4687C92.5329 33.2287 92.7306 32.8897 92.7494 32.452H94.1262C94.0227 33.2239 93.672 33.8194 93.0742 34.2383C92.4811 34.6572 91.7563 34.8667 90.8996 34.8667ZM92.8624 30.2209C92.7541 29.5007 92.5117 28.9617 92.1352 28.604C91.7586 28.2463 91.2973 28.0674 90.7513 28.0674C90.2194 28.0674 89.7628 28.2463 89.3816 28.604C89.0003 28.957 88.7579 29.496 88.6543 30.2209H92.8624ZM101.228 24.3394H105.09C105.937 24.3394 106.646 24.4194 107.215 24.5795C107.789 24.7348 108.244 25.0761 108.578 25.6033C108.912 26.1257 109.079 26.7118 109.079 27.3613C109.079 28.4063 108.747 29.1994 108.084 29.7407C107.42 30.2821 106.46 30.5527 105.203 30.5527H102.597V34.6902H101.228V24.3394ZM102.597 29.3242H105.217C106.097 29.3242 106.723 29.1594 107.095 28.8299C107.472 28.5004 107.66 28.025 107.66 27.4037C107.66 26.9895 107.556 26.6223 107.349 26.3023C107.142 25.9822 106.879 25.7798 106.558 25.695C106.243 25.6103 105.787 25.568 105.189 25.568H102.597V29.3242ZM112.753 34.6902H111.419V24.3394H112.753V34.6902ZM120.191 32.7203V31.0611H119.28C117.35 31.0611 116.385 31.5859 116.385 32.6356C116.385 33.0168 116.527 33.311 116.809 33.5181C117.091 33.7205 117.473 33.8217 117.953 33.8217C118.391 33.8217 118.814 33.7229 119.224 33.5252C119.633 33.3275 119.956 33.0592 120.191 32.7203ZM120.191 33.9206C119.513 34.5513 118.64 34.8667 117.571 34.8667C116.828 34.8667 116.216 34.6667 115.736 34.2666C115.256 33.8617 115.016 33.3416 115.016 32.7062C115.016 30.9552 116.524 30.0796 119.541 30.0796H120.191C120.191 29.543 120.163 29.1547 120.106 28.9147C120.05 28.6699 119.892 28.4675 119.633 28.3075C119.374 28.1474 118.962 28.0674 118.398 28.0674C117.211 28.0674 116.599 28.491 116.562 29.3383H115.234C115.333 27.7991 116.411 27.0295 118.468 27.0295C119.428 27.0295 120.177 27.2201 120.713 27.6014C121.25 27.9827 121.518 28.7311 121.518 29.8467V34.6902H120.191V33.9206ZM124.642 36.4977C125.301 36.4977 125.84 35.8952 126.259 34.6902L123.428 27.1989H124.868L126.852 33.0592L128.836 27.1989H130.276L127.445 34.6902C127.172 35.4057 126.939 35.9564 126.746 36.3424C126.558 36.733 126.308 37.0602 125.998 37.3238C125.692 37.5921 125.315 37.7262 124.868 37.7262C124.534 37.7262 124.247 37.6933 124.006 37.6274V36.3988C124.214 36.4647 124.425 36.4977 124.642 36.4977Z" fill="#282828"/>
<g filter="url(#filter0_ii_1_402)">
<path d="M13.9053 12.8049C13.6048 13.123 13.4271 13.6167 13.4271 14.2561V37.0987C13.4271 37.7391 13.6048 38.2318 13.9053 38.5499L13.9818 38.6243L26.7778 25.8282V25.6774V25.5266L13.9818 12.7295L13.9053 12.8049Z" fill="url(#paint0_linear_1_402)"/>
<path d="M31.0427 30.095L26.778 25.8283V25.6775V25.5267L31.0437 21.261L31.1397 21.3157L36.1935 24.1871C37.6364 25.0072 37.6364 26.3488 36.1935 27.17L31.1397 30.0413L31.0427 30.095Z" fill="url(#paint1_linear_1_402)"/>
<g filter="url(#filter1_i_1_402)">
<path d="M31.1398 30.041L26.777 25.6782L13.9055 38.5507C14.3806 39.0548 15.1666 39.1167 16.0518 38.6148L31.1398 30.041Z" fill="url(#paint2_linear_1_402)"/>
</g>
<path d="M31.1397 21.3158L16.0517 12.7431C15.1666 12.2401 14.3806 12.3031 13.9055 12.8072L26.778 25.6796L31.1397 21.3158Z" fill="url(#paint3_linear_1_402)"/>
</g>
<defs>
<filter id="filter0_ii_1_402" x="13.4271" y="12.396" width="23.8486" height="26.5654" filterUnits="userSpaceOnUse" color-interpolation-filters="sRGB">
<feFlood flood-opacity="0" result="BackgroundImageFix"/>
<feBlend mode="normal" in="SourceGraphic" in2="BackgroundImageFix" result="shape"/>
<feColorMatrix in="SourceAlpha" type="matrix" values="0 0 0 0 0 0 0 0 0 0 0 0 0 0 0 0 0 0 127 0" result="hardAlpha"/>
<feOffset dy="-0.154929"/>
<feComposite in2="hardAlpha" operator="arithmetic" k2="-1" k3="1"/>
<feColorMatrix type="matrix" values="0 0 0 0 0 0 0 0 0 0 0 0 0 0 0 0 0 0 0.12 0"/>
<feBlend mode="normal" in2="shape" result="effect1_innerShadow_1_402"/>
<feColorMatrix in="SourceAlpha" type="matrix" values="0 0 0 0 0 0 0 0 0 0 0 0 0 0 0 0 0 0 127 0" result="hardAlpha"/>
<feOffset dy="0.154929"/>
<feComposite in2="hardAlpha" operator="arithmetic" k2="-1" k3="1"/>
<feColorMatrix type="matrix" values="0 0 0 0 1 0 0 0 0 1 0 0 0 0 1 0 0 0 0.25 0"/>
<feBlend mode="normal" in2="effect1_innerShadow_1_402" result="effect2_innerShadow_1_402"/>
</filter>
<filter id="filter1_i_1_402" x="13.9055" y="25.6782" width="17.2343" height="13.2832" filterUnits="userSpaceOnUse" color-interpolation-filters="sRGB">
<feFlood flood-opacity="0" result="BackgroundImageFix"/>
<feBlend mode="normal" in="SourceGraphic" in2="BackgroundImageFix" result="shape"/>
<feColorMatrix in="SourceAlpha" type="matrix" values="0 0 0 0 0 0 0 0 0 0 0 0 0 0 0 0 0 0 127 0" result="hardAlpha"/>
<feOffset dy="-0.154929"/>
<feComposite in2="hardAlpha" operator="arithmetic" k2="-1" k3="1"/>
<feColorMatrix type="matrix" values="0 0 0 0 0 0 0 0 0 0 0 0 0 0 0 0 0 0 0.08 0"/>
<feBlend mode="normal" in2="shape" result="effect1_innerShadow_1_402"/>
</filter>
<linearGradient id="paint0_linear_1_402" x1="25.6436" y1="14.0144" x2="8.31014" y2="31.3478" gradientUnits="userSpaceOnUse">
<stop stop-color="#00A0FF"/>
<stop offset="0.0066" stop-color="#00A1FF"/>
<stop offset="0.2601" stop-color="#00BEFF"/>
<stop offset="0.5122" stop-color="#00D2FF"/>
<stop offset="0.7604" stop-color="#00DFFF"/>
<stop offset="1" stop-color="#00E3FF"/>
</linearGradient>
<linearGradient id="paint1_linear_1_402" x1="38.0718" y1="25.6775" x2="13.0809" y2="25.6775" gradientUnits="userSpaceOnUse">
<stop stop-color="#FFE000"/>
<stop offset="0.4087" stop-color="#FFBD00"/>
<stop offset="0.7754" stop-color="#FFA500"/>
<stop offset="1" stop-color="#FF9C00"/>
</linearGradient>
<linearGradient id="paint2_linear_1_402" x1="28.7705" y1="28.0475" x2="5.26422" y2="51.5538" gradientUnits="userSpaceOnUse">
<stop stop-color="#FF3A44"/>
<stop offset="1" stop-color="#C31162"/>
</linearGradient>
<linearGradient id="paint3_linear_1_402" x1="10.6637" y1="5.20305" x2="21.1599" y2="15.6993" gradientUnits="userSpaceOnUse">
<stop stop-color="#32A071"/>
<stop offset="0.0685" stop-color="#2DA771"/>
<stop offset="0.4762" stop-color="#15CF74"/>
<stop offset="0.8009" stop-color="#06E775"/>
<stop offset="1" stop-color="#00F076"/>
</linearGradient>
</defs>
</svg>
