<svg width="100" height="100" viewBox="0 0 100 100" fill="none" xmlns="http://www.w3.org/2000/svg">
<rect width="100" height="100" fill="white"/>
<path d="M5.67376 5.67371H9.21986V9.21981H5.67376V5.67371ZM9.21986 5.67371H12.766V9.21981H9.21986V5.67371ZM12.766 5.67371H16.3121V9.21981H12.766V5.67371ZM16.3121 5.67371H19.8582V9.21981H16.3121V5.67371ZM19.8582 5.67371H23.4043V9.21981H19.8582V5.67371ZM23.4043 5.67371H26.9504V9.21981H23.4043V5.67371ZM26.9504 5.67371H30.4965V9.21981H26.9504V5.67371ZM44.6809 5.67371H48.227V9.21981H44.6809V5.67371ZM55.3191 5.67371H58.8652V9.21981H55.3191V5.67371ZM58.8652 5.67371H62.4114V9.21981H58.8652V5.67371ZM62.4114 5.67371H65.9574V9.21981H62.4114V5.67371ZM69.5035 5.67371H73.0496V9.21981H69.5035V5.67371ZM73.0496 5.67371H76.5957V9.21981H73.0496V5.67371ZM76.5957 5.67371H80.1418V9.21981H76.5957V5.67371ZM80.1418 5.67371H83.6879V9.21981H80.1418V5.67371ZM83.6879 5.67371H87.234V9.21981H83.6879V5.67371ZM87.234 5.67371H90.7801V9.21981H87.234V5.67371ZM90.7801 5.67371H94.3262V9.21981H90.7801V5.67371ZM5.67376 9.21981H9.21986V12.7659H5.67376V9.21981ZM26.9504 9.21981H30.4965V12.7659H26.9504V9.21981ZM37.5887 9.21981H41.1348V12.7659H37.5887V9.21981ZM51.7731 9.21981H55.3191V12.7659H51.7731V9.21981ZM55.3191 9.21981H58.8652V12.7659H55.3191V9.21981ZM62.4114 9.21981H65.9574V12.7659H62.4114V9.21981ZM69.5035 9.21981H73.0496V12.7659H69.5035V9.21981ZM90.7801 9.21981H94.3262V12.7659H90.7801V9.21981ZM5.67376 12.7659H9.21986V16.312H5.67376V12.7659ZM12.766 12.7659H16.3121V16.312H12.766V12.7659ZM16.3121 12.7659H19.8582V16.312H16.3121V12.7659ZM19.8582 12.7659H23.4043V16.312H19.8582V12.7659ZM26.9504 12.7659H30.4965V16.312H26.9504V12.7659ZM37.5887 12.7659H41.1348V16.312H37.5887V12.7659ZM41.1348 12.7659H44.6809V16.312H41.1348V12.7659ZM48.227 12.7659H51.7731V16.312H48.227V12.7659ZM55.3191 12.7659H58.8652V16.312H55.3191V12.7659ZM58.8652 12.7659H62.4114V16.312H58.8652V12.7659ZM69.5035 12.7659H73.0496V16.312H69.5035V12.7659ZM76.5957 12.7659H80.1418V16.312H76.5957V12.7659ZM80.1418 12.7659H83.6879V16.312H80.1418V12.7659ZM83.6879 12.7659H87.234V16.312H83.6879V12.7659ZM90.7801 12.7659H94.3262V16.312H90.7801V12.7659ZM5.67376 16.312H9.21986V19.8581H5.67376V16.312ZM12.766 16.312H16.3121V19.8581H12.766V16.312ZM16.3121 16.312H19.8582V19.8581H16.3121V16.312ZM19.8582 16.312H23.4043V19.8581H19.8582V16.312ZM26.9504 16.312H30.4965V19.8581H26.9504V16.312ZM34.0426 16.312H37.5887V19.8581H34.0426V16.312ZM37.5887 16.312H41.1348V19.8581H37.5887V16.312ZM48.227 16.312H51.7731V19.8581H48.227V16.312ZM55.3191 16.312H58.8652V19.8581H55.3191V16.312ZM58.8652 16.312H62.4114V19.8581H58.8652V16.312ZM69.5035 16.312H73.0496V19.8581H69.5035V16.312ZM76.5957 16.312H80.1418V19.8581H76.5957V16.312ZM80.1418 16.312H83.6879V19.8581H80.1418V16.312ZM83.6879 16.312H87.234V19.8581H83.6879V16.312ZM90.7801 16.312H94.3262V19.8581H90.7801V16.312ZM5.67376 19.8581H9.21986V23.4042H5.67376V19.8581ZM12.766 19.8581H16.3121V23.4042H12.766V19.8581ZM16.3121 19.8581H19.8582V23.4042H16.3121V19.8581ZM19.8582 19.8581H23.4043V23.4042H19.8582V19.8581ZM26.9504 19.8581H30.4965V23.4042H26.9504V19.8581ZM41.1348 19.8581H44.6809V23.4042H41.1348V19.8581ZM44.6809 19.8581H48.227V23.4042H44.6809V19.8581ZM48.227 19.8581H51.7731V23.4042H48.227V19.8581ZM51.7731 19.8581H55.3191V23.4042H51.7731V19.8581ZM55.3191 19.8581H58.8652V23.4042H55.3191V19.8581ZM69.5035 19.8581H73.0496V23.4042H69.5035V19.8581ZM76.5957 19.8581H80.1418V23.4042H76.5957V19.8581ZM80.1418 19.8581H83.6879V23.4042H80.1418V19.8581ZM83.6879 19.8581H87.234V23.4042H83.6879V19.8581ZM90.7801 19.8581H94.3262V23.4042H90.7801V19.8581ZM5.67376 23.4042H9.21986V26.9503H5.67376V23.4042ZM26.9504 23.4042H30.4965V26.9503H26.9504V23.4042ZM34.0426 23.4042H37.5887V26.9503H34.0426V23.4042ZM44.6809 23.4042H48.227V26.9503H44.6809V23.4042ZM62.4114 23.4042H65.9574V26.9503H62.4114V23.4042ZM69.5035 23.4042H73.0496V26.9503H69.5035V23.4042ZM90.7801 23.4042H94.3262V26.9503H90.7801V23.4042ZM5.67376 26.9503H9.21986V30.4964H5.67376V26.9503ZM9.21986 26.9503H12.766V30.4964H9.21986V26.9503ZM12.766 26.9503H16.3121V30.4964H12.766V26.9503ZM16.3121 26.9503H19.8582V30.4964H16.3121V26.9503ZM19.8582 26.9503H23.4043V30.4964H19.8582V26.9503ZM23.4043 26.9503H26.9504V30.4964H23.4043V26.9503ZM26.9504 26.9503H30.4965V30.4964H26.9504V26.9503ZM34.0426 26.9503H37.5887V30.4964H34.0426V26.9503ZM41.1348 26.9503H44.6809V30.4964H41.1348V26.9503ZM48.227 26.9503H51.7731V30.4964H48.227V26.9503ZM55.3191 26.9503H58.8652V30.4964H55.3191V26.9503ZM62.4114 26.9503H65.9574V30.4964H62.4114V26.9503ZM69.5035 26.9503H73.0496V30.4964H69.5035V26.9503ZM73.0496 26.9503H76.5957V30.4964H73.0496V26.9503ZM76.5957 26.9503H80.1418V30.4964H76.5957V26.9503ZM80.1418 26.9503H83.6879V30.4964H80.1418V26.9503ZM83.6879 26.9503H87.234V30.4964H83.6879V26.9503ZM87.234 26.9503H90.7801V30.4964H87.234V26.9503ZM90.7801 26.9503H94.3262V30.4964H90.7801V26.9503ZM34.0426 30.4964H37.5887V34.0425H34.0426V30.4964ZM37.5887 30.4964H41.1348V34.0425H37.5887V30.4964ZM41.1348 30.4964H44.6809V34.0425H41.1348V30.4964ZM55.3191 30.4964H58.8652V34.0425H55.3191V30.4964ZM58.8652 30.4964H62.4114V34.0425H58.8652V30.4964ZM62.4114 30.4964H65.9574V34.0425H62.4114V30.4964ZM9.21986 34.0425H12.766V37.5886H9.21986V34.0425ZM12.766 34.0425H16.3121V37.5886H12.766V34.0425ZM26.9504 34.0425H30.4965V37.5886H26.9504V34.0425ZM51.7731 34.0425H55.3191V37.5886H51.7731V34.0425ZM55.3191 34.0425H58.8652V37.5886H55.3191V34.0425ZM62.4114 34.0425H65.9574V37.5886H62.4114V34.0425ZM69.5035 34.0425H73.0496V37.5886H69.5035V34.0425ZM73.0496 34.0425H76.5957V37.5886H73.0496V34.0425ZM80.1418 34.0425H83.6879V37.5886H80.1418V34.0425ZM9.21986 37.5886H12.766V41.1347H9.21986V37.5886ZM12.766 37.5886H16.3121V41.1347H12.766V37.5886ZM19.8582 37.5886H23.4043V41.1347H19.8582V37.5886ZM30.4965 37.5886H34.0426V41.1347H30.4965V37.5886ZM41.1348 37.5886H44.6809V41.1347H41.1348V37.5886ZM44.6809 37.5886H48.227V41.1347H44.6809V37.5886ZM48.227 37.5886H51.7731V41.1347H48.227V37.5886ZM51.7731 37.5886H55.3191V41.1347H51.7731V37.5886ZM55.3191 37.5886H58.8652V41.1347H55.3191V37.5886ZM58.8652 37.5886H62.4114V41.1347H58.8652V37.5886ZM62.4114 37.5886H65.9574V41.1347H62.4114V37.5886ZM69.5035 37.5886H73.0496V41.1347H69.5035V37.5886ZM73.0496 37.5886H76.5957V41.1347H73.0496V37.5886ZM80.1418 37.5886H83.6879V41.1347H80.1418V37.5886ZM87.234 37.5886H90.7801V41.1347H87.234V37.5886ZM90.7801 37.5886H94.3262V41.1347H90.7801V37.5886ZM26.9504 41.1347H30.4965V44.6808H26.9504V41.1347ZM44.6809 41.1347H48.227V44.6808H44.6809V41.1347ZM58.8652 41.1347H62.4114V44.6808H58.8652V41.1347ZM65.9574 41.1347H69.5035V44.6808H65.9574V41.1347ZM73.0496 41.1347H76.5957V44.6808H73.0496V41.1347ZM80.1418 41.1347H83.6879V44.6808H80.1418V41.1347ZM83.6879 41.1347H87.234V44.6808H83.6879V41.1347ZM90.7801 41.1347H94.3262V44.6808H90.7801V41.1347ZM5.67376 44.6808H9.21986V48.2269H5.67376V44.6808ZM9.21986 44.6808H12.766V48.2269H9.21986V44.6808ZM19.8582 44.6808H23.4043V48.2269H19.8582V44.6808ZM30.4965 44.6808H34.0426V48.2269H30.4965V44.6808ZM37.5887 44.6808H41.1348V48.2269H37.5887V44.6808ZM41.1348 44.6808H44.6809V48.2269H41.1348V44.6808ZM51.7731 44.6808H55.3191V48.2269H51.7731V44.6808ZM58.8652 44.6808H62.4114V48.2269H58.8652V44.6808ZM65.9574 44.6808H69.5035V48.2269H65.9574V44.6808ZM73.0496 44.6808H76.5957V48.2269H73.0496V44.6808ZM80.1418 44.6808H83.6879V48.2269H80.1418V44.6808ZM5.67376 48.2269H9.21986V51.773H5.67376V48.2269ZM9.21986 48.2269H12.766V51.773H9.21986V48.2269ZM16.3121 48.2269H19.8582V51.773H16.3121V48.2269ZM26.9504 48.2269H30.4965V51.773H26.9504V48.2269ZM30.4965 48.2269H34.0426V51.773H30.4965V48.2269ZM34.0426 48.2269H37.5887V51.773H34.0426V48.2269ZM37.5887 48.2269H41.1348V51.773H37.5887V48.2269ZM41.1348 48.2269H44.6809V51.773H41.1348V48.2269ZM51.7731 48.2269H55.3191V51.773H51.7731V48.2269ZM58.8652 48.2269H62.4114V51.773H58.8652V48.2269ZM62.4114 48.2269H65.9574V51.773H62.4114V48.2269ZM69.5035 48.2269H73.0496V51.773H69.5035V48.2269ZM73.0496 48.2269H76.5957V51.773H73.0496V48.2269ZM90.7801 48.2269H94.3262V51.773H90.7801V48.2269ZM12.766 51.773H16.3121V55.3191H12.766V51.773ZM16.3121 51.773H19.8582V55.3191H16.3121V51.773ZM19.8582 51.773H23.4043V55.3191H19.8582V51.773ZM41.1348 51.773H44.6809V55.3191H41.1348V51.773ZM44.6809 51.773H48.227V55.3191H44.6809V51.773ZM48.227 51.773H51.7731V55.3191H48.227V51.773ZM58.8652 51.773H62.4114V55.3191H58.8652V51.773ZM62.4114 51.773H65.9574V55.3191H62.4114V51.773ZM69.5035 51.773H73.0496V55.3191H69.5035V51.773ZM73.0496 51.773H76.5957V55.3191H73.0496V51.773ZM87.234 51.773H90.7801V55.3191H87.234V51.773ZM90.7801 51.773H94.3262V55.3191H90.7801V51.773ZM5.67376 55.3191H9.21986V58.8652H5.67376V55.3191ZM9.21986 55.3191H12.766V58.8652H9.21986V55.3191ZM16.3121 55.3191H19.8582V58.8652H16.3121V55.3191ZM23.4043 55.3191H26.9504V58.8652H23.4043V55.3191ZM26.9504 55.3191H30.4965V58.8652H26.9504V55.3191ZM34.0426 55.3191H37.5887V58.8652H34.0426V55.3191ZM37.5887 55.3191H41.1348V58.8652H37.5887V55.3191ZM41.1348 55.3191H44.6809V58.8652H41.1348V55.3191ZM48.227 55.3191H51.7731V58.8652H48.227V55.3191ZM58.8652 55.3191H62.4114V58.8652H58.8652V55.3191ZM62.4114 55.3191H65.9574V58.8652H62.4114V55.3191ZM69.5035 55.3191H73.0496V58.8652H69.5035V55.3191ZM80.1418 55.3191H83.6879V58.8652H80.1418V55.3191ZM83.6879 55.3191H87.234V58.8652H83.6879V55.3191ZM90.7801 55.3191H94.3262V58.8652H90.7801V55.3191ZM12.766 58.8652H16.3121V62.4113H12.766V58.8652ZM16.3121 58.8652H19.8582V62.4113H16.3121V58.8652ZM19.8582 58.8652H23.4043V62.4113H19.8582V58.8652ZM30.4965 58.8652H34.0426V62.4113H30.4965V58.8652ZM41.1348 58.8652H44.6809V62.4113H41.1348V58.8652ZM55.3191 58.8652H58.8652V62.4113H55.3191V58.8652ZM58.8652 58.8652H62.4114V62.4113H58.8652V58.8652ZM62.4114 58.8652H65.9574V62.4113H62.4114V58.8652ZM65.9574 58.8652H69.5035V62.4113H65.9574V58.8652ZM69.5035 58.8652H73.0496V62.4113H69.5035V58.8652ZM73.0496 58.8652H76.5957V62.4113H73.0496V58.8652ZM76.5957 58.8652H80.1418V62.4113H76.5957V58.8652ZM80.1418 58.8652H83.6879V62.4113H80.1418V58.8652ZM5.67376 62.4113H9.21986V65.9574H5.67376V62.4113ZM9.21986 62.4113H12.766V65.9574H9.21986V62.4113ZM12.766 62.4113H16.3121V65.9574H12.766V62.4113ZM19.8582 62.4113H23.4043V65.9574H19.8582V62.4113ZM26.9504 62.4113H30.4965V65.9574H26.9504V62.4113ZM34.0426 62.4113H37.5887V65.9574H34.0426V62.4113ZM44.6809 62.4113H48.227V65.9574H44.6809V62.4113ZM62.4114 62.4113H65.9574V65.9574H62.4114V62.4113ZM65.9574 62.4113H69.5035V65.9574H65.9574V62.4113ZM69.5035 62.4113H73.0496V65.9574H69.5035V62.4113ZM73.0496 62.4113H76.5957V65.9574H73.0496V62.4113ZM76.5957 62.4113H80.1418V65.9574H76.5957V62.4113ZM87.234 62.4113H90.7801V65.9574H87.234V62.4113ZM34.0426 65.9574H37.5887V69.5035H34.0426V65.9574ZM37.5887 65.9574H41.1348V69.5035H37.5887V65.9574ZM41.1348 65.9574H44.6809V69.5035H41.1348V65.9574ZM44.6809 65.9574H48.227V69.5035H44.6809V65.9574ZM51.7731 65.9574H55.3191V69.5035H51.7731V65.9574ZM55.3191 65.9574H58.8652V69.5035H55.3191V65.9574ZM62.4114 65.9574H65.9574V69.5035H62.4114V65.9574ZM76.5957 65.9574H80.1418V69.5035H76.5957V65.9574ZM90.7801 65.9574H94.3262V69.5035H90.7801V65.9574ZM5.67376 69.5035H9.21986V73.0496H5.67376V69.5035ZM9.21986 69.5035H12.766V73.0496H9.21986V69.5035ZM12.766 69.5035H16.3121V73.0496H12.766V69.5035ZM16.3121 69.5035H19.8582V73.0496H16.3121V69.5035ZM19.8582 69.5035H23.4043V73.0496H19.8582V69.5035ZM23.4043 69.5035H26.9504V73.0496H23.4043V69.5035ZM26.9504 69.5035H30.4965V73.0496H26.9504V69.5035ZM41.1348 69.5035H44.6809V73.0496H41.1348V69.5035ZM44.6809 69.5035H48.227V73.0496H44.6809V69.5035ZM55.3191 69.5035H58.8652V73.0496H55.3191V69.5035ZM62.4114 69.5035H65.9574V73.0496H62.4114V69.5035ZM69.5035 69.5035H73.0496V73.0496H69.5035V69.5035ZM76.5957 69.5035H80.1418V73.0496H76.5957V69.5035ZM90.7801 69.5035H94.3262V73.0496H90.7801V69.5035ZM5.67376 73.0496H9.21986V76.5957H5.67376V73.0496ZM26.9504 73.0496H30.4965V76.5957H26.9504V73.0496ZM37.5887 73.0496H41.1348V76.5957H37.5887V73.0496ZM41.1348 73.0496H44.6809V76.5957H41.1348V73.0496ZM48.227 73.0496H51.7731V76.5957H48.227V73.0496ZM51.7731 73.0496H55.3191V76.5957H51.7731V73.0496ZM62.4114 73.0496H65.9574V76.5957H62.4114V73.0496ZM76.5957 73.0496H80.1418V76.5957H76.5957V73.0496ZM87.234 73.0496H90.7801V76.5957H87.234V73.0496ZM5.67376 76.5957H9.21986V80.1418H5.67376V76.5957ZM12.766 76.5957H16.3121V80.1418H12.766V76.5957ZM16.3121 76.5957H19.8582V80.1418H16.3121V76.5957ZM19.8582 76.5957H23.4043V80.1418H19.8582V76.5957ZM26.9504 76.5957H30.4965V80.1418H26.9504V76.5957ZM37.5887 76.5957H41.1348V80.1418H37.5887V76.5957ZM41.1348 76.5957H44.6809V80.1418H41.1348V76.5957ZM55.3191 76.5957H58.8652V80.1418H55.3191V76.5957ZM58.8652 76.5957H62.4114V80.1418H58.8652V76.5957ZM62.4114 76.5957H65.9574V80.1418H62.4114V76.5957ZM65.9574 76.5957H69.5035V80.1418H65.9574V76.5957ZM69.5035 76.5957H73.0496V80.1418H69.5035V76.5957ZM73.0496 76.5957H76.5957V80.1418H73.0496V76.5957ZM76.5957 76.5957H80.1418V80.1418H76.5957V76.5957ZM87.234 76.5957H90.7801V80.1418H87.234V76.5957ZM90.7801 76.5957H94.3262V80.1418H90.7801V76.5957ZM5.67376 80.1418H9.21986V83.6879H5.67376V80.1418ZM12.766 80.1418H16.3121V83.6879H12.766V80.1418ZM16.3121 80.1418H19.8582V83.6879H16.3121V80.1418ZM19.8582 80.1418H23.4043V83.6879H19.8582V80.1418ZM26.9504 80.1418H30.4965V83.6879H26.9504V80.1418ZM37.5887 80.1418H41.1348V83.6879H37.5887V80.1418ZM41.1348 80.1418H44.6809V83.6879H41.1348V80.1418ZM44.6809 80.1418H48.227V83.6879H44.6809V80.1418ZM48.227 80.1418H51.7731V83.6879H48.227V80.1418ZM58.8652 80.1418H62.4114V83.6879H58.8652V80.1418ZM65.9574 80.1418H69.5035V83.6879H65.9574V80.1418ZM76.5957 80.1418H80.1418V83.6879H76.5957V80.1418ZM83.6879 80.1418H87.234V83.6879H83.6879V80.1418ZM87.234 80.1418H90.7801V83.6879H87.234V80.1418ZM5.67376 83.6879H9.21986V87.234H5.67376V83.6879ZM12.766 83.6879H16.3121V87.234H12.766V83.6879ZM16.3121 83.6879H19.8582V87.234H16.3121V83.6879ZM19.8582 83.6879H23.4043V87.234H19.8582V83.6879ZM26.9504 83.6879H30.4965V87.234H26.9504V83.6879ZM34.0426 83.6879H37.5887V87.234H34.0426V83.6879ZM51.7731 83.6879H55.3191V87.234H51.7731V83.6879ZM55.3191 83.6879H58.8652V87.234H55.3191V83.6879ZM58.8652 83.6879H62.4114V87.234H58.8652V83.6879ZM62.4114 83.6879H65.9574V87.234H62.4114V83.6879ZM65.9574 83.6879H69.5035V87.234H65.9574V83.6879ZM73.0496 83.6879H76.5957V87.234H73.0496V83.6879ZM76.5957 83.6879H80.1418V87.234H76.5957V83.6879ZM80.1418 83.6879H83.6879V87.234H80.1418V83.6879ZM87.234 83.6879H90.7801V87.234H87.234V83.6879ZM90.7801 83.6879H94.3262V87.234H90.7801V83.6879ZM5.67376 87.234H9.21986V90.7801H5.67376V87.234ZM26.9504 87.234H30.4965V90.7801H26.9504V87.234ZM34.0426 87.234H37.5887V90.7801H34.0426V87.234ZM37.5887 87.234H41.1348V90.7801H37.5887V87.234ZM41.1348 87.234H44.6809V90.7801H41.1348V87.234ZM51.7731 87.234H55.3191V90.7801H51.7731V87.234ZM62.4114 87.234H65.9574V90.7801H62.4114V87.234ZM65.9574 87.234H69.5035V90.7801H65.9574V87.234ZM69.5035 87.234H73.0496V90.7801H69.5035V87.234ZM73.0496 87.234H76.5957V90.7801H73.0496V87.234ZM76.5957 87.234H80.1418V90.7801H76.5957V87.234ZM5.67376 90.7801H9.21986V94.3262H5.67376V90.7801ZM9.21986 90.7801H12.766V94.3262H9.21986V90.7801ZM12.766 90.7801H16.3121V94.3262H12.766V90.7801ZM16.3121 90.7801H19.8582V94.3262H16.3121V90.7801ZM19.8582 90.7801H23.4043V94.3262H19.8582V90.7801ZM23.4043 90.7801H26.9504V94.3262H23.4043V90.7801ZM26.9504 90.7801H30.4965V94.3262H26.9504V90.7801ZM41.1348 90.7801H44.6809V94.3262H41.1348V90.7801ZM48.227 90.7801H51.7731V94.3262H48.227V90.7801ZM62.4114 90.7801H65.9574V94.3262H62.4114V90.7801ZM69.5035 90.7801H73.0496V94.3262H69.5035V90.7801ZM80.1418 90.7801H83.6879V94.3262H80.1418V90.7801ZM90.7801 90.7801H94.3262V94.3262H90.7801V90.7801Z" fill="#202124"/>
</svg>
