<svg width="384" height="331" viewBox="0 0 384 331" fill="none" xmlns="http://www.w3.org/2000/svg">
<g clip-path="url(#clip0_279_1311)">
<path opacity="0.18" d="M107.7 12.8958C121.859 16.5124 135.028 24.4723 149.713 24.422C163.927 24.3773 176.633 16.859 189.696 11.6772C208.825 4.08628 229.798 1.30815 250.581 0.301986C267.713 -0.530894 285.645 -0.0501714 300.889 7.28365C316.132 14.6175 327.06 28.3684 333.248 43.2708C339.436 58.1732 341.247 74.3054 341.946 90.2531C342.505 103.747 342.365 117.397 345.607 130.567C350.079 148.75 360.795 164.989 369.381 181.864C376.25 195.358 381.885 209.662 383.266 224.542C384.646 239.422 381.454 255.04 372.041 267.17C357.955 285.315 332.588 292.839 308.547 294.778C295.07 295.863 281.157 295.617 268.546 300.122C260.044 303.152 252.576 308.199 244.449 312.006C228.238 319.603 209.792 322.118 191.653 322.996C145.526 325.221 99.4572 317.532 56.553 300.446C50.1694 297.886 43.7747 295.052 38.6265 290.72C32.8969 285.902 29.0232 279.473 25.9991 272.877C20.5587 260.921 17.6214 247.979 17.3676 234.846C17.1138 221.713 19.549 208.667 24.5234 196.51C31.9802 178.443 45.2057 161.053 43.048 141.819C39.8115 113.166 11.1862 87.8159 23.221 57.4912C35.9546 25.4673 70.4883 3.39874 107.7 12.8958Z" fill="#B1EEF0"/>
<path opacity="0.19" d="M92.5505 318.333C90.0015 319.054 87.106 320.088 86.2173 322.581C85.4067 324.868 86.7762 327.478 88.8165 328.808C90.8568 330.139 93.3498 330.485 95.7702 330.675C103.037 331.268 110.304 330.944 117.57 330.625L162.518 328.63C171.311 328.244 180.635 327.679 187.851 322.637C188.969 321.86 190.087 320.709 189.847 319.384C189.651 318.389 188.729 317.707 187.84 317.238C180.014 312.878 170.439 313.699 161.478 313.045C149.656 312.179 137.968 308.456 126.05 308.948C114.731 309.389 103.467 315.231 92.5505 318.333Z" fill="#22282A"/>
<path d="M0 64.8028L2.29182 63.791H107.38V138.75C107.38 138.75 107.38 150.74 98.6823 155.598C95.1272 157.593 0 64.8028 0 64.8028Z" fill="white"/>
<path d="M105.798 64.8027V142.663C105.797 146.732 104.179 150.633 101.302 153.509C98.4246 156.386 94.5227 158.001 90.4541 158.001H0V64.8027H105.798Z" fill="white"/>
<path d="M105.798 64.8027V142.663C105.797 146.732 104.179 150.633 101.302 153.509C98.4246 156.386 94.5226 158.001 90.4541 158.001H0V64.8027H105.798Z" fill="url(#paint0_linear_279_1311)"/>
<path d="M105.8 142.663C105.798 146.731 104.181 150.633 101.303 153.509C98.426 156.385 94.5241 158.001 90.4555 158.001H88.0352C93.3958 156.274 92.7026 146.766 92.7026 146.766C102.731 148.493 105.8 142.663 105.8 142.663ZM139.998 87.2734H245.79V180.472H139.998V87.2734Z" fill="white"/>
<path d="M139.996 87.2734H245.789V180.472H139.996V87.2734Z" fill="url(#paint1_linear_279_1311)"/>
<path d="M259.842 49.5928H365.634V142.791H259.842V49.5928Z" fill="white"/>
<path d="M259.842 49.5928H365.634V142.791H259.842V49.5928Z" fill="url(#paint2_linear_279_1311)"/>
<path opacity="0.34" d="M67.3403 51.0017L52.3541 85.3678C52.3541 85.0156 52.3541 84.6635 52.3205 84.3169C51.4821 84.6299 50.9119 83.6853 50.6436 82.8244C50.1852 81.4605 49.6095 79.7948 48.2903 79.8898C47.6027 79.9401 46.9376 80.4935 46.3283 81.0078C45.7981 81.589 45.1315 82.0289 44.3886 82.2878C44.2167 82.327 44.0379 82.3232 43.8678 82.2768C43.6977 82.2304 43.5417 82.1429 43.4135 82.0218C43.2853 81.9008 43.1889 81.7501 43.1328 81.583C43.0767 81.4159 43.0626 81.2375 43.0918 81.0637L41.6887 81.986C40.3416 82.8636 40.9844 80.8289 40.677 80.1525C39.8524 80.4522 39.1014 80.9249 38.4746 81.5388L54.277 45.3001L67.3403 51.0017ZM175.268 94.6189C175.587 94.4792 175.9 94.3227 176.213 94.155C175.581 93.5177 176.213 92.6178 176.878 91.9973C177.934 91.0247 179.214 89.8173 178.588 88.6434C178.259 88.0341 177.47 87.6484 176.738 87.3186C175.992 87.0756 175.32 86.6488 174.782 86.0777C174.676 85.9392 174.605 85.7769 174.576 85.6049C174.548 85.4329 174.561 85.2565 174.617 85.091C174.672 84.9256 174.767 84.7761 174.893 84.6558C175.019 84.5355 175.173 84.4479 175.341 84.4008C174.866 84.1045 174.396 83.8027 173.927 83.5008C172.568 82.6344 174.692 82.3828 175.179 81.8239C174.571 81.1899 173.833 80.6958 173.015 80.3761L209.662 79.9569C209.332 80.4136 209.139 80.9542 209.103 81.5164C209.103 82.1257 210.048 82.5505 210.327 83.0145C210.362 83.0737 210.391 83.1353 210.417 83.199L210.568 83.9089C210.539 84.391 210.376 84.8557 210.098 85.2504C209.661 85.8037 209.314 86.4225 209.07 87.0839C208.943 87.8935 209.104 88.7217 209.522 89.426C210.081 90.5439 210.942 91.5836 212.138 91.9134C212.176 91.9182 212.213 91.9182 212.25 91.9134L212.72 94.1494L175.268 94.6189ZM293.749 47.6311C294.102 47.6311 294.454 47.6702 294.806 47.6702C294.554 46.815 295.533 46.3175 296.416 46.0939C297.808 45.7417 299.513 45.2889 299.518 43.9697C299.518 43.2766 299.015 42.5723 298.517 41.9239C297.983 41.3527 297.598 40.6572 297.4 39.9004C297.371 39.7263 297.387 39.5481 297.444 39.3814C297.502 39.2148 297.6 39.065 297.729 38.9454C297.859 38.8259 298.016 38.7402 298.187 38.6962C298.357 38.6521 298.536 38.651 298.708 38.693L297.891 37.2229C297.114 35.8142 299.099 36.608 299.798 36.3508C299.56 35.5062 299.147 34.7214 298.585 34.0479L330.972 51.1415C330.467 51.3913 330.042 51.7788 329.748 52.2594C329.457 52.7904 330.094 53.6177 330.111 54.1599C330.12 54.2286 330.12 54.2981 330.111 54.3668L329.921 55.0543C329.661 55.4633 329.296 55.7953 328.865 56.0158C328.215 56.2888 327.614 56.6665 327.087 57.1337C326.589 57.7848 326.334 58.5895 326.366 59.4088C326.327 60.6497 326.584 61.9857 327.484 62.8465C327.51 62.8753 327.54 62.8999 327.573 62.9192L326.908 65.116L293.749 47.6311Z" fill="white"/>
<path opacity="0.34" d="M67.3403 51.0017L52.3541 85.3678C52.3541 85.0156 52.3541 84.6635 52.3205 84.3169C51.4821 84.6299 50.9119 83.6853 50.6436 82.8244C50.1852 81.4605 49.6095 79.7948 48.2903 79.8898C47.6027 79.9401 46.9376 80.4935 46.3283 81.0078C45.7981 81.589 45.1315 82.0289 44.3886 82.2878C44.2167 82.327 44.0379 82.3232 43.8678 82.2768C43.6977 82.2304 43.5417 82.1429 43.4135 82.0218C43.2853 81.9008 43.1889 81.7501 43.1328 81.583C43.0767 81.4159 43.0626 81.2375 43.0918 81.0637L41.6887 81.986C40.3416 82.8636 40.9844 80.8289 40.677 80.1525C39.8524 80.4522 39.1014 80.9249 38.4746 81.5388L54.277 45.3001L67.3403 51.0017ZM175.268 94.6189C175.587 94.4792 175.9 94.3227 176.213 94.155C175.581 93.5177 176.213 92.6178 176.878 91.9973C177.934 91.0247 179.214 89.8173 178.588 88.6434C178.259 88.0341 177.47 87.6484 176.738 87.3186C175.992 87.0756 175.32 86.6488 174.782 86.0777C174.676 85.9392 174.605 85.7769 174.576 85.6049C174.548 85.4329 174.561 85.2565 174.617 85.091C174.672 84.9256 174.767 84.7761 174.893 84.6558C175.019 84.5355 175.173 84.4479 175.341 84.4008C174.866 84.1045 174.396 83.8027 173.927 83.5008C172.568 82.6344 174.692 82.3828 175.179 81.8239C174.571 81.1899 173.833 80.6958 173.015 80.3761L209.662 79.9569C209.332 80.4136 209.139 80.9542 209.103 81.5164C209.103 82.1257 210.048 82.5505 210.327 83.0145C210.362 83.0737 210.391 83.1353 210.417 83.199L210.568 83.9089C210.539 84.391 210.376 84.8557 210.098 85.2504C209.661 85.8037 209.314 86.4225 209.07 87.0839C208.943 87.8935 209.104 88.7217 209.522 89.426C210.081 90.5439 210.942 91.5836 212.138 91.9134C212.176 91.9182 212.213 91.9182 212.25 91.9134L212.72 94.1494L175.268 94.6189ZM293.749 47.6311C294.102 47.6311 294.454 47.6702 294.806 47.6702C294.554 46.815 295.533 46.3175 296.416 46.0939C297.808 45.7417 299.513 45.2889 299.518 43.9697C299.518 43.2766 299.015 42.5723 298.517 41.9239C297.983 41.3527 297.598 40.6572 297.4 39.9004C297.371 39.7263 297.387 39.5481 297.444 39.3814C297.502 39.2148 297.6 39.065 297.729 38.9454C297.859 38.8259 298.016 38.7402 298.187 38.6962C298.357 38.6521 298.536 38.651 298.708 38.693L297.891 37.2229C297.114 35.8142 299.099 36.608 299.798 36.3508C299.56 35.5062 299.147 34.7214 298.585 34.0479L330.972 51.1415C330.467 51.3913 330.042 51.7788 329.748 52.2594C329.457 52.7904 330.094 53.6177 330.111 54.1599C330.12 54.2286 330.12 54.2981 330.111 54.3668L329.921 55.0543C329.661 55.4633 329.296 55.7953 328.865 56.0158C328.215 56.2888 327.614 56.6665 327.087 57.1337C326.589 57.7848 326.334 58.5895 326.366 59.4088C326.327 60.6497 326.584 61.9857 327.484 62.8465C327.51 62.8753 327.54 62.8999 327.573 62.9192L326.908 65.116L293.749 47.6311Z" fill="white"/>
<path d="M276.695 86.3232H348.781V88.2294H276.695V86.3232Z" fill="#B2BEB5"/>
<path d="M276.695 100.627H348.781V102.533H276.695V100.627Z" fill="#B2BEB5"/>
<path d="M276.695 114.938H348.781V116.844H276.695V114.938Z" fill="#B2BEB5"/>
<path d="M26.4297 96.1387H79.3651V98.0448H26.4297V96.1387Z" fill="#B2BEB5"/>
<path d="M26.4297 110.449H79.3651V112.355H26.4297V110.449Z" fill="#B2BEB5"/>
<path d="M26.4277 124.759H79.3631V126.665H26.4277V124.759Z" fill="#B2BEB5"/>
<path d="M165.574 111.404H218.51V113.31H165.574V111.404Z" fill="#B2BEB5"/>
<path d="M165.574 125.715H218.51V127.621H165.574V125.715Z" fill="#B2BEB5"/>
<path d="M165.574 140.019H218.51V141.925H165.574V140.019Z" fill="#B2BEB5"/>
<path d="M105.797 165.481C105.797 165.481 124.836 132.305 131.51 121.807L135.792 116.62L139.99 123.758L140.085 129.505L122.522 162.602C122.522 162.602 109.967 174.061 105.797 165.481Z" fill="#DC143C"/>
<path d="M140.276 117.475L119.342 160.007L134.317 140.974L140.102 129.504L140.276 117.475Z" fill="url(#paint3_linear_279_1311)"/>
<path d="M164.86 114.932C165.657 116.03 166.04 117.375 165.939 118.728C168.488 116.637 168.527 112.244 171.428 110.673C171.428 112.357 171.131 114.028 170.55 115.609C171.473 113.708 172.607 111.612 174.636 111.008C174.366 113.172 173.573 115.238 172.328 117.028L174.972 114.357C175.207 114.116 175.531 113.853 175.849 114.016C176.168 114.178 176.084 114.731 175.911 115.1L172.993 121.338C173.916 120.595 174.919 119.958 175.983 119.438L172.781 124.714C172.414 125.383 171.968 126.005 171.45 126.565C170.26 127.761 168.365 128.46 167.957 130.097C168.046 129.745 163.351 128.247 163.021 127.739C162.462 126.861 163.49 125.016 163.608 123.965C163.943 121.014 163.138 117.604 164.86 114.932Z" fill="url(#paint4_linear_279_1311)"/>
<path d="M136.877 222.111L143.328 269.098C143.596 271.077 143.389 273.091 142.724 274.973L135.564 308.054L124.462 306.857L129.543 273.056C129.655 272.36 129.611 271.648 129.415 270.971L120.661 240.786L119.012 274.973L104.663 304.04L94.6016 300.016L107.352 273.911L105.3 241.625C103.484 230.389 106.804 222.094 106.804 222.094L136.877 222.111Z" fill="#2F2E41"/>
<path d="M136.877 222.11H106.781V217.107H136.877V222.11Z" fill="white"/>
<path d="M136.877 222.111H106.781V217.108H136.877V222.111Z" fill="url(#paint5_linear_279_1311)"/>
<path d="M169.953 131.136L141.641 177.9L140.165 212.999C140.165 216.353 140.031 219.148 137.538 219.913C137.052 220.051 136.55 220.117 136.045 220.109H110.975C110.034 220.11 109.102 219.925 108.233 219.566C107.364 219.206 106.574 218.679 105.908 218.014C105.242 217.349 104.715 216.559 104.354 215.69C103.994 214.821 103.809 213.889 103.809 212.948V180.707C103.809 180.707 101.964 162.422 110.639 162.422H128.013C130.085 162.424 132.132 161.955 133.997 161.052C135.863 160.149 137.5 158.834 138.784 157.207L161.959 126.67L169.953 131.136Z" fill="#DC143C"/>
<path d="M126.621 162.596H117.935V140.51H126.621V162.596Z" fill="url(#paint6_linear_279_1311)"/>
<path d="M117.939 138.096V162.601H122.523V161.109C122.523 160.231 122.872 159.39 123.492 158.769C124.113 158.148 124.955 157.8 125.832 157.8H126.095C128.277 157.8 130.37 156.933 131.913 155.39C133.456 153.847 134.323 151.754 134.323 149.572V138.096H117.939Z" fill="url(#paint7_linear_279_1311)"/>
<path d="M137.722 116.665C137.895 116.301 138.024 115.921 138.214 115.547C138.607 114.88 139.097 114.275 139.667 113.752L141.478 111.908C141.603 111.752 141.776 111.642 141.97 111.595C142.345 111.55 142.607 112.008 142.529 112.377C142.413 112.734 142.211 113.056 141.942 113.316C141.019 114.52 140.439 115.952 140.265 117.459C140.101 118.956 140.032 120.463 140.058 121.97C140.094 122.464 139.993 122.959 139.768 123.4C139.199 122.153 138.569 120.935 137.878 119.75C137.638 119.348 136.906 118.56 136.883 118.107C136.861 117.654 137.565 117.062 137.722 116.665Z" fill="url(#paint8_linear_279_1311)"/>
<path d="M135.111 134.239C134.956 133.389 134.623 132.581 134.135 131.869C133.647 131.156 133.014 130.554 132.277 130.103V131.332C129.03 129.762 125.145 130.997 121.584 130.41C121.995 130.841 122.328 131.34 122.568 131.886C120.24 131.886 117.943 132.427 115.86 133.468C116.05 133.742 116.24 134.027 116.419 134.284C116.488 134.367 116.532 134.468 116.548 134.574C116.548 134.792 116.341 134.938 116.168 135.072C115.161 135.838 115.05 137.308 115.105 138.571C115.29 142.395 116.279 146.123 117.263 149.823C117.638 151.226 118.007 152.618 118.381 154.032L119.164 152.954L119.907 153.473C120.924 151.897 125.363 151.567 125.765 149.734C124.647 149.477 123.311 147.962 123.434 146.816C123.557 145.67 123.926 145.413 125.016 145.782C125.776 146.033 124.53 144.48 124.396 143.848C124.262 143.216 123.976 142.573 124.289 142.031C124.72 141.277 125.843 141.472 126.648 141.785C126.999 140.784 127.664 139.924 128.545 139.333C129.426 138.743 130.475 138.454 131.534 138.51C132.652 138.593 133.731 139.27 134.469 138.208C135.206 137.146 135.329 135.469 135.111 134.239Z" fill="#2F2E41"/>
<path d="M169.954 131.137L141.641 177.901L140.166 213C140.166 216.354 140.227 219.607 136.711 220.11H131.977C131.977 220.11 135.956 179.975 135.224 176.085C134.492 172.194 167.98 130.092 167.98 130.092L169.954 131.137Z" fill="url(#paint9_linear_279_1311)"/>
<path d="M126.34 307.059L124.4 315.444H149.554C149.554 315.444 149.817 311.296 144.63 309.854C141.5 308.996 138.21 308.906 135.038 309.591L134.373 307.914L126.34 307.059ZM96.6302 300.849L92.2031 307.556L97.3905 310.58L99.0283 309.72L102.745 313.521L115.798 313.951C115.798 313.951 114.937 307.422 108.883 307.405C102.829 307.389 103.366 303.548 103.366 303.548L96.6302 300.849Z" fill="#2F2E41"/>
</g>
<defs>
<linearGradient id="paint0_linear_279_1311" x1="51.7224" y1="96.4466" x2="70.9904" y2="341.079" gradientUnits="userSpaceOnUse">
<stop stop-opacity="0"/>
<stop offset="0.98"/>
</linearGradient>
<linearGradient id="paint1_linear_279_1311" x1="195.195" y1="127.145" x2="134.088" y2="305.712" gradientUnits="userSpaceOnUse">
<stop stop-opacity="0"/>
<stop offset="0.98"/>
</linearGradient>
<linearGradient id="paint2_linear_279_1311" x1="302.676" y1="70.6831" x2="391.711" y2="296.41" gradientUnits="userSpaceOnUse">
<stop stop-opacity="0"/>
<stop offset="0.98"/>
</linearGradient>
<linearGradient id="paint3_linear_279_1311" x1="129.809" y1="117.475" x2="142.819" y2="226.666" gradientUnits="userSpaceOnUse">
<stop stop-color="#7B8183"/>
<stop offset="1" stop-color="#7B8183" stop-opacity="0"/>
</linearGradient>
<linearGradient id="paint4_linear_279_1311" x1="162.859" y1="120.382" x2="176.079" y2="120.382" gradientUnits="userSpaceOnUse">
<stop stop-color="#ECC4D7"/>
<stop offset="0.42" stop-color="#EFD4D1"/>
<stop offset="1" stop-color="#F2EAC9"/>
</linearGradient>
<linearGradient id="paint5_linear_279_1311" x1="121.885" y1="205.219" x2="121.712" y2="250.468" gradientUnits="userSpaceOnUse">
<stop stop-opacity="0"/>
<stop offset="0.98"/>
</linearGradient>
<linearGradient id="paint6_linear_279_1311" x1="124.955" y1="151.606" x2="110.696" y2="151.343" gradientUnits="userSpaceOnUse">
<stop stop-color="#ECC4D7"/>
<stop offset="0.42" stop-color="#EFD4D1"/>
<stop offset="1" stop-color="#F2EAC9"/>
</linearGradient>
<linearGradient id="paint7_linear_279_1311" x1="124.133" y1="149.292" x2="127.073" y2="150.846" gradientUnits="userSpaceOnUse">
<stop stop-color="#ECC4D7"/>
<stop offset="0.42" stop-color="#EFD4D1"/>
<stop offset="1" stop-color="#F2EAC9"/>
</linearGradient>
<linearGradient id="paint8_linear_279_1311" x1="136.889" y1="117.509" x2="142.546" y2="117.509" gradientUnits="userSpaceOnUse">
<stop stop-color="#ECC4D7"/>
<stop offset="0.42" stop-color="#EFD4D1"/>
<stop offset="1" stop-color="#F2EAC9"/>
</linearGradient>
<linearGradient id="paint9_linear_279_1311" x1="128.382" y1="154.307" x2="194.789" y2="217.024" gradientUnits="userSpaceOnUse">
<stop stop-opacity="0"/>
<stop offset="0.98"/>
</linearGradient>
<clipPath id="clip0_279_1311">
<rect width="383.566" height="331" fill="white"/>
</clipPath>
</defs>
</svg>
