<svg width="480" height="239" viewBox="0 0 480 239" fill="none" xmlns="http://www.w3.org/2000/svg">
<g clip-path="url(#clip0_279_1821)">
<path d="M434.487 238.776H227.877C222.257 238.776 217.685 233.723 217.685 227.511V74.0115C217.661 72.8406 217.963 71.686 218.557 70.6765C219.152 69.667 220.015 68.8422 221.051 68.294L299.126 21.0745C303.406 18.9523 308.118 17.8457 312.896 17.8408C317.674 17.836 322.389 18.9331 326.673 21.0467L441.293 68.2893C442.334 68.8354 443.202 69.6605 443.801 70.6721C444.399 71.6836 444.703 72.8417 444.679 74.0163V227.511C444.679 233.723 440.107 238.776 434.487 238.776Z" fill="#F2F2F2"/>
<path d="M403.98 238.609H226.558C221.712 238.609 217.77 235.043 217.77 230.658V123.361C217.792 122.467 218.084 121.6 218.606 120.873C219.128 120.147 219.857 119.594 220.698 119.287L303.309 86.2723C310.9 83.272 319.349 83.2678 326.943 86.2605L409.835 119.288C410.677 119.595 411.407 120.148 411.93 120.874C412.453 121.601 412.745 122.469 412.768 123.364V230.658C412.768 235.043 408.826 238.609 403.98 238.609Z" fill="#DC143C"/>
<path d="M120.739 125.931C135.097 125.931 146.736 114.303 146.736 99.9585C146.736 85.6145 135.097 73.9863 120.739 73.9863C106.381 73.9863 94.7422 85.6145 94.7422 99.9585C94.7422 114.303 106.381 125.931 120.739 125.931Z" fill="#FF6584"/>
<path d="M131.606 194.518C149.791 194.518 164.533 176.084 164.533 153.344C164.533 130.603 149.791 112.169 131.606 112.169C113.421 112.169 98.6797 130.603 98.6797 153.344C98.6797 176.084 113.421 194.518 131.606 194.518Z" fill="#B1EEF0"/>
<path d="M131.697 145.064H131.787L133.416 238.327H129.979L131.697 145.064Z" fill="#CCCCCC"/>
<path d="M137.312 206.807C137.413 206.998 137.433 207.221 137.37 207.427C137.306 207.633 137.162 207.805 136.971 207.906L132.249 210.389L131.49 208.95L136.213 206.466C136.404 206.366 136.627 206.345 136.833 206.409C137.039 206.473 137.212 206.616 137.312 206.807Z" fill="#CCCCCC"/>
<path d="M36.944 194.518C55.1287 194.518 69.8704 176.084 69.8704 153.344C69.8704 130.603 55.1287 112.169 36.944 112.169C18.7592 112.169 4.01758 130.603 4.01758 153.344C4.01758 176.084 18.7592 194.518 36.944 194.518Z" fill="#F2F2F2"/>
<path d="M42.6511 208.349C42.5505 208.158 42.3781 208.015 42.1719 207.951C41.9656 207.887 41.7424 207.907 41.5513 208.008L38.2545 209.742L37.1253 145.064H37.0349L35.3164 238.327H38.7537L38.2864 211.564L42.31 209.447C42.501 209.347 42.6442 209.175 42.7082 208.969C42.7721 208.762 42.7516 208.54 42.6511 208.349Z" fill="#CCCCCC"/>
<path d="M84.1603 58.4546C107.202 58.4546 125.931 101.83 125.931 130.644C125.931 159.458 107.252 182.817 84.2096 182.817C61.1675 182.817 42.4883 159.458 42.4883 130.644C42.4883 101.83 61.1182 58.4546 84.1603 58.4546Z" fill="#DC143C"/>
<path d="M91.4401 200.341C91.377 200.222 91.2909 200.115 91.1868 200.029C91.0826 199.942 90.9624 199.877 90.833 199.837C90.7037 199.797 90.5676 199.783 90.4328 199.795C90.2979 199.808 90.1668 199.846 90.0469 199.91L85.8694 202.107L84.4387 120.153H84.3242L82.1465 238.327H86.5019L85.9098 204.415L91.008 201.733C91.1279 201.67 91.2342 201.584 91.3208 201.48C91.4073 201.376 91.4726 201.256 91.5127 201.127C91.5528 200.997 91.5671 200.862 91.5546 200.727C91.5421 200.592 91.5032 200.461 91.4401 200.341Z" fill="#3F3D56"/>
<path d="M273.842 164.873V153.776C273.842 152.328 273.266 150.94 272.242 149.917C271.217 148.893 269.828 148.318 268.379 148.318H240.349C238.9 148.318 237.511 148.893 236.487 149.917C235.462 150.94 234.887 152.328 234.887 153.776V164.873H273.842Z" fill="white"/>
<path d="M234.887 166.616V183.812C234.887 185.259 235.462 186.648 236.487 187.671C237.511 188.694 238.9 189.269 240.349 189.269H268.379C269.828 189.269 271.217 188.694 272.242 187.671C273.266 186.648 273.842 185.259 273.842 183.812V166.616H234.887Z" fill="white"/>
<path d="M406.019 134.413L321.865 103.593C316.75 101.72 311.136 101.72 306.021 103.593L221.866 134.413C220.092 135.063 218.188 135.275 216.315 135.032C214.441 134.789 212.654 134.097 211.106 133.017C209.557 131.936 208.292 130.498 207.419 128.824C206.546 127.151 206.09 125.291 206.09 123.404C206.09 121.002 206.828 118.658 208.205 116.69C209.581 114.721 211.53 113.221 213.787 112.395L306.021 78.6163C311.136 76.7431 316.75 76.7431 321.865 78.6163L414.099 112.395C416.356 113.221 418.304 114.721 419.681 116.69C421.058 118.658 421.796 121.002 421.796 123.404C421.796 125.291 421.34 127.151 420.467 128.824C419.593 130.498 418.329 131.936 416.78 133.017C415.231 134.097 413.444 134.789 411.571 135.032C409.698 135.275 407.793 135.063 406.019 134.413Z" fill="#3F3D56"/>
<path d="M327.53 239.123H305.038C302.651 239.12 300.363 238.172 298.675 236.486C296.987 234.799 296.038 232.513 296.035 230.128V175.71C296.038 173.326 296.987 171.04 298.675 169.353C300.363 167.667 302.651 166.719 305.038 166.716H327.53C329.917 166.719 332.206 167.667 333.894 169.353C335.581 171.04 336.531 173.326 336.534 175.71V230.128C336.531 232.513 335.581 234.799 333.894 236.486C332.206 238.172 329.917 239.12 327.53 239.123ZM305.038 168.258C303.061 168.26 301.164 169.046 299.766 170.443C298.368 171.84 297.581 173.735 297.579 175.71V230.128C297.581 232.104 298.368 233.999 299.766 235.396C301.164 236.793 303.061 237.579 305.038 237.581H327.53C329.508 237.579 331.404 236.793 332.803 235.396C334.201 233.999 334.988 232.104 334.99 230.128V175.71C334.988 173.735 334.201 171.84 332.803 170.443C331.404 169.046 329.508 168.26 327.53 168.258H305.038Z" fill="#3F3D56"/>
<path d="M329.712 50.9771C329.35 46.9314 327.485 43.1676 324.485 40.4264C321.485 37.6852 317.566 36.165 313.501 36.165C309.435 36.165 305.517 37.6852 302.516 40.4264C299.516 43.1676 297.651 46.9314 297.289 50.9771H329.712Z" fill="white"/>
<path d="M297.23 52.7197C297.305 56.9818 299.053 61.044 302.096 64.0317C305.14 67.0193 309.236 68.6933 313.503 68.6933C317.77 68.6933 321.866 67.0193 324.909 64.0317C327.953 61.044 329.7 56.9818 329.775 52.7197H297.23Z" fill="white"/>
<path d="M327.165 70.693H299.838C298.536 70.693 297.288 70.1763 296.367 69.2567C295.447 68.337 294.93 67.0897 294.93 65.7891C294.93 64.4885 295.447 63.2412 296.367 62.3216C297.288 61.4019 298.536 60.8853 299.838 60.8853H327.165C328.467 60.8853 329.715 61.4019 330.636 62.3216C331.556 63.2412 332.073 64.4885 332.073 65.7891C332.073 67.0897 331.556 68.337 330.636 69.2567C329.715 70.1763 328.467 70.693 327.165 70.693Z" fill="#CCCCCC"/>
<path d="M235.179 183.718C234.014 183.718 232.896 184.18 232.072 185.004C231.248 185.827 230.785 186.943 230.785 188.108C230.785 189.272 231.248 190.389 232.072 191.212C232.896 192.035 234.014 192.498 235.179 192.498H273.553C274.718 192.498 275.836 192.035 276.66 191.212C277.484 190.389 277.947 189.272 277.947 188.108C277.947 186.943 277.484 185.827 276.66 185.004C275.836 184.18 274.718 183.718 273.553 183.718H235.179Z" fill="#CCCCCC"/>
<path d="M354.367 166.616V183.812C354.367 185.259 354.943 186.648 355.967 187.671C356.992 188.694 358.381 189.269 359.83 189.269H387.86C389.309 189.269 390.698 188.694 391.722 187.671C392.747 186.648 393.322 185.259 393.322 183.812V166.616H354.367Z" fill="white"/>
<path d="M393.322 164.873V153.776C393.322 152.328 392.747 150.94 391.722 149.917C390.698 148.893 389.309 148.318 387.86 148.318H359.83C358.381 148.318 356.992 148.893 355.967 149.917C354.943 150.94 354.367 152.328 354.367 153.776V164.873H393.322Z" fill="white"/>
<path d="M329.659 204.662C331.425 204.662 332.857 203.232 332.857 201.468C332.857 199.703 331.425 198.273 329.659 198.273C327.893 198.273 326.461 199.703 326.461 201.468C326.461 203.232 327.893 204.662 329.659 204.662Z" fill="#3F3D56"/>
<path d="M222.244 203.524L209.648 183.949L210.231 183.575L222.183 202.149L231.923 183.601L232.536 183.923L222.244 203.524Z" fill="#3F3D56"/>
<path d="M232.501 177.533H202.537V177.014C202.537 176.173 202.371 175.34 202.049 174.564C201.727 173.787 201.255 173.081 200.66 172.487C200.065 171.892 199.358 171.42 198.581 171.099C197.803 170.777 196.97 170.611 196.129 170.611C195.287 170.611 194.454 170.777 193.676 171.099C192.899 171.42 192.192 171.892 191.597 172.487C191.002 173.081 190.53 173.787 190.208 174.564C189.886 175.34 189.72 176.173 189.72 177.014V177.533H186.776C185.076 177.533 183.446 178.207 182.244 179.408C181.042 180.609 180.367 182.237 180.367 183.935C180.367 185.633 181.042 187.262 182.244 188.462C183.446 189.663 185.076 190.338 186.776 190.338H189.72V238.721C202.489 238.465 189.628 238.979 202.537 238.721V190.338H232.501C234.201 190.338 235.831 189.663 237.032 188.462C238.234 187.262 238.909 185.633 238.909 183.935C238.909 182.237 238.234 180.609 237.032 179.408C235.831 178.207 234.201 177.533 232.501 177.533Z" fill="#3F3D56"/>
<path d="M195.956 186.184C197.295 186.184 198.381 185.1 198.381 183.762C198.381 182.424 197.295 181.339 195.956 181.339C194.617 181.339 193.531 182.424 193.531 183.762C193.531 185.1 194.617 186.184 195.956 186.184Z" fill="white"/>
<path d="M236.308 215.858H208.6C207.291 215.856 206.037 215.336 205.111 214.412C204.186 213.487 203.666 212.234 203.664 210.926V201.933C203.666 200.626 204.186 199.372 205.111 198.448C206.037 197.523 207.291 197.003 208.6 197.002H236.308C237.616 197.003 238.871 197.523 239.796 198.448C240.722 199.372 241.242 200.626 241.244 201.933V210.926C241.242 212.234 240.722 213.487 239.796 214.412C238.871 215.336 237.616 215.856 236.308 215.858Z" fill="#CCCCCC"/>
<path d="M231.115 204.18H213.448C212.396 204.18 211.543 205.032 211.543 206.084C211.543 207.135 212.396 207.987 213.448 207.987H231.115C232.167 207.987 233.02 207.135 233.02 206.084C233.02 205.032 232.167 204.18 231.115 204.18Z" fill="#DC143C"/>
<path d="M479.693 239.236H-32.5281C-32.6335 239.236 -32.7347 239.194 -32.8093 239.12C-32.8839 239.045 -32.9258 238.944 -32.9258 238.839C-32.9258 238.733 -32.8839 238.632 -32.8093 238.558C-32.7347 238.483 -32.6335 238.441 -32.5281 238.441H479.693C479.798 238.441 479.899 238.483 479.974 238.558C480.049 238.632 480.09 238.733 480.09 238.839C480.09 238.944 480.049 239.045 479.974 239.12C479.899 239.194 479.798 239.236 479.693 239.236Z" fill="#CCCCCC"/>
<path d="M392.741 193.011H354.368C353.066 193.011 351.817 192.495 350.897 191.575C349.976 190.655 349.459 189.408 349.459 188.107C349.459 186.807 349.976 185.56 350.897 184.64C351.817 183.72 353.066 183.204 354.368 183.204H392.741C394.043 183.204 395.291 183.72 396.212 184.64C397.133 185.56 397.65 186.807 397.65 188.107C397.65 189.408 397.133 190.655 396.212 191.575C395.291 192.495 394.043 193.011 392.741 193.011Z" fill="#CCCCCC"/>
<path d="M444.288 79.1319C444.288 79.1319 434.983 78.4723 415.993 77.5899C393.356 38.0136 319.785 28.4741 319.785 7.05842e-05L410.211 0C419.259 0 427.936 3.59063 434.333 9.982C440.73 16.3734 444.325 25.0419 444.325 34.0807L444.288 79.1319Z" fill="#CCCCCC"/>
<path d="M365.862 10.4048C365.657 10.405 365.461 10.4863 365.316 10.6308C365.171 10.7754 365.09 10.9713 365.09 11.1758V36.9158C365.09 37.1202 365.171 37.3162 365.316 37.4607C365.461 37.6053 365.657 37.6866 365.862 37.6868H381.91C382.115 37.6866 382.311 37.6053 382.456 37.4607C382.601 37.3162 382.682 37.1202 382.682 36.9158V11.1758C382.682 10.9713 382.601 10.7754 382.456 10.6308C382.311 10.4863 382.115 10.405 381.91 10.4048H365.862Z" fill="#F2F2F2"/>
<path d="M410.437 77.0561L326.283 26.382C321.168 24.5088 315.554 24.5088 310.439 26.382L226.284 77.0561C224.51 77.7056 222.606 77.9179 220.733 77.6748C218.859 77.4317 217.072 76.7404 215.524 75.6596C213.975 74.5789 212.71 73.1407 211.837 71.4672C210.964 69.7936 210.508 67.9342 210.508 66.0469C210.508 63.6452 211.246 61.3014 212.623 59.3325C213.999 57.3636 215.948 55.8644 218.205 55.0378L310.439 1.4049C315.554 -0.4683 321.168 -0.4683 326.283 1.4049L418.517 55.0378C420.774 55.8644 422.722 57.3635 424.099 59.3325C425.476 61.3014 426.214 63.6452 426.214 66.0469C426.214 67.9342 425.758 69.7936 424.884 71.4671C424.011 73.1407 422.747 74.5789 421.198 75.6596C419.649 76.7404 417.862 77.4316 415.989 77.6748C414.116 77.9179 412.211 77.7056 410.437 77.0561Z" fill="#CCCCCC"/>
<path d="M176.977 43.6881C186.069 43.6881 193.44 36.3244 193.44 27.2408C193.44 18.1572 186.069 10.7935 176.977 10.7935C167.884 10.7935 160.514 18.1572 160.514 27.2408C160.514 36.3244 167.884 43.6881 176.977 43.6881Z" fill="#B1EEF0" fill-opacity="0.3"/>
<g clip-path="url(#clip1_279_1821)">
<path d="M181.289 23.7159V24.7584C181.289 24.8538 181.258 24.9322 181.197 24.9935C181.135 25.0548 181.057 25.0855 180.962 25.0855H179.243C179.086 26.0667 178.646 26.864 177.923 27.4772C177.2 28.0905 176.259 28.4653 175.099 28.6016C176.238 29.8145 177.804 31.6407 179.795 34.0801C179.891 34.1891 179.904 34.305 179.836 34.4276C179.782 34.5503 179.683 34.6116 179.539 34.6116H177.544C177.435 34.6116 177.35 34.5707 177.289 34.489C175.202 31.9882 173.503 30.0428 172.194 28.6527C172.132 28.5913 172.102 28.5164 172.102 28.4278V27.1297C172.102 27.0411 172.134 26.9645 172.199 26.8997C172.264 26.835 172.34 26.8026 172.429 26.8026H173.575C174.475 26.8026 175.2 26.6561 175.749 26.3631C176.298 26.0701 176.648 25.6442 176.798 25.0855H172.429C172.333 25.0855 172.255 25.0548 172.194 24.9935C172.132 24.9322 172.102 24.8538 172.102 24.7584V23.7159C172.102 23.6205 172.132 23.5421 172.194 23.4808C172.255 23.4194 172.333 23.3888 172.429 23.3888H176.654C176.266 22.6188 175.352 22.2338 173.912 22.2338H172.429C172.34 22.2338 172.264 22.2014 172.199 22.1367C172.134 22.0719 172.102 21.9953 172.102 21.9067V20.5473C172.102 20.4519 172.132 20.3735 172.194 20.3122C172.255 20.2509 172.333 20.2202 172.429 20.2202H180.941C181.037 20.2202 181.115 20.2509 181.176 20.3122C181.238 20.3735 181.268 20.4519 181.268 20.5473V21.5899C181.268 21.6852 181.238 21.7636 181.176 21.8249C181.115 21.8863 181.037 21.9169 180.941 21.9169H178.557C178.878 22.3326 179.096 22.8232 179.212 23.3888H180.962C181.057 23.3888 181.135 23.4194 181.197 23.4808C181.258 23.5421 181.289 23.6205 181.289 23.7159Z" fill="#DC143C" fill-opacity="0.3"/>
</g>
<path d="M460.966 171.669C466.08 171.669 470.226 167.527 470.226 162.417C470.226 157.308 466.08 153.166 460.966 153.166C455.851 153.166 451.705 157.308 451.705 162.417C451.705 167.527 455.851 171.669 460.966 171.669Z" fill="#F2F2F2"/>
<g clip-path="url(#clip2_279_1821)">
<path d="M463.68 159.95V160.694C463.68 160.762 463.658 160.818 463.614 160.862C463.57 160.906 463.514 160.928 463.446 160.928H462.218C462.106 161.629 461.792 162.198 461.275 162.636C460.759 163.074 460.087 163.342 459.258 163.439C460.072 164.306 461.19 165.61 462.613 167.353C462.681 167.43 462.691 167.513 462.642 167.601C462.603 167.688 462.532 167.732 462.43 167.732H461.005C460.927 167.732 460.866 167.703 460.822 167.645C459.331 165.858 458.118 164.469 457.183 163.476C457.139 163.432 457.117 163.378 457.117 163.315V162.388C457.117 162.325 457.14 162.27 457.187 162.224C457.233 162.177 457.288 162.154 457.351 162.154H458.17C458.813 162.154 459.33 162.05 459.722 161.84C460.115 161.631 460.364 161.327 460.471 160.928H457.351C457.283 160.928 457.227 160.906 457.183 160.862C457.139 160.818 457.117 160.762 457.117 160.694V159.95C457.117 159.881 457.139 159.825 457.183 159.782C457.227 159.738 457.283 159.716 457.351 159.716H460.369C460.091 159.166 459.439 158.891 458.411 158.891H457.351C457.288 158.891 457.233 158.868 457.187 158.822C457.14 158.775 457.117 158.721 457.117 158.657V157.686C457.117 157.618 457.139 157.562 457.183 157.518C457.227 157.475 457.283 157.453 457.351 157.453H463.431C463.499 157.453 463.555 157.475 463.599 157.518C463.643 157.562 463.665 157.618 463.665 157.686V158.431C463.665 158.499 463.643 158.555 463.599 158.599C463.555 158.643 463.499 158.665 463.431 158.665H461.728C461.957 158.961 462.113 159.312 462.196 159.716H463.446C463.514 159.716 463.57 159.738 463.614 159.782C463.658 159.825 463.68 159.881 463.68 159.95Z" fill="#DC143C" fill-opacity="0.3"/>
</g>
<path d="M29.8386 87.3763C34.953 87.3763 39.099 83.2342 39.099 78.1247C39.099 73.0151 34.953 68.873 29.8386 68.873C24.7242 68.873 20.5781 73.0151 20.5781 78.1247C20.5781 83.2342 24.7242 87.3763 29.8386 87.3763Z" fill="#F2F2F2"/>
<path d="M32.5546 75.657V76.4017C32.5546 76.4699 32.5327 76.5258 32.4888 76.5696C32.445 76.6134 32.389 76.6354 32.3207 76.6354H31.093C30.981 77.3362 30.6667 77.9057 30.1503 78.3437C29.6339 78.7818 28.9616 79.0495 28.1334 79.1468C28.947 80.0132 30.0651 81.3176 31.4877 83.0601C31.5559 83.138 31.5656 83.2207 31.5169 83.3083C31.4779 83.3959 31.4073 83.4397 31.305 83.4397H29.8799C29.802 83.4397 29.7411 83.4105 29.6972 83.3521C28.2065 81.5658 26.9934 80.1763 26.058 79.1833C26.0141 79.1395 25.9922 79.086 25.9922 79.0227V78.0955C25.9922 78.0322 26.0153 77.9775 26.0616 77.9312C26.1079 77.885 26.1627 77.8619 26.226 77.8619H27.0445C27.6876 77.8619 28.2052 77.7572 28.5974 77.548C28.9896 77.3387 29.2393 77.0345 29.3465 76.6354H26.226C26.1578 76.6354 26.1018 76.6134 26.058 76.5696C26.0141 76.5258 25.9922 76.4699 25.9922 76.4017V75.657C25.9922 75.5889 26.0141 75.5329 26.058 75.4891C26.1018 75.4453 26.1578 75.4234 26.226 75.4234H29.2442C28.9665 74.8734 28.3136 74.5984 27.2857 74.5984H26.226C26.1627 74.5984 26.1079 74.5753 26.0616 74.5291C26.0153 74.4828 25.9922 74.4281 25.9922 74.3648V73.3938C25.9922 73.3256 26.0141 73.2697 26.058 73.2259C26.1018 73.1821 26.1578 73.1602 26.226 73.1602H32.3061C32.3743 73.1602 32.4304 73.1821 32.4742 73.2259C32.5181 73.2697 32.54 73.3256 32.54 73.3938V74.1385C32.54 74.2066 32.5181 74.2626 32.4742 74.3064C32.4304 74.3502 32.3743 74.3721 32.3061 74.3721H30.6034C30.8324 74.669 30.9883 75.0194 31.0711 75.4234H32.3207C32.389 75.4234 32.445 75.4453 32.4888 75.4891C32.5327 75.5329 32.5546 75.5889 32.5546 75.657Z" fill="#DC143C" fill-opacity="0.3"/>
</g>
<defs>
<clipPath id="clip0_279_1821">
<rect width="480" height="239" fill="white"/>
</clipPath>
<clipPath id="clip1_279_1821">
<rect width="9.49539" height="14.3914" fill="white" transform="translate(172.1 20.2202)"/>
</clipPath>
<clipPath id="clip2_279_1821">
<rect width="6.78242" height="10.2796" fill="white" transform="translate(457.115 157.453)"/>
</clipPath>
</defs>
</svg>
