<svg width="304" height="258" viewBox="0 0 304 258" fill="none" xmlns="http://www.w3.org/2000/svg">
<g clip-path="url(#clip0_279_1736)">
<path d="M59.564 30.4301C58.9502 30.498 58.3587 30.6998 57.8311 31.0213C57.3036 31.3428 56.8529 31.7763 56.5107 32.2911C56.1686 32.806 55.9433 33.3897 55.8508 34.0012C55.7583 34.6126 55.8008 35.237 55.9753 35.8302L43.7617 44.5705L51.0419 47.3762L61.524 38.6461C62.4997 38.2865 63.3099 37.5809 63.8009 36.6631C64.2918 35.7453 64.4296 34.679 64.188 33.6663C63.9464 32.6536 63.3422 31.7648 62.49 31.1683C61.6378 30.5719 60.5967 30.3092 59.564 30.4301Z" fill="#FFB8B8"/>
<path d="M58.4289 43.5951L43.2791 58.8606C41.2029 60.9392 38.4652 62.2237 35.5415 62.4909L16.8215 64.2014C16.1352 64.2669 15.4427 64.1941 14.7851 63.9871C14.1274 63.7801 13.5178 63.4432 12.9923 62.9963C12.2653 62.3869 11.7248 61.5846 11.4327 60.6814C11.1406 59.7782 11.1088 58.8108 11.341 57.8904C11.5732 56.9699 12.06 56.1338 12.7455 55.4779C13.4309 54.8221 14.2872 54.3731 15.2159 54.1827L34.3405 50.1047L51.7521 37.2515C51.9941 37.115 52.2676 37.0444 52.5454 37.0464C52.8231 37.0485 53.0955 37.1233 53.3355 37.2633L58.0705 41.1478C58.3554 41.3041 58.5843 41.5459 58.725 41.8391C58.8657 42.1323 58.9112 42.4623 58.8551 42.7827C58.7999 43.091 58.651 43.3746 58.4289 43.5951Z" fill="#2F2E41"/>
<path d="M240.063 51.7992C240.176 50.7571 239.966 49.7055 239.461 48.7873C238.956 47.8692 238.181 47.1289 237.241 46.6673L142.958 0.519326C142.359 0.225572 141.707 0.0529569 141.041 0.0113401C140.375 -0.0302768 139.707 0.0599165 139.076 0.276772C138.444 0.493627 137.862 0.832899 137.361 1.27521C136.861 1.71753 136.452 2.25422 136.159 2.85465L136.157 2.85819L100.795 75.3143C100.205 76.528 100.119 77.9264 100.557 79.2032C100.995 80.4799 101.921 81.5307 103.131 82.1252L197.414 128.273C198.625 128.864 200.022 128.95 201.297 128.511C202.572 128.073 203.621 127.146 204.215 125.934L239.577 53.4781C239.835 52.951 240 52.3829 240.063 51.7992Z" fill="#B1EEF0"/>
<path d="M184.83 212.616H62.4929C60.9527 212.614 59.4761 212 58.387 210.91C57.2979 209.819 56.6853 208.34 56.6836 206.798V40.4803C56.6853 38.9379 57.2979 37.4591 58.387 36.3685C59.4761 35.2778 60.9527 34.6643 62.4929 34.6626H184.83C186.37 34.6643 187.846 35.2778 188.936 36.3685C190.025 37.4591 190.637 38.9379 190.639 40.4803V206.798C190.637 208.34 190.025 209.819 188.936 210.91C187.846 212 186.37 212.614 184.83 212.616Z" fill="white"/>
<path d="M97.6501 100.389C97.382 100.409 97.124 100.5 96.9023 100.652C98.0286 100.582 99.1479 100.426 100.251 100.187L97.6501 100.389Z" fill="#2F2E41"/>
<path d="M95.4255 54.5732C90.285 54.5738 85.2884 56.2736 81.2113 59.409C77.1342 62.5444 74.2047 66.94 72.8774 71.9134C71.5502 76.8868 71.8994 82.1599 73.8709 86.9142C75.8424 91.6684 79.326 95.638 83.7809 98.2067C84.9634 98.8925 86.2048 99.4711 87.4902 99.9357L87.7086 100.011C90.1882 100.883 92.7975 101.327 95.4255 101.324C95.9338 101.324 96.442 101.307 96.9419 101.269C98.099 101.198 99.2491 101.039 100.382 100.794C101.017 100.655 101.638 100.491 102.227 100.31C102.369 100.268 102.504 100.226 102.651 100.18C107.934 98.4564 112.43 94.9023 115.331 90.1563C118.232 85.4104 119.347 79.7838 118.477 74.288C117.606 68.7922 114.806 63.7877 110.581 60.174C106.356 56.5603 100.982 54.5743 95.4255 54.5732ZM108.969 95.4596C106.955 97.0158 104.688 98.2126 102.269 98.9976C102.138 99.0397 102.004 99.0817 101.869 99.1238C101.311 99.2963 100.723 99.4477 100.118 99.5781C99.0457 99.8125 97.9573 99.9644 96.8621 100.032C96.3875 100.066 95.9042 100.083 95.4255 100.083C92.938 100.084 90.4681 99.6649 88.1203 98.8419L87.9146 98.7704C86.636 98.3103 85.4039 97.7299 84.2346 97.0372C80.1622 94.6362 76.9662 90.9904 75.1162 86.6356C73.2662 82.2808 72.8598 77.4465 73.9567 72.8432C75.0535 68.2399 77.5959 64.1103 81.21 61.0612C84.8242 58.0122 89.3197 56.2044 94.0358 55.9036C98.752 55.6028 103.44 56.8248 107.411 59.3901C111.383 61.9554 114.427 65.7286 116.099 70.1553C117.77 74.5821 117.979 79.4289 116.696 83.9836C115.412 88.5383 112.704 92.5607 108.969 95.4596Z" fill="#CCCCCC"/>
<path d="M184.83 212.616H62.4929C60.9527 212.614 59.4761 212 58.387 210.91C57.2979 209.819 56.6853 208.34 56.6836 206.798V40.4803C56.6853 38.9379 57.2979 37.4591 58.387 36.3685C59.4761 35.2778 60.9527 34.6643 62.4929 34.6626H184.83C186.37 34.6643 187.846 35.2778 188.936 36.3685C190.025 37.4591 190.637 38.9379 190.639 40.4803V206.798C190.637 208.34 190.025 209.819 188.936 210.91C187.846 212 186.37 212.614 184.83 212.616ZM62.4929 35.347C61.1339 35.3486 59.831 35.8899 58.8701 36.8522C57.9091 37.8146 57.3686 39.1193 57.367 40.4803V206.798C57.3686 208.159 57.9091 209.464 58.8701 210.426C59.831 211.388 61.1339 211.93 62.4929 211.931H184.83C186.189 211.93 187.492 211.388 188.453 210.426C189.413 209.464 189.954 208.159 189.956 206.798V40.4803C189.954 39.1193 189.413 37.8146 188.453 36.8522C187.492 35.8899 186.189 35.3486 184.83 35.347L62.4929 35.347Z" fill="#CCCCCC"/>
<path d="M161.147 77.8587H126.53C125.803 77.8587 125.107 77.5697 124.593 77.0554C124.08 76.5411 123.791 75.8435 123.791 75.1161C123.791 74.3887 124.08 73.6911 124.593 73.1768C125.107 72.6625 125.803 72.3735 126.53 72.3735H161.147C161.873 72.3735 162.57 72.6625 163.083 73.1768C163.597 73.6911 163.885 74.3887 163.885 75.1161C163.885 75.8435 163.597 76.5411 163.083 77.0554C162.57 77.5697 161.873 77.8587 161.147 77.8587Z" fill="#E6E6E6"/>
<path d="M172.443 87.115H126.53C125.803 87.115 125.107 86.8261 124.593 86.3117C124.08 85.7974 123.791 85.0998 123.791 84.3725C123.791 83.6451 124.08 82.9475 124.593 82.4332C125.107 81.9188 125.803 81.6299 126.53 81.6299H172.443C173.17 81.6299 173.866 81.9188 174.38 82.4332C174.894 82.9475 175.182 83.6451 175.182 84.3725C175.182 85.0998 174.894 85.7974 174.38 86.3117C173.866 86.8261 173.17 87.115 172.443 87.115Z" fill="#E6E6E6"/>
<path d="M161.096 153.146H74.8792C74.1529 153.146 73.4563 152.857 72.9427 152.343C72.4292 151.829 72.1406 151.131 72.1406 150.404C72.1406 149.676 72.4292 148.979 72.9427 148.464C73.4563 147.95 74.1529 147.661 74.8792 147.661H161.096C161.823 147.661 162.519 147.95 163.033 148.464C163.547 148.979 163.835 149.676 163.835 150.404C163.835 151.131 163.547 151.829 163.033 152.343C162.519 152.857 161.823 153.146 161.096 153.146Z" fill="#E6E6E6"/>
<path d="M172.393 162.403H74.8792C74.1529 162.403 73.4563 162.114 72.9427 161.599C72.4292 161.085 72.1406 160.387 72.1406 159.66C72.1406 158.933 72.4292 158.235 72.9427 157.721C73.4563 157.206 74.1529 156.917 74.8792 156.917H172.393C173.12 156.917 173.816 157.206 174.33 157.721C174.843 158.235 175.132 158.933 175.132 159.66C175.132 160.387 174.843 161.085 174.33 161.599C173.816 162.114 173.12 162.403 172.393 162.403Z" fill="#E6E6E6"/>
<path d="M161.096 183.677H74.8792C74.1529 183.677 73.4563 183.388 72.9427 182.874C72.4292 182.359 72.1406 181.662 72.1406 180.934C72.1406 180.207 72.4292 179.509 72.9427 178.995C73.4563 178.481 74.1529 178.192 74.8792 178.192H161.096C161.823 178.192 162.519 178.481 163.033 178.995C163.547 179.509 163.835 180.207 163.835 180.934C163.835 181.662 163.547 182.359 163.033 182.874C162.519 183.388 161.823 183.677 161.096 183.677Z" fill="#E6E6E6"/>
<path d="M172.393 192.933H74.8792C74.1529 192.933 73.4563 192.644 72.9427 192.13C72.4292 191.615 72.1406 190.918 72.1406 190.19C72.1406 189.463 72.4292 188.765 72.9427 188.251C73.4563 187.737 74.1529 187.448 74.8792 187.448H172.393C173.119 187.449 173.815 187.738 174.328 188.252C174.84 188.766 175.128 189.464 175.128 190.19C175.128 190.917 174.84 191.614 174.328 192.128C173.815 192.643 173.119 192.932 172.393 192.933Z" fill="#E6E6E6"/>
<path d="M235.864 99.3363C235.977 98.2942 235.766 97.2426 235.262 96.3245C234.757 95.4063 233.982 94.6661 233.042 94.2044L138.759 48.0564C138.16 47.7627 137.508 47.5901 136.842 47.5484C136.176 47.5068 135.508 47.597 134.877 47.8139C134.245 48.0307 133.663 48.37 133.162 48.8123C132.662 49.2546 132.253 49.7913 131.96 50.3918L131.958 50.3953L96.5961 122.851C96.0059 124.065 95.9203 125.464 96.3581 126.74C96.7959 128.017 97.7213 129.068 98.9315 129.662L193.214 175.81C194.426 176.401 195.823 176.487 197.098 176.049C198.372 175.61 199.422 174.683 200.015 173.471L235.377 101.015C235.636 100.488 235.8 99.92 235.864 99.3363Z" fill="white"/>
<path d="M235.864 99.3363C235.977 98.2942 235.766 97.2426 235.262 96.3245C234.757 95.4063 233.982 94.6661 233.042 94.2044L138.759 48.0564C138.16 47.7627 137.508 47.5901 136.842 47.5484C136.176 47.5068 135.508 47.597 134.877 47.8139C134.245 48.0307 133.663 48.37 133.162 48.8123C132.662 49.2546 132.253 49.7913 131.96 50.3918L131.958 50.3953L96.5961 122.851C96.0059 124.065 95.9203 125.464 96.3581 126.74C96.7959 128.017 97.7213 129.068 98.9315 129.662L193.214 175.81C194.426 176.401 195.823 176.487 197.098 176.049C198.372 175.61 199.422 174.683 200.015 173.471L235.377 101.015C235.636 100.488 235.8 99.92 235.864 99.3363ZM199.478 173.208C198.954 174.278 198.028 175.096 196.904 175.483C195.779 175.87 194.546 175.794 193.477 175.272L99.1942 129.124C98.1262 128.6 97.3095 127.673 96.9232 126.546C96.5369 125.419 96.6125 124.185 97.1335 123.114L132.496 50.6584C133.019 49.5888 133.945 48.7709 135.07 48.384C136.195 47.9972 137.427 48.0729 138.497 48.5947L232.779 94.7426C233.847 95.267 234.664 96.1941 235.05 97.3207C235.437 98.4473 235.361 99.6814 234.84 100.752L199.478 173.208Z" fill="#3F3D56"/>
<path d="M225.579 102.631L200.887 153.225C200.722 153.563 200.431 153.821 200.076 153.943C199.721 154.066 199.332 154.042 198.994 153.877L113.231 111.899C113.17 111.869 113.111 111.835 113.056 111.795C112.775 111.604 112.572 111.317 112.485 110.988C112.398 110.658 112.432 110.309 112.581 110.003L137.273 59.4086C137.355 59.2414 137.469 59.0919 137.608 58.9686C137.747 58.8454 137.909 58.7508 138.085 58.6903C138.261 58.6298 138.447 58.6045 138.632 58.616C138.818 58.6274 138.999 58.6753 139.166 58.757L224.929 100.735C225.266 100.9 225.524 101.192 225.647 101.548C225.769 101.903 225.745 102.293 225.58 102.63L225.579 102.631Z" fill="#E6E6E6"/>
<path d="M150.287 100.062C157.147 100.062 162.708 94.4928 162.708 87.6233C162.708 80.7539 157.147 75.1851 150.287 75.1851C143.428 75.1851 137.867 80.7539 137.867 87.6233C137.867 94.4928 143.428 100.062 150.287 100.062Z" fill="#DC143C"/>
<path d="M168.473 139.188L113.732 112.394C113.663 112.361 113.597 112.323 113.535 112.278L161.344 80.0395C161.639 79.8371 161.981 79.7167 162.338 79.6905C162.694 79.6643 163.051 79.7332 163.371 79.8903C163.692 80.0474 163.966 80.2869 164.164 80.5845C164.362 80.882 164.478 81.227 164.5 81.584L167.166 120.227L167.295 122.077L168.473 139.188Z" fill="#3F3D56"/>
<path opacity="0.2" d="M168.471 139.188L149.781 130.04L165.47 121.184L166.599 120.546L167.164 120.227L167.293 122.076L168.471 139.188Z" fill="black"/>
<path d="M198.952 154.107L151.605 130.932L167.294 122.077L168.423 121.439L188.868 109.898C190.208 109.142 192.128 109.994 192.564 111.44C192.592 111.539 192.615 111.639 192.631 111.74L198.952 154.107Z" fill="#3F3D56"/>
<path d="M52.8645 158.523L58.0143 158.522L60.4646 138.629L52.8633 138.629L52.8645 158.523Z" fill="#FFB8B8"/>
<path d="M51.5508 156.839L61.693 156.838C62.5418 156.838 63.3827 157.006 64.1669 157.331C64.9511 157.656 65.6637 158.133 66.2639 158.734C66.8641 159.335 67.3402 160.049 67.665 160.834C67.9898 161.619 68.157 162.461 68.157 163.311V163.521L51.5511 163.522L51.5508 156.839Z" fill="#2F2E41"/>
<path d="M12.834 155.239L18.1698 156.284L24.7348 136.171L16.86 134.628L12.834 155.239Z" fill="#FFB8B8"/>
<path d="M11.8134 153.228L22.3214 155.286L22.3218 155.286C23.2012 155.458 24.0381 155.802 24.7847 156.299C25.5313 156.795 26.1731 157.433 26.6732 158.178C27.1734 158.923 27.5222 159.758 27.6998 160.638C27.8774 161.518 27.8802 162.424 27.7081 163.304L27.6656 163.522L10.4609 160.152L11.8134 153.228Z" fill="#2F2E41"/>
<path d="M60.3572 89.9001C60.1828 89.3068 59.8807 88.7591 59.472 88.2954C59.0634 87.8317 58.5582 87.4633 57.9921 87.2163C57.4259 86.9693 56.8126 86.8496 56.1952 86.8656C55.5779 86.8817 54.9716 87.0331 54.419 87.3092L43.6843 76.8008L42.2031 84.4707L52.6241 93.2738C53.1488 94.1727 53.9845 94.8476 54.9729 95.1707C55.9613 95.4938 57.0337 95.4425 57.9869 95.0267C58.9401 94.6109 59.7079 93.8593 60.1447 92.9144C60.5816 91.9696 60.6572 90.8971 60.3572 89.9001Z" fill="#FFB8B8"/>
<path d="M20.5304 35.8114C26.2286 35.8114 30.8479 31.1854 30.8479 25.4789C30.8479 19.7725 26.2286 15.1465 20.5304 15.1465C14.8322 15.1465 10.2129 19.7725 10.2129 25.4789C10.2129 31.1854 14.8322 35.8114 20.5304 35.8114Z" fill="#FFB8B8"/>
<path d="M18.3632 35.9696C18.9114 36.2098 20.034 31.8354 19.5311 30.9604C18.7833 29.6593 18.8275 29.6686 18.331 28.8078C17.8346 27.947 17.7235 26.7687 18.3664 26.0112C19.0093 25.2538 20.497 25.3543 20.7904 26.304C20.6017 24.5001 22.3833 23.0502 24.1481 22.6427C25.9129 22.2352 27.7744 22.4882 29.5489 22.1256C31.6083 21.7048 33.751 19.976 32.9293 17.7081C32.7883 17.3305 32.5772 16.9831 32.3072 16.6841C31.3578 15.6152 30.0299 15.1587 28.7315 14.7174C26.0303 13.7993 23.2553 12.8696 20.4046 12.971C18.0558 13.094 15.7938 13.9 13.8953 15.2904C11.9968 16.6808 10.5442 18.5953 9.71525 20.7996C9.5188 21.3511 9.36661 21.9173 9.26013 22.493C8.28167 27.7618 11.3369 32.9588 16.299 34.9651L18.3632 35.9696Z" fill="#2F2E41"/>
<path d="M15.8299 92.7301C15.5667 92.5708 15.3558 92.3379 15.2231 92.0601C15.0905 91.7823 15.0418 91.4717 15.083 91.1665L10.4273 68.0703L5.70802 50.3449C5.18992 48.4026 5.34649 46.3416 6.15187 44.5001C6.95724 42.6586 8.36369 41.1459 10.1405 40.2102L13.2604 37.2539L20.0666 40.1905L23.3008 43.4837C25.6205 44.6148 27.6782 46.2194 29.3417 48.1945C31.0051 50.1696 32.2375 52.4713 32.9597 54.9519L38.147 72.7279L50.1265 90.5761C50.3265 90.8736 50.42 91.2301 50.3918 91.5876C50.3637 91.9451 50.2154 92.2825 49.9713 92.5448C48.3047 94.3402 15.8299 92.7301 15.8299 92.7301Z" fill="#2F2E41"/>
<path d="M47.2157 91.0892L29.5511 78.8306C27.1435 77.1482 25.4005 74.6743 24.6249 71.8387L19.6596 53.6823C19.4747 53.0172 19.4249 52.3217 19.513 51.637C19.6011 50.9522 19.8254 50.2921 20.1726 49.6956C20.6441 48.872 21.338 48.1983 22.1747 47.7519C23.0113 47.3055 23.9568 47.1045 24.9024 47.1719C25.848 47.2394 26.7554 47.5727 27.5204 48.1334C28.2854 48.6942 28.8769 49.4596 29.227 50.3419L36.5908 68.4819L52.2807 83.3936C52.4573 83.6083 52.5747 83.8655 52.6214 84.1397C52.6681 84.4139 52.6424 84.6956 52.5468 84.9568L49.5587 90.3066C49.455 90.6149 49.2575 90.8829 48.9939 91.0731C48.7303 91.2632 48.4139 91.366 48.089 91.3669C47.7763 91.3665 47.4713 91.2695 47.2157 91.0892Z" fill="#2F2E41"/>
<path d="M10.5173 152.16C10.3728 151.953 10.2804 151.714 10.2476 151.463C10.2149 151.212 10.2429 150.957 10.3293 150.72L18.5013 120.969L19.1054 91.8179L46.6147 89.9285L46.7482 89.9194L55.0339 104.959C57.628 109.66 59.216 114.852 59.6969 120.202L62.4274 150.167C62.4686 150.575 62.3487 150.982 62.0934 151.302C61.838 151.621 61.4676 151.828 61.0618 151.877L52.7671 152.667C52.3675 152.716 51.9646 152.606 51.6445 152.362C51.3244 152.117 51.1124 151.757 51.0537 151.358L47.6855 120.908L35.5664 100.402L31.4984 121.991L23.0704 151.804C22.9602 152.102 22.7623 152.359 22.5028 152.541C22.2433 152.723 21.9346 152.822 21.6177 152.825L11.7878 152.829C11.5376 152.83 11.2908 152.77 11.0693 152.653C10.8477 152.536 10.6582 152.367 10.5173 152.16Z" fill="#2F2E41"/>
<path d="M221.156 250.007H13.8625C10.1872 250.003 6.66366 248.539 4.06483 245.936C1.466 243.333 0.00415162 239.805 0 236.124V122.118C0.00415162 118.438 1.466 114.909 4.06483 112.307C6.66366 109.704 10.1872 108.24 13.8625 108.236H39.2784C42.7269 108.233 46.0521 109.52 48.602 111.845L76.1639 131.555C77.9608 133.199 80.3076 134.11 82.7418 134.108H222.443C224.28 134.108 226.1 134.474 227.795 135.184C229.49 135.895 231.027 136.935 232.317 138.246C233.606 139.557 234.623 141.111 235.308 142.819C235.992 144.527 236.331 146.354 236.304 148.194L235.017 236.327C234.949 239.969 233.46 243.439 230.87 245.995C228.279 248.552 224.793 249.992 221.156 250.007Z" fill="white"/>
<path d="M219.315 243.276H15.0897C13.3167 243.274 11.6169 242.568 10.3632 241.312C9.10955 240.057 8.40435 238.355 8.40234 236.579V120.709C8.40435 118.934 9.10956 117.231 10.3633 115.976C11.6169 114.72 13.3167 114.014 15.0897 114.012C16.6579 114.014 18.1614 114.639 19.2703 115.749C20.3792 116.86 21.0029 118.365 21.0047 119.936V228.586C21.0065 230.25 21.6675 231.845 22.8424 233.022C24.0173 234.199 25.6104 234.861 27.272 234.862H218.625C219.576 234.852 220.503 235.16 221.258 235.739C222.013 236.318 222.552 237.133 222.79 238.054C223.057 238.928 223.024 239.867 222.696 240.719C222.368 241.572 221.764 242.291 220.981 242.76C220.484 243.083 219.908 243.262 219.315 243.276Z" fill="#F2F2F2"/>
<path d="M119.06 187.631L118.522 187.093C118.411 186.988 118.345 186.844 118.34 186.691C118.335 186.538 118.391 186.39 118.495 186.278C118.504 186.269 118.513 186.26 118.522 186.251L123.239 181.523C123.291 181.467 123.353 181.423 123.422 181.392C123.491 181.36 123.565 181.343 123.641 181.341C123.716 181.338 123.791 181.351 123.862 181.377C123.933 181.404 123.998 181.444 124.053 181.496C124.062 181.505 124.071 181.514 124.08 181.523L128.797 186.247C128.852 186.3 128.896 186.364 128.927 186.434C128.958 186.505 128.974 186.581 128.975 186.657C128.977 186.734 128.963 186.811 128.935 186.882C128.907 186.953 128.865 187.019 128.812 187.074L128.797 187.088L128.259 187.627C128.206 187.682 128.142 187.726 128.072 187.757C128.002 187.788 127.926 187.804 127.85 187.805C127.773 187.807 127.697 187.793 127.625 187.765C127.554 187.737 127.489 187.695 127.434 187.641L127.419 187.627L124.63 184.682V191.67C124.63 191.746 124.616 191.821 124.587 191.892C124.559 191.963 124.517 192.027 124.463 192.081C124.41 192.136 124.346 192.179 124.276 192.209C124.206 192.238 124.131 192.254 124.054 192.254L124.05 192.254H123.273C123.118 192.254 122.97 192.193 122.86 192.083C122.751 191.973 122.689 191.825 122.689 191.67V184.691L119.9 187.635C119.792 187.746 119.644 187.81 119.489 187.812C119.334 187.814 119.185 187.754 119.074 187.646L119.06 187.631Z" fill="#DC143C"/>
<path d="M123.65 177.227C125.544 177.227 127.395 177.79 128.969 178.843C130.543 179.897 131.77 181.394 132.495 183.146C133.22 184.898 133.409 186.825 133.04 188.685C132.67 190.545 131.759 192.253 130.42 193.594C129.081 194.935 127.375 195.848 125.518 196.218C123.661 196.588 121.736 196.398 119.987 195.672C118.237 194.947 116.742 193.718 115.69 192.141C114.638 190.565 114.077 188.711 114.077 186.815C114.079 184.273 115.088 181.835 116.883 180.038C118.678 178.24 121.112 177.23 123.65 177.227ZM123.65 175.965C121.507 175.965 119.413 176.602 117.631 177.794C115.85 178.986 114.461 180.68 113.641 182.663C112.821 184.645 112.607 186.827 113.025 188.931C113.443 191.036 114.474 192.969 115.99 194.487C117.505 196.004 119.435 197.037 121.537 197.456C123.638 197.874 125.816 197.66 127.796 196.838C129.776 196.017 131.468 194.627 132.658 192.842C133.849 191.058 134.484 188.961 134.484 186.815C134.484 183.937 133.343 181.178 131.311 179.143C129.279 177.108 126.524 175.965 123.65 175.965Z" fill="#3F3D56"/>
<path d="M221.156 250.007H13.8625C10.1872 250.003 6.66366 248.539 4.06483 245.936C1.466 243.333 0.00415162 239.805 0 236.124V122.118C0.00415162 118.438 1.466 114.909 4.06483 112.307C6.66366 109.704 10.1872 108.24 13.8625 108.236H39.2784C42.7269 108.233 46.0521 109.52 48.602 111.845L76.1639 131.555C77.9608 133.199 80.3076 134.11 82.7418 134.108H222.443C224.28 134.108 226.1 134.474 227.795 135.184C229.49 135.895 231.027 136.935 232.317 138.246C233.606 139.557 234.623 141.111 235.308 142.819C235.992 144.527 236.331 146.354 236.304 148.194L235.017 236.327C234.949 239.969 233.46 243.439 230.87 245.995C228.279 248.552 224.793 249.992 221.156 250.007ZM13.8625 109.077C10.41 109.081 7.09998 110.456 4.65866 112.901C2.21734 115.346 0.844078 118.661 0.840154 122.118V236.124C0.844078 239.582 2.21734 242.896 4.65866 245.341C7.09998 247.786 10.41 249.161 13.8625 249.165H221.156C224.572 249.151 227.848 247.799 230.281 245.397C232.715 242.996 234.113 239.736 234.177 236.315L235.464 148.181C235.489 146.453 235.171 144.737 234.528 143.132C233.885 141.528 232.93 140.068 231.718 138.837C230.507 137.605 229.063 136.628 227.47 135.96C225.878 135.293 224.169 134.949 222.443 134.949H82.7418C80.1068 134.952 77.5658 133.969 75.6164 132.193L48.0545 112.484C45.6571 110.29 42.5261 109.074 39.2784 109.077H13.8625Z" fill="#3F3D56"/>
<path d="M238.723 252.226H233.573L231.963 232.333L238.724 232.333L238.723 252.226Z" fill="#FFB8B8"/>
<path d="M240.036 257.226L223.43 257.226V257.015C223.43 256.165 223.597 255.324 223.922 254.538C224.246 253.753 224.723 253.039 225.323 252.438C225.923 251.837 226.636 251.36 227.42 251.035C228.204 250.71 229.044 250.542 229.893 250.542L240.036 250.543L240.036 257.226Z" fill="#2F2E41"/>
<path d="M296.274 252.226H291.124L288.674 232.333L296.275 232.333L296.274 252.226Z" fill="#FFB8B8"/>
<path d="M297.586 257.226L280.98 257.225V257.015C280.98 256.165 281.148 255.323 281.472 254.538C281.797 253.752 282.273 253.039 282.874 252.438C283.474 251.837 284.186 251.36 284.97 251.035C285.755 250.709 286.595 250.542 287.444 250.542L297.587 250.542L297.586 257.226Z" fill="#2F2E41"/>
<path d="M279.341 190.728C280.052 189.894 280.452 188.839 280.475 187.742C280.497 186.645 280.14 185.575 279.463 184.712C279.326 184.547 279.176 184.393 279.013 184.253L282.892 169.911L276.427 172.059L273.735 185.349C273.288 186.168 273.09 187.101 273.166 188.032C273.242 188.962 273.588 189.85 274.162 190.586C274.462 190.984 274.848 191.308 275.29 191.536C275.732 191.764 276.22 191.889 276.717 191.903C277.215 191.917 277.709 191.818 278.163 191.615C278.617 191.412 279.019 191.109 279.341 190.728Z" fill="#FFB8B8"/>
<path d="M279.092 181.906C279.011 181.906 278.93 181.9 278.85 181.888L275.481 181.379C275.219 181.334 274.97 181.232 274.752 181.08C274.533 180.929 274.35 180.731 274.216 180.501C273.924 180.012 273.819 179.433 273.921 178.872L278.124 155.363L275.273 140.26C274.723 137.353 276.141 134.418 278.571 133.432C279.292 133.136 280.077 133.033 280.85 133.132C281.622 133.231 282.356 133.529 282.979 133.997C283.651 134.507 284.209 135.153 284.616 135.893C285.023 136.633 285.27 137.45 285.34 138.292L287.358 157.549L287.334 157.633L280.841 180.454C280.747 180.854 280.526 181.212 280.21 181.474C279.895 181.736 279.502 181.888 279.092 181.906Z" fill="#DC143C"/>
<path d="M278.095 125.108C283.793 125.108 288.412 120.482 288.412 114.776C288.412 109.069 283.793 104.443 278.095 104.443C272.397 104.443 267.777 109.069 267.777 114.776C267.777 120.482 272.397 125.108 278.095 125.108Z" fill="#FFB8B8"/>
<path d="M272.815 162.806C272.558 162.806 272.303 162.758 272.063 162.666L255.755 156.384C255.314 156.215 254.942 155.902 254.701 155.495C254.46 155.088 254.364 154.612 254.427 154.143L255.082 149.224C254.694 147.48 254.729 145.668 255.186 143.941C255.643 142.214 256.508 140.622 257.708 139.3L258.105 138.862L262.929 130.051C263.256 129.454 263.698 128.928 264.229 128.503C264.76 128.078 265.37 127.762 266.023 127.574C266.676 127.386 267.36 127.329 268.036 127.408C268.711 127.486 269.364 127.697 269.958 128.029L278.478 132.797C279.599 133.424 280.446 134.448 280.851 135.668C281.998 139.123 281.913 142.869 280.611 146.268L274.777 161.457C274.623 161.853 274.353 162.194 274.003 162.434C273.653 162.675 273.239 162.804 272.815 162.806Z" fill="#DC143C"/>
<path d="M230.077 247.342L230.055 247.338C229.777 247.284 229.513 247.175 229.278 247.016C229.043 246.858 228.843 246.653 228.689 246.415C228.535 246.177 228.431 245.91 228.382 245.631C228.334 245.351 228.343 245.065 228.408 244.789L240.904 190.083C242.95 181.411 245.777 172.942 249.349 164.781L254.665 152.641L274.504 161.711L277.337 166.899C279.545 172.677 280.681 178.811 280.687 184.998L300.845 244.16C300.944 244.449 300.978 244.756 300.946 245.059C300.914 245.363 300.817 245.656 300.661 245.918C300.505 246.18 300.293 246.404 300.041 246.577C299.79 246.749 299.504 246.864 299.203 246.914L288.168 246.789C288.064 246.808 287.958 246.817 287.852 246.816C287.434 246.816 287.025 246.691 286.679 246.455C286.333 246.22 286.065 245.886 285.911 245.497L262.868 185.681C262.835 185.602 262.779 185.534 262.707 185.488C262.635 185.441 262.55 185.418 262.464 185.421C262.38 185.422 262.299 185.449 262.231 185.499C262.163 185.548 262.112 185.617 262.085 185.697L240.221 245.81C240.053 246.278 239.725 246.67 239.295 246.918C238.865 247.165 238.361 247.251 237.873 247.161L230.077 247.342Z" fill="#2F2E41"/>
<path d="M245.163 180.068C245.745 179.861 246.274 179.528 246.714 179.094C247.154 178.659 247.493 178.134 247.708 177.554C247.923 176.974 248.008 176.354 247.958 175.738C247.907 175.122 247.723 174.524 247.417 173.986L257.298 162.67L249.569 161.614L241.371 172.523C240.503 173.097 239.877 173.97 239.61 174.976C239.342 175.983 239.453 177.052 239.92 177.982C240.388 178.912 241.18 179.638 242.146 180.023C243.112 180.407 244.186 180.423 245.163 180.068Z" fill="#FFB8B8"/>
<path d="M249.82 172.096C249.476 172.096 249.137 172.011 248.833 171.849L245.356 169.992C245.101 169.856 244.877 169.668 244.697 169.441C244.518 169.214 244.387 168.952 244.313 168.672C244.24 168.392 244.225 168.1 244.269 167.813C244.313 167.527 244.416 167.253 244.571 167.009L257.415 146.741L259.642 131.447C259.757 130.656 260.031 129.897 260.448 129.216C260.864 128.535 261.414 127.945 262.065 127.483C262.716 127.021 263.453 126.696 264.233 126.528C265.013 126.359 265.819 126.351 266.602 126.504C267.385 126.656 268.129 126.966 268.789 127.415C269.448 127.864 270.01 128.443 270.441 129.115C270.871 129.788 271.16 130.541 271.291 131.329C271.422 132.117 271.392 132.924 271.203 133.7L266.605 152.551L251.455 171.316C251.258 171.56 251.009 171.757 250.726 171.892C250.443 172.027 250.133 172.097 249.82 172.096Z" fill="#DC143C"/>
<path d="M268.81 106.251C270.004 102.332 276.899 100.583 282.63 102.209C288.361 103.835 292.478 108.099 293.437 112.267C295.559 121.498 284.489 128.99 286.495 138.222C287.822 144.329 295.499 150.104 304.147 151.499C294.617 153.496 282.986 151.741 274.149 146.973C268.649 144.005 264.035 139.527 264.104 135.01C264.147 132.276 265.884 129.857 268.008 127.768C270.133 125.679 272.676 123.821 274.625 121.641C276.575 119.46 277.926 116.849 277.357 114.08C276.788 111.312 273.897 108.425 270.008 107.619L268.81 106.251Z" fill="#2F2E41"/>
<path d="M326.272 258H166.223C166.111 258 166.005 257.956 165.926 257.877C165.847 257.798 165.803 257.691 165.803 257.579C165.803 257.468 165.847 257.361 165.926 257.282C166.005 257.203 166.111 257.159 166.223 257.159H326.272C326.384 257.159 326.49 257.203 326.569 257.282C326.648 257.361 326.692 257.468 326.692 257.579C326.692 257.691 326.648 257.798 326.569 257.877C326.49 257.956 326.384 258 326.272 258Z" fill="#CCCCCC"/>
<path d="M105.853 77.05C106.993 77.8459 106.993 79.5343 105.853 80.3303L92.6697 89.5295C91.3439 90.4547 89.5252 89.5061 89.5252 87.8894V69.4909C89.5252 67.8742 91.3439 66.9256 92.6697 67.8507L105.853 77.05Z" fill="#D9D9D9"/>
</g>
<defs>
<clipPath id="clip0_279_1736">
<rect width="304" height="258" fill="white"/>
</clipPath>
</defs>
</svg>
