<svg width="438" height="334" viewBox="0 0 438 334" fill="none" xmlns="http://www.w3.org/2000/svg">
<g clip-path="url(#clip0_1_1650)">
<path d="M62.5652 197.219C77.8936 197.219 90.3197 184.799 90.3197 169.479C90.3197 154.158 77.8936 141.738 62.5652 141.738C47.2369 141.738 34.8108 154.158 34.8108 169.479C34.8108 184.799 47.2369 197.219 62.5652 197.219Z" fill="#FF6584"/>
<path d="M119.403 326.17H119.375C118.398 326.169 117.461 325.781 116.77 325.09C116.079 324.399 115.69 323.463 115.689 322.486V106.195C115.69 105.218 116.079 104.282 116.77 103.591C117.461 102.9 118.398 102.512 119.375 102.511H301.514C302.491 102.512 303.428 102.9 304.119 103.591C304.81 104.282 305.199 105.218 305.2 106.195V274.373C305.199 275.345 304.814 276.277 304.129 276.967C303.444 277.657 302.515 278.049 301.542 278.057L119.403 326.17Z" fill="#F2F2F2"/>
<path d="M254.028 71.9526H169.463V22.9728C169.465 21.9386 169.876 20.947 170.608 20.2157C171.34 19.4843 172.332 19.073 173.366 19.0718H250.125C251.16 19.073 252.152 19.4843 252.883 20.2157C253.615 20.947 254.027 21.9386 254.028 22.9728V71.9526ZM170.331 71.0857H253.16V22.9728C253.16 22.1684 252.839 21.3972 252.27 20.8284C251.701 20.2595 250.93 19.9396 250.125 19.9387H173.366C172.562 19.9396 171.79 20.2595 171.221 20.8284C170.652 21.3972 170.332 22.1684 170.331 22.9728V71.0857Z" fill="#3F3D56"/>
<path d="M193.532 37.71H229.959C230.879 37.71 231.762 38.0753 232.412 38.7256C233.063 39.3759 233.429 40.2579 233.429 41.1776V93.1914H190.062V41.1776C190.062 40.2579 190.428 39.3759 191.078 38.7256C191.729 38.0753 192.611 37.71 193.532 37.71Z" fill="#E6E6E6"/>
<path d="M200.688 19.9399H182.907V2.16738C182.908 1.59276 183.136 1.04186 183.543 0.635537C183.949 0.229217 184.501 0.000657389 185.075 0H198.52C199.095 0.000657389 199.646 0.229217 200.052 0.635537C200.459 1.04186 200.688 1.59276 200.688 2.16738V19.9399ZM183.774 19.073H199.821V2.16738C199.821 1.8226 199.683 1.49205 199.439 1.24825C199.196 1.00446 198.865 0.867329 198.52 0.866952H185.075C184.73 0.867329 184.4 1.00446 184.156 1.24825C183.912 1.49205 183.775 1.8226 183.774 2.16738V19.073Z" fill="#3F3D56"/>
<path d="M346.793 281.239C346.62 281.239 346.451 281.239 346.279 281.235C335.55 281.116 325.234 277.086 317.269 269.901C316.974 269.633 316.682 269.362 316.393 269.087L316.258 268.959V185.887L316.3 185.799C316.587 185.191 316.878 184.591 317.169 183.992C326.189 165.688 336.71 155.608 346.793 155.608C361.333 155.608 372.61 175.544 378.038 187.428C385.586 203.952 390.857 224.429 390.857 237.222C390.854 248.812 386.278 259.934 378.123 268.173C369.968 276.413 358.891 281.106 347.296 281.235C347.134 281.239 346.961 281.239 346.793 281.239ZM317.126 268.587C317.366 268.814 317.609 269.038 317.851 269.259C325.661 276.302 335.776 280.253 346.294 280.368C346.47 280.372 346.636 280.367 346.804 280.372C346.961 280.372 347.123 280.372 347.28 280.368C370.833 280.107 389.99 260.752 389.99 237.222C389.99 224.54 384.751 204.211 377.249 187.788C371.908 176.093 360.848 156.475 346.793 156.475C337.058 156.475 326.814 166.383 317.948 184.373C317.674 184.938 317.398 185.506 317.126 186.081L317.126 268.587Z" fill="#3F3D56"/>
<path d="M346.791 333.794C346.659 333.794 346.532 333.741 346.438 333.648C346.345 333.554 346.292 333.427 346.292 333.295V231.492C346.292 231.426 346.304 231.361 346.329 231.3C346.354 231.239 346.391 231.184 346.437 231.137C346.483 231.09 346.539 231.053 346.599 231.028C346.66 231.003 346.725 230.99 346.791 230.99C346.857 230.99 346.922 231.003 346.983 231.028C347.043 231.053 347.098 231.09 347.145 231.137C347.191 231.184 347.228 231.239 347.253 231.3C347.278 231.361 347.29 231.426 347.29 231.492V333.295C347.29 333.427 347.237 333.554 347.144 333.648C347.05 333.741 346.923 333.794 346.791 333.794Z" fill="#CCCCCC"/>
<path d="M87.8937 333.794C87.7614 333.794 87.6345 333.741 87.5409 333.648C87.4474 333.554 87.3948 333.427 87.3948 333.295V231.492C87.3944 231.426 87.407 231.361 87.4319 231.3C87.4568 231.239 87.4935 231.184 87.5399 231.137C87.5862 231.09 87.6414 231.053 87.7021 231.028C87.7628 231.003 87.8279 230.99 87.8937 230.99C87.9595 230.99 88.0246 231.003 88.0853 231.028C88.1461 231.053 88.2012 231.09 88.2476 231.137C88.2939 231.184 88.3306 231.239 88.3555 231.3C88.3804 231.361 88.393 231.426 88.3926 231.492V333.295C88.3926 333.427 88.3401 333.554 88.2465 333.648C88.1529 333.741 88.026 333.794 87.8937 333.794Z" fill="#CCCCCC"/>
<path d="M346.791 250.512C346.719 250.513 346.648 250.497 346.583 250.468C346.518 250.438 346.46 250.395 346.413 250.34L321.32 221.416C321.234 221.316 321.191 221.186 321.2 221.054C321.21 220.923 321.271 220.8 321.371 220.714C321.471 220.627 321.601 220.584 321.733 220.593C321.865 220.602 321.987 220.663 322.074 220.763L347.167 249.687C347.23 249.759 347.271 249.848 347.284 249.943C347.298 250.037 347.284 250.134 347.244 250.221C347.205 250.308 347.141 250.381 347.06 250.433C346.98 250.485 346.886 250.512 346.791 250.512Z" fill="#CCCCCC"/>
<path d="M346.791 267.206C346.692 267.206 346.596 267.176 346.514 267.121C346.432 267.067 346.368 266.989 346.33 266.898C346.292 266.807 346.282 266.706 346.302 266.61C346.321 266.513 346.368 266.424 346.438 266.354L360.698 252.102C360.791 252.009 360.918 251.956 361.05 251.957C361.182 251.957 361.309 252.009 361.402 252.103C361.495 252.196 361.548 252.323 361.548 252.455C361.548 252.587 361.496 252.713 361.403 252.807L347.144 267.059C347.097 267.106 347.042 267.143 346.982 267.168C346.921 267.193 346.856 267.206 346.791 267.206Z" fill="#CCCCCC"/>
<path d="M392.953 334H355.655V333.567C355.654 331.118 356.136 328.693 357.072 326.431C358.009 324.168 359.382 322.113 361.114 320.381C362.846 318.649 364.902 317.275 367.165 316.338C369.428 315.401 371.854 314.918 374.304 314.918C376.754 314.918 379.179 315.401 381.442 316.338C383.706 317.275 385.762 318.649 387.494 320.381C389.225 322.113 390.599 324.168 391.536 326.431C392.472 328.693 392.954 331.118 392.953 333.567L392.953 334ZM356.528 333.133H392.08C391.967 328.496 390.044 324.087 386.723 320.847C383.402 317.607 378.945 315.794 374.304 315.794C369.663 315.794 365.206 317.607 361.885 320.847C358.563 324.087 356.641 328.496 356.528 333.133Z" fill="#3F3D56"/>
<path d="M374.305 322.987C374.174 322.987 374.049 323.039 373.957 323.131C373.864 323.224 373.813 323.349 373.813 323.479V328.707L368.718 324.336C368.669 324.294 368.612 324.262 368.55 324.241C368.489 324.221 368.424 324.213 368.359 324.218C368.295 324.223 368.232 324.24 368.174 324.27C368.116 324.299 368.065 324.339 368.023 324.388C367.98 324.437 367.948 324.494 367.928 324.556C367.908 324.617 367.9 324.682 367.905 324.747C367.91 324.811 367.928 324.874 367.957 324.932C367.987 324.99 368.027 325.041 368.076 325.083L373.813 330.004V333.075C373.812 333.14 373.825 333.204 373.85 333.264C373.874 333.324 373.911 333.378 373.956 333.424C374.002 333.47 374.056 333.506 374.116 333.531C374.176 333.556 374.24 333.569 374.305 333.569C374.37 333.569 374.434 333.556 374.494 333.531C374.554 333.506 374.608 333.47 374.654 333.424C374.699 333.378 374.736 333.324 374.76 333.264C374.785 333.204 374.798 333.14 374.797 333.075V323.479C374.797 323.349 374.745 323.224 374.653 323.131C374.561 323.039 374.436 322.987 374.305 322.987Z" fill="#3F3D56"/>
<path d="M80.2814 334H42.9841V333.567C42.983 331.118 43.4644 328.693 44.4011 326.431C45.3377 324.168 46.7112 322.113 48.443 320.381C50.1748 318.649 52.231 317.275 54.4942 316.338C56.7573 315.401 59.183 314.918 61.6328 314.918C64.0825 314.918 66.5082 315.401 68.7714 316.338C71.0345 317.275 73.0907 318.649 74.8225 320.381C76.5543 322.113 77.9278 324.168 78.8644 326.431C79.8011 328.693 80.2826 331.118 80.2814 333.567L80.2814 334ZM43.8567 333.133H79.4089C79.2957 328.496 77.3732 324.087 74.0519 320.847C70.7305 317.607 66.2736 315.794 61.6328 315.794C56.9919 315.794 52.535 317.607 49.2137 320.847C45.8923 324.087 43.9698 328.496 43.8567 333.133Z" fill="#3F3D56"/>
<path d="M61.6333 322.987C61.5027 322.987 61.3775 323.039 61.2852 323.131C61.1929 323.224 61.141 323.349 61.141 323.479V328.707L56.0462 324.336C55.9971 324.294 55.9402 324.262 55.8787 324.241C55.8172 324.221 55.7523 324.213 55.6878 324.218C55.6232 324.223 55.5602 324.24 55.5024 324.27C55.4446 324.299 55.3931 324.339 55.351 324.388C55.3088 324.437 55.2767 324.494 55.2566 324.556C55.2364 324.617 55.2286 324.682 55.2336 324.747C55.2386 324.811 55.2563 324.874 55.2857 324.932C55.315 324.99 55.3555 325.041 55.4047 325.083L61.141 330.004V333.075C61.1408 333.14 61.1534 333.204 61.178 333.264C61.2027 333.324 61.2389 333.378 61.2847 333.424C61.3304 333.47 61.3847 333.506 61.4446 333.531C61.5044 333.556 61.5685 333.569 61.6333 333.569C61.6981 333.569 61.7622 333.556 61.8221 333.531C61.8819 333.506 61.9362 333.47 61.982 333.424C62.0277 333.378 62.064 333.324 62.0886 333.264C62.1133 333.204 62.1259 333.14 62.1257 333.075V323.479C62.1257 323.349 62.0738 323.224 61.9815 323.131C61.8891 323.039 61.7639 322.987 61.6333 322.987Z" fill="#3F3D56"/>
<path d="M88.3294 281.239C88.1566 281.239 87.9883 281.239 87.8155 281.235C76.2216 281.104 65.1468 276.41 56.9932 268.17C48.8395 259.931 44.2645 248.811 44.2605 237.222C44.2605 224.428 49.5322 203.952 57.0802 187.428C62.5084 175.544 73.7863 155.608 88.3294 155.608C94.3197 155.608 100.352 159.021 106.258 165.751C106.551 166.083 106.844 166.425 107.134 166.775L107.233 166.895V276.986L106.988 277.104C106.696 277.245 106.4 277.378 106.104 277.506C100.662 279.913 94.784 281.182 88.8327 281.235C88.6708 281.239 88.4978 281.239 88.3294 281.239ZM88.3294 156.475C74.2714 156.475 63.211 176.093 57.8692 187.788C50.3673 204.211 45.1278 224.539 45.1278 237.222C45.1278 260.748 64.2845 280.103 87.8312 280.368C88.0066 280.372 88.1703 280.374 88.3409 280.372C88.4983 280.372 88.6597 280.372 88.817 280.368C94.6539 280.317 100.419 279.073 105.756 276.712C105.961 276.623 106.164 276.533 106.365 276.44V167.208C106.114 166.906 105.86 166.612 105.606 166.324C99.8714 159.788 94.0589 156.475 88.3294 156.475Z" fill="#3F3D56"/>
<path d="M88.3276 250.512C88.256 250.513 88.1853 250.497 88.1202 250.468C88.0551 250.438 87.9971 250.395 87.9503 250.34L62.8569 221.416C62.7706 221.316 62.7274 221.186 62.7369 221.054C62.7464 220.923 62.8078 220.8 62.9077 220.714C63.0075 220.627 63.1377 220.584 63.2695 220.593C63.4014 220.602 63.5242 220.663 63.611 220.763L88.7043 249.687C88.767 249.759 88.8075 249.848 88.8211 249.943C88.8347 250.037 88.8209 250.134 88.7812 250.221C88.7415 250.308 88.6776 250.381 88.5972 250.433C88.5168 250.485 88.4232 250.512 88.3276 250.512Z" fill="#CCCCCC"/>
<path d="M88.3273 267.206C88.2286 267.206 88.1321 267.176 88.0501 267.121C87.968 267.067 87.9041 266.989 87.8663 266.898C87.8286 266.807 87.8187 266.706 87.838 266.61C87.8572 266.513 87.9047 266.424 87.9745 266.354L102.234 252.102C102.328 252.009 102.454 251.956 102.586 251.957C102.718 251.957 102.845 252.009 102.938 252.103C103.032 252.196 103.084 252.323 103.085 252.455C103.085 252.587 103.033 252.713 102.939 252.807L88.6801 267.059C88.6338 267.106 88.5788 267.143 88.5183 267.168C88.4577 267.193 88.3928 267.206 88.3273 267.206Z" fill="#CCCCCC"/>
<path d="M127.511 75.4202L127.832 76.053C127.974 76.3261 128.048 76.6294 128.048 76.9373V94.0585H143.227V76.9373C143.227 76.6294 143.301 76.3261 143.443 76.053L143.764 75.4202H127.511ZM142.359 76.9373V93.1916H128.916V76.9373C128.916 76.7182 128.89 76.4999 128.838 76.2871H142.437C142.385 76.4999 142.359 76.7182 142.359 76.9373ZM146.592 75.4202L146.913 76.053C147.055 76.3261 147.129 76.6294 147.13 76.9373V94.0585H162.308V76.9373C162.308 76.6294 162.382 76.3261 162.525 76.053L162.846 75.4202H146.592ZM161.44 76.9373V93.1916H147.997V76.9373C147.997 76.7182 147.971 76.4999 147.919 76.2871H161.519C161.466 76.4999 161.44 76.7182 161.44 76.9373ZM165.673 75.4202L165.994 76.053C166.136 76.3261 166.211 76.6294 166.211 76.9373V94.0585H181.389V76.9373C181.389 76.6294 181.464 76.3261 181.606 76.053L181.927 75.4202H165.673ZM180.522 76.9373V93.1916H167.078V76.9373C167.078 76.7182 167.052 76.4999 167 76.2871H180.6C180.548 76.4999 180.521 76.7182 180.522 76.9373ZM184.754 75.4202L185.075 76.053C185.217 76.3261 185.292 76.6294 185.292 76.9373V94.0585H200.47V76.9373C200.47 76.6294 200.545 76.3261 200.687 76.053L201.008 75.4202H184.754ZM199.603 76.9373V93.1916H186.159V76.9373C186.16 76.7182 186.133 76.4999 186.081 76.2871H199.681C199.629 76.4999 199.603 76.7182 199.603 76.9373ZM203.835 75.4202L204.156 76.053C204.299 76.3261 204.373 76.6294 204.373 76.9373V94.0585H219.551V76.9373C219.552 76.6294 219.626 76.3261 219.768 76.053L220.089 75.4202H203.835ZM218.684 76.9373V93.1916H205.24V76.9373C205.241 76.7182 205.214 76.4999 205.162 76.2871H218.762C218.71 76.4999 218.684 76.7182 218.684 76.9373ZM222.916 75.4202L223.237 76.053C223.38 76.3261 223.454 76.6294 223.454 76.9373V94.0585H238.633V76.9373C238.633 76.6294 238.707 76.3261 238.849 76.053L239.17 75.4202H222.916ZM237.765 76.9373V93.1916H224.322V76.9373C224.322 76.7182 224.296 76.4999 224.243 76.2871H237.843C237.791 76.4999 237.765 76.7182 237.765 76.9373ZM241.998 75.4202L242.319 76.053C242.461 76.3261 242.535 76.6294 242.535 76.9373V94.0585H257.714V76.9373C257.714 76.6294 257.788 76.3261 257.931 76.053L258.252 75.4202H241.998ZM256.846 76.9373V93.1916H243.403V76.9373C243.403 76.7182 243.377 76.4999 243.325 76.2871H256.925C256.872 76.4999 256.846 76.7182 256.846 76.9373ZM261.079 75.4202L261.4 76.053C261.542 76.3261 261.616 76.6294 261.617 76.9373V94.0585H276.795V76.9373C276.795 76.6294 276.869 76.3261 277.012 76.053L277.333 75.4202H261.079ZM275.928 76.9373V93.1916H262.484V76.9373C262.484 76.7182 262.458 76.4999 262.406 76.2871H276.006C275.954 76.4999 275.927 76.7182 275.928 76.9373ZM280.16 75.4202L280.481 76.053C280.623 76.3261 280.698 76.6294 280.698 76.9373V94.0585H295.876V76.9373C295.876 76.6294 295.951 76.3261 296.093 76.053L296.414 75.4202H280.16ZM295.009 76.9373V93.1916H281.565V76.9373C281.565 76.7182 281.539 76.4999 281.487 76.2871H295.087C295.035 76.4999 295.008 76.7182 295.009 76.9373ZM280.16 75.4202L280.481 76.053C280.623 76.3261 280.698 76.6294 280.698 76.9373V94.0585H295.876V76.9373C295.876 76.6294 295.951 76.3261 296.093 76.053L296.414 75.4202H280.16ZM295.009 76.9373V93.1916H281.565V76.9373C281.565 76.7182 281.539 76.4999 281.487 76.2871H295.087C295.035 76.4999 295.008 76.7182 295.009 76.9373ZM261.079 75.4202L261.4 76.053C261.542 76.3261 261.616 76.6294 261.617 76.9373V94.0585H276.795V76.9373C276.795 76.6294 276.869 76.3261 277.012 76.053L277.333 75.4202H261.079ZM275.928 76.9373V93.1916H262.484V76.9373C262.484 76.7182 262.458 76.4999 262.406 76.2871H276.006C275.954 76.4999 275.927 76.7182 275.928 76.9373ZM241.998 75.4202L242.319 76.053C242.461 76.3261 242.535 76.6294 242.535 76.9373V94.0585H257.714V76.9373C257.714 76.6294 257.788 76.3261 257.931 76.053L258.252 75.4202H241.998ZM256.846 76.9373V93.1916H243.403V76.9373C243.403 76.7182 243.377 76.4999 243.325 76.2871H256.925C256.872 76.4999 256.846 76.7182 256.846 76.9373ZM222.916 75.4202L223.237 76.053C223.38 76.3261 223.454 76.6294 223.454 76.9373V94.0585H238.633V76.9373C238.633 76.6294 238.707 76.3261 238.849 76.053L239.17 75.4202H222.916ZM237.765 76.9373V93.1916H224.322V76.9373C224.322 76.7182 224.296 76.4999 224.243 76.2871H237.843C237.791 76.4999 237.765 76.7182 237.765 76.9373ZM203.835 75.4202L204.156 76.053C204.299 76.3261 204.373 76.6294 204.373 76.9373V94.0585H219.551V76.9373C219.552 76.6294 219.626 76.3261 219.768 76.053L220.089 75.4202H203.835ZM218.684 76.9373V93.1916H205.24V76.9373C205.241 76.7182 205.214 76.4999 205.162 76.2871H218.762C218.71 76.4999 218.684 76.7182 218.684 76.9373ZM184.754 75.4202L185.075 76.053C185.217 76.3261 185.292 76.6294 185.292 76.9373V94.0585H200.47V76.9373C200.47 76.6294 200.545 76.3261 200.687 76.053L201.008 75.4202H184.754ZM199.603 76.9373V93.1916H186.159V76.9373C186.16 76.7182 186.133 76.4999 186.081 76.2871H199.681C199.629 76.4999 199.603 76.7182 199.603 76.9373ZM165.673 75.4202L165.994 76.053C166.136 76.3261 166.211 76.6294 166.211 76.9373V94.0585H181.389V76.9373C181.389 76.6294 181.464 76.3261 181.606 76.053L181.927 75.4202H165.673ZM180.522 76.9373V93.1916H167.078V76.9373C167.078 76.7182 167.052 76.4999 167 76.2871H180.6C180.548 76.4999 180.521 76.7182 180.522 76.9373ZM146.592 75.4202L146.913 76.053C147.055 76.3261 147.129 76.6294 147.13 76.9373V94.0585H162.308V76.9373C162.308 76.6294 162.382 76.3261 162.525 76.053L162.846 75.4202H146.592ZM161.44 76.9373V93.1916H147.997V76.9373C147.997 76.7182 147.971 76.4999 147.919 76.2871H161.519C161.466 76.4999 161.44 76.7182 161.44 76.9373ZM127.511 75.4202L127.832 76.053C127.974 76.3261 128.048 76.6294 128.048 76.9373V94.0585H143.227V76.9373C143.227 76.6294 143.301 76.3261 143.443 76.053L143.764 75.4202H127.511ZM142.359 76.9373V93.1916H128.916V76.9373C128.916 76.7182 128.89 76.4999 128.838 76.2871H142.437C142.385 76.4999 142.359 76.7182 142.359 76.9373ZM280.16 75.4202L280.481 76.053C280.623 76.3261 280.698 76.6294 280.698 76.9373V94.0585H295.876V76.9373C295.876 76.6294 295.951 76.3261 296.093 76.053L296.414 75.4202H280.16ZM295.009 76.9373V93.1916H281.565V76.9373C281.565 76.7182 281.539 76.4999 281.487 76.2871H295.087C295.035 76.4999 295.008 76.7182 295.009 76.9373ZM261.079 75.4202L261.4 76.053C261.542 76.3261 261.616 76.6294 261.617 76.9373V94.0585H276.795V76.9373C276.795 76.6294 276.869 76.3261 277.012 76.053L277.333 75.4202H261.079ZM275.928 76.9373V93.1916H262.484V76.9373C262.484 76.7182 262.458 76.4999 262.406 76.2871H276.006C275.954 76.4999 275.927 76.7182 275.928 76.9373ZM241.998 75.4202L242.319 76.053C242.461 76.3261 242.535 76.6294 242.535 76.9373V94.0585H257.714V76.9373C257.714 76.6294 257.788 76.3261 257.931 76.053L258.252 75.4202H241.998ZM256.846 76.9373V93.1916H243.403V76.9373C243.403 76.7182 243.377 76.4999 243.325 76.2871H256.925C256.872 76.4999 256.846 76.7182 256.846 76.9373ZM222.916 75.4202L223.237 76.053C223.38 76.3261 223.454 76.6294 223.454 76.9373V94.0585H238.633V76.9373C238.633 76.6294 238.707 76.3261 238.849 76.053L239.17 75.4202H222.916ZM237.765 76.9373V93.1916H224.322V76.9373C224.322 76.7182 224.296 76.4999 224.243 76.2871H237.843C237.791 76.4999 237.765 76.7182 237.765 76.9373ZM203.835 75.4202L204.156 76.053C204.299 76.3261 204.373 76.6294 204.373 76.9373V94.0585H219.551V76.9373C219.552 76.6294 219.626 76.3261 219.768 76.053L220.089 75.4202H203.835ZM218.684 76.9373V93.1916H205.24V76.9373C205.241 76.7182 205.214 76.4999 205.162 76.2871H218.762C218.71 76.4999 218.684 76.7182 218.684 76.9373ZM184.754 75.4202L185.075 76.053C185.217 76.3261 185.292 76.6294 185.292 76.9373V94.0585H200.47V76.9373C200.47 76.6294 200.545 76.3261 200.687 76.053L201.008 75.4202H184.754ZM199.603 76.9373V93.1916H186.159V76.9373C186.16 76.7182 186.133 76.4999 186.081 76.2871H199.681C199.629 76.4999 199.603 76.7182 199.603 76.9373ZM165.673 75.4202L165.994 76.053C166.136 76.3261 166.211 76.6294 166.211 76.9373V94.0585H181.389V76.9373C181.389 76.6294 181.464 76.3261 181.606 76.053L181.927 75.4202H165.673ZM180.522 76.9373V93.1916H167.078V76.9373C167.078 76.7182 167.052 76.4999 167 76.2871H180.6C180.548 76.4999 180.521 76.7182 180.522 76.9373ZM146.592 75.4202L146.913 76.053C147.055 76.3261 147.129 76.6294 147.13 76.9373V94.0585H162.308V76.9373C162.308 76.6294 162.382 76.3261 162.525 76.053L162.846 75.4202H146.592ZM161.44 76.9373V93.1916H147.997V76.9373C147.997 76.7182 147.971 76.4999 147.919 76.2871H161.519C161.466 76.4999 161.44 76.7182 161.44 76.9373ZM127.511 75.4202L127.832 76.053C127.974 76.3261 128.048 76.6294 128.048 76.9373V94.0585H143.227V76.9373C143.227 76.6294 143.301 76.3261 143.443 76.053L143.764 75.4202H127.511ZM142.359 76.9373V93.1916H128.916V76.9373C128.916 76.7182 128.89 76.4999 128.838 76.2871H142.437C142.385 76.4999 142.359 76.7182 142.359 76.9373ZM280.16 75.4202L280.481 76.053C280.623 76.3261 280.698 76.6294 280.698 76.9373V94.0585H295.876V76.9373C295.876 76.6294 295.951 76.3261 296.093 76.053L296.414 75.4202H280.16ZM295.009 76.9373V93.1916H281.565V76.9373C281.565 76.7182 281.539 76.4999 281.487 76.2871H295.087C295.035 76.4999 295.008 76.7182 295.009 76.9373ZM261.079 75.4202L261.4 76.053C261.542 76.3261 261.616 76.6294 261.617 76.9373V94.0585H276.795V76.9373C276.795 76.6294 276.869 76.3261 277.012 76.053L277.333 75.4202H261.079ZM275.928 76.9373V93.1916H262.484V76.9373C262.484 76.7182 262.458 76.4999 262.406 76.2871H276.006C275.954 76.4999 275.927 76.7182 275.928 76.9373ZM241.998 75.4202L242.319 76.053C242.461 76.3261 242.535 76.6294 242.535 76.9373V94.0585H257.714V76.9373C257.714 76.6294 257.788 76.3261 257.931 76.053L258.252 75.4202H241.998ZM256.846 76.9373V93.1916H243.403V76.9373C243.403 76.7182 243.377 76.4999 243.325 76.2871H256.925C256.872 76.4999 256.846 76.7182 256.846 76.9373ZM222.916 75.4202L223.237 76.053C223.38 76.3261 223.454 76.6294 223.454 76.9373V94.0585H238.633V76.9373C238.633 76.6294 238.707 76.3261 238.849 76.053L239.17 75.4202H222.916ZM237.765 76.9373V93.1916H224.322V76.9373C224.322 76.7182 224.296 76.4999 224.243 76.2871H237.843C237.791 76.4999 237.765 76.7182 237.765 76.9373ZM203.835 75.4202L204.156 76.053C204.299 76.3261 204.373 76.6294 204.373 76.9373V94.0585H219.551V76.9373C219.552 76.6294 219.626 76.3261 219.768 76.053L220.089 75.4202H203.835ZM218.684 76.9373V93.1916H205.24V76.9373C205.241 76.7182 205.214 76.4999 205.162 76.2871H218.762C218.71 76.4999 218.684 76.7182 218.684 76.9373ZM184.754 75.4202L185.075 76.053C185.217 76.3261 185.292 76.6294 185.292 76.9373V94.0585H200.47V76.9373C200.47 76.6294 200.545 76.3261 200.687 76.053L201.008 75.4202H184.754ZM199.603 76.9373V93.1916H186.159V76.9373C186.16 76.7182 186.133 76.4999 186.081 76.2871H199.681C199.629 76.4999 199.603 76.7182 199.603 76.9373ZM165.673 75.4202L165.994 76.053C166.136 76.3261 166.211 76.6294 166.211 76.9373V94.0585H181.389V76.9373C181.389 76.6294 181.464 76.3261 181.606 76.053L181.927 75.4202H165.673ZM180.522 76.9373V93.1916H167.078V76.9373C167.078 76.7182 167.052 76.4999 167 76.2871H180.6C180.548 76.4999 180.521 76.7182 180.522 76.9373ZM146.592 75.4202L146.913 76.053C147.055 76.3261 147.129 76.6294 147.13 76.9373V94.0585H162.308V76.9373C162.308 76.6294 162.382 76.3261 162.525 76.053L162.846 75.4202H146.592ZM161.44 76.9373V93.1916H147.997V76.9373C147.997 76.7182 147.971 76.4999 147.919 76.2871H161.519C161.466 76.4999 161.44 76.7182 161.44 76.9373ZM127.511 75.4202L127.832 76.053C127.974 76.3261 128.048 76.6294 128.048 76.9373V94.0585H143.227V76.9373C143.227 76.6294 143.301 76.3261 143.443 76.053L143.764 75.4202H127.511ZM142.359 76.9373V93.1916H128.916V76.9373C128.916 76.7182 128.89 76.4999 128.838 76.2871H142.437C142.385 76.4999 142.359 76.7182 142.359 76.9373ZM280.16 75.4202L280.481 76.053C280.623 76.3261 280.698 76.6294 280.698 76.9373V94.0585H295.876V76.9373C295.876 76.6294 295.951 76.3261 296.093 76.053L296.414 75.4202H280.16ZM295.009 76.9373V93.1916H281.565V76.9373C281.565 76.7182 281.539 76.4999 281.487 76.2871H295.087C295.035 76.4999 295.008 76.7182 295.009 76.9373ZM261.079 75.4202L261.4 76.053C261.542 76.3261 261.616 76.6294 261.617 76.9373V94.0585H276.795V76.9373C276.795 76.6294 276.869 76.3261 277.012 76.053L277.333 75.4202H261.079ZM275.928 76.9373V93.1916H262.484V76.9373C262.484 76.7182 262.458 76.4999 262.406 76.2871H276.006C275.954 76.4999 275.927 76.7182 275.928 76.9373ZM241.998 75.4202L242.319 76.053C242.461 76.3261 242.535 76.6294 242.535 76.9373V94.0585H257.714V76.9373C257.714 76.6294 257.788 76.3261 257.931 76.053L258.252 75.4202H241.998ZM256.846 76.9373V93.1916H243.403V76.9373C243.403 76.7182 243.377 76.4999 243.325 76.2871H256.925C256.872 76.4999 256.846 76.7182 256.846 76.9373ZM222.916 75.4202L223.237 76.053C223.38 76.3261 223.454 76.6294 223.454 76.9373V94.0585H238.633V76.9373C238.633 76.6294 238.707 76.3261 238.849 76.053L239.17 75.4202H222.916ZM237.765 76.9373V93.1916H224.322V76.9373C224.322 76.7182 224.296 76.4999 224.243 76.2871H237.843C237.791 76.4999 237.765 76.7182 237.765 76.9373ZM203.835 75.4202L204.156 76.053C204.299 76.3261 204.373 76.6294 204.373 76.9373V94.0585H219.551V76.9373C219.552 76.6294 219.626 76.3261 219.768 76.053L220.089 75.4202H203.835ZM218.684 76.9373V93.1916H205.24V76.9373C205.241 76.7182 205.214 76.4999 205.162 76.2871H218.762C218.71 76.4999 218.684 76.7182 218.684 76.9373ZM184.754 75.4202L185.075 76.053C185.217 76.3261 185.292 76.6294 185.292 76.9373V94.0585H200.47V76.9373C200.47 76.6294 200.545 76.3261 200.687 76.053L201.008 75.4202H184.754ZM199.603 76.9373V93.1916H186.159V76.9373C186.16 76.7182 186.133 76.4999 186.081 76.2871H199.681C199.629 76.4999 199.603 76.7182 199.603 76.9373ZM165.673 75.4202L165.994 76.053C166.136 76.3261 166.211 76.6294 166.211 76.9373V94.0585H181.389V76.9373C181.389 76.6294 181.464 76.3261 181.606 76.053L181.927 75.4202H165.673ZM180.522 76.9373V93.1916H167.078V76.9373C167.078 76.7182 167.052 76.4999 167 76.2871H180.6C180.548 76.4999 180.521 76.7182 180.522 76.9373ZM146.592 75.4202L146.913 76.053C147.055 76.3261 147.129 76.6294 147.13 76.9373V94.0585H162.308V76.9373C162.308 76.6294 162.382 76.3261 162.525 76.053L162.846 75.4202H146.592ZM161.44 76.9373V93.1916H147.997V76.9373C147.997 76.7182 147.971 76.4999 147.919 76.2871H161.519C161.466 76.4999 161.44 76.7182 161.44 76.9373ZM127.511 75.4202L127.832 76.053C127.974 76.3261 128.048 76.6294 128.048 76.9373V94.0585H143.227V76.9373C143.227 76.6294 143.301 76.3261 143.443 76.053L143.764 75.4202H127.511ZM142.359 76.9373V93.1916H128.916V76.9373C128.916 76.7182 128.89 76.4999 128.838 76.2871H142.437C142.385 76.4999 142.359 76.7182 142.359 76.9373ZM280.16 75.4202L280.481 76.053C280.623 76.3261 280.698 76.6294 280.698 76.9373V94.0585H295.876V76.9373C295.876 76.6294 295.951 76.3261 296.093 76.053L296.414 75.4202H280.16ZM295.009 76.9373V93.1916H281.565V76.9373C281.565 76.7182 281.539 76.4999 281.487 76.2871H295.087C295.035 76.4999 295.008 76.7182 295.009 76.9373ZM261.4 76.053C261.542 76.3261 261.616 76.6294 261.617 76.9373V94.0585H276.795V76.9373C276.795 76.6294 276.869 76.3261 277.012 76.053L277.333 75.4202H261.079L261.4 76.053ZM276.006 76.2871C275.954 76.4999 275.927 76.7182 275.928 76.9373V93.1916H262.484V76.9373C262.484 76.7182 262.458 76.4999 262.406 76.2871H276.006ZM242.319 76.053C242.461 76.3261 242.535 76.6294 242.535 76.9373V94.0585H257.714V76.9373C257.714 76.6294 257.788 76.3261 257.931 76.053L258.252 75.4202H241.998L242.319 76.053ZM256.925 76.2871C256.872 76.4999 256.846 76.7182 256.846 76.9373V93.1916H243.403V76.9373C243.403 76.7182 243.377 76.4999 243.325 76.2871H256.925ZM223.237 76.053C223.38 76.3261 223.454 76.6294 223.454 76.9373V94.0585H238.633V76.9373C238.633 76.6294 238.707 76.3261 238.849 76.053L239.17 75.4202H222.916L223.237 76.053ZM237.843 76.2871C237.791 76.4999 237.765 76.7182 237.765 76.9373V93.1916H224.322V76.9373C224.322 76.7182 224.296 76.4999 224.243 76.2871H237.843ZM204.156 76.053C204.299 76.3261 204.373 76.6294 204.373 76.9373V94.0585H219.551V76.9373C219.552 76.6294 219.626 76.3261 219.768 76.053L220.089 75.4202H203.835L204.156 76.053ZM218.762 76.2871C218.71 76.4999 218.684 76.7182 218.684 76.9373V93.1916H205.24V76.9373C205.241 76.7182 205.214 76.4999 205.162 76.2871H218.762ZM185.075 76.053C185.217 76.3261 185.292 76.6294 185.292 76.9373V94.0585H200.47V76.9373C200.47 76.6294 200.545 76.3261 200.687 76.053L201.008 75.4202H184.754L185.075 76.053ZM199.681 76.2871C199.629 76.4999 199.603 76.7182 199.603 76.9373V93.1916H186.159V76.9373C186.16 76.7182 186.133 76.4999 186.081 76.2871H199.681ZM165.994 76.053C166.136 76.3261 166.211 76.6294 166.211 76.9373V94.0585H181.389V76.9373C181.389 76.6294 181.464 76.3261 181.606 76.053L181.927 75.4202H165.673L165.994 76.053ZM180.6 76.2871C180.548 76.4999 180.521 76.7182 180.522 76.9373V93.1916H167.078V76.9373C167.078 76.7182 167.052 76.4999 167 76.2871H180.6ZM146.913 76.053C147.055 76.3261 147.129 76.6294 147.13 76.9373V94.0585H162.308V76.9373C162.308 76.6294 162.382 76.3261 162.525 76.053L162.846 75.4202H146.592L146.913 76.053ZM161.519 76.2871C161.466 76.4999 161.44 76.7182 161.44 76.9373V93.1916H147.997V76.9373C147.997 76.7182 147.971 76.4999 147.919 76.2871H161.519ZM127.832 76.053C127.974 76.3261 128.048 76.6294 128.048 76.9373V94.0585H143.227V76.9373C143.227 76.6294 143.301 76.3261 143.443 76.053L143.764 75.4202H127.511L127.832 76.053ZM142.437 76.2871C142.385 76.4999 142.359 76.7182 142.359 76.9373V93.1916H128.916V76.9373C128.916 76.7182 128.89 76.4999 128.838 76.2871H142.437ZM280.481 76.053C280.623 76.3261 280.698 76.6294 280.698 76.9373V94.0585H295.876V76.9373C295.876 76.6294 295.951 76.3261 296.093 76.053L296.414 75.4202H280.16L280.481 76.053ZM295.087 76.2871C295.035 76.4999 295.008 76.7182 295.009 76.9373V93.1916H281.565V76.9373C281.565 76.7182 281.539 76.4999 281.487 76.2871H295.087ZM261.4 76.053C261.542 76.3261 261.616 76.6294 261.617 76.9373V94.0585H276.795V76.9373C276.795 76.6294 276.869 76.3261 277.012 76.053L277.333 75.4202H261.079L261.4 76.053ZM276.006 76.2871C275.954 76.4999 275.927 76.7182 275.928 76.9373V93.1916H262.484V76.9373C262.484 76.7182 262.458 76.4999 262.406 76.2871H276.006ZM242.319 76.053C242.461 76.3261 242.535 76.6294 242.535 76.9373V94.0585H257.714V76.9373C257.714 76.6294 257.788 76.3261 257.931 76.053L258.252 75.4202H241.998L242.319 76.053ZM256.925 76.2871C256.872 76.4999 256.846 76.7182 256.846 76.9373V93.1916H243.403V76.9373C243.403 76.7182 243.377 76.4999 243.325 76.2871H256.925ZM223.237 76.053C223.38 76.3261 223.454 76.6294 223.454 76.9373V94.0585H238.633V76.9373C238.633 76.6294 238.707 76.3261 238.849 76.053L239.17 75.4202H222.916L223.237 76.053ZM237.843 76.2871C237.791 76.4999 237.765 76.7182 237.765 76.9373V93.1916H224.322V76.9373C224.322 76.7182 224.296 76.4999 224.243 76.2871H237.843ZM204.156 76.053C204.299 76.3261 204.373 76.6294 204.373 76.9373V94.0585H219.551V76.9373C219.552 76.6294 219.626 76.3261 219.768 76.053L220.089 75.4202H203.835L204.156 76.053ZM218.762 76.2871C218.71 76.4999 218.684 76.7182 218.684 76.9373V93.1916H205.24V76.9373C205.241 76.7182 205.214 76.4999 205.162 76.2871H218.762ZM185.075 76.053C185.217 76.3261 185.292 76.6294 185.292 76.9373V94.0585H200.47V76.9373C200.47 76.6294 200.545 76.3261 200.687 76.053L201.008 75.4202H184.754L185.075 76.053ZM199.681 76.2871C199.629 76.4999 199.603 76.7182 199.603 76.9373V93.1916H186.159V76.9373C186.16 76.7182 186.133 76.4999 186.081 76.2871H199.681ZM165.994 76.053C166.136 76.3261 166.211 76.6294 166.211 76.9373V94.0585H181.389V76.9373C181.389 76.6294 181.464 76.3261 181.606 76.053L181.927 75.4202H165.673L165.994 76.053ZM180.6 76.2871C180.548 76.4999 180.521 76.7182 180.522 76.9373V93.1916H167.078V76.9373C167.078 76.7182 167.052 76.4999 167 76.2871H180.6ZM146.913 76.053C147.055 76.3261 147.129 76.6294 147.13 76.9373V94.0585H162.308V76.9373C162.308 76.6294 162.382 76.3261 162.525 76.053L162.846 75.4202H146.592L146.913 76.053ZM161.519 76.2871C161.466 76.4999 161.44 76.7182 161.44 76.9373V93.1916H147.997V76.9373C147.997 76.7182 147.971 76.4999 147.919 76.2871H161.519ZM127.832 76.053C127.974 76.3261 128.048 76.6294 128.048 76.9373V94.0585H143.227V76.9373C143.227 76.6294 143.301 76.3261 143.443 76.053L143.764 75.4202H127.511L127.832 76.053ZM142.437 76.2871C142.385 76.4999 142.359 76.7182 142.359 76.9373V93.1916H128.916V76.9373C128.916 76.7182 128.89 76.4999 128.838 76.2871H142.437ZM313.223 96.6592H308.053C307.768 95.6621 307.167 94.7846 306.339 94.1591C305.511 93.5337 304.503 93.1941 303.465 93.1916H300.646V76.9373C300.648 76.5883 300.581 76.2425 300.451 75.9187C300.943 75.6294 301.325 75.1866 301.54 74.6586C301.754 74.1305 301.789 73.5465 301.638 72.9968C301.488 72.447 301.161 71.962 300.707 71.6166C300.253 71.2712 299.699 71.0847 299.129 71.0857H124.796C124.226 71.0847 123.671 71.2712 123.217 71.6166C122.764 71.962 122.436 72.447 122.286 72.9968C122.136 73.5465 122.17 74.1305 122.385 74.6586C122.599 75.1866 122.982 75.6294 123.473 75.9187C123.343 76.2425 123.277 76.5883 123.278 76.9373V93.1916H120.459C119.422 93.1941 118.413 93.5337 117.586 94.1591C116.758 94.7846 116.156 95.6621 115.871 96.6592H110.268C109.234 96.6608 108.242 97.0723 107.51 97.8035C106.779 98.5348 106.367 99.5261 106.365 100.56V329.421C106.367 330.455 106.779 331.446 107.511 332.177C108.242 332.908 109.234 333.32 110.268 333.322H313.223C314.257 333.321 315.249 332.909 315.981 332.178C316.712 331.447 317.124 330.456 317.126 329.421V100.56C317.124 99.5261 316.712 98.5348 315.981 97.8035C315.249 97.0723 314.257 96.6608 313.223 96.6592ZM316.258 329.421C316.258 330.041 316.067 330.645 315.713 331.153C315.359 331.662 314.858 332.049 314.276 332.265C313.94 332.393 313.583 332.458 313.223 332.456H110.268C109.908 332.458 109.551 332.393 109.214 332.265C108.633 332.049 108.132 331.662 107.778 331.153C107.424 330.645 107.233 330.041 107.233 329.421V100.56C107.233 99.7558 107.554 98.9846 108.123 98.4158C108.692 97.8469 109.463 97.527 110.268 97.5261H116.565L116.634 97.1793C116.817 96.2994 117.296 95.509 117.993 94.9407C118.689 94.3724 119.56 94.0609 120.459 94.0585H124.145V76.9373C124.146 76.5845 124.242 76.2385 124.423 75.936L124.692 75.4895L124.202 75.3075C123.819 75.1688 123.497 74.8994 123.293 74.5469C123.09 74.1944 123.017 73.7813 123.088 73.3804C123.159 72.9795 123.369 72.6165 123.681 72.3553C123.994 72.0941 124.389 71.9515 124.796 71.9526H299.129C299.536 71.9515 299.93 72.0941 300.243 72.3553C300.555 72.6165 300.766 72.9795 300.837 73.3804C300.908 73.7813 300.835 74.1944 300.631 74.5469C300.427 74.8994 300.106 75.1688 299.723 75.3075L299.233 75.4895L299.501 75.936C299.683 76.2384 299.779 76.5845 299.779 76.9373V94.0585H303.465C304.364 94.0609 305.235 94.3724 305.932 94.9406C306.628 95.5089 307.108 96.2994 307.29 97.1793L307.359 97.5261H313.223C314.027 97.527 314.799 97.8469 315.368 98.4158C315.937 98.9846 316.257 99.7558 316.258 100.56L316.258 329.421ZM127.511 75.4202L127.832 76.053C127.974 76.3261 128.048 76.6294 128.048 76.9373V94.0585H143.227V76.9373C143.227 76.6294 143.301 76.3261 143.443 76.053L143.764 75.4202H127.511ZM142.359 76.9373V93.1916H128.916V76.9373C128.916 76.7182 128.89 76.4999 128.838 76.2871H142.437C142.385 76.4999 142.359 76.7182 142.359 76.9373ZM146.592 75.4202L146.913 76.053C147.055 76.3261 147.129 76.6294 147.13 76.9373V94.0585H162.308V76.9373C162.308 76.6294 162.382 76.3261 162.525 76.053L162.846 75.4202H146.592ZM161.44 76.9373V93.1916H147.997V76.9373C147.997 76.7182 147.971 76.4999 147.919 76.2871H161.519C161.466 76.4999 161.44 76.7182 161.44 76.9373ZM165.673 75.4202L165.994 76.053C166.136 76.3261 166.211 76.6294 166.211 76.9373V94.0585H181.389V76.9373C181.389 76.6294 181.464 76.3261 181.606 76.053L181.927 75.4202H165.673ZM180.522 76.9373V93.1916H167.078V76.9373C167.078 76.7182 167.052 76.4999 167 76.2871H180.6C180.548 76.4999 180.521 76.7182 180.522 76.9373ZM184.754 75.4202L185.075 76.053C185.217 76.3261 185.292 76.6294 185.292 76.9373V94.0585H200.47V76.9373C200.47 76.6294 200.545 76.3261 200.687 76.053L201.008 75.4202H184.754ZM199.603 76.9373V93.1916H186.159V76.9373C186.16 76.7182 186.133 76.4999 186.081 76.2871H199.681C199.629 76.4999 199.603 76.7182 199.603 76.9373ZM203.835 75.4202L204.156 76.053C204.299 76.3261 204.373 76.6294 204.373 76.9373V94.0585H219.551V76.9373C219.552 76.6294 219.626 76.3261 219.768 76.053L220.089 75.4202H203.835ZM218.684 76.9373V93.1916H205.24V76.9373C205.241 76.7182 205.214 76.4999 205.162 76.2871H218.762C218.71 76.4999 218.684 76.7182 218.684 76.9373ZM222.916 75.4202L223.237 76.053C223.38 76.3261 223.454 76.6294 223.454 76.9373V94.0585H238.633V76.9373C238.633 76.6294 238.707 76.3261 238.849 76.053L239.17 75.4202H222.916ZM237.765 76.9373V93.1916H224.322V76.9373C224.322 76.7182 224.296 76.4999 224.243 76.2871H237.843C237.791 76.4999 237.765 76.7182 237.765 76.9373ZM241.998 75.4202L242.319 76.053C242.461 76.3261 242.535 76.6294 242.535 76.9373V94.0585H257.714V76.9373C257.714 76.6294 257.788 76.3261 257.931 76.053L258.252 75.4202H241.998ZM256.846 76.9373V93.1916H243.403V76.9373C243.403 76.7182 243.377 76.4999 243.325 76.2871H256.925C256.872 76.4999 256.846 76.7182 256.846 76.9373ZM261.079 75.4202L261.4 76.053C261.542 76.3261 261.616 76.6294 261.617 76.9373V94.0585H276.795V76.9373C276.795 76.6294 276.869 76.3261 277.012 76.053L277.333 75.4202H261.079ZM275.928 76.9373V93.1916H262.484V76.9373C262.484 76.7182 262.458 76.4999 262.406 76.2871H276.006C275.954 76.4999 275.927 76.7182 275.928 76.9373ZM280.16 75.4202L280.481 76.053C280.623 76.3261 280.698 76.6294 280.698 76.9373V94.0585H295.876V76.9373C295.876 76.6294 295.951 76.3261 296.093 76.053L296.414 75.4202H280.16ZM295.009 76.9373V93.1916H281.565V76.9373C281.565 76.7182 281.539 76.4999 281.487 76.2871H295.087C295.035 76.4999 295.008 76.7182 295.009 76.9373ZM127.511 75.4202L127.832 76.053C127.974 76.3261 128.048 76.6294 128.048 76.9373V94.0585H143.227V76.9373C143.227 76.6294 143.301 76.3261 143.443 76.053L143.764 75.4202H127.511ZM142.359 76.9373V93.1916H128.916V76.9373C128.916 76.7182 128.89 76.4999 128.838 76.2871H142.437C142.385 76.4999 142.359 76.7182 142.359 76.9373ZM146.592 75.4202L146.913 76.053C147.055 76.3261 147.129 76.6294 147.13 76.9373V94.0585H162.308V76.9373C162.308 76.6294 162.382 76.3261 162.525 76.053L162.846 75.4202H146.592ZM161.44 76.9373V93.1916H147.997V76.9373C147.997 76.7182 147.971 76.4999 147.919 76.2871H161.519C161.466 76.4999 161.44 76.7182 161.44 76.9373ZM165.673 75.4202L165.994 76.053C166.136 76.3261 166.211 76.6294 166.211 76.9373V94.0585H181.389V76.9373C181.389 76.6294 181.464 76.3261 181.606 76.053L181.927 75.4202H165.673ZM180.522 76.9373V93.1916H167.078V76.9373C167.078 76.7182 167.052 76.4999 167 76.2871H180.6C180.548 76.4999 180.521 76.7182 180.522 76.9373ZM184.754 75.4202L185.075 76.053C185.217 76.3261 185.292 76.6294 185.292 76.9373V94.0585H200.47V76.9373C200.47 76.6294 200.545 76.3261 200.687 76.053L201.008 75.4202H184.754ZM199.603 76.9373V93.1916H186.159V76.9373C186.16 76.7182 186.133 76.4999 186.081 76.2871H199.681C199.629 76.4999 199.603 76.7182 199.603 76.9373ZM203.835 75.4202L204.156 76.053C204.299 76.3261 204.373 76.6294 204.373 76.9373V94.0585H219.551V76.9373C219.552 76.6294 219.626 76.3261 219.768 76.053L220.089 75.4202H203.835ZM218.684 76.9373V93.1916H205.24V76.9373C205.241 76.7182 205.214 76.4999 205.162 76.2871H218.762C218.71 76.4999 218.684 76.7182 218.684 76.9373ZM222.916 75.4202L223.237 76.053C223.38 76.3261 223.454 76.6294 223.454 76.9373V94.0585H238.633V76.9373C238.633 76.6294 238.707 76.3261 238.849 76.053L239.17 75.4202H222.916ZM237.765 76.9373V93.1916H224.322V76.9373C224.322 76.7182 224.296 76.4999 224.243 76.2871H237.843C237.791 76.4999 237.765 76.7182 237.765 76.9373ZM241.998 75.4202L242.319 76.053C242.461 76.3261 242.535 76.6294 242.535 76.9373V94.0585H257.714V76.9373C257.714 76.6294 257.788 76.3261 257.931 76.053L258.252 75.4202H241.998ZM256.846 76.9373V93.1916H243.403V76.9373C243.403 76.7182 243.377 76.4999 243.325 76.2871H256.925C256.872 76.4999 256.846 76.7182 256.846 76.9373ZM261.079 75.4202L261.4 76.053C261.542 76.3261 261.616 76.6294 261.617 76.9373V94.0585H276.795V76.9373C276.795 76.6294 276.869 76.3261 277.012 76.053L277.333 75.4202H261.079ZM275.928 76.9373V93.1916H262.484V76.9373C262.484 76.7182 262.458 76.4999 262.406 76.2871H276.006C275.954 76.4999 275.927 76.7182 275.928 76.9373ZM280.16 75.4202L280.481 76.053C280.623 76.3261 280.698 76.6294 280.698 76.9373V94.0585H295.876V76.9373C295.876 76.6294 295.951 76.3261 296.093 76.053L296.414 75.4202H280.16ZM295.009 76.9373V93.1916H281.565V76.9373C281.565 76.7182 281.539 76.4999 281.487 76.2871H295.087C295.035 76.4999 295.008 76.7182 295.009 76.9373ZM127.511 75.4202L127.832 76.053C127.974 76.3261 128.048 76.6294 128.048 76.9373V94.0585H143.227V76.9373C143.227 76.6294 143.301 76.3261 143.443 76.053L143.764 75.4202H127.511ZM142.359 76.9373V93.1916H128.916V76.9373C128.916 76.7182 128.89 76.4999 128.838 76.2871H142.437C142.385 76.4999 142.359 76.7182 142.359 76.9373ZM146.592 75.4202L146.913 76.053C147.055 76.3261 147.129 76.6294 147.13 76.9373V94.0585H162.308V76.9373C162.308 76.6294 162.382 76.3261 162.525 76.053L162.846 75.4202H146.592ZM161.44 76.9373V93.1916H147.997V76.9373C147.997 76.7182 147.971 76.4999 147.919 76.2871H161.519C161.466 76.4999 161.44 76.7182 161.44 76.9373ZM165.673 75.4202L165.994 76.053C166.136 76.3261 166.211 76.6294 166.211 76.9373V94.0585H181.389V76.9373C181.389 76.6294 181.464 76.3261 181.606 76.053L181.927 75.4202H165.673ZM180.522 76.9373V93.1916H167.078V76.9373C167.078 76.7182 167.052 76.4999 167 76.2871H180.6C180.548 76.4999 180.521 76.7182 180.522 76.9373ZM184.754 75.4202L185.075 76.053C185.217 76.3261 185.292 76.6294 185.292 76.9373V94.0585H200.47V76.9373C200.47 76.6294 200.545 76.3261 200.687 76.053L201.008 75.4202H184.754ZM199.603 76.9373V93.1916H186.159V76.9373C186.16 76.7182 186.133 76.4999 186.081 76.2871H199.681C199.629 76.4999 199.603 76.7182 199.603 76.9373ZM203.835 75.4202L204.156 76.053C204.299 76.3261 204.373 76.6294 204.373 76.9373V94.0585H219.551V76.9373C219.552 76.6294 219.626 76.3261 219.768 76.053L220.089 75.4202H203.835ZM218.684 76.9373V93.1916H205.24V76.9373C205.241 76.7182 205.214 76.4999 205.162 76.2871H218.762C218.71 76.4999 218.684 76.7182 218.684 76.9373ZM222.916 75.4202L223.237 76.053C223.38 76.3261 223.454 76.6294 223.454 76.9373V94.0585H238.633V76.9373C238.633 76.6294 238.707 76.3261 238.849 76.053L239.17 75.4202H222.916ZM237.765 76.9373V93.1916H224.322V76.9373C224.322 76.7182 224.296 76.4999 224.243 76.2871H237.843C237.791 76.4999 237.765 76.7182 237.765 76.9373ZM241.998 75.4202L242.319 76.053C242.461 76.3261 242.535 76.6294 242.535 76.9373V94.0585H257.714V76.9373C257.714 76.6294 257.788 76.3261 257.931 76.053L258.252 75.4202H241.998ZM256.846 76.9373V93.1916H243.403V76.9373C243.403 76.7182 243.377 76.4999 243.325 76.2871H256.925C256.872 76.4999 256.846 76.7182 256.846 76.9373ZM261.079 75.4202L261.4 76.053C261.542 76.3261 261.616 76.6294 261.617 76.9373V94.0585H276.795V76.9373C276.795 76.6294 276.869 76.3261 277.012 76.053L277.333 75.4202H261.079ZM275.928 76.9373V93.1916H262.484V76.9373C262.484 76.7182 262.458 76.4999 262.406 76.2871H276.006C275.954 76.4999 275.927 76.7182 275.928 76.9373ZM280.16 75.4202L280.481 76.053C280.623 76.3261 280.698 76.6294 280.698 76.9373V94.0585H295.876V76.9373C295.876 76.6294 295.951 76.3261 296.093 76.053L296.414 75.4202H280.16ZM295.009 76.9373V93.1916H281.565V76.9373C281.565 76.7182 281.539 76.4999 281.487 76.2871H295.087C295.035 76.4999 295.008 76.7182 295.009 76.9373ZM127.511 75.4202L127.832 76.053C127.974 76.3261 128.048 76.6294 128.048 76.9373V94.0585H143.227V76.9373C143.227 76.6294 143.301 76.3261 143.443 76.053L143.764 75.4202H127.511ZM142.359 76.9373V93.1916H128.916V76.9373C128.916 76.7182 128.89 76.4999 128.838 76.2871H142.437C142.385 76.4999 142.359 76.7182 142.359 76.9373ZM146.592 75.4202L146.913 76.053C147.055 76.3261 147.129 76.6294 147.13 76.9373V94.0585H162.308V76.9373C162.308 76.6294 162.382 76.3261 162.525 76.053L162.846 75.4202H146.592ZM161.44 76.9373V93.1916H147.997V76.9373C147.997 76.7182 147.971 76.4999 147.919 76.2871H161.519C161.466 76.4999 161.44 76.7182 161.44 76.9373ZM165.673 75.4202L165.994 76.053C166.136 76.3261 166.211 76.6294 166.211 76.9373V94.0585H181.389V76.9373C181.389 76.6294 181.464 76.3261 181.606 76.053L181.927 75.4202H165.673ZM180.522 76.9373V93.1916H167.078V76.9373C167.078 76.7182 167.052 76.4999 167 76.2871H180.6C180.548 76.4999 180.521 76.7182 180.522 76.9373ZM184.754 75.4202L185.075 76.053C185.217 76.3261 185.292 76.6294 185.292 76.9373V94.0585H200.47V76.9373C200.47 76.6294 200.545 76.3261 200.687 76.053L201.008 75.4202H184.754ZM199.603 76.9373V93.1916H186.159V76.9373C186.16 76.7182 186.133 76.4999 186.081 76.2871H199.681C199.629 76.4999 199.603 76.7182 199.603 76.9373ZM203.835 75.4202L204.156 76.053C204.299 76.3261 204.373 76.6294 204.373 76.9373V94.0585H219.551V76.9373C219.552 76.6294 219.626 76.3261 219.768 76.053L220.089 75.4202H203.835ZM218.684 76.9373V93.1916H205.24V76.9373C205.241 76.7182 205.214 76.4999 205.162 76.2871H218.762C218.71 76.4999 218.684 76.7182 218.684 76.9373ZM222.916 75.4202L223.237 76.053C223.38 76.3261 223.454 76.6294 223.454 76.9373V94.0585H238.633V76.9373C238.633 76.6294 238.707 76.3261 238.849 76.053L239.17 75.4202H222.916ZM237.765 76.9373V93.1916H224.322V76.9373C224.322 76.7182 224.296 76.4999 224.243 76.2871H237.843C237.791 76.4999 237.765 76.7182 237.765 76.9373ZM241.998 75.4202L242.319 76.053C242.461 76.3261 242.535 76.6294 242.535 76.9373V94.0585H257.714V76.9373C257.714 76.6294 257.788 76.3261 257.931 76.053L258.252 75.4202H241.998ZM256.846 76.9373V93.1916H243.403V76.9373C243.403 76.7182 243.377 76.4999 243.325 76.2871H256.925C256.872 76.4999 256.846 76.7182 256.846 76.9373ZM261.079 75.4202L261.4 76.053C261.542 76.3261 261.616 76.6294 261.617 76.9373V94.0585H276.795V76.9373C276.795 76.6294 276.869 76.3261 277.012 76.053L277.333 75.4202H261.079ZM275.928 76.9373V93.1916H262.484V76.9373C262.484 76.7182 262.458 76.4999 262.406 76.2871H276.006C275.954 76.4999 275.927 76.7182 275.928 76.9373ZM280.16 75.4202L280.481 76.053C280.623 76.3261 280.698 76.6294 280.698 76.9373V94.0585H295.876V76.9373C295.876 76.6294 295.951 76.3261 296.093 76.053L296.414 75.4202H280.16ZM295.009 76.9373V93.1916H281.565V76.9373C281.565 76.7182 281.539 76.4999 281.487 76.2871H295.087C295.035 76.4999 295.008 76.7182 295.009 76.9373Z" fill="#3F3D56"/>
<path d="M179.07 151.274H147.09C146.417 151.273 145.771 151.005 145.295 150.529C144.818 150.053 144.551 149.408 144.55 148.734V131.707C144.551 131.034 144.818 130.388 145.295 129.912C145.771 129.436 146.417 129.168 147.09 129.168H179.07C179.744 129.168 180.389 129.436 180.866 129.912C181.342 130.388 181.61 131.034 181.61 131.707V148.734C181.61 149.408 181.342 150.053 180.866 150.529C180.389 151.005 179.744 151.273 179.07 151.274Z" fill="#DC143C"/>
<path d="M227.735 151.274H195.756C195.082 151.273 194.436 151.005 193.96 150.529C193.484 150.053 193.216 149.408 193.215 148.734V131.707C193.216 131.034 193.484 130.388 193.96 129.912C194.436 129.436 195.082 129.168 195.756 129.168H227.735C228.409 129.168 229.055 129.436 229.531 129.912C230.007 130.388 230.275 131.034 230.276 131.707V148.734C230.275 149.408 230.007 150.053 229.531 150.529C229.055 151.005 228.409 151.273 227.735 151.274Z" fill="#DC143C"/>
<path d="M276.401 151.274H244.421C243.748 151.273 243.102 151.005 242.626 150.529C242.15 150.053 241.882 149.408 241.881 148.734V131.707C241.882 131.034 242.15 130.388 242.626 129.912C243.102 129.436 243.748 129.168 244.421 129.168H276.401C277.075 129.168 277.72 129.436 278.197 129.912C278.673 130.388 278.941 131.034 278.942 131.707V148.734C278.941 149.408 278.673 150.053 278.197 150.529C277.72 151.005 277.075 151.273 276.401 151.274Z" fill="#DC143C"/>
<path d="M179.07 208.056H147.09C146.417 208.055 145.771 207.787 145.295 207.311C144.818 206.835 144.551 206.19 144.55 205.516V188.489C144.551 187.816 144.818 187.17 145.295 186.694C145.771 186.218 146.417 185.95 147.09 185.95H179.07C179.744 185.95 180.389 186.218 180.866 186.694C181.342 187.17 181.61 187.816 181.61 188.489V205.516C181.61 206.19 181.342 206.835 180.866 207.311C180.389 207.787 179.744 208.055 179.07 208.056Z" fill="#DC143C"/>
<path d="M227.735 208.056H195.756C195.082 208.055 194.436 207.787 193.96 207.311C193.484 206.835 193.216 206.19 193.215 205.516V188.489C193.216 187.816 193.484 187.17 193.96 186.694C194.436 186.218 195.082 185.95 195.756 185.95H227.735C228.409 185.95 229.055 186.218 229.531 186.694C230.007 187.17 230.275 187.816 230.276 188.489V205.516C230.275 206.19 230.007 206.835 229.531 207.311C229.055 207.787 228.409 208.055 227.735 208.056Z" fill="#DC143C"/>
<path d="M276.401 208.056H244.421C243.748 208.055 243.102 207.787 242.626 207.311C242.15 206.835 241.882 206.19 241.881 205.516V188.489C241.882 187.816 242.15 187.17 242.626 186.694C243.102 186.218 243.748 185.95 244.421 185.95H276.401C277.075 185.95 277.72 186.218 278.197 186.694C278.673 187.17 278.941 187.816 278.942 188.489V205.516C278.941 206.19 278.673 206.835 278.197 207.311C277.72 207.787 277.075 208.055 276.401 208.056Z" fill="#DC143C"/>
<path d="M179.07 264.837H147.09C146.417 264.837 145.771 264.569 145.295 264.093C144.818 263.617 144.551 262.971 144.55 262.298V245.271C144.551 244.597 144.818 243.952 145.295 243.476C145.771 243 146.417 242.732 147.09 242.731H179.07C179.744 242.732 180.389 243 180.866 243.476C181.342 243.952 181.61 244.597 181.61 245.271V262.298C181.61 262.971 181.342 263.617 180.866 264.093C180.389 264.569 179.744 264.837 179.07 264.837Z" fill="#DC143C"/>
<path d="M227.735 264.837H195.756C195.082 264.837 194.436 264.569 193.96 264.093C193.484 263.617 193.216 262.971 193.215 262.298V245.271C193.216 244.597 193.484 243.952 193.96 243.476C194.436 243 195.082 242.732 195.756 242.731H227.735C228.409 242.732 229.055 243 229.531 243.476C230.007 243.952 230.275 244.597 230.276 245.271V262.298C230.275 262.971 230.007 263.617 229.531 264.093C229.055 264.569 228.409 264.837 227.735 264.837Z" fill="#DC143C"/>
<path d="M276.401 264.837H244.421C243.748 264.837 243.102 264.569 242.626 264.093C242.15 263.617 241.882 262.971 241.881 262.298V245.271C241.882 244.597 242.15 243.952 242.626 243.476C243.102 243 243.748 242.732 244.421 242.731H276.401C277.075 242.732 277.72 243 278.197 243.476C278.673 243.952 278.941 244.597 278.942 245.271V262.298C278.941 262.971 278.673 263.617 278.197 264.093C277.72 264.569 277.075 264.837 276.401 264.837Z" fill="#DC143C"/>
<path d="M173.893 153.458H136.846C135.951 153.457 135.092 153.101 134.459 152.469C133.826 151.836 133.47 150.978 133.469 150.083V130.358C133.47 129.463 133.826 128.605 134.459 127.973C135.092 127.34 135.951 126.984 136.846 126.983H173.893C174.788 126.984 175.646 127.34 176.279 127.973C176.912 128.605 177.268 129.463 177.269 130.358V150.083C177.268 150.978 176.912 151.836 176.279 152.469C175.646 153.101 174.788 153.457 173.893 153.458ZM136.846 127.85C136.181 127.851 135.543 128.115 135.072 128.585C134.602 129.056 134.337 129.693 134.337 130.358V150.083C134.337 150.748 134.602 151.386 135.072 151.856C135.543 152.326 136.181 152.591 136.846 152.592H173.893C174.558 152.591 175.196 152.326 175.666 151.856C176.137 151.386 176.401 150.748 176.402 150.083V130.358C176.401 129.693 176.137 129.055 175.666 128.585C175.196 128.115 174.558 127.851 173.893 127.85H136.846Z" fill="#3F3D56"/>
<path d="M230.269 153.458H193.222C192.327 153.457 191.469 153.101 190.836 152.469C190.203 151.836 189.847 150.978 189.846 150.083V130.358C189.847 129.463 190.203 128.605 190.836 127.973C191.469 127.34 192.327 126.984 193.222 126.983H230.269C231.164 126.984 232.023 127.34 232.656 127.973C233.289 128.605 233.645 129.463 233.646 130.358V150.083C233.645 150.978 233.289 151.836 232.656 152.469C232.023 153.101 231.164 153.457 230.269 153.458ZM193.222 127.85C192.557 127.851 191.919 128.115 191.449 128.585C190.978 129.055 190.714 129.693 190.713 130.358V150.083C190.714 150.748 190.978 151.386 191.449 151.856C191.919 152.326 192.557 152.591 193.222 152.592H230.269C230.934 152.591 231.572 152.326 232.043 151.856C232.513 151.386 232.778 150.748 232.778 150.083V130.358C232.778 129.693 232.513 129.055 232.043 128.585C231.572 128.115 230.934 127.851 230.269 127.85H193.222Z" fill="#3F3D56"/>
<path d="M286.645 153.458H249.598C248.703 153.457 247.845 153.101 247.212 152.469C246.579 151.836 246.223 150.978 246.222 150.083V130.358C246.223 129.463 246.579 128.605 247.212 127.973C247.845 127.34 248.703 126.984 249.598 126.983H286.645C287.54 126.984 288.399 127.34 289.032 127.973C289.665 128.605 290.021 129.463 290.022 130.358V150.083C290.021 150.978 289.665 151.836 289.032 152.469C288.399 153.101 287.54 153.457 286.645 153.458ZM249.598 127.85C248.933 127.851 248.295 128.115 247.825 128.585C247.354 129.055 247.09 129.693 247.089 130.358V150.083C247.09 150.748 247.354 151.386 247.825 151.856C248.295 152.326 248.933 152.591 249.598 152.592H286.645C287.31 152.591 287.948 152.326 288.419 151.856C288.889 151.386 289.154 150.748 289.154 150.083V130.358C289.154 129.693 288.889 129.055 288.419 128.585C287.948 128.115 287.31 127.851 286.645 127.85H249.598Z" fill="#3F3D56"/>
<path d="M173.893 210.24H136.846C135.951 210.239 135.092 209.883 134.459 209.25C133.826 208.618 133.47 207.76 133.469 206.865V187.14C133.47 186.245 133.826 185.387 134.459 184.754C135.092 184.122 135.951 183.766 136.846 183.765H173.893C174.788 183.766 175.646 184.122 176.279 184.754C176.912 185.387 177.268 186.245 177.269 187.14V206.865C177.268 207.76 176.912 208.618 176.279 209.25C175.646 209.883 174.788 210.239 173.893 210.24ZM136.846 184.632C136.181 184.632 135.543 184.897 135.072 185.367C134.602 185.837 134.337 186.475 134.337 187.14V206.865C134.337 207.53 134.602 208.168 135.072 208.638C135.543 209.108 136.181 209.373 136.846 209.373H173.893C174.558 209.373 175.196 209.108 175.666 208.638C176.137 208.168 176.401 207.53 176.402 206.865V187.14C176.401 186.475 176.137 185.837 175.666 185.367C175.196 184.897 174.558 184.632 173.893 184.632H136.846Z" fill="#3F3D56"/>
<path d="M230.269 210.24H193.222C192.327 210.239 191.469 209.883 190.836 209.25C190.203 208.618 189.847 207.76 189.846 206.865V187.14C189.847 186.245 190.203 185.387 190.836 184.754C191.469 184.122 192.327 183.766 193.222 183.765H230.269C231.164 183.766 232.023 184.122 232.656 184.754C233.289 185.387 233.645 186.245 233.646 187.14V206.865C233.645 207.76 233.289 208.618 232.656 209.25C232.023 209.883 231.164 210.239 230.269 210.24ZM193.222 184.632C192.557 184.632 191.919 184.897 191.449 185.367C190.978 185.837 190.714 186.475 190.713 187.14V206.865C190.714 207.53 190.978 208.168 191.449 208.638C191.919 209.108 192.557 209.373 193.222 209.373H230.269C230.934 209.373 231.572 209.108 232.043 208.638C232.513 208.168 232.778 207.53 232.778 206.865V187.14C232.778 186.475 232.513 185.837 232.043 185.367C231.572 184.897 230.934 184.632 230.269 184.632H193.222Z" fill="#3F3D56"/>
<path d="M286.645 210.24H249.598C248.703 210.239 247.845 209.883 247.212 209.25C246.579 208.618 246.223 207.76 246.222 206.865V187.14C246.223 186.245 246.579 185.387 247.212 184.754C247.845 184.122 248.703 183.766 249.598 183.765H286.645C287.54 183.766 288.399 184.122 289.032 184.754C289.665 185.387 290.021 186.245 290.022 187.14V206.865C290.021 207.76 289.665 208.618 289.032 209.25C288.399 209.883 287.54 210.239 286.645 210.24ZM249.598 184.632C248.933 184.632 248.295 184.897 247.825 185.367C247.354 185.837 247.09 186.475 247.089 187.14V206.865C247.09 207.53 247.354 208.168 247.825 208.638C248.295 209.108 248.933 209.373 249.598 209.373H286.645C287.31 209.373 287.948 209.108 288.419 208.638C288.889 208.168 289.154 207.53 289.154 206.865V187.14C289.154 186.475 288.889 185.837 288.419 185.367C287.948 184.897 287.31 184.632 286.645 184.632H249.598Z" fill="#3F3D56"/>
<path d="M173.893 267.022H136.846C135.951 267.021 135.092 266.665 134.459 266.033C133.826 265.4 133.47 264.542 133.469 263.647V243.922C133.47 243.027 133.826 242.169 134.459 241.537C135.092 240.904 135.951 240.548 136.846 240.547H173.893C174.788 240.548 175.646 240.904 176.279 241.537C176.912 242.169 177.268 243.027 177.269 243.922V263.647C177.268 264.542 176.912 265.4 176.279 266.033C175.646 266.665 174.788 267.021 173.893 267.022ZM136.846 241.414C136.181 241.415 135.543 241.679 135.072 242.149C134.602 242.619 134.337 243.257 134.337 243.922V263.647C134.337 264.312 134.602 264.95 135.072 265.42C135.543 265.89 136.181 266.155 136.846 266.155H173.893C174.558 266.155 175.196 265.89 175.666 265.42C176.137 264.95 176.401 264.312 176.402 263.647V243.922C176.401 243.257 176.137 242.619 175.666 242.149C175.196 241.679 174.558 241.415 173.893 241.414H136.846Z" fill="#3F3D56"/>
<path d="M230.269 267.022H193.222C192.327 267.021 191.469 266.665 190.836 266.033C190.203 265.4 189.847 264.542 189.846 263.647V243.922C189.847 243.027 190.203 242.169 190.836 241.537C191.469 240.904 192.327 240.548 193.222 240.547H230.269C231.164 240.548 232.023 240.904 232.656 241.537C233.289 242.169 233.645 243.027 233.646 243.922V263.647C233.645 264.542 233.289 265.4 232.656 266.033C232.023 266.665 231.164 267.021 230.269 267.022ZM193.222 241.414C192.557 241.415 191.919 241.679 191.449 242.149C190.978 242.619 190.714 243.257 190.713 243.922V263.647C190.714 264.312 190.978 264.95 191.449 265.42C191.919 265.89 192.557 266.155 193.222 266.155H230.269C230.934 266.155 231.572 265.89 232.043 265.42C232.513 264.95 232.778 264.312 232.778 263.647V243.922C232.778 243.257 232.513 242.619 232.043 242.149C231.572 241.679 230.934 241.415 230.269 241.414H193.222Z" fill="#3F3D56"/>
<path d="M286.645 267.022H249.598C248.703 267.021 247.845 266.665 247.212 266.033C246.579 265.4 246.223 264.542 246.222 263.647V243.922C246.223 243.027 246.579 242.169 247.212 241.537C247.845 240.904 248.703 240.548 249.598 240.547H286.645C287.54 240.548 288.399 240.904 289.032 241.537C289.665 242.169 290.021 243.027 290.022 243.922V263.647C290.021 264.542 289.665 265.4 289.032 266.033C288.399 266.665 287.54 267.021 286.645 267.022ZM249.598 241.414C248.933 241.415 248.295 241.679 247.825 242.149C247.354 242.619 247.09 243.257 247.089 243.922V263.647C247.09 264.312 247.354 264.95 247.825 265.42C248.295 265.89 248.933 266.155 249.598 266.155H286.645C287.31 266.155 287.948 265.89 288.419 265.42C288.889 264.95 289.154 264.312 289.154 263.647V243.922C289.154 243.257 288.889 242.619 288.419 242.149C287.948 241.679 287.31 241.415 286.645 241.414H249.598Z" fill="#3F3D56"/>
<path d="M437.566 333.972H0.433663C0.318649 333.972 0.208344 333.927 0.127017 333.845C0.0456891 333.764 0 333.654 0 333.539C0 333.424 0.0456891 333.314 0.127017 333.232C0.208344 333.151 0.318649 333.105 0.433663 333.105H437.566C437.681 333.105 437.792 333.151 437.873 333.232C437.954 333.314 438 333.424 438 333.539C438 333.654 437.954 333.764 437.873 333.845C437.792 333.927 437.681 333.972 437.566 333.972Z" fill="#3F3D56"/>
<path d="M233.646 292.019C233.658 291.03 233.276 290.077 232.585 289.369C231.893 288.661 230.949 288.256 229.959 288.244H211.746V333.106H233.646V292.019Z" fill="#3F3D56"/>
<path d="M212.179 332.672H189.412V292.145C189.413 291.053 189.848 290.006 190.62 289.234C191.392 288.462 192.439 288.028 193.532 288.027H212.179V332.672ZM190.279 331.805H211.312V288.894H193.532C192.669 288.895 191.843 289.238 191.233 289.847C190.623 290.456 190.28 291.283 190.279 292.145V331.805Z" fill="#3F3D56"/>
<path d="M192.231 313.384C192.949 313.384 193.532 312.801 193.532 312.083C193.532 311.365 192.949 310.783 192.231 310.783C191.512 310.783 190.93 311.365 190.93 312.083C190.93 312.801 191.512 313.384 192.231 313.384Z" fill="#3F3D56"/>
</g>
<defs>
<clipPath id="clip0_1_1650">
<rect width="438" height="334" fill="white"/>
</clipPath>
</defs>
</svg>
