<svg width="52" height="40" viewBox="0 0 52 40" fill="none" xmlns="http://www.w3.org/2000/svg">
<path d="M18.5 17.5V26.1667C18.5 26.6334 18.5 26.8666 18.5908 27.0448C18.6707 27.2017 18.7981 27.3293 18.9549 27.4092C19.133 27.5 19.3663 27.5 19.8321 27.5H28.5001M30.1667 16.6667L26.8333 20L25.1667 18.3333M21.8333 21.5002V15.1668C21.8333 14.2334 21.8333 13.7664 22.015 13.4098C22.1748 13.0962 22.4296 12.8414 22.7432 12.6817C23.0997 12.5 23.5667 12.5 24.5002 12.5H30.8335C31.7669 12.5 32.2334 12.5 32.5899 12.6817C32.9035 12.8414 33.1587 13.0962 33.3185 13.4098C33.5002 13.7664 33.5002 14.2331 33.5002 15.1665V21.4998C33.5002 22.4332 33.5002 22.9 33.3185 23.2565C33.1587 23.5701 32.9035 23.8254 32.5899 23.9852C32.2337 24.1667 31.7679 24.1667 30.8363 24.1667H24.4974C23.5658 24.1667 23.0993 24.1667 22.7432 23.9852C22.4296 23.8254 22.1748 23.5702 22.015 23.2566C21.8333 22.9001 21.8333 22.4336 21.8333 21.5002Z" stroke="black" stroke-width="1.67" stroke-linecap="round" stroke-linejoin="round"/>
</svg>
