<svg width="52" height="40" viewBox="0 0 52 40" fill="none" xmlns="http://www.w3.org/2000/svg">
<path fill-rule="evenodd" clip-rule="evenodd" d="M20.4044 10C19.0421 10 18.0118 10.8496 17.6163 11.6162C17.2257 12.3877 17.2403 13.125 17.2403 13.125V28.2715L19.0176 27.3828C19.0323 27.3779 19.0469 27.373 19.0567 27.3682L24.0567 24.8682C24.6768 24.5605 24.9259 23.8086 24.6182 23.1934C24.3106 22.5732 23.5587 22.3242 22.9385 22.6318L21.0001 23.6035V23.5986L19.7403 24.2285V15.625C19.7403 15.625 19.7452 15.6055 19.7501 15.5762V13.75C19.7501 13.0566 20.3067 12.5 21.0001 12.5H26.0001C26.6934 12.5 27.2501 13.0566 27.2501 13.75V17.5C27.2501 18.1885 27.8116 18.75 28.5001 18.75C29.1885 18.75 29.7501 18.1885 29.7501 17.5C29.7501 17.4561 29.7501 17.4072 29.7403 17.3633V13.125C29.7403 13.125 29.7598 12.3975 29.3741 11.626C28.9932 10.8594 27.9727 10 26.6153 10H20.4044Z" fill="#2E3436"/>
<path d="M29.75 20V23.75H26V26.25H29.75V30H32.25V26.25H36V23.75H32.25V20H29.75Z" fill="#2E3436"/>
</svg>
