<svg width="54" height="55" viewBox="0 0 54 55" fill="none" xmlns="http://www.w3.org/2000/svg">
<rect x="0.609375" y="1.17773" width="52.4062" height="52.4062" rx="11.5781" fill="white"/>
<rect x="0.609375" y="1.17773" width="52.4062" height="52.4062" rx="11.5781" stroke="#E3E3E3" stroke-width="1.21875"/>
<path d="M28.8438 25.3496V32.459M24.7812 25.3496L24.7813 32.459M18.6875 21.2871H34.9375M32.9062 21.2871V33.2715C32.9062 34.4091 32.9065 34.9779 32.6851 35.4125C32.4903 35.7947 32.1792 36.1053 31.797 36.3001C31.3625 36.5215 30.7941 36.5215 29.6564 36.5215H23.9689C22.8313 36.5215 22.2621 36.5215 21.8276 36.3001C21.4454 36.1053 21.1349 35.7947 20.9401 35.4125C20.7188 34.9779 20.7188 34.4091 20.7188 33.2715V21.2871H32.9062ZM30.875 21.2871H22.75C22.75 20.3407 22.75 19.8674 22.9046 19.4941C23.1108 18.9964 23.5059 18.601 24.0037 18.3949C24.3769 18.2402 24.8504 18.2402 25.7969 18.2402H27.8281C28.7746 18.2402 29.2478 18.2402 29.6211 18.3949C30.1188 18.601 30.5141 18.9964 30.7203 19.4941C30.8749 19.8674 30.875 20.3407 30.875 21.2871Z" stroke="#171618" stroke-width="1.82812" stroke-linecap="round" stroke-linejoin="round"/>
</svg>
