<svg width="24" height="24" viewBox="0 0 24 24" fill="none" xmlns="http://www.w3.org/2000/svg">
<g clip-path="url(#clip0_4459_35592)">
<path d="M0 19.512V4.512C0 3.264 0.44 2.2 1.32 1.32C2.2 0.44 3.264 0 4.512 0H13.752L10.752 3H4.512C4.096 3 3.736 3.152 3.432 3.456C3.128 3.76 2.984 4.112 3 4.512V19.512C3 19.928 3.144 20.28 3.432 20.568C3.72 20.856 4.08 21 4.512 21H19.512C19.912 21 20.264 20.856 20.568 20.568C20.872 20.28 21.016 19.928 21 19.512V13.248L24 10.248V19.512C24 20.76 23.56 21.816 22.68 22.68C21.8 23.544 20.744 23.984 19.512 24H4.512C3.264 24 2.2 23.56 1.32 22.68C0.44 21.8 0 20.744 0 19.512ZM4.512 19.512L7.512 10.512L18 0L24 6L13.512 16.512L4.512 19.512ZM7.512 16.512L12 15L9 12L7.512 16.512ZM10.512 10.512L13.512 13.512L18 9L15 6L10.512 10.512Z" fill="#0E1012"/>
</g>
<defs>
<clipPath id="clip0_4459_35592">
<rect width="24" height="24" fill="white"/>
</clipPath>
</defs>
</svg>
