<svg width="110" height="40" viewBox="0 0 110 40" fill="none" xmlns="http://www.w3.org/2000/svg">
<rect x="0.5" y="0.5" width="109" height="39" rx="3.5" fill="#33C481" fill-opacity="0.2"/>
<rect x="0.5" y="0.5" width="109" height="39" rx="3.5" stroke="#33C481"/>
<path d="M24.4918 19.3271L13.4229 17.3771V31.7861C13.423 31.9426 13.4539 32.0976 13.514 32.2422C13.574 32.3867 13.6619 32.5181 13.7727 32.6287C13.8835 32.7392 14.0149 32.8269 14.1596 32.8867C14.3043 32.9465 14.4593 32.9772 14.6159 32.9771H33.7158C33.8725 32.9775 34.0278 32.947 34.1727 32.8873C34.3176 32.8276 34.4493 32.74 34.5603 32.6294C34.6713 32.5187 34.7594 32.3873 34.8195 32.2426C34.8797 32.0979 34.9107 31.9428 34.9108 31.7861V26.4771L24.4918 19.3271Z" fill="#185C37"/>
<path d="M24.4918 6.97708H14.6159C14.4593 6.97695 14.3043 7.00765 14.1596 7.06744C14.0149 7.12722 13.8835 7.21491 13.7727 7.32551C13.6619 7.4361 13.574 7.56743 13.514 7.712C13.4539 7.85657 13.423 8.01155 13.4229 8.16808V13.4771L24.4918 19.9771L30.3528 21.9271L34.9108 19.9771V13.4771L24.4918 6.97708Z" fill="#21A366"/>
<path d="M13.4229 13.4771H24.4919V19.9771H13.4229V13.4771Z" fill="#107C41"/>
<path opacity="0.1" d="M21.3449 12.1771H13.4229V28.4271H21.3449C21.6605 28.4255 21.9629 28.2996 22.1863 28.0767C22.4098 27.8538 22.5365 27.5517 22.5389 27.2361V13.3681C22.5365 13.0524 22.4098 12.7504 22.1863 12.5275C21.9629 12.3045 21.6605 12.1787 21.3449 12.1771Z" fill="black"/>
<path opacity="0.2" d="M20.6939 12.8271H13.4229V29.0771H20.6939C21.0095 29.0755 21.3119 28.9496 21.5353 28.7267C21.7588 28.5038 21.8855 28.2017 21.8878 27.8861V14.0181C21.8855 13.7024 21.7588 13.4004 21.5353 13.1775C21.3119 12.9545 21.0095 12.8287 20.6939 12.8271Z" fill="black"/>
<path opacity="0.2" d="M20.6939 12.8271H13.4229V27.7771H20.6939C21.0095 27.7755 21.3119 27.6496 21.5353 27.4267C21.7588 27.2038 21.8855 26.9018 21.8878 26.5861V14.0181C21.8855 13.7024 21.7588 13.4004 21.5353 13.1775C21.3119 12.9545 21.0095 12.8287 20.6939 12.8271Z" fill="black"/>
<path opacity="0.2" d="M20.0428 12.8271H13.4229V27.7771H20.0428C20.3585 27.7755 20.6608 27.6496 20.8843 27.4267C21.1078 27.2038 21.2345 26.9018 21.2368 26.5861V14.0181C21.2345 13.7024 21.1078 13.4004 20.8843 13.1775C20.6608 12.9545 20.3585 12.8287 20.0428 12.8271Z" fill="black"/>
<path d="M8.10513 12.8271H20.0431C20.3594 12.8268 20.6628 12.9521 20.8866 13.1754C21.1105 13.3988 21.2366 13.7019 21.2371 14.0181V25.9361C21.2366 26.2523 21.1105 26.5554 20.8866 26.7787C20.6628 27.0021 20.3594 27.1274 20.0431 27.1271H8.10513C7.94851 27.1274 7.79338 27.0967 7.64859 27.037C7.5038 26.9773 7.37221 26.8896 7.26132 26.779C7.15044 26.6684 7.06243 26.537 7.00235 26.3924C6.94226 26.2478 6.91126 26.0927 6.91113 25.9361V14.0181C6.91126 13.8615 6.94226 13.7064 7.00235 13.5618C7.06243 13.4171 7.15044 13.2858 7.26132 13.1752C7.37221 13.0645 7.5038 12.9769 7.64859 12.9172C7.79338 12.8574 7.94851 12.8268 8.10513 12.8271Z" fill="url(#paint0_linear_1099_1565)"/>
<path d="M10.6104 23.8501L13.1214 19.9661L10.8214 16.1041H12.6684L13.9234 18.5771C14.0394 18.8111 14.1234 18.9851 14.1614 19.1011H14.1784C14.2604 18.9131 14.3474 18.7321 14.4384 18.5551L15.7804 16.1081H17.4804L15.1214 19.9481L17.5404 23.8531H15.7314L14.2814 21.1421C14.214 21.0255 14.1568 20.9034 14.1104 20.7771H14.0864C14.0441 20.9002 13.9877 21.018 13.9184 21.1281L12.4254 23.8501H10.6104Z" fill="white"/>
<path d="M33.7162 6.97708H24.4912V13.4771H34.9102V8.16808C34.9101 8.01146 34.8791 7.85641 34.819 7.71177C34.7589 7.56714 34.6709 7.43576 34.56 7.32515C34.4491 7.21454 34.3175 7.12687 34.1728 7.06715C34.028 7.00743 33.8728 6.97682 33.7162 6.97708Z" fill="#33C481"/>
<path d="M24.4443 20H34.8633V26.5H24.4443V20Z" fill="#107C41"/>
<mask id="path-13-inside-1_1099_1565" fill="white">
<path fill-rule="evenodd" clip-rule="evenodd" d="M30.8516 26.0045C31.0439 25.8207 31.3556 25.8207 31.5478 26.0045L33.1889 27.5731C33.3811 27.7569 33.3811 28.0548 33.1889 28.2386C32.9966 28.4224 32.6849 28.4224 32.4927 28.2386L31.6921 27.4734V30.7294C31.6921 30.9893 31.4716 31.2 31.1997 31.2C30.9279 31.2 30.7074 30.9893 30.7074 30.7294V27.4734L29.9068 28.2386C29.7145 28.4224 29.4029 28.4224 29.2106 28.2386C29.0183 28.0548 29.0183 27.7569 29.2106 27.5731L30.8516 26.0045Z"/>
</mask>
<path fill-rule="evenodd" clip-rule="evenodd" d="M30.8516 26.0045C31.0439 25.8207 31.3556 25.8207 31.5478 26.0045L33.1889 27.5731C33.3811 27.7569 33.3811 28.0548 33.1889 28.2386C32.9966 28.4224 32.6849 28.4224 32.4927 28.2386L31.6921 27.4734V30.7294C31.6921 30.9893 31.4716 31.2 31.1997 31.2C30.9279 31.2 30.7074 30.9893 30.7074 30.7294V27.4734L29.9068 28.2386C29.7145 28.4224 29.4029 28.4224 29.2106 28.2386C29.0183 28.0548 29.0183 27.7569 29.2106 27.5731L30.8516 26.0045Z" fill="#138146"/>
<path d="M31.5478 26.0045L32.2388 25.2816L31.5478 26.0045ZM33.1889 27.5731L32.4979 28.296L33.1889 27.5731ZM32.4927 28.2386L33.1837 27.5157L33.1836 27.5157L32.4927 28.2386ZM31.6921 27.4734L32.383 26.7505L30.6921 25.1342V27.4734H31.6921ZM30.7074 27.4734H31.7074V25.1342L30.0165 26.7505L30.7074 27.4734ZM29.9068 28.2386L29.2158 27.5157L29.2158 27.5157L29.9068 28.2386ZM31.5426 26.7274C31.3483 26.9131 31.0511 26.9131 30.8569 26.7274L32.2388 25.2816C31.66 24.7283 30.7395 24.7283 30.1607 25.2816L31.5426 26.7274ZM30.8569 26.7274L32.4979 28.296L33.8799 26.8502L32.2388 25.2816L30.8569 26.7274ZM32.4979 28.296C32.2781 28.0859 32.2781 27.7258 32.4979 27.5157L33.8799 28.9615C34.4841 28.3838 34.4841 27.4279 33.8799 26.8502L32.4979 28.296ZM32.4979 27.5157C32.6922 27.33 32.9894 27.33 33.1837 27.5157L31.8017 28.9615C32.3805 29.5148 33.301 29.5148 33.8799 28.9615L32.4979 27.5157ZM33.1836 27.5157L32.383 26.7505L31.0011 28.1963L31.8017 28.9615L33.1836 27.5157ZM30.6921 27.4734V30.7294H32.6921V27.4734H30.6921ZM30.6921 30.7294C30.6921 30.395 30.9623 30.2 31.1997 30.2V32.2C31.9809 32.2 32.6921 31.5836 32.6921 30.7294H30.6921ZM31.1997 30.2C31.4371 30.2 31.7074 30.395 31.7074 30.7294H29.7074C29.7074 31.5836 30.4186 32.2 31.1997 32.2V30.2ZM31.7074 30.7294V27.4734H29.7074V30.7294H31.7074ZM30.0165 26.7505L29.2158 27.5157L30.5977 28.9615L31.3984 28.1963L30.0165 26.7505ZM29.2158 27.5157C29.4101 27.33 29.7073 27.33 29.9016 27.5157L28.5196 28.9615C29.0984 29.5148 30.019 29.5148 30.5978 28.9615L29.2158 27.5157ZM29.9016 27.5157C30.1213 27.7258 30.1213 28.0859 29.9016 28.296L28.5196 26.8502C27.9153 27.4279 27.9153 28.3838 28.5196 28.9615L29.9016 27.5157ZM29.9016 28.296L31.5426 26.7274L30.1607 25.2816L28.5196 26.8502L29.9016 28.296Z" fill="white" mask="url(#path-13-inside-1_1099_1565)"/>
<path d="M44.96 25V16.36H45.842V25H44.96ZM55.3688 25L55.3748 20.746C55.3748 20.246 55.2348 19.854 54.9548 19.57C54.6788 19.282 54.3268 19.138 53.8988 19.138C53.6548 19.138 53.4168 19.194 53.1848 19.306C52.9528 19.418 52.7608 19.598 52.6088 19.846C52.4608 20.094 52.3868 20.418 52.3868 20.818L51.8648 20.668C51.8528 20.204 51.9428 19.798 52.1348 19.45C52.3308 19.102 52.5988 18.832 52.9388 18.64C53.2828 18.444 53.6708 18.346 54.1028 18.346C54.7548 18.346 55.2768 18.548 55.6688 18.952C56.0608 19.352 56.2568 19.894 56.2568 20.578L56.2508 25H55.3688ZM47.6348 25V18.52H48.4268V20.116H48.5228V25H47.6348ZM51.5108 25L51.5168 20.806C51.5168 20.29 51.3788 19.884 51.1028 19.588C50.8308 19.288 50.4708 19.138 50.0228 19.138C49.5748 19.138 49.2128 19.292 48.9368 19.6C48.6608 19.904 48.5228 20.31 48.5228 20.818L47.9948 20.53C47.9948 20.114 48.0928 19.742 48.2888 19.414C48.4848 19.082 48.7528 18.822 49.0928 18.634C49.4328 18.442 49.8188 18.346 50.2508 18.346C50.6628 18.346 51.0288 18.434 51.3488 18.61C51.6728 18.786 51.9268 19.042 52.1108 19.378C52.2948 19.714 52.3868 20.122 52.3868 20.602L52.3808 25H51.5108ZM60.7227 25.18C60.1267 25.18 59.6227 25.03 59.2107 24.73C58.7987 24.426 58.4867 24.016 58.2747 23.5C58.0627 22.98 57.9567 22.398 57.9567 21.754C57.9567 21.098 58.0627 20.514 58.2747 20.002C58.4907 19.486 58.8067 19.08 59.2227 18.784C59.6387 18.488 60.1507 18.34 60.7587 18.34C61.3507 18.34 61.8587 18.49 62.2827 18.79C62.7067 19.09 63.0307 19.498 63.2547 20.014C63.4827 20.53 63.5967 21.11 63.5967 21.754C63.5967 22.402 63.4827 22.984 63.2547 23.5C63.0267 24.016 62.6987 24.426 62.2707 24.73C61.8427 25.03 61.3267 25.18 60.7227 25.18ZM57.8067 27.88V18.52H58.5987V23.398H58.6947V27.88H57.8067ZM60.6327 24.358C61.0847 24.358 61.4607 24.244 61.7607 24.016C62.0607 23.788 62.2847 23.478 62.4327 23.086C62.5847 22.69 62.6607 22.246 62.6607 21.754C62.6607 21.266 62.5867 20.826 62.4387 20.434C62.2907 20.042 62.0647 19.732 61.7607 19.504C61.4607 19.276 61.0787 19.162 60.6147 19.162C60.1627 19.162 59.7867 19.272 59.4867 19.492C59.1907 19.712 58.9687 20.018 58.8207 20.41C58.6727 20.798 58.5987 21.246 58.5987 21.754C58.5987 22.254 58.6727 22.702 58.8207 23.098C58.9687 23.49 59.1927 23.798 59.4927 24.022C59.7927 24.246 60.1727 24.358 60.6327 24.358ZM67.6202 25.18C66.9762 25.18 66.4262 25.034 65.9702 24.742C65.5142 24.45 65.1642 24.046 64.9202 23.53C64.6762 23.014 64.5542 22.422 64.5542 21.754C64.5542 21.074 64.6782 20.478 64.9262 19.966C65.1742 19.454 65.5262 19.056 65.9822 18.772C66.4422 18.484 66.9882 18.34 67.6202 18.34C68.2682 18.34 68.8202 18.486 69.2762 18.778C69.7362 19.066 70.0862 19.468 70.3262 19.984C70.5702 20.496 70.6922 21.086 70.6922 21.754C70.6922 22.434 70.5702 23.032 70.3262 23.548C70.0822 24.06 69.7302 24.46 69.2702 24.748C68.8102 25.036 68.2602 25.18 67.6202 25.18ZM67.6202 24.334C68.3402 24.334 68.8762 24.096 69.2282 23.62C69.5802 23.14 69.7562 22.518 69.7562 21.754C69.7562 20.97 69.5782 20.346 69.2222 19.882C68.8702 19.418 68.3362 19.186 67.6202 19.186C67.1362 19.186 66.7362 19.296 66.4202 19.516C66.1082 19.732 65.8742 20.034 65.7182 20.422C65.5662 20.806 65.4902 21.25 65.4902 21.754C65.4902 22.534 65.6702 23.16 66.0302 23.632C66.3902 24.1 66.9202 24.334 67.6202 24.334ZM72.0158 25V18.52H72.8078V20.08L72.6518 19.876C72.7238 19.684 72.8178 19.508 72.9338 19.348C73.0498 19.184 73.1758 19.05 73.3118 18.946C73.4798 18.798 73.6758 18.686 73.8998 18.61C74.1238 18.53 74.3498 18.484 74.5778 18.472C74.8058 18.456 75.0138 18.472 75.2018 18.52V19.348C74.9658 19.288 74.7078 19.274 74.4278 19.306C74.1478 19.338 73.8898 19.45 73.6538 19.642C73.4378 19.81 73.2758 20.012 73.1678 20.248C73.0598 20.48 72.9878 20.728 72.9518 20.992C72.9158 21.252 72.8978 21.51 72.8978 21.766V25H72.0158ZM79.868 25C79.504 25.076 79.144 25.106 78.788 25.09C78.436 25.074 78.12 24.998 77.84 24.862C77.564 24.726 77.354 24.514 77.21 24.226C77.094 23.986 77.03 23.744 77.018 23.5C77.01 23.252 77.006 22.97 77.006 22.654V16.72H77.882V22.618C77.882 22.89 77.884 23.118 77.888 23.302C77.896 23.482 77.938 23.642 78.014 23.782C78.158 24.05 78.386 24.21 78.698 24.262C79.014 24.314 79.404 24.302 79.868 24.226V25ZM75.62 19.276V18.52H79.868V19.276H75.62ZM83.547 25V16.36H88.509V17.242H84.429V20.242H87.789V21.118H84.429V25H83.547ZM89.7139 17.29V16.3H90.5959V17.29H89.7139ZM89.7139 25V18.52H90.5959V25H89.7139ZM92.5147 25V16.18H93.3967V25H92.5147ZM97.9375 25.18C97.3055 25.18 96.7575 25.04 96.2935 24.76C95.8335 24.48 95.4755 24.086 95.2195 23.578C94.9635 23.07 94.8355 22.474 94.8355 21.79C94.8355 21.082 94.9615 20.47 95.2135 19.954C95.4655 19.438 95.8195 19.04 96.2755 18.76C96.7355 18.48 97.2775 18.34 97.9015 18.34C98.5415 18.34 99.0875 18.488 99.5395 18.784C99.9915 19.076 100.333 19.496 100.565 20.044C100.797 20.592 100.903 21.246 100.883 22.006H99.9835V21.694C99.9675 20.854 99.7855 20.22 99.4375 19.792C99.0935 19.364 98.5895 19.15 97.9255 19.15C97.2295 19.15 96.6955 19.376 96.3235 19.828C95.9555 20.28 95.7715 20.924 95.7715 21.76C95.7715 22.576 95.9555 23.21 96.3235 23.662C96.6955 24.11 97.2215 24.334 97.9015 24.334C98.3655 24.334 98.7695 24.228 99.1135 24.016C99.4615 23.8 99.7355 23.49 99.9355 23.086L100.757 23.404C100.501 23.968 100.123 24.406 99.6235 24.718C99.1275 25.026 98.5655 25.18 97.9375 25.18ZM95.4595 22.006V21.268H100.409V22.006H95.4595Z" fill="#185C37"/>
<defs>
<linearGradient id="paint0_linear_1099_1565" x1="9.40513" y1="11.8911" x2="18.7431" y2="28.0631" gradientUnits="userSpaceOnUse">
<stop stop-color="#18884F"/>
<stop offset="0.5" stop-color="#117E43"/>
<stop offset="1" stop-color="#0B6631"/>
</linearGradient>
</defs>
</svg>
