<svg width="52" height="40" viewBox="0 0 52 40" fill="none" xmlns="http://www.w3.org/2000/svg">
<rect x="0.5" y="0.5" width="51" height="39" rx="7.5" fill="white"/>
<rect x="0.5" y="0.5" width="51" height="39" rx="7.5" stroke="#F5F5F5"/>
<rect width="52" height="40" rx="4" fill="#E8E8E8"/>
<path d="M18.5 13.8333C18.5 13.3666 18.5 13.1333 18.5908 12.955C18.6707 12.7982 18.7982 12.6707 18.955 12.5908C19.1333 12.5 19.3666 12.5 19.8333 12.5H32.1667C32.6334 12.5 32.8668 12.5 33.045 12.5908C33.2018 12.6707 33.3293 12.7982 33.4092 12.955C33.5 13.1333 33.5 13.3666 33.5 13.8333V15.281C33.5 15.4849 33.5 15.5868 33.477 15.6827C33.4566 15.7677 33.4229 15.849 33.3772 15.9236C33.3257 16.0077 33.2536 16.0797 33.1095 16.2239L28.0572 21.2762C27.9131 21.4202 27.841 21.4923 27.7895 21.5764C27.7437 21.651 27.7101 21.7323 27.6897 21.8173C27.6667 21.9133 27.6667 22.0152 27.6667 22.2189V24.1667L24.3333 27.5V22.2189C24.3333 22.0152 24.3333 21.9133 24.3103 21.8173C24.2899 21.7323 24.2562 21.651 24.2105 21.5764C24.159 21.4923 24.0869 21.4202 23.9428 21.2762L18.8905 16.2239C18.7464 16.0797 18.6743 16.0077 18.6228 15.9236C18.5771 15.849 18.5434 15.7677 18.523 15.6827C18.5 15.5868 18.5 15.4849 18.5 15.281V13.8333Z" stroke="black" stroke-width="1.67" stroke-linecap="round" stroke-linejoin="round"/>
</svg>
