<svg width="13" height="13" viewBox="0 0 13 13" fill="none" xmlns="http://www.w3.org/2000/svg">
<path fill-rule="evenodd" clip-rule="evenodd" d="M7.24121 6.5C7.24121 6.30109 7.16219 6.11032 7.02154 5.96967C6.88089 5.82902 6.69012 5.75 6.49121 5.75H4.61621C4.4173 5.75 4.22653 5.82902 4.08588 5.96967C3.94523 6.11032 3.86621 6.30109 3.86621 6.5C3.86621 6.69891 3.94523 6.88968 4.08588 7.03033C4.22653 7.17098 4.4173 7.25 4.61621 7.25H5.74121V10.25C5.74121 10.4489 5.82023 10.6397 5.96088 10.7803C6.10153 10.921 6.2923 11 6.49121 11C6.69012 11 6.88089 10.921 7.02154 10.7803C7.16219 10.6397 7.24121 10.4489 7.24121 10.25V6.5ZM3.49121 0.5H9.49121C10.2869 0.5 11.0499 0.816071 11.6125 1.37868C12.1751 1.94129 12.4912 2.70435 12.4912 3.5V9.5C12.4912 10.2956 12.1751 11.0587 11.6125 11.6213C11.0499 12.1839 10.2869 12.5 9.49121 12.5H3.49121C2.69556 12.5 1.9325 12.1839 1.36989 11.6213C0.807281 11.0587 0.491211 10.2956 0.491211 9.5V3.5C0.491211 2.70435 0.807281 1.94129 1.36989 1.37868C1.9325 0.816071 2.69556 0.5 3.49121 0.5V0.5ZM6.49121 4.625C6.78958 4.625 7.07573 4.50647 7.28671 4.2955C7.49768 4.08452 7.61621 3.79837 7.61621 3.5C7.61621 3.20163 7.49768 2.91548 7.28671 2.7045C7.07573 2.49353 6.78958 2.375 6.49121 2.375C6.19284 2.375 5.90669 2.49353 5.69572 2.7045C5.48474 2.91548 5.36621 3.20163 5.36621 3.5C5.36621 3.79837 5.48474 4.08452 5.69572 4.2955C5.90669 4.50647 6.19284 4.625 6.49121 4.625Z" fill="#697386"/>
</svg>
