<svg width="200" height="244" viewBox="0 0 200 244" fill="none" xmlns="http://www.w3.org/2000/svg">
<g filter="url(#filter0_d_3417_86355)">
<g clip-path="url(#clip0_3417_86355)">
<path d="M176.705 0.791016H23.305C18.8867 0.791016 15.305 4.37273 15.305 8.791V207.221C15.305 211.639 18.8867 215.221 23.305 215.221H176.705C181.123 215.221 184.705 211.639 184.705 207.221V8.79102C184.705 4.37274 181.123 0.791016 176.705 0.791016Z" fill="white" stroke="#E8E8E8" stroke-width="0.95" stroke-miterlimit="10"/>
<path d="M88.405 161.911V169.141H87.715C87.6083 169.141 87.5183 169.124 87.445 169.091C87.375 169.054 87.3067 168.994 87.24 168.911L83.465 164.091C83.485 164.311 83.495 164.514 83.495 164.701V169.141H82.31V161.911H83.015C83.0717 161.911 83.12 161.914 83.16 161.921C83.2033 161.924 83.24 161.934 83.27 161.951C83.3033 161.964 83.335 161.986 83.365 162.016C83.395 162.042 83.4283 162.079 83.465 162.126L87.255 166.966C87.245 166.849 87.2367 166.734 87.23 166.621C87.2233 166.507 87.22 166.402 87.22 166.306V161.911H88.405ZM91.9338 163.931C92.3138 163.931 92.6588 163.992 92.9688 164.116C93.2822 164.239 93.5488 164.414 93.7688 164.641C93.9922 164.867 94.1638 165.144 94.2838 165.471C94.4038 165.797 94.4638 166.162 94.4638 166.566C94.4638 166.972 94.4038 167.339 94.2838 167.666C94.1638 167.992 93.9922 168.271 93.7688 168.501C93.5488 168.731 93.2822 168.907 92.9688 169.031C92.6588 169.154 92.3138 169.216 91.9338 169.216C91.5505 169.216 91.2022 169.154 90.8888 169.031C90.5755 168.907 90.3072 168.731 90.0838 168.501C89.8638 168.271 89.6922 167.992 89.5688 167.666C89.4488 167.339 89.3888 166.972 89.3888 166.566C89.3888 166.162 89.4488 165.797 89.5688 165.471C89.6922 165.144 89.8638 164.867 90.0838 164.641C90.3072 164.414 90.5755 164.239 90.8888 164.116C91.2022 163.992 91.5505 163.931 91.9338 163.931ZM91.9338 168.266C92.3605 168.266 92.6755 168.122 92.8788 167.836C93.0855 167.549 93.1888 167.129 93.1888 166.576C93.1888 166.022 93.0855 165.601 92.8788 165.311C92.6755 165.021 92.3605 164.876 91.9338 164.876C91.5005 164.876 91.1788 165.022 90.9688 165.316C90.7622 165.606 90.6588 166.026 90.6588 166.576C90.6588 167.126 90.7622 167.546 90.9688 167.836C91.1788 168.122 91.5005 168.266 91.9338 168.266ZM104.453 165.526C104.453 166.056 104.364 166.542 104.188 166.986C104.011 167.429 103.763 167.811 103.443 168.131C103.123 168.451 102.738 168.699 102.288 168.876C101.838 169.052 101.338 169.141 100.788 169.141H98.0327V161.911H100.788C101.338 161.911 101.838 162.001 102.288 162.181C102.738 162.357 103.123 162.606 103.443 162.926C103.763 163.242 104.011 163.622 104.188 164.066C104.364 164.509 104.453 164.996 104.453 165.526ZM103.073 165.526C103.073 165.129 103.019 164.774 102.913 164.461C102.809 164.144 102.658 163.877 102.458 163.661C102.261 163.441 102.021 163.272 101.738 163.156C101.458 163.039 101.141 162.981 100.788 162.981H99.3827V168.071H100.788C101.141 168.071 101.458 168.012 101.738 167.896C102.021 167.779 102.261 167.612 102.458 167.396C102.658 167.176 102.809 166.909 102.913 166.596C103.019 166.279 103.073 165.922 103.073 165.526ZM108.028 166.951C107.671 166.967 107.371 166.999 107.128 167.046C106.885 167.089 106.69 167.146 106.543 167.216C106.396 167.286 106.291 167.367 106.228 167.461C106.165 167.554 106.133 167.656 106.133 167.766C106.133 167.982 106.196 168.137 106.323 168.231C106.453 168.324 106.621 168.371 106.828 168.371C107.081 168.371 107.3 168.326 107.483 168.236C107.67 168.142 107.851 168.002 108.028 167.816V166.951ZM105.198 164.726C105.788 164.186 106.498 163.916 107.328 163.916C107.628 163.916 107.896 163.966 108.133 164.066C108.37 164.162 108.57 164.299 108.733 164.476C108.896 164.649 109.02 164.857 109.103 165.101C109.19 165.344 109.233 165.611 109.233 165.901V169.141H108.673C108.556 169.141 108.466 169.124 108.403 169.091C108.34 169.054 108.29 168.982 108.253 168.876L108.143 168.506C108.013 168.622 107.886 168.726 107.763 168.816C107.64 168.902 107.511 168.976 107.378 169.036C107.245 169.096 107.101 169.141 106.948 169.171C106.798 169.204 106.631 169.221 106.448 169.221C106.231 169.221 106.031 169.192 105.848 169.136C105.665 169.076 105.506 168.987 105.373 168.871C105.24 168.754 105.136 168.609 105.063 168.436C104.99 168.262 104.953 168.061 104.953 167.831C104.953 167.701 104.975 167.572 105.018 167.446C105.061 167.316 105.131 167.192 105.228 167.076C105.328 166.959 105.456 166.849 105.613 166.746C105.77 166.642 105.961 166.552 106.188 166.476C106.418 166.399 106.685 166.337 106.988 166.291C107.291 166.241 107.638 166.211 108.028 166.201V165.901C108.028 165.557 107.955 165.304 107.808 165.141C107.661 164.974 107.45 164.891 107.173 164.891C106.973 164.891 106.806 164.914 106.673 164.961C106.543 165.007 106.428 165.061 106.328 165.121C106.228 165.177 106.136 165.229 106.053 165.276C105.973 165.322 105.883 165.346 105.783 165.346C105.696 165.346 105.623 165.324 105.563 165.281C105.503 165.234 105.455 165.181 105.418 165.121L105.198 164.726ZM112.038 169.221C111.591 169.221 111.248 169.096 111.008 168.846C110.771 168.592 110.653 168.244 110.653 167.801V164.936H110.128C110.061 164.936 110.005 164.914 109.958 164.871C109.911 164.827 109.888 164.762 109.888 164.676V164.186L110.713 164.051L110.973 162.651C110.99 162.584 111.021 162.532 111.068 162.496C111.115 162.459 111.175 162.441 111.248 162.441H111.888V164.056H113.258V164.936H111.888V167.716C111.888 167.876 111.926 168.001 112.003 168.091C112.083 168.181 112.191 168.226 112.328 168.226C112.405 168.226 112.468 168.217 112.518 168.201C112.571 168.181 112.616 168.161 112.653 168.141C112.693 168.121 112.728 168.102 112.758 168.086C112.788 168.066 112.818 168.056 112.848 168.056C112.885 168.056 112.915 168.066 112.938 168.086C112.961 168.102 112.986 168.129 113.013 168.166L113.383 168.766C113.203 168.916 112.996 169.029 112.763 169.106C112.53 169.182 112.288 169.221 112.038 169.221ZM116.759 166.951C116.402 166.967 116.102 166.999 115.859 167.046C115.615 167.089 115.42 167.146 115.274 167.216C115.127 167.286 115.022 167.367 114.959 167.461C114.895 167.554 114.864 167.656 114.864 167.766C114.864 167.982 114.927 168.137 115.054 168.231C115.184 168.324 115.352 168.371 115.559 168.371C115.812 168.371 116.03 168.326 116.214 168.236C116.4 168.142 116.582 168.002 116.759 167.816V166.951ZM113.929 164.726C114.519 164.186 115.229 163.916 116.059 163.916C116.359 163.916 116.627 163.966 116.864 164.066C117.1 164.162 117.3 164.299 117.464 164.476C117.627 164.649 117.75 164.857 117.834 165.101C117.92 165.344 117.964 165.611 117.964 165.901V169.141H117.404C117.287 169.141 117.197 169.124 117.134 169.091C117.07 169.054 117.02 168.982 116.984 168.876L116.874 168.506C116.744 168.622 116.617 168.726 116.494 168.816C116.37 168.902 116.242 168.976 116.109 169.036C115.975 169.096 115.832 169.141 115.679 169.171C115.529 169.204 115.362 169.221 115.179 169.221C114.962 169.221 114.762 169.192 114.579 169.136C114.395 169.076 114.237 168.987 114.104 168.871C113.97 168.754 113.867 168.609 113.794 168.436C113.72 168.262 113.684 168.061 113.684 167.831C113.684 167.701 113.705 167.572 113.749 167.446C113.792 167.316 113.862 167.192 113.959 167.076C114.059 166.959 114.187 166.849 114.344 166.746C114.5 166.642 114.692 166.552 114.919 166.476C115.149 166.399 115.415 166.337 115.719 166.291C116.022 166.241 116.369 166.211 116.759 166.201V165.901C116.759 165.557 116.685 165.304 116.539 165.141C116.392 164.974 116.18 164.891 115.904 164.891C115.704 164.891 115.537 164.914 115.404 164.961C115.274 165.007 115.159 165.061 115.059 165.121C114.959 165.177 114.867 165.229 114.784 165.276C114.704 165.322 114.614 165.346 114.514 165.346C114.427 165.346 114.354 165.324 114.294 165.281C114.234 165.234 114.185 165.181 114.149 165.121L113.929 164.726Z" fill="#939090"/>
<path d="M36.0131 178.407V177.86H39.8312V178.407H38.2304V182.951H37.6139V178.407H36.0131ZM41.2898 180.654V182.951H40.7031V177.86H41.2898V179.73H41.3395C41.429 179.532 41.5632 179.376 41.7422 179.26C41.9228 179.142 42.1631 179.083 42.4631 179.083C42.7233 179.083 42.9511 179.135 43.1467 179.24C43.3422 179.343 43.4939 179.501 43.6016 179.715C43.7109 179.927 43.7656 180.197 43.7656 180.525V182.951H43.179V180.565C43.179 180.262 43.1003 180.027 42.9428 179.861C42.7871 179.694 42.5708 179.61 42.294 179.61C42.1018 179.61 41.9295 179.651 41.777 179.732C41.6262 179.813 41.5069 179.932 41.419 180.088C41.3329 180.243 41.2898 180.432 41.2898 180.654ZM46.4397 183.031C46.0718 183.031 45.7545 182.95 45.4877 182.787C45.2225 182.623 45.0179 182.394 44.8737 182.101C44.7312 181.806 44.6599 181.463 44.6599 181.072C44.6599 180.681 44.7312 180.336 44.8737 180.038C45.0179 179.738 45.2184 179.504 45.4752 179.337C45.7338 179.168 46.0354 179.083 46.3801 179.083C46.5789 179.083 46.7753 179.116 46.9692 179.183C47.1631 179.249 47.3396 179.357 47.4987 179.506C47.6578 179.653 47.7845 179.849 47.879 180.093C47.9735 180.336 48.0207 180.636 48.0207 180.992V181.241H45.0775V180.734H47.4241C47.4241 180.518 47.381 180.326 47.2948 180.157C47.2103 179.988 47.0893 179.855 46.9319 179.757C46.7761 179.659 46.5922 179.61 46.3801 179.61C46.1464 179.61 45.9442 179.668 45.7735 179.784C45.6045 179.899 45.4744 180.048 45.3833 180.232C45.2921 180.416 45.2465 180.613 45.2465 180.823V181.161C45.2465 181.45 45.2963 181.694 45.3957 181.895C45.4968 182.094 45.6368 182.245 45.8158 182.35C45.9948 182.452 46.2027 182.504 46.4397 182.504C46.5938 182.504 46.733 182.482 46.8573 182.439C46.9833 182.394 47.0918 182.328 47.183 182.24C47.2741 182.151 47.3446 182.04 47.3943 181.907L47.961 182.066C47.9014 182.258 47.8011 182.427 47.6603 182.573C47.5194 182.718 47.3454 182.83 47.1382 182.911C46.9311 182.991 46.6982 183.031 46.4397 183.031ZM48.9131 182.951V179.133H49.4799V179.71H49.5196C49.5892 179.521 49.7152 179.367 49.8975 179.25C50.0798 179.132 50.2853 179.073 50.5139 179.073C50.557 179.073 50.6109 179.074 50.6755 179.076C50.7402 179.077 50.789 179.08 50.8222 179.083V179.68C50.8023 179.675 50.7567 179.667 50.6855 179.657C50.6159 179.646 50.5421 179.64 50.4642 179.64C50.2786 179.64 50.1129 179.679 49.9671 179.757C49.8229 179.833 49.7085 179.939 49.624 180.075C49.5412 180.209 49.4997 180.363 49.4997 180.535V182.951H48.9131ZM53.0022 183.031C52.6343 183.031 52.317 182.95 52.0502 182.787C51.785 182.623 51.5804 182.394 51.4362 182.101C51.2937 181.806 51.2224 181.463 51.2224 181.072C51.2224 180.681 51.2937 180.336 51.4362 180.038C51.5804 179.738 51.7809 179.504 52.0377 179.337C52.2963 179.168 52.5979 179.083 52.9426 179.083C53.1414 179.083 53.3378 179.116 53.5317 179.183C53.7256 179.249 53.9021 179.357 54.0612 179.506C54.2203 179.653 54.347 179.849 54.4415 180.093C54.536 180.336 54.5832 180.636 54.5832 180.992V181.241H51.64V180.734H53.9866C53.9866 180.518 53.9435 180.326 53.8573 180.157C53.7728 179.988 53.6518 179.855 53.4944 179.757C53.3386 179.659 53.1547 179.61 52.9426 179.61C52.7089 179.61 52.5067 179.668 52.336 179.784C52.167 179.899 52.0369 180.048 51.9458 180.232C51.8546 180.416 51.809 180.613 51.809 180.823V181.161C51.809 181.45 51.8588 181.694 51.9582 181.895C52.0593 182.094 52.1993 182.245 52.3783 182.35C52.5573 182.452 52.7652 182.504 53.0022 182.504C53.1563 182.504 53.2955 182.482 53.4198 182.439C53.5458 182.394 53.6543 182.328 53.7455 182.24C53.8366 182.151 53.9071 182.04 53.9568 181.907L54.5235 182.066C54.4639 182.258 54.3636 182.427 54.2228 182.573C54.0819 182.718 53.9079 182.83 53.7007 182.911C53.4936 182.991 53.2607 183.031 53.0022 183.031ZM57.4443 182.951V179.133H58.031V182.951H57.4443ZM57.7426 178.497C57.6283 178.497 57.5297 178.458 57.4468 178.38C57.3656 178.302 57.325 178.208 57.325 178.099C57.325 177.99 57.3656 177.896 57.4468 177.818C57.5297 177.74 57.6283 177.701 57.7426 177.701C57.857 177.701 57.9548 177.74 58.036 177.818C58.1188 177.896 58.1603 177.99 58.1603 178.099C58.1603 178.208 58.1188 178.302 58.036 178.38C57.9548 178.458 57.857 178.497 57.7426 178.497ZM61.81 179.988L61.283 180.137C61.2499 180.049 61.201 179.964 61.1364 179.881C61.0734 179.797 60.9872 179.727 60.8778 179.672C60.7685 179.618 60.6284 179.59 60.4577 179.59C60.2241 179.59 60.0294 179.644 59.8736 179.752C59.7195 179.858 59.6424 179.993 59.6424 180.157C59.6424 180.303 59.6954 180.418 59.8015 180.503C59.9076 180.587 60.0733 180.658 60.2987 180.714L60.8654 180.853C61.2068 180.936 61.4612 181.063 61.6286 181.233C61.7959 181.403 61.8796 181.62 61.8796 181.887C61.8796 182.106 61.8166 182.302 61.6907 182.474C61.5664 182.646 61.3924 182.782 61.1687 182.882C60.945 182.981 60.6848 183.031 60.3881 183.031C59.9987 183.031 59.6764 182.946 59.4212 182.777C59.166 182.608 59.0044 182.361 58.9364 182.036L59.4933 181.897C59.5463 182.103 59.6465 182.257 59.794 182.36C59.9432 182.462 60.1379 182.514 60.3782 182.514C60.6516 182.514 60.8687 182.456 61.0295 182.34C61.1919 182.222 61.2731 182.081 61.2731 181.917C61.2731 181.785 61.2267 181.673 61.1339 181.584C61.0411 181.493 60.8986 181.425 60.7063 181.38L60.07 181.231C59.7203 181.148 59.4634 181.02 59.2994 180.846C59.137 180.67 59.0558 180.45 59.0558 180.187C59.0558 179.972 59.1162 179.781 59.2372 179.615C59.3599 179.45 59.5264 179.319 59.7369 179.225C59.949 179.131 60.1893 179.083 60.4577 179.083C60.8356 179.083 61.1322 179.166 61.3477 179.332C61.5648 179.498 61.7189 179.716 61.81 179.988ZM65.3181 180.654V182.951H64.7315V179.133H65.2982V179.73H65.3479C65.4374 179.536 65.5733 179.38 65.7556 179.262C65.9379 179.143 66.1732 179.083 66.4616 179.083C66.7201 179.083 66.9463 179.136 67.1402 179.242C67.3341 179.347 67.4849 179.506 67.5926 179.72C67.7003 179.932 67.7542 180.2 67.7542 180.525V182.951H67.1675V180.565C67.1675 180.265 67.0896 180.031 66.9339 179.864C66.7781 179.695 66.5643 179.61 66.2925 179.61C66.1053 179.61 65.9379 179.651 65.7904 179.732C65.6446 179.813 65.5294 179.932 65.4449 180.088C65.3604 180.243 65.3181 180.432 65.3181 180.654ZM70.3773 183.031C70.0326 183.031 69.7302 182.949 69.47 182.785C69.2115 182.621 69.0093 182.391 68.8635 182.096C68.7193 181.801 68.6472 181.456 68.6472 181.062C68.6472 180.664 68.7193 180.317 68.8635 180.02C69.0093 179.724 69.2115 179.493 69.47 179.329C69.7302 179.165 70.0326 179.083 70.3773 179.083C70.722 179.083 71.0236 179.165 71.2821 179.329C71.5423 179.493 71.7445 179.724 71.8887 180.02C72.0345 180.317 72.1074 180.664 72.1074 181.062C72.1074 181.456 72.0345 181.801 71.8887 182.096C71.7445 182.391 71.5423 182.621 71.2821 182.785C71.0236 182.949 70.722 183.031 70.3773 183.031ZM70.3773 182.504C70.6392 182.504 70.8546 182.437 71.0236 182.302C71.1927 182.168 71.3178 181.992 71.399 181.773C71.4802 181.554 71.5208 181.317 71.5208 181.062C71.5208 180.807 71.4802 180.569 71.399 180.349C71.3178 180.128 71.1927 179.95 71.0236 179.814C70.8546 179.678 70.6392 179.61 70.3773 179.61C70.1155 179.61 69.9 179.678 69.731 179.814C69.562 179.95 69.4369 180.128 69.3557 180.349C69.2744 180.569 69.2338 180.807 69.2338 181.062C69.2338 181.317 69.2744 181.554 69.3557 181.773C69.4369 181.992 69.562 182.168 69.731 182.302C69.9 182.437 70.1155 182.504 70.3773 182.504ZM76.4134 183.031C76.0953 183.031 75.8144 182.95 75.5708 182.79C75.3272 182.627 75.1366 182.398 74.999 182.104C74.8615 181.807 74.7927 181.456 74.7927 181.052C74.7927 180.651 74.8615 180.303 74.999 180.008C75.1366 179.713 75.328 179.485 75.5732 179.324C75.8185 179.164 76.1019 179.083 76.4234 179.083C76.672 179.083 76.8683 179.125 77.0125 179.208C77.1584 179.289 77.2694 179.382 77.3456 179.486C77.4235 179.589 77.484 179.673 77.5271 179.74H77.5768V177.86H78.1634V182.951H77.5967V182.365H77.5271C77.484 182.434 77.4227 182.522 77.3431 182.628C77.2636 182.732 77.1501 182.826 77.0026 182.909C76.8551 182.99 76.6587 183.031 76.4134 183.031ZM76.493 182.504C76.7283 182.504 76.9272 182.442 77.0896 182.32C77.252 182.195 77.3754 182.024 77.46 181.805C77.5445 181.585 77.5867 181.33 77.5867 181.042C77.5867 180.757 77.5453 180.508 77.4625 180.294C77.3796 180.078 77.257 179.911 77.0946 179.792C76.9321 179.671 76.7316 179.61 76.493 179.61C76.2444 179.61 76.0373 179.674 75.8715 179.802C75.7075 179.928 75.584 180.099 75.5012 180.316C75.42 180.532 75.3794 180.774 75.3794 181.042C75.3794 181.314 75.4208 181.561 75.5036 181.783C75.5882 182.003 75.7125 182.179 75.8765 182.31C76.0422 182.439 76.2477 182.504 76.493 182.504ZM80.4429 183.041C80.201 183.041 79.9814 182.995 79.7842 182.904C79.587 182.811 79.4304 182.678 79.3144 182.504C79.1984 182.328 79.1404 182.116 79.1404 181.867C79.1404 181.649 79.1835 181.471 79.2696 181.335C79.3558 181.198 79.471 181.09 79.6152 181.012C79.7593 180.934 79.9184 180.876 80.0924 180.838C80.2681 180.798 80.4446 180.767 80.6219 180.744C80.8539 180.714 81.042 180.692 81.1862 180.677C81.332 180.66 81.4381 180.633 81.5044 180.595C81.5723 180.557 81.6063 180.49 81.6063 180.396V180.376C81.6063 180.131 81.5392 179.94 81.4049 179.804C81.2723 179.668 81.071 179.6 80.8009 179.6C80.5208 179.6 80.3012 179.662 80.1421 179.784C79.983 179.907 79.8712 180.038 79.8066 180.177L79.2497 179.978C79.3492 179.746 79.4817 179.566 79.6475 179.436C79.8148 179.305 79.9971 179.214 80.1943 179.163C80.3932 179.11 80.5888 179.083 80.781 179.083C80.9036 179.083 81.0445 179.098 81.2036 179.128C81.3643 179.156 81.5193 179.215 81.6684 179.305C81.8192 179.394 81.9443 179.529 82.0438 179.71C82.1432 179.89 82.1929 180.132 82.1929 180.436V182.951H81.6063V182.434H81.5764C81.5367 182.517 81.4704 182.606 81.3776 182.7C81.2848 182.795 81.1613 182.875 81.0072 182.941C80.8531 183.008 80.665 183.041 80.4429 183.041ZM80.5324 182.514C80.7644 182.514 80.96 182.468 81.1191 182.377C81.2798 182.286 81.4008 182.168 81.482 182.024C81.5648 181.88 81.6063 181.728 81.6063 181.569V181.032C81.5814 181.062 81.5267 181.089 81.4422 181.114C81.3594 181.137 81.2632 181.158 81.1539 181.176C81.0461 181.193 80.9409 181.208 80.8382 181.221C80.7371 181.233 80.655 181.243 80.5921 181.251C80.4396 181.271 80.2971 181.303 80.1645 181.348C80.0336 181.391 79.9275 181.456 79.8463 181.544C79.7668 181.63 79.727 181.748 79.727 181.897C79.727 182.101 79.8024 182.255 79.9532 182.36C80.1057 182.462 80.2987 182.514 80.5324 182.514ZM84.9242 179.133V179.63H82.9455V179.133H84.9242ZM83.5222 178.218H84.1088V181.857C84.1088 182.023 84.1329 182.147 84.1809 182.23C84.2307 182.311 84.2936 182.366 84.3699 182.394C84.4477 182.421 84.5298 182.434 84.616 182.434C84.6806 182.434 84.7336 182.431 84.775 182.424C84.8165 182.416 84.8496 182.409 84.8745 182.404L84.9938 182.931C84.954 182.946 84.8985 182.961 84.8272 182.976C84.756 182.993 84.6657 183.001 84.5563 183.001C84.3906 183.001 84.2282 182.965 84.0691 182.894C83.9116 182.823 83.7807 182.714 83.6763 182.568C83.5736 182.423 83.5222 182.239 83.5222 182.017V178.218ZM86.9302 183.041C86.6883 183.041 86.4687 182.995 86.2715 182.904C86.0743 182.811 85.9177 182.678 85.8017 182.504C85.6857 182.328 85.6277 182.116 85.6277 181.867C85.6277 181.649 85.6708 181.471 85.7569 181.335C85.8431 181.198 85.9583 181.09 86.1025 181.012C86.2466 180.934 86.4057 180.876 86.5797 180.838C86.7554 180.798 86.9319 180.767 87.1092 180.744C87.3412 180.714 87.5293 180.692 87.6735 180.677C87.8193 180.66 87.9254 180.633 87.9917 180.595C88.0596 180.557 88.0936 180.49 88.0936 180.396V180.376C88.0936 180.131 88.0265 179.94 87.8922 179.804C87.7597 179.668 87.5583 179.6 87.2882 179.6C87.0081 179.6 86.7885 179.662 86.6294 179.784C86.4704 179.907 86.3585 180.038 86.2939 180.177L85.737 179.978C85.8365 179.746 85.9691 179.566 86.1348 179.436C86.3021 179.305 86.4844 179.214 86.6816 179.163C86.8805 179.11 87.0761 179.083 87.2683 179.083C87.3909 179.083 87.5318 179.098 87.6909 179.128C87.8516 179.156 88.0066 179.215 88.1557 179.305C88.3065 179.394 88.4316 179.529 88.5311 179.71C88.6305 179.89 88.6802 180.132 88.6802 180.436V182.951H88.0936V182.434H88.0637C88.024 182.517 87.9577 182.606 87.8649 182.7C87.7721 182.795 87.6486 182.875 87.4945 182.941C87.3404 183.008 87.1523 183.041 86.9302 183.041ZM87.0197 182.514C87.2517 182.514 87.4473 182.468 87.6064 182.377C87.7671 182.286 87.8881 182.168 87.9693 182.024C88.0521 181.88 88.0936 181.728 88.0936 181.569V181.032C88.0687 181.062 88.014 181.089 87.9295 181.114C87.8467 181.137 87.7505 181.158 87.6412 181.176C87.5334 181.193 87.4282 181.208 87.3255 181.221C87.2244 181.233 87.1423 181.243 87.0794 181.251C86.9269 181.271 86.7844 181.303 86.6518 181.348C86.5209 181.391 86.4148 181.456 86.3336 181.544C86.2541 181.63 86.2143 181.748 86.2143 181.897C86.2143 182.101 86.2897 182.255 86.4405 182.36C86.593 182.462 86.786 182.514 87.0197 182.514ZM93.3802 179.133V179.63H91.4016V179.133H93.3802ZM91.9783 178.218H92.5649V181.857C92.5649 182.023 92.5889 182.147 92.637 182.23C92.6867 182.311 92.7497 182.366 92.8259 182.394C92.9038 182.421 92.9858 182.434 93.072 182.434C93.1366 182.434 93.1897 182.431 93.2311 182.424C93.2725 182.416 93.3057 182.409 93.3305 182.404L93.4498 182.931C93.4101 182.946 93.3546 182.961 93.2833 182.976C93.212 182.993 93.1217 183.001 93.0123 183.001C92.8466 183.001 92.6842 182.965 92.5251 182.894C92.3677 182.823 92.2368 182.714 92.1324 182.568C92.0296 182.423 91.9783 182.239 91.9783 182.017V178.218ZM95.7728 183.031C95.4281 183.031 95.1257 182.949 94.8655 182.785C94.607 182.621 94.4048 182.391 94.259 182.096C94.1148 181.801 94.0427 181.456 94.0427 181.062C94.0427 180.664 94.1148 180.317 94.259 180.02C94.4048 179.724 94.607 179.493 94.8655 179.329C95.1257 179.165 95.4281 179.083 95.7728 179.083C96.1175 179.083 96.4191 179.165 96.6777 179.329C96.9378 179.493 97.14 179.724 97.2842 180.02C97.43 180.317 97.5029 180.664 97.5029 181.062C97.5029 181.456 97.43 181.801 97.2842 182.096C97.14 182.391 96.9378 182.621 96.6777 182.785C96.4191 182.949 96.1175 183.031 95.7728 183.031ZM95.7728 182.504C96.0347 182.504 96.2501 182.437 96.4191 182.302C96.5882 182.168 96.7133 181.992 96.7945 181.773C96.8757 181.554 96.9163 181.317 96.9163 181.062C96.9163 180.807 96.8757 180.569 96.7945 180.349C96.7133 180.128 96.5882 179.95 96.4191 179.814C96.2501 179.678 96.0347 179.61 95.7728 179.61C95.511 179.61 95.2955 179.678 95.1265 179.814C94.9575 179.95 94.8324 180.128 94.7512 180.349C94.67 180.569 94.6294 180.807 94.6294 181.062C94.6294 181.317 94.67 181.554 94.7512 181.773C94.8324 181.992 94.9575 182.168 95.1265 182.302C95.2955 182.437 95.511 182.504 95.7728 182.504ZM103.072 179.988L102.545 180.137C102.512 180.049 102.463 179.964 102.398 179.881C102.335 179.797 102.249 179.727 102.14 179.672C102.03 179.618 101.89 179.59 101.719 179.59C101.486 179.59 101.291 179.644 101.135 179.752C100.981 179.858 100.904 179.993 100.904 180.157C100.904 180.303 100.957 180.418 101.063 180.503C101.169 180.587 101.335 180.658 101.56 180.714L102.127 180.853C102.469 180.936 102.723 181.063 102.89 181.233C103.058 181.403 103.141 181.62 103.141 181.887C103.141 182.106 103.078 182.302 102.952 182.474C102.828 182.646 102.654 182.782 102.43 182.882C102.207 182.981 101.947 183.031 101.65 183.031C101.26 183.031 100.938 182.946 100.683 182.777C100.428 182.608 100.266 182.361 100.198 182.036L100.755 181.897C100.808 182.103 100.908 182.257 101.056 182.36C101.205 182.462 101.4 182.514 101.64 182.514C101.913 182.514 102.13 182.456 102.291 182.34C102.454 182.222 102.535 182.081 102.535 181.917C102.535 181.785 102.488 181.673 102.396 181.584C102.303 181.493 102.16 181.425 101.968 181.38L101.332 181.231C100.982 181.148 100.725 181.02 100.561 180.846C100.399 180.67 100.317 180.45 100.317 180.187C100.317 179.972 100.378 179.781 100.499 179.615C100.622 179.45 100.788 179.319 100.999 179.225C101.211 179.131 101.451 179.083 101.719 179.083C102.097 179.083 102.394 179.166 102.609 179.332C102.826 179.498 102.981 179.716 103.072 179.988ZM104.611 180.654V182.951H104.024V177.86H104.611V179.73H104.661C104.75 179.532 104.885 179.376 105.063 179.26C105.244 179.142 105.484 179.083 105.784 179.083C106.045 179.083 106.272 179.135 106.468 179.24C106.664 179.343 106.815 179.501 106.923 179.715C107.032 179.927 107.087 180.197 107.087 180.525V182.951H106.5V180.565C106.5 180.262 106.422 180.027 106.264 179.861C106.108 179.694 105.892 179.61 105.615 179.61C105.423 179.61 105.251 179.651 105.098 179.732C104.947 179.813 104.828 179.932 104.74 180.088C104.654 180.243 104.611 180.432 104.611 180.654ZM109.711 183.031C109.367 183.031 109.064 182.949 108.804 182.785C108.545 182.621 108.343 182.391 108.197 182.096C108.053 181.801 107.981 181.456 107.981 181.062C107.981 180.664 108.053 180.317 108.197 180.02C108.343 179.724 108.545 179.493 108.804 179.329C109.064 179.165 109.367 179.083 109.711 179.083C110.056 179.083 110.358 179.165 110.616 179.329C110.876 179.493 111.078 179.724 111.223 180.02C111.368 180.317 111.441 180.664 111.441 181.062C111.441 181.456 111.368 181.801 111.223 182.096C111.078 182.391 110.876 182.621 110.616 182.785C110.358 182.949 110.056 183.031 109.711 183.031ZM109.711 182.504C109.973 182.504 110.189 182.437 110.358 182.302C110.527 182.168 110.652 181.992 110.733 181.773C110.814 181.554 110.855 181.317 110.855 181.062C110.855 180.807 110.814 180.569 110.733 180.349C110.652 180.128 110.527 179.95 110.358 179.814C110.189 179.678 109.973 179.61 109.711 179.61C109.449 179.61 109.234 179.678 109.065 179.814C108.896 179.95 108.771 180.128 108.69 180.349C108.608 180.569 108.568 180.807 108.568 181.062C108.568 181.317 108.608 181.554 108.69 181.773C108.771 181.992 108.896 182.168 109.065 182.302C109.234 182.437 109.449 182.504 109.711 182.504ZM113.072 182.951L111.909 179.133H112.525L113.351 182.056H113.39L114.206 179.133H114.832L115.637 182.046H115.677L116.502 179.133H117.119L115.956 182.951H115.379L114.544 180.018H114.484L113.649 182.951H113.072ZM120.241 184.383C120.142 184.383 120.053 184.375 119.975 184.358C119.897 184.343 119.843 184.328 119.814 184.313L119.963 183.796C120.105 183.833 120.231 183.846 120.341 183.836C120.45 183.826 120.547 183.777 120.631 183.689C120.718 183.603 120.796 183.463 120.868 183.269L120.977 182.971L119.565 179.133H120.201L121.255 182.176H121.295L122.349 179.133H122.985L121.365 183.508C121.292 183.705 121.201 183.868 121.094 183.998C120.986 184.129 120.861 184.226 120.718 184.289C120.578 184.352 120.418 184.383 120.241 184.383ZM125.174 183.031C124.829 183.031 124.527 182.949 124.267 182.785C124.008 182.621 123.806 182.391 123.66 182.096C123.516 181.801 123.444 181.456 123.444 181.062C123.444 180.664 123.516 180.317 123.66 180.02C123.806 179.724 124.008 179.493 124.267 179.329C124.527 179.165 124.829 179.083 125.174 179.083C125.519 179.083 125.82 179.165 126.079 179.329C126.339 179.493 126.541 179.724 126.686 180.02C126.831 180.317 126.904 180.664 126.904 181.062C126.904 181.456 126.831 181.801 126.686 182.096C126.541 182.391 126.339 182.621 126.079 182.785C125.82 182.949 125.519 183.031 125.174 183.031ZM125.174 182.504C125.436 182.504 125.651 182.437 125.82 182.302C125.99 182.168 126.115 181.992 126.196 181.773C126.277 181.554 126.318 181.317 126.318 181.062C126.318 180.807 126.277 180.569 126.196 180.349C126.115 180.128 125.99 179.95 125.82 179.814C125.651 179.678 125.436 179.61 125.174 179.61C124.912 179.61 124.697 179.678 124.528 179.814C124.359 179.95 124.234 180.128 124.153 180.349C124.071 180.569 124.031 180.807 124.031 181.062C124.031 181.317 124.071 181.554 124.153 181.773C124.234 181.992 124.359 182.168 124.528 182.302C124.697 182.437 124.912 182.504 125.174 182.504ZM130.206 181.39V179.133H130.793V182.951H130.206V182.305H130.166C130.077 182.499 129.938 182.664 129.749 182.8C129.56 182.934 129.321 183.001 129.033 183.001C128.794 183.001 128.582 182.949 128.396 182.844C128.211 182.738 128.065 182.579 127.959 182.367C127.853 182.153 127.8 181.884 127.8 181.559V179.133H128.386V181.519C128.386 181.798 128.464 182.02 128.62 182.186C128.778 182.351 128.978 182.434 129.222 182.434C129.368 182.434 129.516 182.397 129.667 182.322C129.819 182.248 129.947 182.133 130.049 181.979C130.154 181.825 130.206 181.629 130.206 181.39ZM133.836 182.951V179.133H134.403V179.71H134.442C134.512 179.521 134.638 179.367 134.82 179.25C135.003 179.132 135.208 179.073 135.437 179.073C135.48 179.073 135.534 179.074 135.598 179.076C135.663 179.077 135.712 179.08 135.745 179.083V179.68C135.725 179.675 135.68 179.667 135.608 179.657C135.539 179.646 135.465 179.64 135.387 179.64C135.201 179.64 135.036 179.679 134.89 179.757C134.746 179.833 134.631 179.939 134.547 180.075C134.464 180.209 134.423 180.363 134.423 180.535V182.951H133.836ZM136.44 182.951V179.133H137.027V182.951H136.44ZM136.739 178.497C136.624 178.497 136.526 178.458 136.443 178.38C136.362 178.302 136.321 178.208 136.321 178.099C136.321 177.99 136.362 177.896 136.443 177.818C136.526 177.74 136.624 177.701 136.739 177.701C136.853 177.701 136.951 177.74 137.032 177.818C137.115 177.896 137.156 177.99 137.156 178.099C137.156 178.208 137.115 178.302 137.032 178.38C136.951 178.458 136.853 178.497 136.739 178.497ZM139.643 184.463C139.359 184.463 139.116 184.426 138.912 184.353C138.708 184.282 138.538 184.187 138.402 184.07C138.268 183.954 138.161 183.829 138.082 183.697L138.549 183.369C138.602 183.438 138.669 183.518 138.75 183.607C138.832 183.699 138.943 183.777 139.083 183.844C139.226 183.912 139.412 183.945 139.643 183.945C139.951 183.945 140.205 183.871 140.406 183.722C140.606 183.573 140.707 183.339 140.707 183.021V182.245H140.657C140.614 182.315 140.553 182.401 140.473 182.504C140.395 182.605 140.282 182.695 140.135 182.775C139.989 182.853 139.792 182.892 139.543 182.892C139.235 182.892 138.958 182.819 138.713 182.673C138.469 182.527 138.276 182.315 138.134 182.036C137.993 181.758 137.923 181.42 137.923 181.022C137.923 180.631 137.991 180.291 138.129 180.001C138.266 179.709 138.458 179.483 138.703 179.324C138.948 179.164 139.232 179.083 139.553 179.083C139.802 179.083 139.999 179.125 140.145 179.208C140.292 179.289 140.405 179.382 140.483 179.486C140.563 179.589 140.624 179.673 140.667 179.74H140.727V179.133H141.293V183.061C141.293 183.389 141.219 183.655 141.07 183.861C140.922 184.068 140.723 184.22 140.473 184.316C140.224 184.414 139.948 184.463 139.643 184.463ZM139.623 182.365C139.858 182.365 140.057 182.311 140.219 182.203C140.382 182.095 140.505 181.94 140.59 181.738C140.674 181.536 140.717 181.294 140.717 181.012C140.717 180.737 140.675 180.494 140.592 180.284C140.509 180.073 140.387 179.909 140.224 179.789C140.062 179.67 139.862 179.61 139.623 179.61C139.374 179.61 139.167 179.673 139.001 179.799C138.837 179.925 138.714 180.094 138.631 180.306C138.55 180.518 138.509 180.754 138.509 181.012C138.509 181.277 138.551 181.512 138.634 181.716C138.718 181.918 138.842 182.077 139.006 182.193C139.172 182.307 139.378 182.365 139.623 182.365ZM142.954 180.654V182.951H142.367V177.86H142.954V179.73H143.004C143.093 179.532 143.227 179.376 143.406 179.26C143.587 179.142 143.827 179.083 144.127 179.083C144.387 179.083 144.615 179.135 144.811 179.24C145.006 179.343 145.158 179.501 145.266 179.715C145.375 179.927 145.43 180.197 145.43 180.525V182.951H144.843V180.565C144.843 180.262 144.764 180.027 144.607 179.861C144.451 179.694 144.235 179.61 143.958 179.61C143.766 179.61 143.594 179.651 143.441 179.732C143.29 179.813 143.171 179.932 143.083 180.088C142.997 180.243 142.954 180.432 142.954 180.654ZM148.163 179.133V179.63H146.185V179.133H148.163ZM146.761 178.218H147.348V181.857C147.348 182.023 147.372 182.147 147.42 182.23C147.47 182.311 147.533 182.366 147.609 182.394C147.687 182.421 147.769 182.434 147.855 182.434C147.92 182.434 147.973 182.431 148.014 182.424C148.056 182.416 148.089 182.409 148.114 182.404L148.233 182.931C148.193 182.946 148.138 182.961 148.067 182.976C147.995 182.993 147.905 183.001 147.796 183.001C147.63 183.001 147.467 182.965 147.308 182.894C147.151 182.823 147.02 182.714 146.916 182.568C146.813 182.423 146.761 182.239 146.761 182.017V178.218ZM151.601 180.654V182.951H151.015V179.133H151.581V179.73H151.631C151.721 179.536 151.857 179.38 152.039 179.262C152.221 179.143 152.456 179.083 152.745 179.083C153.003 179.083 153.229 179.136 153.423 179.242C153.617 179.347 153.768 179.506 153.876 179.72C153.984 179.932 154.037 180.2 154.037 180.525V182.951H153.451V180.565C153.451 180.265 153.373 180.031 153.217 179.864C153.061 179.695 152.848 179.61 152.576 179.61C152.388 179.61 152.221 179.651 152.074 179.732C151.928 179.813 151.813 179.932 151.728 180.088C151.644 180.243 151.601 180.432 151.601 180.654ZM156.661 183.031C156.316 183.031 156.013 182.949 155.753 182.785C155.495 182.621 155.293 182.391 155.147 182.096C155.002 181.801 154.93 181.456 154.93 181.062C154.93 180.664 155.002 180.317 155.147 180.02C155.293 179.724 155.495 179.493 155.753 179.329C156.013 179.165 156.316 179.083 156.661 179.083C157.005 179.083 157.307 179.165 157.565 179.329C157.826 179.493 158.028 179.724 158.172 180.02C158.318 180.317 158.391 180.664 158.391 181.062C158.391 181.456 158.318 181.801 158.172 182.096C158.028 182.391 157.826 182.621 157.565 182.785C157.307 182.949 157.005 183.031 156.661 183.031ZM156.661 182.504C156.922 182.504 157.138 182.437 157.307 182.302C157.476 182.168 157.601 181.992 157.682 181.773C157.763 181.554 157.804 181.317 157.804 181.062C157.804 180.807 157.763 180.569 157.682 180.349C157.601 180.128 157.476 179.95 157.307 179.814C157.138 179.678 156.922 179.61 156.661 179.61C156.399 179.61 156.183 179.678 156.014 179.814C155.845 179.95 155.72 180.128 155.639 180.349C155.558 180.569 155.517 180.807 155.517 181.062C155.517 181.317 155.558 181.554 155.639 181.773C155.72 181.992 155.845 182.168 156.014 182.302C156.183 182.437 156.399 182.504 156.661 182.504ZM160.021 182.951L158.858 179.133H159.474L160.3 182.056H160.339L161.155 179.133H161.781L162.587 182.046H162.626L163.452 179.133H164.068L162.905 182.951H162.328L161.493 180.018H161.433L160.598 182.951H160.021Z" fill="#A0A0A0"/>
<path d="M76.215 20.041V24.341" stroke="#CFCFCF" stroke-width="0.85" stroke-linecap="round" stroke-linejoin="round"/>
<path d="M74.065 22.1914H78.365" stroke="#CFCFCF" stroke-width="0.85" stroke-linecap="round" stroke-linejoin="round"/>
<path d="M157.795 105.75V110.05" stroke="#CFCFCF" stroke-width="0.85" stroke-linecap="round" stroke-linejoin="round"/>
<path d="M155.645 107.9H159.945" stroke="#CFCFCF" stroke-width="0.85" stroke-linecap="round" stroke-linejoin="round"/>
<path d="M43.725 87.1807C44.2662 87.1807 44.705 86.7419 44.705 86.2007C44.705 85.6595 44.2662 85.2207 43.725 85.2207C43.1838 85.2207 42.745 85.6595 42.745 86.2007C42.745 86.7419 43.1838 87.1807 43.725 87.1807Z" fill="#CFCFCF"/>
<path d="M127.165 24.4815C127.706 24.4815 128.145 24.0427 128.145 23.5015C128.145 22.9602 127.706 22.5215 127.165 22.5215C126.624 22.5215 126.185 22.9602 126.185 23.5015C126.185 24.0427 126.624 24.4815 127.165 24.4815Z" fill="#CFCFCF"/>
<path d="M100.005 127.351C120.274 127.351 136.705 126.33 136.705 125.071C136.705 123.812 120.274 122.791 100.005 122.791C79.7361 122.791 63.305 123.812 63.305 125.071C63.305 126.33 79.7361 127.351 100.005 127.351Z" fill="#F2F2F2"/>
<path d="M71.735 31.7207H125.035C126.361 31.7207 127.633 32.2475 128.571 33.1852C129.508 34.1229 130.035 35.3946 130.035 36.7207V100.131C130.035 101.457 129.508 102.729 128.571 103.666C127.633 104.604 126.361 105.131 125.035 105.131H64.905C63.5789 105.131 62.3072 104.604 61.3695 103.666C60.4318 102.729 59.905 101.457 59.905 100.131V43.6707L71.735 31.7207Z" fill="white" stroke="#BABABA" stroke-linecap="round" stroke-linejoin="round"/>
<path d="M129.795 62.6211H74.835V105.741H129.795V62.6211Z" fill="#D2D2D2"/>
<path d="M59.905 43.6707H69.595C70.1635 43.6681 70.7078 43.4404 71.1088 43.0375C71.5099 42.6345 71.735 42.0892 71.735 41.5207V31.7207L59.905 43.6707Z" fill="white" stroke="#BABABA" stroke-linecap="round" stroke-linejoin="round"/>
<path d="M129.525 48.8496H75.165C73.0498 48.8496 71.335 50.5644 71.335 52.6796V64.3096C71.335 66.4249 73.0498 68.1396 75.165 68.1396H129.525C131.64 68.1396 133.355 66.4249 133.355 64.3096V52.6796C133.355 50.5644 131.64 48.8496 129.525 48.8496Z" fill="white" stroke="#BABABA" stroke-linecap="round" stroke-linejoin="round"/>
<path d="M81.895 61.8597C83.7396 61.8597 85.235 60.3643 85.235 58.5197C85.235 56.6751 83.7396 55.1797 81.895 55.1797C80.0504 55.1797 78.555 56.6751 78.555 58.5197C78.555 60.3643 80.0504 61.8597 81.895 61.8597Z" fill="#D2D2D2"/>
<path d="M92.395 61.8597C94.2396 61.8597 95.735 60.3643 95.735 58.5197C95.735 56.6751 94.2396 55.1797 92.395 55.1797C90.5504 55.1797 89.055 56.6751 89.055 58.5197C89.055 60.3643 90.5504 61.8597 92.395 61.8597Z" fill="#D2D2D2"/>
<path d="M102.885 61.8597C104.73 61.8597 106.225 60.3643 106.225 58.5197C106.225 56.6751 104.73 55.1797 102.885 55.1797C101.04 55.1797 99.545 56.6751 99.545 58.5197C99.545 60.3643 101.04 61.8597 102.885 61.8597Z" fill="#D2D2D2"/>
<path d="M129.525 70.2305H75.165C73.0498 70.2305 71.335 71.9452 71.335 74.0605V85.6905C71.335 87.8057 73.0498 89.5205 75.165 89.5205H129.525C131.64 89.5205 133.355 87.8057 133.355 85.6905V74.0605C133.355 71.9452 131.64 70.2305 129.525 70.2305Z" fill="#F1F1F1" stroke="#BABABA" stroke-linecap="round" stroke-linejoin="round"/>
<path d="M81.895 83.2503C83.7396 83.2503 85.235 81.7549 85.235 79.9103C85.235 78.0657 83.7396 76.5703 81.895 76.5703C80.0504 76.5703 78.555 78.0657 78.555 79.9103C78.555 81.7549 80.0504 83.2503 81.895 83.2503Z" fill="#D2D2D2"/>
<path d="M92.395 83.2503C94.2396 83.2503 95.735 81.7549 95.735 79.9103C95.735 78.0657 94.2396 76.5703 92.395 76.5703C90.5504 76.5703 89.055 78.0657 89.055 79.9103C89.055 81.7549 90.5504 83.2503 92.395 83.2503Z" fill="#D2D2D2"/>
<path d="M102.885 83.2503C104.73 83.2503 106.225 81.7549 106.225 79.9103C106.225 78.0657 104.73 76.5703 102.885 76.5703C101.04 76.5703 99.545 78.0657 99.545 79.9103C99.545 81.7549 101.04 83.2503 102.885 83.2503Z" fill="#D2D2D2"/>
<path d="M129.525 91.6211H75.165C73.0498 91.6211 71.335 93.3358 71.335 95.4511V107.081C71.335 109.196 73.0498 110.911 75.165 110.911H129.525C131.64 110.911 133.355 109.196 133.355 107.081V95.4511C133.355 93.3358 131.64 91.6211 129.525 91.6211Z" fill="white" stroke="#BABABA" stroke-linecap="round" stroke-linejoin="round"/>
<path d="M81.895 104.631C83.7396 104.631 85.235 103.136 85.235 101.291C85.235 99.4465 83.7396 97.9512 81.895 97.9512C80.0504 97.9512 78.555 99.4465 78.555 101.291C78.555 103.136 80.0504 104.631 81.895 104.631Z" fill="#D2D2D2"/>
<path d="M92.395 104.631C94.2396 104.631 95.735 103.136 95.735 101.291C95.735 99.4465 94.2396 97.9512 92.395 97.9512C90.5504 97.9512 89.055 99.4465 89.055 101.291C89.055 103.136 90.5504 104.631 92.395 104.631Z" fill="#D2D2D2"/>
<path d="M102.885 104.631C104.73 104.631 106.225 103.136 106.225 101.291C106.225 99.4465 104.73 97.9512 102.885 97.9512C101.04 97.9512 99.545 99.4465 99.545 101.291C99.545 103.136 101.04 104.631 102.885 104.631Z" fill="#D2D2D2"/>
<path d="M134.445 73.21C145.894 73.21 155.175 63.9289 155.175 52.48C155.175 41.0311 145.894 31.75 134.445 31.75C122.996 31.75 113.715 41.0311 113.715 52.48C113.715 63.9289 122.996 73.21 134.445 73.21Z" fill="white" stroke="#BABABA" stroke-linecap="round" stroke-linejoin="round"/>
<path d="M149.165 67.5215L154.685 73.0415" stroke="#BABABA" stroke-linecap="round" stroke-linejoin="round"/>
<path d="M154.068 70.3605L152.355 72.1531C151.584 72.9596 151.612 74.2382 152.419 75.0091L167.31 89.2439C168.116 90.0148 169.395 89.986 170.166 89.1796L171.879 87.3869C172.65 86.5805 172.621 85.3018 171.815 84.5309L156.924 70.2962C156.118 69.5253 154.839 69.5541 154.068 70.3605Z" fill="white" stroke="#BABABA" stroke-linecap="round" stroke-linejoin="round"/>
</g>
</g>
<defs>
<filter id="filter0_d_3417_86355" x="0.825012" y="0.310547" width="198.35" height="243.381" filterUnits="userSpaceOnUse" color-interpolation-filters="sRGB">
<feFlood flood-opacity="0" result="BackgroundImageFix"/>
<feColorMatrix in="SourceAlpha" type="matrix" values="0 0 0 0 0 0 0 0 0 0 0 0 0 0 0 0 0 0 127 0" result="hardAlpha"/>
<feOffset dy="14"/>
<feGaussianBlur stdDeviation="7"/>
<feComposite in2="hardAlpha" operator="out"/>
<feColorMatrix type="matrix" values="0 0 0 0 0 0 0 0 0 0 0 0 0 0 0 0 0 0 0.08 0"/>
<feBlend mode="normal" in2="BackgroundImageFix" result="effect1_dropShadow_3417_86355"/>
<feBlend mode="normal" in="SourceGraphic" in2="effect1_dropShadow_3417_86355" result="shape"/>
</filter>
<clipPath id="clip0_3417_86355">
<rect x="14.825" y="0.310547" width="170.35" height="215.38" rx="8" fill="white"/>
</clipPath>
</defs>
</svg>
