<svg width="324" height="226" viewBox="0 0 324 226" fill="none" xmlns="http://www.w3.org/2000/svg">
<g clip-path="url(#clip0_4210_21138)">
<rect y="0.662109" width="324" height="224.663" rx="8" fill="white"/>
<mask id="path-3-inside-1_4210_21138" fill="white">
<path d="M0 0.662109H324V62.6621H0V0.662109Z"/>
</mask>
<path d="M324 61.6621H0V63.6621H324V61.6621Z" fill="#DFE1E6" mask="url(#path-3-inside-1_4210_21138)"/>
<g filter="url(#filter0_d_4210_21138)">
<rect x="19.5" y="16.1621" width="31" height="31" rx="8.5" stroke="#EEEEEE" shape-rendering="crispEdges"/>
<g clip-path="url(#clip1_4210_21138)">
<path fill-rule="evenodd" clip-rule="evenodd" d="M37.0415 27.7754C36.006 27.7754 35.1665 28.6149 35.1665 29.6504C35.1665 30.686 36.006 31.5254 37.0415 31.5254C38.0771 31.5254 38.9165 30.686 38.9165 29.6504C38.9165 28.6149 38.0771 27.7754 37.0415 27.7754ZM33.9165 29.6504C33.9165 27.9245 35.3156 26.5254 37.0415 26.5254C38.7674 26.5254 40.1665 27.9245 40.1665 29.6504C40.1665 30.475 39.8471 31.225 39.3254 31.7834C40.4759 32.1581 41.365 32.9 41.933 33.7335C42.1274 34.0187 42.0537 34.4075 41.7684 34.6019C41.4833 34.7963 41.0944 34.7226 40.9 34.4373C40.2902 33.5425 39.1776 32.7754 37.6665 32.7754C35.2703 32.7754 33.9165 34.6968 33.9165 35.9004C33.9165 36.2456 33.6367 36.5254 33.2915 36.5254C32.9463 36.5254 32.6665 36.2456 32.6665 35.9004C32.6665 35.4679 32.7656 35.0066 32.9545 34.552C32.9064 34.5211 32.8617 34.4831 32.8221 34.438C32.309 33.8543 31.5129 33.4004 30.479 33.4004C29.4452 33.4004 28.649 33.8543 28.136 34.438C27.9081 34.6973 27.5132 34.7227 27.2539 34.4948C26.9946 34.267 26.9692 33.8721 27.1971 33.6128C27.5472 33.2145 27.9902 32.8606 28.5148 32.6008C27.9914 32.0901 27.6665 31.377 27.6665 30.5879C27.6665 29.0346 28.9257 27.7754 30.479 27.7754C32.0323 27.7754 33.2915 29.0346 33.2915 30.5879C33.2915 31.377 32.9666 32.0901 32.4432 32.6008C32.8947 32.8245 33.2858 33.1176 33.6092 33.449C34.0115 32.9416 34.5344 32.4868 35.1616 32.147C34.4054 31.5766 33.9165 30.6706 33.9165 29.6504ZM28.9165 30.5879C28.9165 29.7249 29.6161 29.0254 30.479 29.0254C31.342 29.0254 32.0415 29.7249 32.0415 30.5879C32.0415 31.4508 31.342 32.1504 30.479 32.1504C29.6161 32.1504 28.9165 31.4508 28.9165 30.5879Z" fill="black"/>
</g>
</g>
<path d="M65.625 29.0826C65.5644 28.5447 65.3144 28.128 64.875 27.8326C64.4356 27.5333 63.8826 27.3837 63.2159 27.3837C62.7386 27.3837 62.3258 27.4595 61.9773 27.611C61.6288 27.7587 61.358 27.9632 61.1648 28.2246C60.9754 28.4822 60.8807 28.7757 60.8807 29.1053C60.8807 29.3818 60.9451 29.6204 61.0739 29.8212C61.2064 30.022 61.3788 30.1905 61.5909 30.3269C61.8068 30.4595 62.0379 30.5712 62.2841 30.6621C62.5303 30.7492 62.767 30.8212 62.9943 30.878L64.1307 31.1735C64.5019 31.2644 64.8826 31.3875 65.2727 31.5428C65.6629 31.6981 66.0246 31.9026 66.358 32.1564C66.6913 32.4102 66.9602 32.7246 67.1648 33.0996C67.3731 33.4746 67.4773 33.9235 67.4773 34.4462C67.4773 35.1053 67.3068 35.6905 66.9659 36.2019C66.6288 36.7132 66.1383 37.1167 65.4943 37.4121C64.8542 37.7076 64.0795 37.8553 63.1705 37.8553C62.2992 37.8553 61.5455 37.717 60.9091 37.4405C60.2727 37.164 59.7746 36.772 59.4148 36.2644C59.0549 35.753 58.8561 35.147 58.8182 34.4462H60.5795C60.6136 34.8667 60.75 35.217 60.9886 35.4973C61.2311 35.7739 61.5398 35.9803 61.9148 36.1167C62.2936 36.2492 62.7083 36.3155 63.1591 36.3155C63.6553 36.3155 64.0966 36.2379 64.483 36.0826C64.8731 35.9235 65.1799 35.7038 65.4034 35.4235C65.6269 35.1394 65.7386 34.8079 65.7386 34.4292C65.7386 34.0845 65.6402 33.8023 65.4432 33.5826C65.25 33.3629 64.9867 33.181 64.6534 33.0371C64.3239 32.8932 63.9508 32.7663 63.5341 32.6564L62.1591 32.2814C61.2273 32.0276 60.4886 31.6545 59.9432 31.1621C59.4015 30.6697 59.1307 30.0182 59.1307 29.2076C59.1307 28.5371 59.3125 27.9519 59.6761 27.4519C60.0398 26.9519 60.5322 26.5636 61.1534 26.2871C61.7746 26.0068 62.4754 25.8667 63.2557 25.8667C64.0436 25.8667 64.7386 26.0049 65.3409 26.2814C65.947 26.5579 66.4242 26.9386 66.7727 27.4235C67.1212 27.9045 67.303 28.4576 67.3182 29.0826H65.625ZM72.9391 37.8382C72.0944 37.8382 71.3671 37.647 70.7572 37.2644C70.1512 36.878 69.6853 36.3458 69.3595 35.6678C69.0338 34.9898 68.8709 34.2132 68.8709 33.3382C68.8709 32.4519 69.0375 31.6697 69.3709 30.9917C69.7042 30.3098 70.1739 29.7776 70.78 29.3951C71.386 29.0125 72.1 28.8212 72.922 28.8212C73.5849 28.8212 74.1758 28.9443 74.6947 29.1905C75.2137 29.4329 75.6322 29.7739 75.9504 30.2132C76.2724 30.6526 76.4637 31.1659 76.5243 31.753H74.8709C74.78 31.3439 74.5716 30.9917 74.2459 30.6962C73.9239 30.4007 73.4921 30.253 72.9504 30.253C72.4769 30.253 72.0622 30.378 71.7061 30.628C71.3538 30.8742 71.0792 31.2265 70.8822 31.6848C70.6853 32.1394 70.5868 32.6773 70.5868 33.2985C70.5868 33.9348 70.6834 34.4841 70.8766 34.9462C71.0697 35.4083 71.3425 35.7663 71.6947 36.0201C72.0508 36.2739 72.4694 36.4007 72.9504 36.4007C73.2724 36.4007 73.5641 36.342 73.8254 36.2246C74.0906 36.1034 74.3122 35.931 74.4902 35.7076C74.672 35.4841 74.7989 35.2151 74.8709 34.9007H76.5243C76.4637 35.4651 76.28 35.9689 75.9731 36.4121C75.6663 36.8553 75.2553 37.2038 74.7402 37.4576C74.2288 37.7114 73.6285 37.8382 72.9391 37.8382ZM79.8639 32.4803V37.6621H78.165V26.0257H79.8412V30.3553H79.9491C80.1537 29.8856 80.4662 29.5125 80.8866 29.236C81.3071 28.9595 81.8563 28.8212 82.5344 28.8212C83.1328 28.8212 83.6556 28.9443 84.1025 29.1905C84.5533 29.4367 84.9018 29.8042 85.148 30.2928C85.398 30.7776 85.523 31.3837 85.523 32.111V37.6621H83.8241V32.3155C83.8241 31.6754 83.6594 31.1792 83.3298 30.8269C83.0003 30.4708 82.5419 30.2928 81.9548 30.2928C81.5533 30.2928 81.1935 30.378 80.8753 30.5485C80.5609 30.7189 80.3128 30.9689 80.131 31.2985C79.9529 31.6242 79.8639 32.0182 79.8639 32.4803ZM91.3754 37.8382C90.5156 37.8382 89.775 37.6545 89.1538 37.2871C88.5364 36.9159 88.0591 36.3951 87.722 35.7246C87.3887 35.0504 87.222 34.2606 87.222 33.3553C87.222 32.4614 87.3887 31.6735 87.722 30.9917C88.0591 30.3098 88.5288 29.7776 89.1311 29.3951C89.7372 29.0125 90.4455 28.8212 91.2561 28.8212C91.7485 28.8212 92.2258 28.9026 92.6879 29.0655C93.15 29.2284 93.5648 29.4841 93.9322 29.8326C94.2997 30.181 94.5894 30.6337 94.8015 31.1905C95.0137 31.7435 95.1197 32.4159 95.1197 33.2076V33.8098H88.1822V32.5371H93.455C93.455 32.0901 93.364 31.6943 93.1822 31.3496C93.0004 31.0011 92.7447 30.7265 92.4152 30.5257C92.0894 30.325 91.7068 30.2246 91.2675 30.2246C90.7902 30.2246 90.3735 30.342 90.0175 30.5769C89.6652 30.8079 89.3925 31.111 89.1993 31.486C89.0099 31.8572 88.9152 32.2606 88.9152 32.6962V33.6905C88.9152 34.2739 89.0175 34.7701 89.222 35.1792C89.4303 35.5882 89.7201 35.9007 90.0913 36.1167C90.4625 36.3288 90.8962 36.4348 91.3925 36.4348C91.7144 36.4348 92.008 36.3894 92.2731 36.2985C92.5383 36.2038 92.7675 36.0636 92.9606 35.878C93.1538 35.6924 93.3015 35.4632 93.4038 35.1905L95.0118 35.4803C94.883 35.9538 94.6519 36.3685 94.3186 36.7246C93.989 37.0769 93.5743 37.3515 93.0743 37.5485C92.5781 37.7417 92.0118 37.8382 91.3754 37.8382ZM100.096 37.8326C99.3912 37.8326 98.7624 37.6526 98.2094 37.2928C97.6601 36.9292 97.2283 36.4121 96.9139 35.7417C96.6033 35.0674 96.448 34.2587 96.448 33.3155C96.448 32.3723 96.6052 31.5655 96.9196 30.8951C97.2378 30.2246 97.6734 29.7114 98.2264 29.3553C98.7794 28.9992 99.4063 28.8212 100.107 28.8212C100.649 28.8212 101.084 28.9121 101.414 29.0939C101.747 29.272 102.005 29.4803 102.187 29.7189C102.372 29.9576 102.516 30.1678 102.618 30.3496H102.721V26.0257H104.42V37.6621H102.76V36.3042H102.618C102.516 36.4898 102.368 36.7019 102.175 36.9405C101.986 37.1792 101.725 37.3875 101.391 37.5655C101.058 37.7435 100.626 37.8326 100.096 37.8326ZM100.471 36.3837C100.959 36.3837 101.372 36.2549 101.709 35.9973C102.05 35.736 102.308 35.3742 102.482 34.9121C102.66 34.45 102.749 33.9121 102.749 33.2985C102.749 32.6924 102.662 32.1621 102.488 31.7076C102.314 31.253 102.058 30.8989 101.721 30.6451C101.384 30.3913 100.967 30.2644 100.471 30.2644C99.9594 30.2644 99.5332 30.397 99.1923 30.6621C98.8514 30.9273 98.5938 31.289 98.4196 31.7473C98.2491 32.2057 98.1639 32.7227 98.1639 33.2985C98.1639 33.8818 98.251 34.4064 98.4253 34.8723C98.5995 35.3382 98.8571 35.7076 99.198 35.9803C99.5427 36.2492 99.9669 36.3837 100.471 36.3837ZM112.197 34.0428V28.9348H113.901V37.6621H112.231V36.1507H112.14C111.939 36.6167 111.617 37.0049 111.174 37.3155C110.735 37.6223 110.187 37.7757 109.532 37.7757C108.971 37.7757 108.475 37.6526 108.043 37.4064C107.615 37.1564 107.278 36.7871 107.032 36.2985C106.79 35.8098 106.668 35.2057 106.668 34.486V28.9348H108.367V34.2814C108.367 34.8761 108.532 35.3496 108.861 35.7019C109.191 36.0542 109.619 36.2303 110.146 36.2303C110.464 36.2303 110.78 36.1507 111.094 35.9917C111.413 35.8326 111.676 35.592 111.884 35.2701C112.096 34.9481 112.2 34.539 112.197 34.0428ZM117.707 26.0257V37.6621H116.008V26.0257H117.707ZM123.578 37.8382C122.718 37.8382 121.977 37.6545 121.356 37.2871C120.739 36.9159 120.261 36.3951 119.924 35.7246C119.591 35.0504 119.424 34.2606 119.424 33.3553C119.424 32.4614 119.591 31.6735 119.924 30.9917C120.261 30.3098 120.731 29.7776 121.333 29.3951C121.939 29.0125 122.648 28.8212 123.458 28.8212C123.951 28.8212 124.428 28.9026 124.89 29.0655C125.352 29.2284 125.767 29.4841 126.134 29.8326C126.502 30.181 126.792 30.6337 127.004 31.1905C127.216 31.7435 127.322 32.4159 127.322 33.2076V33.8098H120.384V32.5371H125.657C125.657 32.0901 125.566 31.6943 125.384 31.3496C125.203 31.0011 124.947 30.7265 124.617 30.5257C124.292 30.325 123.909 30.2246 123.47 30.2246C122.992 30.2246 122.576 30.342 122.22 30.5769C121.867 30.8079 121.595 31.111 121.402 31.486C121.212 31.8572 121.117 32.2606 121.117 32.6962V33.6905C121.117 34.2739 121.22 34.7701 121.424 35.1792C121.633 35.5882 121.922 35.9007 122.294 36.1167C122.665 36.3288 123.098 36.4348 123.595 36.4348C123.917 36.4348 124.21 36.3894 124.475 36.2985C124.741 36.2038 124.97 36.0636 125.163 35.878C125.356 35.6924 125.504 35.4632 125.606 35.1905L127.214 35.4803C127.085 35.9538 126.854 36.3685 126.521 36.7246C126.191 37.0769 125.777 37.3515 125.277 37.5485C124.78 37.7417 124.214 37.8382 123.578 37.8382ZM132.298 37.8326C131.593 37.8326 130.965 37.6526 130.412 37.2928C129.862 36.9292 129.431 36.4121 129.116 35.7417C128.806 35.0674 128.65 34.2587 128.65 33.3155C128.65 32.3723 128.807 31.5655 129.122 30.8951C129.44 30.2246 129.876 29.7114 130.429 29.3553C130.982 28.9992 131.609 28.8212 132.309 28.8212C132.851 28.8212 133.287 28.9121 133.616 29.0939C133.949 29.272 134.207 29.4803 134.389 29.7189C134.574 29.9576 134.718 30.1678 134.821 30.3496H134.923V26.0257H136.622V37.6621H134.963V36.3042H134.821C134.718 36.4898 134.571 36.7019 134.378 36.9405C134.188 37.1792 133.927 37.3875 133.593 37.5655C133.26 37.7435 132.828 37.8326 132.298 37.8326ZM132.673 36.3837C133.162 36.3837 133.574 36.2549 133.912 35.9973C134.253 35.736 134.51 35.3742 134.684 34.9121C134.862 34.45 134.951 33.9121 134.951 33.2985C134.951 32.6924 134.864 32.1621 134.69 31.7076C134.516 31.253 134.26 30.8989 133.923 30.6451C133.586 30.3913 133.169 30.2644 132.673 30.2644C132.162 30.2644 131.735 30.397 131.395 30.6621C131.054 30.9273 130.796 31.289 130.622 31.7473C130.451 32.2057 130.366 32.7227 130.366 33.2985C130.366 33.8818 130.453 34.4064 130.628 34.8723C130.802 35.3382 131.059 35.7076 131.4 35.9803C131.745 36.2492 132.169 36.3837 132.673 36.3837ZM143.065 26.0257H145.196L148.901 35.0712H149.037L152.741 26.0257H154.872V37.6621H153.202V29.2417H153.094L149.662 37.6451H148.276L144.844 29.236H144.736V37.6621H143.065V26.0257ZM160.874 37.8382C160.014 37.8382 159.273 37.6545 158.652 37.2871C158.035 36.9159 157.557 36.3951 157.22 35.7246C156.887 35.0504 156.72 34.2606 156.72 33.3553C156.72 32.4614 156.887 31.6735 157.22 30.9917C157.557 30.3098 158.027 29.7776 158.629 29.3951C159.235 29.0125 159.944 28.8212 160.754 28.8212C161.247 28.8212 161.724 28.9026 162.186 29.0655C162.648 29.2284 163.063 29.4841 163.43 29.8326C163.798 30.181 164.088 30.6337 164.3 31.1905C164.512 31.7435 164.618 32.4159 164.618 33.2076V33.8098H157.68V32.5371H162.953C162.953 32.0901 162.862 31.6943 162.68 31.3496C162.499 31.0011 162.243 30.7265 161.913 30.5257C161.588 30.325 161.205 30.2246 160.766 30.2246C160.288 30.2246 159.872 30.342 159.516 30.5769C159.163 30.8079 158.891 31.111 158.698 31.486C158.508 31.8572 158.413 32.2606 158.413 32.6962V33.6905C158.413 34.2739 158.516 34.7701 158.72 35.1792C158.929 35.5882 159.218 35.9007 159.59 36.1167C159.961 36.3288 160.394 36.4348 160.891 36.4348C161.213 36.4348 161.506 36.3894 161.771 36.2985C162.037 36.2038 162.266 36.0636 162.459 35.878C162.652 35.6924 162.8 35.4632 162.902 35.1905L164.51 35.4803C164.381 35.9538 164.15 36.3685 163.817 36.7246C163.487 37.0769 163.073 37.3515 162.573 37.5485C162.076 37.7417 161.51 37.8382 160.874 37.8382ZM170.088 37.8382C169.228 37.8382 168.488 37.6545 167.867 37.2871C167.249 36.9159 166.772 36.3951 166.435 35.7246C166.102 35.0504 165.935 34.2606 165.935 33.3553C165.935 32.4614 166.102 31.6735 166.435 30.9917C166.772 30.3098 167.242 29.7776 167.844 29.3951C168.45 29.0125 169.158 28.8212 169.969 28.8212C170.461 28.8212 170.939 28.9026 171.401 29.0655C171.863 29.2284 172.278 29.4841 172.645 29.8326C173.013 30.181 173.302 30.6337 173.514 31.1905C173.727 31.7435 173.833 32.4159 173.833 33.2076V33.8098H166.895V32.5371H172.168C172.168 32.0901 172.077 31.6943 171.895 31.3496C171.713 31.0011 171.458 30.7265 171.128 30.5257C170.802 30.325 170.42 30.2246 169.98 30.2246C169.503 30.2246 169.086 30.342 168.73 30.5769C168.378 30.8079 168.105 31.111 167.912 31.486C167.723 31.8572 167.628 32.2606 167.628 32.6962V33.6905C167.628 34.2739 167.73 34.7701 167.935 35.1792C168.143 35.5882 168.433 35.9007 168.804 36.1167C169.175 36.3288 169.609 36.4348 170.105 36.4348C170.427 36.4348 170.721 36.3894 170.986 36.2985C171.251 36.2038 171.48 36.0636 171.674 35.878C171.867 35.6924 172.014 35.4632 172.117 35.1905L173.725 35.4803C173.596 35.9538 173.365 36.3685 173.031 36.7246C172.702 37.0769 172.287 37.3515 171.787 37.5485C171.291 37.7417 170.725 37.8382 170.088 37.8382ZM179.615 28.9348V30.2985H174.848V28.9348H179.615ZM176.127 26.8439H177.826V35.0996C177.826 35.4292 177.875 35.6773 177.973 35.8439C178.072 36.0068 178.199 36.1185 178.354 36.1792C178.513 36.236 178.685 36.2644 178.871 36.2644C179.007 36.2644 179.127 36.2549 179.229 36.236C179.331 36.217 179.411 36.2019 179.468 36.1905L179.774 37.5939C179.676 37.6318 179.536 37.6697 179.354 37.7076C179.172 37.7492 178.945 37.772 178.672 37.7757C178.225 37.7833 177.809 37.7038 177.422 37.5371C177.036 37.3704 176.723 37.1129 176.485 36.7644C176.246 36.4159 176.127 35.9784 176.127 35.4519V26.8439ZM181.319 37.6621V28.9348H183.018V37.6621H181.319ZM182.177 27.5882C181.881 27.5882 181.627 27.4898 181.415 27.2928C181.207 27.092 181.103 26.8534 181.103 26.5769C181.103 26.2966 181.207 26.0579 181.415 25.861C181.627 25.6602 181.881 25.5598 182.177 25.5598C182.472 25.5598 182.724 25.6602 182.932 25.861C183.144 26.0579 183.25 26.2966 183.25 26.5769C183.25 26.8534 183.144 27.092 182.932 27.2928C182.724 27.4898 182.472 27.5882 182.177 27.5882ZM186.826 32.4803V37.6621H185.127V28.9348H186.758V30.3553H186.866C187.066 29.8932 187.381 29.522 187.809 29.2417C188.241 28.9614 188.784 28.8212 189.44 28.8212C190.034 28.8212 190.555 28.9462 191.002 29.1962C191.449 29.4424 191.796 29.8098 192.042 30.2985C192.288 30.7871 192.411 31.3913 192.411 32.111V37.6621H190.712V32.3155C190.712 31.6829 190.548 31.1886 190.218 30.8326C189.888 30.4727 189.436 30.2928 188.86 30.2928C188.466 30.2928 188.116 30.378 187.809 30.5485C187.506 30.7189 187.265 30.9689 187.087 31.2985C186.913 31.6242 186.826 32.0182 186.826 32.4803ZM198.173 41.1167C197.479 41.1167 196.883 41.0257 196.383 40.8439C195.887 40.6621 195.481 40.4216 195.167 40.1223C194.853 39.8231 194.618 39.4954 194.462 39.1394L195.923 38.5371C196.025 38.7038 196.161 38.8799 196.332 39.0655C196.506 39.2549 196.741 39.4159 197.036 39.5485C197.336 39.681 197.72 39.7473 198.19 39.7473C198.834 39.7473 199.366 39.5901 199.786 39.2757C200.207 38.9651 200.417 38.4689 200.417 37.7871V36.0712H200.309C200.207 36.2568 200.059 36.4632 199.866 36.6905C199.676 36.9178 199.415 37.1148 199.082 37.2814C198.748 37.4481 198.315 37.5314 197.781 37.5314C197.091 37.5314 196.47 37.3704 195.917 37.0485C195.368 36.7227 194.932 36.2435 194.61 35.611C194.292 34.9746 194.133 34.1924 194.133 33.2644C194.133 32.3364 194.29 31.5409 194.604 30.878C194.923 30.2151 195.358 29.7076 195.911 29.3553C196.464 28.9992 197.091 28.8212 197.792 28.8212C198.334 28.8212 198.771 28.9121 199.104 29.0939C199.438 29.272 199.697 29.4803 199.883 29.7189C200.072 29.9576 200.218 30.1678 200.32 30.3496H200.445V28.9348H202.11V37.8553C202.11 38.6053 201.936 39.2208 201.587 39.7019C201.239 40.1829 200.767 40.539 200.173 40.7701C199.582 41.0011 198.915 41.1167 198.173 41.1167ZM198.156 36.1223C198.644 36.1223 199.057 36.0087 199.394 35.7814C199.735 35.5504 199.993 35.2208 200.167 34.7928C200.345 34.361 200.434 33.8439 200.434 33.2417C200.434 32.6545 200.347 32.1375 200.173 31.6905C199.998 31.2435 199.743 30.8951 199.406 30.6451C199.068 30.3913 198.652 30.2644 198.156 30.2644C197.644 30.2644 197.218 30.397 196.877 30.6621C196.536 30.9235 196.279 31.2795 196.104 31.7303C195.934 32.181 195.849 32.6848 195.849 33.2417C195.849 33.8136 195.936 34.3155 196.11 34.7473C196.284 35.1792 196.542 35.5163 196.883 35.7587C197.228 36.0011 197.652 36.1223 198.156 36.1223ZM210.752 31.0655L209.213 31.3382C209.148 31.1413 209.046 30.9538 208.906 30.7757C208.769 30.5977 208.584 30.4519 208.349 30.3382C208.114 30.2246 207.82 30.1678 207.468 30.1678C206.987 30.1678 206.586 30.2757 206.264 30.4917C205.942 30.7038 205.781 30.9784 205.781 31.3155C205.781 31.6072 205.889 31.842 206.105 32.0201C206.32 32.1981 206.669 32.3439 207.15 32.4576L208.536 32.7757C209.339 32.9614 209.938 33.2473 210.332 33.6337C210.726 34.0201 210.923 34.522 210.923 35.1394C210.923 35.6621 210.771 36.128 210.468 36.5371C210.169 36.9424 209.75 37.2606 209.213 37.4917C208.678 37.7227 208.059 37.8382 207.355 37.8382C206.377 37.8382 205.58 37.6299 204.963 37.2132C204.345 36.7928 203.966 36.1962 203.826 35.4235L205.468 35.1735C205.57 35.6015 205.781 35.9254 206.099 36.1451C206.417 36.361 206.832 36.4689 207.343 36.4689C207.9 36.4689 208.345 36.3534 208.678 36.1223C209.012 35.8875 209.178 35.6015 209.178 35.2644C209.178 34.9917 209.076 34.7625 208.872 34.5769C208.671 34.3913 208.362 34.2511 207.945 34.1564L206.468 33.8326C205.654 33.647 205.052 33.3515 204.661 32.9462C204.275 32.5409 204.082 32.0276 204.082 31.4064C204.082 30.8913 204.226 30.4405 204.514 30.0542C204.802 29.6678 205.199 29.3667 205.707 29.1507C206.214 28.931 206.796 28.8212 207.451 28.8212C208.394 28.8212 209.137 29.0257 209.678 29.4348C210.22 29.8401 210.578 30.3837 210.752 31.0655Z" fill="#0A0A0A"/>
<path d="M155.757 80.0367C155.757 80.0367 99.8821 97.9533 101.907 125.452C105.67 176.561 147.972 161.002 160.328 186.776C169.627 202.754 211.911 219.299 228.53 186.545C245.149 153.792 265.17 151.64 264.212 129.01C262.87 97.3182 228.239 79.1944 206.159 68.0723C184.907 57.3675 155.757 80.0367 155.757 80.0367Z" fill="#49A7F1" fill-opacity="0.1"/>
<path d="M106.633 163.918C107.356 156.713 111.648 149.528 118.456 147.027C115.925 154.486 116.119 162.598 119.004 169.927C120.127 172.75 121.67 175.773 120.746 178.666C120.171 180.467 118.694 181.869 117.026 182.764C115.359 183.658 113.495 184.11 111.654 184.553L111.298 184.862C108.203 178.313 105.909 171.123 106.633 163.918Z" fill="#E0E0E0"/>
<path d="M118.528 147.163C114.637 151.728 112.287 157.401 111.81 163.376C111.685 164.661 111.763 165.957 112.042 167.217C112.353 168.436 112.986 169.549 113.874 170.441C114.686 171.289 115.614 172.064 116.205 173.094C116.499 173.626 116.678 174.214 116.729 174.82C116.78 175.426 116.702 176.035 116.5 176.609C116.034 178.051 115.078 179.24 114.101 180.37C113.018 181.625 111.872 182.912 111.438 184.552C111.385 184.751 111.079 184.658 111.132 184.459C111.887 181.606 114.605 179.931 115.859 177.347C116.443 176.141 116.668 174.752 116.063 173.509C115.534 172.421 114.577 171.622 113.748 170.77C112.869 169.913 112.213 168.853 111.839 167.684C111.496 166.442 111.368 165.151 111.46 163.867C111.62 160.971 112.235 158.118 113.283 155.413C114.462 152.319 116.162 149.45 118.31 146.928C118.443 146.772 118.66 147.008 118.528 147.163V147.163Z" fill="white"/>
<path d="M111.85 161.444C110.856 161.228 109.972 160.666 109.355 159.86C108.738 159.053 108.428 158.054 108.481 157.041C108.484 156.999 108.502 156.961 108.533 156.933C108.563 156.905 108.604 156.89 108.645 156.891C108.686 156.892 108.726 156.909 108.755 156.938C108.784 156.968 108.8 157.008 108.801 157.049C108.75 157.993 109.039 158.923 109.615 159.673C110.191 160.423 111.017 160.943 111.943 161.138C112.144 161.181 112.05 161.486 111.85 161.444Z" fill="white"/>
<path d="M113.406 170.065C115.165 168.959 116.441 167.233 116.981 165.229C117.034 165.031 117.34 165.124 117.287 165.322C116.721 167.406 115.389 169.2 113.556 170.347C113.382 170.456 113.232 170.174 113.406 170.065Z" fill="white"/>
<path d="M114.766 152.615C115.133 152.778 115.535 152.848 115.935 152.818C116.336 152.788 116.723 152.66 117.062 152.443C117.235 152.332 117.384 152.614 117.212 152.725C116.837 152.962 116.41 153.104 115.967 153.138C115.524 153.172 115.08 153.097 114.673 152.92C114.633 152.906 114.6 152.878 114.58 152.841C114.56 152.804 114.556 152.761 114.566 152.721C114.579 152.681 114.607 152.647 114.644 152.627C114.682 152.607 114.725 152.603 114.766 152.615H114.766Z" fill="white"/>
<path d="M139.685 159.361C139.578 159.434 139.472 159.507 139.366 159.582C137.943 160.565 136.602 161.662 135.357 162.862C135.26 162.953 135.162 163.047 135.067 163.141C132.099 166.064 129.7 169.511 127.992 173.308C127.314 174.819 126.752 176.38 126.311 177.977C125.702 180.182 125.218 182.621 123.952 184.443C123.822 184.634 123.681 184.818 123.528 184.992L111.704 185.273C111.676 185.26 111.649 185.25 111.622 185.237L111.15 185.27C111.167 185.186 111.187 185.099 111.204 185.015C111.213 184.966 111.225 184.918 111.235 184.869C111.242 184.836 111.25 184.804 111.254 184.774C111.257 184.763 111.259 184.752 111.262 184.744C111.266 184.715 111.274 184.687 111.279 184.66C111.386 184.176 111.497 183.691 111.611 183.206C111.611 183.203 111.611 183.203 111.614 183.2C112.495 179.507 113.692 175.854 115.407 172.5C115.459 172.399 115.51 172.295 115.567 172.194C116.349 170.686 117.252 169.244 118.269 167.883C118.828 167.14 119.425 166.425 120.056 165.742C121.692 163.98 123.594 162.485 125.695 161.313C129.882 158.977 134.772 158.004 139.337 159.262C139.453 159.294 139.568 159.326 139.685 159.361Z" fill="#E0E0E0"/>
<path d="M139.662 159.513C133.802 160.821 128.503 163.938 124.519 168.422C123.644 169.372 122.924 170.454 122.387 171.628C121.9 172.788 121.734 174.057 121.905 175.303C122.041 176.468 122.316 177.644 122.166 178.822C122.08 179.424 121.868 180.001 121.543 180.515C121.218 181.029 120.788 181.469 120.281 181.806C119.04 182.678 117.559 183.052 116.098 183.368C114.475 183.719 112.784 184.057 111.448 185.106C111.286 185.233 111.098 184.975 111.26 184.848C113.585 183.024 116.765 183.319 119.324 182.01C120.518 181.399 121.535 180.425 121.802 179.068C122.036 177.882 121.754 176.669 121.606 175.49C121.421 174.277 121.537 173.037 121.943 171.879C122.419 170.682 123.095 169.574 123.943 168.603C125.818 166.387 128.029 164.479 130.498 162.949C133.305 161.187 136.394 159.918 139.63 159.196C139.83 159.151 139.861 159.469 139.662 159.513Z" fill="white"/>
<path d="M125.716 166.902C125.053 166.133 124.686 165.153 124.68 164.138C124.673 163.123 125.029 162.139 125.682 161.362C125.815 161.205 126.065 161.404 125.932 161.561C125.323 162.284 124.992 163.2 124.999 164.145C125.007 165.09 125.353 166.001 125.975 166.714C126.109 166.869 125.85 167.056 125.716 166.902Z" fill="white"/>
<path d="M121.758 174.721C123.829 174.895 125.889 174.284 127.529 173.009C127.691 172.882 127.879 173.14 127.717 173.267C126.009 174.59 123.863 175.222 121.708 175.036C121.503 175.019 121.553 174.703 121.758 174.721H121.758Z" fill="white"/>
<path d="M133.37 161.606C133.564 161.957 133.843 162.255 134.181 162.472C134.519 162.689 134.905 162.818 135.306 162.849C135.511 162.865 135.46 163.18 135.256 163.165C134.814 163.128 134.387 162.985 134.013 162.746C133.639 162.507 133.329 162.18 133.111 161.794C133.088 161.76 133.078 161.717 133.085 161.676C133.091 161.634 133.113 161.597 133.146 161.571C133.181 161.547 133.223 161.536 133.265 161.543C133.307 161.55 133.344 161.572 133.37 161.606Z" fill="white"/>
<path d="M168.087 157.009C167.89 157.009 167.694 156.974 167.508 156.907L164.019 155.65L164.021 155.646C163.628 155.471 163.316 155.154 163.147 154.759C162.978 154.364 162.966 153.92 163.111 153.517L172.657 127.128C172.961 126.288 173.576 125.597 174.375 125.196C175.174 124.795 176.096 124.715 176.953 124.972C177.809 125.23 178.534 125.805 178.978 126.579C179.423 127.354 179.553 128.269 179.342 129.137C179.312 129.259 179.276 129.379 179.233 129.498L169.686 155.886C169.567 156.215 169.35 156.498 169.064 156.699C168.778 156.9 168.437 157.008 168.087 157.009H168.087Z" fill="#299CFF"/>
<path d="M190.671 185.238H187.083C186.632 185.237 186.2 185.058 185.881 184.74C185.562 184.422 185.382 183.99 185.382 183.54V153.693C185.382 153.242 185.562 152.811 185.881 152.492C186.2 152.174 186.632 151.995 187.083 151.994H190.671C191.122 151.995 191.554 152.174 191.873 152.492C192.192 152.811 192.372 153.242 192.372 153.693V183.54C192.372 183.99 192.192 184.422 191.873 184.74C191.554 185.058 191.122 185.237 190.671 185.238Z" fill="#299CFF"/>
<path d="M182.602 185.238H179.014C178.563 185.237 178.131 185.058 177.812 184.74C177.493 184.422 177.313 183.99 177.313 183.54V153.693C177.313 153.242 177.493 152.811 177.812 152.492C178.131 152.174 178.563 151.995 179.014 151.994H182.602C183.053 151.995 183.486 152.174 183.805 152.492C184.124 152.811 184.303 153.242 184.304 153.693V183.54C184.303 183.99 184.124 184.422 183.805 184.74C183.486 185.058 183.053 185.237 182.602 185.238Z" fill="#299CFF"/>
<path d="M184.736 119.51C191.582 119.51 197.133 113.97 197.133 107.136C197.133 100.302 191.582 94.7617 184.736 94.7617C177.889 94.7617 172.339 100.302 172.339 107.136C172.339 113.97 177.889 119.51 184.736 119.51Z" fill="#299CFF"/>
<path d="M186.185 112.331C185.381 112.309 184.381 112.281 183.611 111.719C183.381 111.545 183.193 111.323 183.058 111.068C182.924 110.814 182.847 110.533 182.833 110.246C182.819 110.041 182.853 109.837 182.931 109.648C183.009 109.459 183.131 109.29 183.285 109.155C183.688 108.816 184.275 108.736 184.908 108.922L184.252 104.136L184.734 104.07L185.505 109.697L185.103 109.513C184.637 109.299 183.997 109.191 183.599 109.526C183.501 109.614 183.425 109.723 183.377 109.845C183.328 109.966 183.308 110.098 183.319 110.229C183.331 110.442 183.388 110.651 183.488 110.841C183.588 111.03 183.728 111.196 183.898 111.327C184.497 111.764 185.294 111.821 186.198 111.846L186.185 112.331Z" fill="#2F2E41"/>
<path d="M181.87 104.549H179.252V105.034H181.87V104.549Z" fill="#2F2E41"/>
<path d="M190.135 104.549H187.516V105.034H190.135V104.549Z" fill="#2F2E41"/>
<path d="M201.47 156.8C201.129 156.8 200.796 156.697 200.513 156.506C200.231 156.314 200.013 156.043 199.887 155.727L189.539 129.641C189.37 129.215 189.287 128.76 189.294 128.301C189.301 127.843 189.399 127.391 189.581 126.971C189.763 126.55 190.027 126.17 190.356 125.851C190.686 125.532 191.075 125.281 191.502 125.112C191.929 124.944 192.385 124.86 192.844 124.868C193.303 124.875 193.756 124.972 194.177 125.154C194.598 125.336 194.979 125.599 195.299 125.928C195.618 126.257 195.87 126.646 196.039 127.072L206.386 153.158C206.476 153.38 206.516 153.619 206.505 153.858C206.49 154.185 206.381 154.501 206.19 154.768C206 155.035 205.736 155.241 205.431 155.362L202.095 156.681C201.896 156.76 201.684 156.8 201.47 156.8Z" fill="#299CFF"/>
<path d="M193.843 145.59L197.246 130.224C197.246 128.775 196.669 127.386 195.643 126.362C194.617 125.337 193.225 124.762 191.774 124.762H176.952C175.501 124.762 174.109 125.337 173.082 126.362C172.056 127.386 171.48 128.775 171.48 130.224L175.577 145.473C173.22 145.78 171.48 146.858 171.48 148.141L177.314 159.093L192.384 159.215L197.246 148.141C197.246 146.988 195.839 146.001 193.843 145.59Z" fill="#2F2E41"/>
<path d="M198.444 102.686C197.826 99.55 196.141 96.7245 193.672 94.6892C191.204 92.654 188.106 91.5347 184.905 91.5216C181.703 91.5085 178.596 92.6023 176.111 94.6172C173.627 96.6321 171.917 99.4438 171.275 102.574C170.178 103.019 169.27 103.831 168.707 104.87C168.144 105.909 167.96 107.112 168.188 108.271C168.415 109.431 169.039 110.476 169.953 111.226C170.867 111.977 172.014 112.388 173.197 112.388V102.197C172.91 102.199 172.624 102.225 172.342 102.274C173.031 99.4791 174.641 96.9958 176.913 95.2221C179.184 93.4485 181.987 92.4871 184.871 92.492C187.755 92.497 190.554 93.4679 192.82 95.2493C195.085 97.0307 196.686 99.5196 197.367 102.317C197.008 102.238 196.641 102.198 196.274 102.197V112.388C197.434 112.388 198.56 111.994 199.466 111.27C200.372 110.546 201.003 109.535 201.256 108.405C201.509 107.275 201.368 106.092 200.856 105.052C200.345 104.012 199.494 103.178 198.444 102.686Z" fill="#2F2E41"/>
<path d="M191.208 101.459C188.98 100.355 186.481 99.9126 184.009 100.183C182.661 100.32 181.319 100.531 179.977 100.713C178.852 100.865 177.574 101.067 176.545 100.458C174.796 99.4222 174.485 96.9096 174.857 95.0993C175.052 94.1064 175.459 93.1671 176.05 92.3453C176.641 91.5234 177.402 90.8383 178.282 90.3366C179.329 89.774 180.499 89.4807 181.688 89.483C182.876 89.4853 184.045 89.7832 185.09 90.3499C185.174 90.3957 185.272 90.4078 185.365 90.3835C185.458 90.3592 185.538 90.3005 185.589 90.2193C186.892 88.46 188.659 86.9692 190.737 86.2193C192.658 85.5537 194.731 85.4542 196.707 85.9328C198.713 86.4025 200.586 87.3222 202.184 88.6224C203.847 90.0096 205.202 91.7276 206.163 93.6667C208.306 97.8595 208.802 102.672 208.641 107.314C208.547 110.015 208.244 112.704 207.945 115.388C207.795 116.733 207.645 118.077 207.523 119.424C207.382 120.576 207.38 121.742 207.517 122.895C207.657 123.98 208.12 124.997 208.847 125.816C209.541 126.545 210.415 127.079 211.381 127.365C213.556 128.039 215.858 127.466 217.798 126.385C218.315 126.094 218.813 125.772 219.291 125.421C219.666 125.147 219.302 124.515 218.922 124.792C217.08 126.136 214.786 127.239 212.444 126.867C211.448 126.724 210.511 126.309 209.738 125.666C208.936 124.944 208.41 123.966 208.252 122.899C208.046 121.736 208.15 120.532 208.257 119.364C208.381 118.018 208.531 116.673 208.681 115.329C208.982 112.625 209.286 109.916 209.374 107.195C209.525 102.538 208.995 97.7426 206.903 93.5177C205.955 91.5469 204.62 89.7863 202.978 88.3402C201.402 86.9826 199.551 85.9795 197.552 85.3989C195.592 84.8171 193.514 84.7557 191.523 85.2207C189.4 85.7837 187.487 86.9484 186.013 88.5741C185.638 88.98 185.286 89.4066 184.959 89.8519L185.458 89.7213C184.468 89.1813 183.373 88.8592 182.248 88.7769C181.123 88.6947 179.993 88.8541 178.935 89.2444C177.907 89.6371 176.977 90.2465 176.207 91.0309C175.438 91.8154 174.846 92.7564 174.474 93.7898C173.748 95.7456 173.75 98.2309 175.005 99.9815C175.332 100.448 175.762 100.835 176.26 101.112C176.759 101.389 177.315 101.549 177.885 101.581C178.522 101.608 179.161 101.569 179.79 101.466C180.494 101.373 181.197 101.276 181.901 101.18C183.45 100.97 184.999 100.735 186.566 100.871C188.054 101.005 189.504 101.417 190.84 102.088C191.258 102.297 191.628 101.669 191.208 101.459Z" fill="#2F2E41"/>
<path d="M240.737 185.574H83.3943C83.3177 185.574 83.2443 185.543 83.1902 185.489C83.1361 185.435 83.1057 185.361 83.1057 185.285C83.1057 185.209 83.1361 185.135 83.1902 185.081C83.2443 185.027 83.3177 184.996 83.3943 184.996H240.737C240.813 184.996 240.887 185.027 240.941 185.081C240.995 185.135 241.025 185.209 241.025 185.285C241.025 185.361 240.995 185.435 240.941 185.489C240.887 185.543 240.813 185.574 240.737 185.574Z" fill="#3F3D56"/>
<path d="M116.533 205.48V215.662H115.121L109.946 208.195H109.851V215.662H108.315V205.48H109.737L114.917 212.958H115.012V205.48H116.533ZM121.871 215.816C121.155 215.816 120.531 215.652 119.997 215.324C119.463 214.996 119.049 214.537 118.754 213.947C118.459 213.357 118.312 212.668 118.312 211.879C118.312 211.087 118.459 210.394 118.754 209.801C119.049 209.207 119.463 208.747 119.997 208.419C120.531 208.09 121.155 207.926 121.871 207.926C122.587 207.926 123.212 208.09 123.745 208.419C124.279 208.747 124.693 209.207 124.988 209.801C125.283 210.394 125.431 211.087 125.431 211.879C125.431 212.668 125.283 213.357 124.988 213.947C124.693 214.537 124.279 214.996 123.745 215.324C123.212 215.652 122.587 215.816 121.871 215.816ZM121.876 214.568C122.34 214.568 122.725 214.446 123.03 214.2C123.334 213.955 123.56 213.629 123.706 213.221C123.855 212.813 123.929 212.364 123.929 211.874C123.929 211.387 123.855 210.939 123.706 210.531C123.56 210.12 123.334 209.791 123.03 209.542C122.725 209.294 122.34 209.169 121.876 209.169C121.409 209.169 121.021 209.294 120.713 209.542C120.408 209.791 120.181 210.12 120.032 210.531C119.886 210.939 119.813 211.387 119.813 211.874C119.813 212.364 119.886 212.813 120.032 213.221C120.181 213.629 120.408 213.955 120.713 214.2C121.021 214.446 121.409 214.568 121.876 214.568ZM130.915 205.48H132.779L136.02 213.395H136.14L139.381 205.48H141.245V215.662H139.784V208.294H139.689L136.687 215.647H135.473L132.471 208.289H132.376V215.662H130.915V205.48ZM146.651 215.816C145.898 215.816 145.251 215.655 144.707 215.334C144.167 215.009 143.749 214.553 143.454 213.967C143.162 213.377 143.017 212.686 143.017 211.894C143.017 211.111 143.162 210.422 143.454 209.825C143.749 209.229 144.16 208.763 144.687 208.428C145.217 208.094 145.837 207.926 146.546 207.926C146.977 207.926 147.395 207.998 147.799 208.14C148.204 208.283 148.567 208.506 148.888 208.811C149.21 209.116 149.463 209.512 149.649 209.999C149.834 210.483 149.927 211.072 149.927 211.764V212.291H143.857V211.178H148.47C148.47 210.787 148.391 210.44 148.232 210.139C148.073 209.834 147.849 209.593 147.561 209.418C147.276 209.242 146.941 209.154 146.556 209.154C146.139 209.154 145.774 209.257 145.463 209.463C145.154 209.665 144.916 209.93 144.747 210.258C144.581 210.583 144.498 210.936 144.498 211.317V212.187C144.498 212.697 144.588 213.132 144.767 213.49C144.949 213.847 145.202 214.121 145.527 214.31C145.852 214.495 146.232 214.588 146.666 214.588C146.947 214.588 147.204 214.548 147.436 214.469C147.668 214.386 147.869 214.263 148.038 214.101C148.207 213.939 148.336 213.738 148.426 213.499L149.833 213.753C149.72 214.167 149.518 214.53 149.226 214.842C148.938 215.15 148.575 215.39 148.137 215.563C147.703 215.732 147.208 215.816 146.651 215.816ZM154.868 215.816C154.115 215.816 153.467 215.655 152.924 215.334C152.383 215.009 151.966 214.553 151.671 213.967C151.379 213.377 151.233 212.686 151.233 211.894C151.233 211.111 151.379 210.422 151.671 209.825C151.966 209.229 152.377 208.763 152.904 208.428C153.434 208.094 154.054 207.926 154.763 207.926C155.194 207.926 155.612 207.998 156.016 208.14C156.42 208.283 156.783 208.506 157.105 208.811C157.426 209.116 157.68 209.512 157.866 209.999C158.051 210.483 158.144 211.072 158.144 211.764V212.291H152.074V211.178H156.687C156.687 210.787 156.608 210.44 156.449 210.139C156.29 209.834 156.066 209.593 155.777 209.418C155.492 209.242 155.158 209.154 154.773 209.154C154.356 209.154 153.991 209.257 153.679 209.463C153.371 209.665 153.133 209.93 152.964 210.258C152.798 210.583 152.715 210.936 152.715 211.317V212.187C152.715 212.697 152.804 213.132 152.983 213.49C153.166 213.847 153.419 214.121 153.744 214.31C154.069 214.495 154.448 214.588 154.883 214.588C155.164 214.588 155.421 214.548 155.653 214.469C155.885 214.386 156.086 214.263 156.255 214.101C156.424 213.939 156.553 213.738 156.642 213.499L158.049 213.753C157.937 214.167 157.735 214.53 157.443 214.842C157.155 215.15 156.792 215.39 156.354 215.563C155.92 215.732 155.424 215.816 154.868 215.816ZM163.358 208.026V209.219H159.187V208.026H163.358ZM160.305 206.196H161.792V213.42C161.792 213.708 161.835 213.925 161.921 214.071C162.007 214.214 162.118 214.311 162.254 214.365C162.393 214.414 162.544 214.439 162.707 214.439C162.826 214.439 162.93 214.431 163.02 214.414C163.109 214.398 163.179 214.384 163.229 214.374L163.497 215.602C163.411 215.636 163.288 215.669 163.129 215.702C162.97 215.738 162.771 215.758 162.533 215.762C162.141 215.768 161.777 215.699 161.439 215.553C161.101 215.407 160.827 215.182 160.619 214.877C160.41 214.572 160.305 214.189 160.305 213.728V206.196ZM165.002 215.662V208.026H166.489V215.662H165.002ZM165.753 206.847C165.494 206.847 165.272 206.761 165.087 206.589C164.904 206.413 164.813 206.204 164.813 205.963C164.813 205.717 164.904 205.508 165.087 205.336C165.272 205.16 165.494 205.073 165.753 205.073C166.011 205.073 166.232 205.16 166.414 205.336C166.6 205.508 166.693 205.717 166.693 205.963C166.693 206.204 166.6 206.413 166.414 206.589C166.232 206.761 166.011 206.847 165.753 206.847ZM169.975 211.128V215.662H168.489V208.026H169.915V209.269H170.01C170.186 208.864 170.461 208.539 170.835 208.294C171.213 208.049 171.689 207.926 172.262 207.926C172.782 207.926 173.238 208.036 173.629 208.254C174.02 208.47 174.324 208.791 174.539 209.219C174.754 209.646 174.862 210.175 174.862 210.805V215.662H173.376V210.984C173.376 210.43 173.231 209.998 172.943 209.686C172.655 209.371 172.259 209.214 171.755 209.214C171.41 209.214 171.104 209.289 170.835 209.438C170.57 209.587 170.36 209.806 170.204 210.094C170.051 210.379 169.975 210.724 169.975 211.128ZM180.057 218.685C179.451 218.685 178.929 218.605 178.491 218.446C178.057 218.287 177.703 218.077 177.427 217.815C177.152 217.553 176.947 217.266 176.811 216.955L178.089 216.428C178.178 216.574 178.297 216.728 178.447 216.89C178.599 217.056 178.805 217.197 179.063 217.313C179.325 217.429 179.661 217.487 180.072 217.487C180.636 217.487 181.101 217.349 181.469 217.074C181.837 216.802 182.021 216.368 182.021 215.771V214.27H181.927C181.837 214.432 181.708 214.613 181.539 214.812C181.373 215.011 181.145 215.183 180.853 215.329C180.561 215.475 180.182 215.548 179.714 215.548C179.111 215.548 178.568 215.407 178.084 215.125C177.603 214.84 177.222 214.421 176.94 213.867C176.662 213.311 176.523 212.626 176.523 211.814C176.523 211.002 176.66 210.306 176.935 209.726C177.214 209.146 177.595 208.702 178.079 208.394C178.563 208.082 179.111 207.926 179.724 207.926C180.198 207.926 180.581 208.006 180.873 208.165C181.164 208.321 181.391 208.503 181.554 208.712C181.72 208.921 181.847 209.105 181.937 209.264H182.046V208.026H183.503V215.831C183.503 216.487 183.35 217.026 183.045 217.447C182.74 217.868 182.328 218.179 181.807 218.382C181.29 218.584 180.707 218.685 180.057 218.685ZM180.043 214.315C180.47 214.315 180.831 214.215 181.126 214.017C181.425 213.814 181.65 213.526 181.802 213.151C181.958 212.774 182.036 212.321 182.036 211.794C182.036 211.28 181.96 210.828 181.807 210.437C181.655 210.046 181.431 209.741 181.136 209.522C180.841 209.3 180.477 209.189 180.043 209.189C179.595 209.189 179.222 209.305 178.924 209.537C178.626 209.766 178.4 210.077 178.248 210.472C178.099 210.866 178.024 211.307 178.024 211.794C178.024 212.295 178.1 212.734 178.253 213.112C178.405 213.49 178.631 213.785 178.929 213.997C179.23 214.209 179.602 214.315 180.043 214.315ZM191.219 209.89L189.871 210.129C189.815 209.956 189.726 209.792 189.603 209.637C189.484 209.481 189.321 209.353 189.116 209.254C188.91 209.154 188.653 209.105 188.345 209.105C187.924 209.105 187.573 209.199 187.291 209.388C187.009 209.574 186.869 209.814 186.869 210.109C186.869 210.364 186.963 210.57 187.152 210.725C187.341 210.881 187.646 211.009 188.067 211.108L189.28 211.387C189.982 211.549 190.506 211.799 190.851 212.137C191.195 212.475 191.368 212.914 191.368 213.455C191.368 213.912 191.235 214.32 190.97 214.678C190.708 215.032 190.342 215.311 189.871 215.513C189.404 215.715 188.862 215.816 188.246 215.816C187.391 215.816 186.693 215.634 186.153 215.269C185.612 214.901 185.281 214.379 185.158 213.703L186.595 213.485C186.685 213.859 186.869 214.142 187.147 214.335C187.425 214.524 187.788 214.618 188.236 214.618C188.723 214.618 189.112 214.517 189.404 214.315C189.696 214.109 189.842 213.859 189.842 213.564C189.842 213.325 189.752 213.125 189.573 212.963C189.397 212.8 189.127 212.677 188.763 212.595L187.47 212.311C186.757 212.149 186.23 211.89 185.889 211.536C185.551 211.181 185.382 210.732 185.382 210.188C185.382 209.738 185.508 209.343 185.76 209.005C186.012 208.667 186.36 208.404 186.804 208.215C187.248 208.022 187.757 207.926 188.33 207.926C189.155 207.926 189.805 208.105 190.279 208.463C190.753 208.818 191.066 209.294 191.219 209.89ZM197.647 218.526C197.425 218.526 197.223 218.508 197.04 218.471C196.858 218.438 196.722 218.401 196.633 218.362L196.991 217.144C197.262 217.217 197.504 217.248 197.717 217.238C197.929 217.228 198.116 217.149 198.278 216.999C198.444 216.85 198.59 216.607 198.716 216.269L198.9 215.762L196.106 208.026H197.697L199.631 213.952H199.71L201.644 208.026H203.24L200.093 216.681C199.947 217.079 199.762 217.415 199.536 217.691C199.311 217.969 199.042 218.178 198.731 218.317C198.419 218.456 198.058 218.526 197.647 218.526ZM207.668 215.816C206.916 215.816 206.268 215.655 205.725 215.334C205.184 215.009 204.767 214.553 204.472 213.967C204.18 213.377 204.034 212.686 204.034 211.894C204.034 211.111 204.18 210.422 204.472 209.825C204.767 209.229 205.178 208.763 205.705 208.428C206.235 208.094 206.855 207.926 207.564 207.926C207.995 207.926 208.412 207.998 208.817 208.14C209.221 208.283 209.584 208.506 209.906 208.811C210.227 209.116 210.481 209.512 210.666 209.999C210.852 210.483 210.945 211.072 210.945 211.764V212.291H204.874V211.178H209.488C209.488 210.787 209.408 210.44 209.249 210.139C209.09 209.834 208.867 209.593 208.578 209.418C208.293 209.242 207.958 209.154 207.574 209.154C207.156 209.154 206.792 209.257 206.48 209.463C206.172 209.665 205.933 209.93 205.764 210.258C205.599 210.583 205.516 210.936 205.516 211.317V212.187C205.516 212.697 205.605 213.132 205.784 213.49C205.966 213.847 206.22 214.121 206.545 214.31C206.87 214.495 207.249 214.588 207.683 214.588C207.965 214.588 208.222 214.548 208.454 214.469C208.686 214.386 208.886 214.263 209.055 214.101C209.225 213.939 209.354 213.738 209.443 213.499L210.85 213.753C210.738 214.167 210.535 214.53 210.244 214.842C209.955 215.15 209.592 215.39 209.155 215.563C208.721 215.732 208.225 215.816 207.668 215.816ZM216.159 208.026V209.219H211.987V208.026H216.159ZM213.106 206.196H214.593V213.42C214.593 213.708 214.636 213.925 214.722 214.071C214.808 214.214 214.919 214.311 215.055 214.365C215.194 214.414 215.345 214.439 215.507 214.439C215.627 214.439 215.731 214.431 215.821 214.414C215.91 214.398 215.98 214.384 216.029 214.374L216.298 215.602C216.212 215.636 216.089 215.669 215.93 215.702C215.771 215.738 215.572 215.758 215.333 215.762C214.942 215.768 214.578 215.699 214.24 215.553C213.902 215.407 213.628 215.182 213.419 214.877C213.21 214.572 213.106 214.189 213.106 213.728V206.196Z" fill="#3F3F3F"/>
</g>
<rect x="0.631902" y="1.29401" width="322.736" height="223.399" rx="7.3681" stroke="#ECEEF2" stroke-width="1.2638"/>
<defs>
<filter id="filter0_d_4210_21138" x="3" y="0.662109" width="64" height="64" filterUnits="userSpaceOnUse" color-interpolation-filters="sRGB">
<feFlood flood-opacity="0" result="BackgroundImageFix"/>
<feColorMatrix in="SourceAlpha" type="matrix" values="0 0 0 0 0 0 0 0 0 0 0 0 0 0 0 0 0 0 127 0" result="hardAlpha"/>
<feOffset dy="1"/>
<feGaussianBlur stdDeviation="8"/>
<feComposite in2="hardAlpha" operator="out"/>
<feColorMatrix type="matrix" values="0 0 0 0 0 0 0 0 0 0 0 0 0 0 0 0 0 0 0.04 0"/>
<feBlend mode="normal" in2="BackgroundImageFix" result="effect1_dropShadow_4210_21138"/>
<feBlend mode="normal" in="SourceGraphic" in2="effect1_dropShadow_4210_21138" result="shape"/>
</filter>
<clipPath id="clip0_4210_21138">
<rect y="0.662109" width="324" height="224.663" rx="8" fill="white"/>
</clipPath>
<clipPath id="clip1_4210_21138">
<rect width="15" height="15" fill="white" transform="translate(27.0415 24.0254)"/>
</clipPath>
</defs>
</svg>
