<svg width="80" height="36" viewBox="0 0 80 36" fill="none" xmlns="http://www.w3.org/2000/svg">
<path d="M0 16C0 7.16344 7.16344 0 16 0H40V36H16C7.16344 36 0 28.8366 0 20V16Z" fill="#E2E2E2"/>
<path d="M27.4163 24.25L28.6663 25.5M21.1663 25.5H16.6663C16.1996 25.5 15.9663 25.5 15.788 25.4092C15.6312 25.3293 15.5037 25.2018 15.4238 25.045C15.333 24.8668 15.333 24.6334 15.333 24.1667V22.7367C15.333 22.2071 15.333 21.9422 15.373 21.7213C15.5587 20.6953 16.3617 19.8924 17.3877 19.7067C17.4518 19.6951 17.5194 19.6868 17.5961 19.681C17.7837 19.6667 17.8774 19.6595 18.0027 19.6688C18.1329 19.6786 18.2057 19.6914 18.3313 19.7268C18.4522 19.7609 18.6699 19.8596 19.1054 20.0568C19.6138 20.2872 20.1676 20.4348 20.7497 20.4829M27.833 22.5833C27.833 23.7339 26.9003 24.6667 25.7497 24.6667C24.5991 24.6667 23.6663 23.7339 23.6663 22.5833C23.6663 21.4327 24.5991 20.5 25.7497 20.5C26.9003 20.5 27.833 21.4327 27.833 22.5833ZM24.4997 13.8333C24.4997 15.6743 23.0073 17.1667 21.1663 17.1667C19.3254 17.1667 17.833 15.6743 17.833 13.8333C17.833 11.9924 19.3254 10.5 21.1663 10.5C23.0073 10.5 24.4997 11.9924 24.4997 13.8333Z" stroke="#56B172" stroke-width="1.5" stroke-linecap="round" stroke-linejoin="round"/>
<path d="M40 0H64C72.8366 0 80 7.16344 80 16V20C80 28.8366 72.8366 36 64 36H40V0Z" fill="white"/>
<path d="M60.0833 13.4167C60.6976 13.5365 61.3074 13.8074 61.7499 14.25C62.1925 14.6926 62.4634 15.3024 62.5833 15.9167M60.4999 10.5C61.7762 10.6418 62.9247 11.2592 63.8333 12.1667C64.7419 13.0741 65.3565 14.2239 65.4999 15.5M65.4995 21.7306V23.9887C65.503 24.8519 64.7269 25.5727 63.8554 25.4941C56.3334 25.5 50.5 19.6125 50.5059 12.141C50.4274 11.2741 51.1446 10.5009 52.0068 10.5001H54.2694C54.6354 10.4965 54.9902 10.6258 55.2678 10.864C56.0568 11.5412 56.5643 13.8398 56.369 14.7536C56.2166 15.467 55.4974 15.9661 55.0085 16.454C56.0821 18.3385 57.6455 19.8987 59.5337 20.9703C60.0226 20.4823 60.5228 19.7647 61.2375 19.6125C62.1545 19.4173 64.4679 19.9255 65.1424 20.72C65.3816 21.0017 65.5087 21.3614 65.4995 21.7306Z" stroke="#ACB3C1" stroke-width="1.5" stroke-linecap="round" stroke-linejoin="round"/>
</svg>
