<svg width="145" height="31" viewBox="0 0 145 31" fill="none" xmlns="http://www.w3.org/2000/svg">
<rect width="145" height="31" rx="5" fill="#F2EDFD"/>
<path d="M47.6506 10.8182L50.6733 19.3892H50.7926L53.8153 10.8182H55.108L51.3693 21H50.0966L46.358 10.8182H47.6506ZM56.5348 21V13.3636H57.7081V21H56.5348ZM57.1314 12.0909C56.9027 12.0909 56.7055 12.013 56.5398 11.8572C56.3774 11.7015 56.2962 11.5142 56.2962 11.2955C56.2962 11.0767 56.3774 10.8894 56.5398 10.7337C56.7055 10.5779 56.9027 10.5 57.1314 10.5C57.3601 10.5 57.5556 10.5779 57.718 10.7337C57.8838 10.8894 57.9666 11.0767 57.9666 11.2955C57.9666 11.5142 57.8838 11.7015 57.718 11.8572C57.5556 12.013 57.3601 12.0909 57.1314 12.0909ZM63.0588 21.1591C62.323 21.1591 61.6883 20.9967 61.1547 20.6719C60.6243 20.3438 60.215 19.8864 59.9267 19.2997C59.6416 18.7098 59.4991 18.0237 59.4991 17.2415C59.4991 16.4593 59.6416 15.7699 59.9267 15.1733C60.215 14.5734 60.6161 14.1061 61.1298 13.7713C61.6468 13.4332 62.2501 13.2642 62.9395 13.2642C63.3372 13.2642 63.7299 13.3305 64.1177 13.4631C64.5055 13.5956 64.8585 13.8111 65.1767 14.1094C65.4949 14.4044 65.7484 14.7955 65.9373 15.2827C66.1262 15.7699 66.2207 16.3698 66.2207 17.0824V17.5795H60.3343V16.5653H65.0275C65.0275 16.1345 64.9413 15.75 64.769 15.4119C64.6 15.0739 64.358 14.8071 64.0431 14.6115C63.7316 14.416 63.3637 14.3182 62.9395 14.3182C62.4721 14.3182 62.0678 14.4342 61.7264 14.6662C61.3883 14.8949 61.1281 15.1932 60.9458 15.5611C60.7636 15.929 60.6724 16.3234 60.6724 16.7443V17.4205C60.6724 17.9972 60.7718 18.486 60.9707 18.8871C61.1729 19.2848 61.4529 19.5881 61.8109 19.7969C62.1689 20.0024 62.5848 20.1051 63.0588 20.1051C63.367 20.1051 63.6454 20.062 63.894 19.9759C64.1459 19.8864 64.363 19.7538 64.5453 19.5781C64.7276 19.3991 64.8684 19.1771 64.9679 18.9119L66.1014 19.2301C65.9821 19.6146 65.7815 19.9527 65.4998 20.2443C65.2181 20.5327 64.8701 20.758 64.4558 20.9205C64.0415 21.0795 63.5758 21.1591 63.0588 21.1591ZM69.7356 21L67.4089 13.3636H68.6419L70.2924 19.2102H70.372L72.0027 13.3636H73.2555L74.8663 19.1903H74.9458L76.5964 13.3636H77.8294L75.5027 21H74.3493L72.6788 15.1335H72.5595L70.889 21H69.7356ZM86.6191 21H83.4771V10.8182H86.7583C87.746 10.8182 88.5912 11.022 89.2939 11.4297C89.9965 11.834 90.5351 12.4157 90.9096 13.1747C91.2842 13.9304 91.4714 14.8352 91.4714 15.8892C91.4714 16.9498 91.2825 17.8629 90.9047 18.6286C90.5268 19.3909 89.9766 19.9775 89.2541 20.3885C88.5315 20.7962 87.6532 21 86.6191 21ZM84.71 19.9062H86.5396C87.3815 19.9062 88.0791 19.7438 88.6326 19.419C89.1861 19.0942 89.5988 18.6319 89.8706 18.032C90.1423 17.4321 90.2782 16.7178 90.2782 15.8892C90.2782 15.0672 90.144 14.3596 89.8755 13.7663C89.6071 13.1697 89.206 12.7124 88.6724 12.3942C88.1388 12.0727 87.4743 11.9119 86.6788 11.9119H84.71V19.9062ZM96.5822 21.1591C95.8464 21.1591 95.2117 20.9967 94.6781 20.6719C94.1478 20.3438 93.7385 19.8864 93.4501 19.2997C93.1651 18.7098 93.0225 18.0237 93.0225 17.2415C93.0225 16.4593 93.1651 15.7699 93.4501 15.1733C93.7385 14.5734 94.1395 14.1061 94.6532 13.7713C95.1703 13.4332 95.7735 13.2642 96.4629 13.2642C96.8606 13.2642 97.2534 13.3305 97.6412 13.4631C98.0289 13.5956 98.3819 13.8111 98.7001 14.1094C99.0183 14.4044 99.2718 14.7955 99.4608 15.2827C99.6497 15.7699 99.7441 16.3698 99.7441 17.0824V17.5795H93.8578V16.5653H98.551C98.551 16.1345 98.4648 15.75 98.2924 15.4119C98.1234 15.0739 97.8815 14.8071 97.5666 14.6115C97.255 14.416 96.8871 14.3182 96.4629 14.3182C95.9956 14.3182 95.5912 14.4342 95.2498 14.6662C94.9118 14.8949 94.6516 15.1932 94.4693 15.5611C94.287 15.929 94.1958 16.3234 94.1958 16.7443V17.4205C94.1958 17.9972 94.2953 18.486 94.4941 18.8871C94.6963 19.2848 94.9764 19.5881 95.3343 19.7969C95.6923 20.0024 96.1083 20.1051 96.5822 20.1051C96.8904 20.1051 97.1689 20.062 97.4174 19.9759C97.6693 19.8864 97.8864 19.7538 98.0687 19.5781C98.251 19.3991 98.3919 19.1771 98.4913 18.9119L99.6248 19.2301C99.5055 19.6146 99.305 19.9527 99.0233 20.2443C98.7415 20.5327 98.3935 20.758 97.9792 20.9205C97.5649 21.0795 97.0993 21.1591 96.5822 21.1591ZM104.85 13.3636V14.358H100.893V13.3636H104.85ZM102.046 11.5341H103.219V18.8125C103.219 19.1439 103.267 19.3925 103.363 19.5582C103.463 19.7206 103.589 19.83 103.741 19.8864C103.897 19.9394 104.061 19.9659 104.233 19.9659C104.363 19.9659 104.469 19.9593 104.552 19.946C104.635 19.9295 104.701 19.9162 104.751 19.9062L104.989 20.9602C104.91 20.9901 104.799 21.0199 104.656 21.0497C104.514 21.0829 104.333 21.0994 104.114 21.0994C103.783 21.0994 103.458 21.0282 103.14 20.8857C102.825 20.7431 102.563 20.526 102.354 20.2344C102.149 19.9427 102.046 19.5748 102.046 19.1307V11.5341ZM108.862 21.179C108.378 21.179 107.939 21.0878 107.545 20.9055C107.15 20.7199 106.837 20.4531 106.605 20.1051C106.373 19.7538 106.257 19.3295 106.257 18.8324C106.257 18.3949 106.343 18.0402 106.515 17.7685C106.688 17.4934 106.918 17.2779 107.206 17.1222C107.495 16.9664 107.813 16.8504 108.161 16.7741C108.512 16.6946 108.865 16.6316 109.22 16.5852C109.684 16.5256 110.06 16.4808 110.349 16.451C110.64 16.4179 110.852 16.3632 110.985 16.2869C111.121 16.2107 111.189 16.0781 111.189 15.8892V15.8494C111.189 15.3589 111.055 14.9777 110.786 14.706C110.521 14.4342 110.118 14.2983 109.578 14.2983C109.018 14.2983 108.579 14.4209 108.26 14.6662C107.942 14.9115 107.719 15.1733 107.589 15.4517L106.476 15.054C106.675 14.59 106.94 14.2287 107.271 13.9702C107.606 13.7083 107.97 13.526 108.365 13.4233C108.763 13.3172 109.154 13.2642 109.538 13.2642C109.783 13.2642 110.065 13.294 110.383 13.3537C110.705 13.41 111.015 13.5277 111.313 13.7067C111.615 13.8857 111.865 14.1558 112.064 14.517C112.263 14.8783 112.362 15.3622 112.362 15.9688V21H111.189V19.9659H111.129C111.05 20.1316 110.917 20.3089 110.731 20.4979C110.546 20.6868 110.299 20.8475 109.991 20.9801C109.682 21.1127 109.306 21.179 108.862 21.179ZM109.041 20.125C109.505 20.125 109.896 20.0339 110.214 19.8516C110.536 19.6693 110.778 19.4339 110.94 19.1456C111.106 18.8572 111.189 18.554 111.189 18.2358V17.1619C111.139 17.2216 111.03 17.2763 110.861 17.326C110.695 17.3724 110.503 17.4138 110.284 17.4503C110.068 17.4834 109.858 17.5133 109.653 17.5398C109.45 17.563 109.286 17.5829 109.16 17.5994C108.855 17.6392 108.57 17.7038 108.305 17.7933C108.043 17.8795 107.831 18.0104 107.669 18.1861C107.51 18.3584 107.43 18.5937 107.43 18.892C107.43 19.2997 107.581 19.608 107.883 19.8168C108.188 20.0223 108.574 20.125 109.041 20.125ZM114.504 21V13.3636H115.677V21H114.504ZM115.1 12.0909C114.871 12.0909 114.674 12.013 114.509 11.8572C114.346 11.7015 114.265 11.5142 114.265 11.2955C114.265 11.0767 114.346 10.8894 114.509 10.7337C114.674 10.5779 114.871 10.5 115.1 10.5C115.329 10.5 115.524 10.5779 115.687 10.7337C115.853 10.8894 115.935 11.0767 115.935 11.2955C115.935 11.5142 115.853 11.7015 115.687 11.8572C115.524 12.013 115.329 12.0909 115.1 12.0909ZM118.999 10.8182V21H117.826V10.8182H118.999ZM126.557 15.0739L125.503 15.3722C125.437 15.1965 125.339 15.0258 125.21 14.8601C125.084 14.6911 124.912 14.5518 124.693 14.4425C124.474 14.3331 124.194 14.2784 123.853 14.2784C123.385 14.2784 122.996 14.3861 122.684 14.6016C122.376 14.8137 122.222 15.0838 122.222 15.4119C122.222 15.7036 122.328 15.9339 122.54 16.103C122.752 16.272 123.084 16.4129 123.534 16.5256L124.668 16.804C125.351 16.9697 125.859 17.2232 126.194 17.5646C126.529 17.9027 126.696 18.3385 126.696 18.8722C126.696 19.3097 126.57 19.7008 126.319 20.0455C126.07 20.3902 125.722 20.6619 125.275 20.8608C124.827 21.0597 124.307 21.1591 123.713 21.1591C122.935 21.1591 122.29 20.9901 121.779 20.652C121.269 20.3139 120.946 19.8201 120.81 19.1705L121.924 18.892C122.03 19.303 122.23 19.6113 122.525 19.8168C122.824 20.0223 123.213 20.125 123.694 20.125C124.24 20.125 124.675 20.009 124.996 19.777C125.321 19.5417 125.483 19.2599 125.483 18.9318C125.483 18.6667 125.391 18.4446 125.205 18.2656C125.019 18.0833 124.734 17.9474 124.35 17.858L123.077 17.5597C122.378 17.3939 121.864 17.1371 121.536 16.7891C121.211 16.4377 121.049 15.9986 121.049 15.4716C121.049 15.0407 121.17 14.6596 121.412 14.3281C121.657 13.9967 121.99 13.7365 122.411 13.5476C122.835 13.3587 123.316 13.2642 123.853 13.2642C124.608 13.2642 125.202 13.4299 125.632 13.7614C126.067 14.0928 126.375 14.5303 126.557 15.0739Z" fill="#8147E7"/>
<path d="M26.0002 9.75C21.8335 9.75 18.2752 12.3417 16.8335 16C18.2752 19.6583 21.8335 22.25 26.0002 22.25C30.1668 22.25 33.7252 19.6583 35.1668 16C33.7252 12.3417 30.1668 9.75 26.0002 9.75ZM26.0002 20.1667C23.7002 20.1667 21.8335 18.3 21.8335 16C21.8335 13.7 23.7002 11.8333 26.0002 11.8333C28.3002 11.8333 30.1668 13.7 30.1668 16C30.1668 18.3 28.3002 20.1667 26.0002 20.1667ZM26.0002 13.5C24.6168 13.5 23.5002 14.6167 23.5002 16C23.5002 17.3833 24.6168 18.5 26.0002 18.5C27.3835 18.5 28.5002 17.3833 28.5002 16C28.5002 14.6167 27.3835 13.5 26.0002 13.5Z" fill="#8147E7"/>
</svg>
